<svg xmlns="http://www.w3.org/2000/svg" xmlns:xlink="http://www.w3.org/1999/xlink" viewBox="0 0 750 500"><defs><style>.cls-1{fill:url(#linear-gradient);}</style><linearGradient id="linear-gradient" x1="373.89" y1="334.53" x2="377.79" y2="498.41" gradientUnits="userSpaceOnUse"><stop offset="0.01" stop-color="#9d2894"/><stop offset="0.53" stop-color="#cf79a5"/><stop offset="1" stop-color="#fcc0b5"/></linearGradient></defs><g id="OBJECTS"><path class="cls-1" d="M750,262.66,647.42,335.12s-16.9,3.92-22.11,5.22-24.71,16.91-24.71,16.91L577.19,352l-50.72,10.41-66.34,33.81-24.53-10.4-25.78,10.4L358.35,382H334.71l-24.2-15.61-7.84,6.5-26.24-2.6-23.09-2.6-5.21-14.31s-14.3,2.6-18.2,2.6-33-2.16-33-2.16L170.1,333.14l-16.91,2-42-16L70,320.83l-37.72-7.19L0,330V500H750Z"/></g></svg>