<svg xmlns="http://www.w3.org/2000/svg" viewBox="0 0 750 500"><defs><style>.cls-1{fill:#fff;}</style></defs><g id="OBJECTS"><path class="cls-1" d="M336.17,73.35a1.5,1.5,0,0,0,0,3A1.5,1.5,0,0,0,336.17,73.35Z"/><path class="cls-1" d="M506.87,123.1a1.5,1.5,0,0,0,0,3A1.5,1.5,0,0,0,506.87,123.1Z"/><path class="cls-1" d="M613.2,55.79a1.5,1.5,0,0,0,0,3A1.5,1.5,0,0,0,613.2,55.79Z"/><path class="cls-1" d="M153.75,61.65a1.5,1.5,0,0,0,0,3A1.5,1.5,0,0,0,153.75,61.65Z"/><path class="cls-1" d="M80.59,42.59a1.5,1.5,0,0,0,0,3A1.5,1.5,0,0,0,80.59,42.59Z"/><path class="cls-1" d="M79.14,113.8a1.5,1.5,0,0,0,0,3A1.5,1.5,0,0,0,79.14,113.8Z"/><path class="cls-1" d="M147.9,129.93a1.5,1.5,0,0,0,0,3A1.5,1.5,0,0,0,147.9,129.93Z"/><path class="cls-1" d="M246.42,115.3a1.5,1.5,0,0,0,0,3A1.5,1.5,0,0,0,246.42,115.3Z"/><path class="cls-1" d="M668.8,146.51a1.5,1.5,0,0,0,0,3A1.5,1.5,0,0,0,668.8,146.51Z"/><path class="cls-1" d="M697.09,47a1.5,1.5,0,0,0,0,3A1.5,1.5,0,0,0,697.09,47Z"/><path class="cls-1" d="M445.89,42.59a1.5,1.5,0,0,0,0,3A1.5,1.5,0,0,0,445.89,42.59Z"/><path class="cls-1" d="M248.37,44.09a1.5,1.5,0,0,0,0,3A1.5,1.5,0,0,0,248.37,44.09Z"/><path class="cls-1" d="M405.42,129.93a1.5,1.5,0,0,0,0,3A1.5,1.5,0,0,0,405.42,129.93Z"/></g></svg>