<svg xmlns="http://www.w3.org/2000/svg" viewBox="0 0 750 500"><defs><style>.cls-1{fill:#2a0560;}</style></defs><g id="OBJECTS"><path class="cls-1" d="M744.83,28.17l5.17-.26V0H0V34.84H6.75v6.89H13.8v6.75h6.65V41.93h6.94v6.49H41.11V35.09H54.75V41.6H68.5v6.61H89V35.06h13.65v6.55h6.67V28.11h-6.54V21.42h13.5V41.61H123V34.79h6.83V21.42h6.94V34.77h6.94v13.5h13.35c.12-2.25.22-4.32.34-6.38h6.85v6.36H171V41.73h6.67V48.2h13.88V41.92h13.7V55.17H212V41.67h6.7c.08-2.25.14-4.57.22-6.87H232.5v6.87h6.9V55.34H246V41.51h13.83V28.21h6.85v6.57h6.67V28H287V21.42h7v6.52h6.94v6.75h6.52c.11-2.25.22-4.3.33-6.4h6.81v13.5H321c.13,2.31.23,4.39.37,6.83h6.69v6.67H335V48.68h13.36c.1,2.25.2,4.31.3,6.42H376V34.78h6.67V28.25H396.4V41.61h34.25V35.12H444V48.34l-6.39.34v6.6H451v-27h7v13.5h6.65V55.1h7V48.42h6.63V35.12h7v6.33H499V35.12h27.44V48.29h6.75V41.61h6.67V34.7h-6.7V28.07H547V35h20.4v13.5H574V42H594.4v6.41h-6.58v7h20.36V34.92h6.75V28.3h7V41.61h7V35h6.75v6.58h6.69V28.29h13.83v20H663V35.13h13.37V48.35l-6.36.32V55h13.54V48.42h6.75V41.74l6.7-.12V34.68h7V28.21h6.84V35h6.82V48.34l6.84.36v6.58h6.67v-7h7v-6.4H750V34.64h-5.17Z"/></g></svg>