<svg xmlns="http://www.w3.org/2000/svg" xmlns:xlink="http://www.w3.org/1999/xlink" viewBox="0 0 700 779.13"><defs><style>.cls-1{fill:url(#linear-gradient);}</style><linearGradient id="linear-gradient" x1="611.68" y1="660.86" x2="79.24" y2="128.41" gradientUnits="userSpaceOnUse"><stop offset="0.39" stop-color="#992c8d"/><stop offset="0.44" stop-color="#a02d8c"/><stop offset="1" stop-color="#e63b86"/></linearGradient></defs><g id="Artwork"><path class="cls-1" d="M304.62,361.58h0a.08.08,0,0,1,0-.05.7.7,0,0,1,.71-.35.78.78,0,0,1,.7-.4h0a.6.6,0,0,1,.5-.31.25.25,0,0,0,.27-.11,4.17,4.17,0,0,1,.37-.26h0a.68.68,0,0,1,.73-.39h0a.77.77,0,0,0,.63-.32.17.17,0,0,0,.07-.08l0,0,.1-.07a.84.84,0,0,1,.31-.22h0c.11-.34.4-.4.72-.39a.73.73,0,0,1,.73-.4h0a.61.61,0,0,1,.38-.29.41.41,0,0,1,.16,0,.17.17,0,0,0,.22-.1,2.33,2.33,0,0,1,.38-.26h0c.12-.35.41-.4.74-.4a.68.68,0,0,1,.71-.39h0l.07-.09a.52.52,0,0,1,.36-.21l.1,0a4.45,4.45,0,0,0,1.5-.73q13.74-7.92,27.48-15.86c2.89-1.68,5.87-3.22,8.64-5.12h0l0,0a.77.77,0,0,1,.69-.35h0a.62.62,0,0,1,.52-.32.2.2,0,0,0,.24-.1l.37-.26a.71.71,0,0,1,.75-.42.75.75,0,0,1,.7-.39h0a1.14,1.14,0,0,1,.5-.31.24.24,0,0,0,.27-.12l.37-.26a.72.72,0,0,1,.73-.41.61.61,0,0,1,.39-.3h0l.14,0h.12l.08-.08a1.37,1.37,0,0,1,.48-.31.24.24,0,0,0,.28-.11l.36-.26a.73.73,0,0,1,.73-.41h0a.63.63,0,0,1,.53-.33.2.2,0,0,0,.24-.09,1.34,1.34,0,0,1,.45-.29,72.07,72.07,0,0,0,7.76-4.49h0a.75.75,0,0,1,.73-.4h0a.36.36,0,0,1,.07-.1l.08-.07a.58.58,0,0,1,.38-.15.19.19,0,0,0,.23-.1l.39-.28h0c.12-.35.4-.4.72-.4a.74.74,0,0,1,.72-.4h0c.14-.1.24-.25.42-.29h0c.12-.34.39-.4.72-.39a.73.73,0,0,1,.74-.4.76.76,0,0,1,.7-.39h0c.15-.09.25-.25.43-.3h0c.12-.35.41-.41.73-.4a.74.74,0,0,1,.72-.4.63.63,0,0,1,.38-.29l.18,0h.12l.09-.08a1.78,1.78,0,0,1,.38-.28h0a.66.66,0,0,1,.74-.4.71.71,0,0,1,.72-.39h0a.39.39,0,0,1,.08-.1l.07-.07a.56.56,0,0,1,.38-.15.19.19,0,0,0,.23-.1,2.6,2.6,0,0,1,.38-.27.69.69,0,0,1,.74-.41.77.77,0,0,1,.71-.4h0a.69.69,0,0,1,.51-.32h0a.19.19,0,0,0,.25-.1c.13-.08.24-.18.37-.26a.7.7,0,0,1,.74-.41.77.77,0,0,1,.71-.4h0c.15-.09.25-.24.41-.29h0c.11-.35.39-.41.71-.4a.74.74,0,0,1,.73-.39,1,1,0,0,1,.08-.11l0,0,0,0a.27.27,0,0,1,.1-.06.33.33,0,0,1,.19-.08h0l.1,0h.12l.09-.08a2.7,2.7,0,0,1,.4-.29h0c.13-.34.39-.39.71-.39a.71.71,0,0,1,.72-.39h0a.62.62,0,0,1,.52-.32.22.22,0,0,0,.25-.1,2.28,2.28,0,0,1,.39-.28h0l0-.32a.28.28,0,0,1,0-.09h.77a.75.75,0,0,1,.7-.4h0a1.45,1.45,0,0,1,.43-.3c.11-.36.4-.41.73-.4a.67.67,0,0,1,.72-.39.64.64,0,0,1,.38-.31l.17,0h.12l.09-.09a1.22,1.22,0,0,1,.47-.3,12.57,12.57,0,0,0,1.18-.54Q412.1,299.7,429,289.94c3.05-1.78,6.2-3.39,9.12-5.39h0a.7.7,0,0,1,.71-.37.63.63,0,0,0,.55-.33h.13l.08-.09a1.78,1.78,0,0,1,.36-.25h0c.13-.35.41-.4.73-.39a.74.74,0,0,1,.72-.4h0a.39.39,0,0,1,.08-.1.11.11,0,0,1,.07-.06.57.57,0,0,1,.38-.16,5.25,5.25,0,0,0,1.66-.82q23.1-13.32,46.19-26.68c2.84-1.65,5.77-3.15,8.48-5h0s0,0,0,0a.7.7,0,0,1,.71-.37.65.65,0,0,1,.38-.3l.18,0h.12l.08-.1c.13-.09.23-.23.39-.28h0c.12-.34.4-.4.73-.39a.74.74,0,0,1,.72-.4h0a.44.44,0,0,1,.08-.11l0,0s0,0,0,0a.57.57,0,0,1,.38-.16.18.18,0,0,0,.23-.09,1.74,1.74,0,0,1,.38-.27h0c.13-.35.42-.41.74-.41a.76.76,0,0,1,.71-.39h0a.61.61,0,0,1,.52-.31.2.2,0,0,0,.24-.1,4.44,4.44,0,0,1,.38-.27,0,0,0,0,1,0,0,.68.68,0,0,1,.73-.4.73.73,0,0,1,.71-.4l0,0a1.16,1.16,0,0,1,.5-.3c.39-.18.81-.33,1.18-.54q14.79-8.53,29.57-17.1c2.31-1.34,4.7-2.53,6.88-4.09a1,1,0,0,1,.12-.15.66.66,0,0,1,.43-.17.17.17,0,0,0,.22-.1,2.76,2.76,0,0,1,.39-.28h0c.13-.34.41-.39.73-.39a.74.74,0,0,1,.71-.4h0a.62.62,0,0,1,.52-.31.2.2,0,0,0,.24-.1,3.28,3.28,0,0,1,.38-.27.69.69,0,0,1,.74-.41.76.76,0,0,1,.71-.4h0c.15-.1.24-.25.42-.31h0c.12-.35.4-.4.72-.39a.7.7,0,0,1,.73-.39.58.58,0,0,1,.38-.31.86.86,0,0,1,.17,0h.13l.07-.09a1.22,1.22,0,0,1,.48-.3c.4-.18.8-.33,1.18-.54q14.5-8.39,29-16.8c3.26-1.9,6.62-3.66,9.75-5.78v0a.48.48,0,0,1,.21-.31.81.81,0,0,1,.52-.11.71.71,0,0,1,.73-.4.6.6,0,0,1,.37-.3.86.86,0,0,1,.17,0h.13l.09-.09a1.66,1.66,0,0,1,.34-.25l0,0h0s0,0,0,0a.83.83,0,0,0,.72-.4h0a.88.88,0,0,0,.71-.42h0a.66.66,0,0,1,.52-.31.19.19,0,0,0,.24-.11c.14-.08.26-.18.39-.27v0h0a.85.85,0,0,0,.72-.42.75.75,0,0,0,.64-.32l.07-.08,0,0a.38.38,0,0,0,.11-.08.75.75,0,0,1,.3-.2h0c.12-.35.4-.41.72-.4h0a0,0,0,0,1,0,0h0a.84.84,0,0,0,.72-.42h0a.44.44,0,0,1,.08-.11l0,0,0,0a.57.57,0,0,1,.38-.16,6.37,6.37,0,0,0,.85-.36l37.14-21.56c.24-.15.6-.24.54-.74-1.4-1-2.84-2.11-4.3-3.16a28.38,28.38,0,0,0-5.55-3.4c-.33,0-.64,0-.76-.4a.74.74,0,0,1-.31-.21l-.11-.08,0,0a47.68,47.68,0,0,0-1.45-.78v0h0a23,23,0,0,0-3.62-2.21c-3.13-1.77-6.14-3.72-9.37-5.29a15.13,15.13,0,0,0-3-1.84c-3.28-1.87-6.46-3.9-9.84-5.58a33.07,33.07,0,0,0-4.28-2.58c-3.54-2-7-4.21-10.65-6-.32,0-.62,0-.74-.39a0,0,0,0,1,0,0,1.6,1.6,0,0,1-.4-.28l-.32-.19c-4.17-2.58-8.41-5-12.75-7.34a32.89,32.89,0,0,0-5.21-3,25,25,0,0,0-4.51-2.61c-.31,0-.6,0-.73-.37v0s0,0,0,0a0,0,0,0,1,0,0h0c-2.16-1.53-4.53-2.72-6.82-4a52.14,52.14,0,0,0-5.47-3,8.7,8.7,0,0,0-2-1.31q-29.36-17-58.72-33.89Q424.53,40.93,359.17,3.05a21.65,21.65,0,0,0-6.72-2.7c0-.12,0-.23,0-.35h-3.74a1.45,1.45,0,0,1,0,.36,27.33,27.33,0,0,0-8.39,3.53q-17,9.87-34.1,19.75-63.12,36.48-126.28,73-69.46,40.08-139,80.11c-6.73,3.88-13.47,7.78-20.24,11.62-5.23,3-9,7-10,13.18-.55.35-.12,1.17-.71,1.5v9.35c.61.54.36,1.28.36,1.92,0,5.82,0,11.64,0,17.45,0,.65-.22,1.37.32,1.94,0,.75.07,1.49.07,2.24,0,18.19,0,36.38,0,54.58a93.35,93.35,0,0,0,1.34,14.66c.07.45,0,1,.49,1.38.29-.13.57-.25.84-.39,4.36-2.39,8.78-4.71,13.09-7.19Q88,263.51,149.46,228q48.21-27.82,96.41-55.69,47.31-27.36,94.57-54.78A28,28,0,0,1,346,115a14.29,14.29,0,0,1,6.81-.6,20,20,0,0,1,7.34,3.1c4.83,3.09,9.71,6.09,14.7,8.91,22.78,12.85,45.37,26,68,39.19.52.3,1.15.46,1.47,1-.15.41-.53.55-.84.74-3.67,2.23-7.31,4.5-11,6.65q-35.49,20.55-71,41-71.91,41.52-143.82,83.06-44.33,25.6-88.66,51.17L36.68,402.41c-5.39,3.11-10.81,6.18-16.15,9.38s-8.94,7.69-9.83,14c-.54.36-.14,1.17-.72,1.51v19.82a.44.44,0,0,1,.35,0h0v0H10V575.38c.73.6,0,1.66.73,2.26.81,6.44,4.37,10.93,10,14l.49.27q11.52,6.5,23,13c2.92,1.64,5.74,3.46,8.76,4.91h0a.7.7,0,0,1,.73.4l.37.26a.25.25,0,0,0,.27.12,1.49,1.49,0,0,1,.51.31h0a.76.76,0,0,1,.71.4.67.67,0,0,1,.74.43,98.91,98.91,0,0,0,9,5.21c4.4,2.76,8.87,5.37,13.46,7.82,4.65,2.89,9.37,5.64,14.21,8.18a6.13,6.13,0,0,0,.6.44q7.08,4,14.19,7.89c.26.14.51.37.87.16a6,6,0,0,0,.37-2.34c.19-2.49.33-5,.55-7.45a138.06,138.06,0,0,0,.25-15.49c.16-3.72.11-7.43,0-11.15a4.1,4.1,0,0,0,.19-2c0-7.1,0-14.2,0-21.3,0-22.43.07-44.86-.14-67.29,0-3.24,0-6.49-.07-9.72,0-6.42-.1-12.84-.05-19.25.05-6.81,2.73-12.32,8.45-16.19q1.94-1.31,4-2.47,34-19.56,68-39.12Q243.12,397.2,296,366.71C298.86,365,301.85,363.49,304.62,361.58Zm292-168.65ZM109.26,572.22c0-.16,0-.31,0-.47a1.12,1.12,0,0,1,.5-.11C109.59,571.82,109.42,572,109.26,572.22ZM689.87,263.55h-.16a1.78,1.78,0,0,1,0-2.61c0-.49-.09-1-.14-1.48a81.38,81.38,0,0,0-.75-8.7c-3.29,1.39-6.58,2.31-9.55,4-2.51,1.47-5.07,2.89-7.58,4.38-3.73,2.22-7.58,4.22-11.21,6.6a4.3,4.3,0,0,0-1.5.74q-17,9.78-34,19.59c-3.28,1.9-6.63,3.68-9.81,5.76-3.21,1.59-6.22,3.52-9.33,5.29a69.63,69.63,0,0,0-6.34,3.77.73.73,0,0,1-.74.42h0a.31.31,0,0,1-.07.09.52.52,0,0,1-.37.21h-.11a.15.15,0,0,0-.21.1,1.89,1.89,0,0,1-.38.27h0c-.12.35-.41.41-.73.4h0a.81.81,0,0,0-.7.4h0a.65.65,0,0,1-.53.32.18.18,0,0,0-.24.1l-.39.27h0a.68.68,0,0,1-.73.4.75.75,0,0,1-.71.39h0c-.14.1-.25.25-.42.29h0c-.12.36-.4.41-.73.4a.7.7,0,0,1-.72.4h0a.59.59,0,0,1-.38.3.86.86,0,0,1-.17,0c-.1,0-.17,0-.2.08a.46.46,0,0,1-.39.29,0,0,0,0,1,0,0c-.13.34-.41.4-.73.39a.73.73,0,0,1-.72.4h0a.61.61,0,0,1-.38.29.41.41,0,0,1-.16,0c-.11,0-.18,0-.21.1a.41.41,0,0,0-.42.26h0c-.12.35-.41.4-.73.4a.74.74,0,0,1-.72.4h0a.52.52,0,0,1-.43.3h0c-.1.34-.39.4-.71.39h0a.68.68,0,0,1-.72.4h0a.8.8,0,0,0-.71.4h0c-.14.11-.25.27-.43.31h0v0c-.39.18-.8.33-1.17.54q-19.58,11.3-39.13,22.62c-3.39,2-6.85,3.8-10.13,6-.56.28-1.12.53-1.65.84q-21.73,12.56-43.45,25.12c-3.54,2.06-7.16,4-10.58,6.25-.45.21-.91.39-1.34.64q-20,11.58-40,23.19c-3.44,2-6.94,3.86-10.25,6.07-.46.21-.91.39-1.34.63q-17.43,10.13-34.85,20.26c-3.65,2.13-7.39,4.11-10.9,6.46a6.37,6.37,0,0,0-.85.36L357.93,440.7a11,11,0,0,0-2.59,2.1,19.57,19.57,0,0,0-5.19,10.74,93.84,93.84,0,0,0-.31,12.66c-.11,6.17-.32,12.33-.32,18.48,0,20,0,40,.07,60a3.2,3.2,0,0,0,.18,1.65c-.14-.53-.32-1,.09-1.54l0,0s0,0,0,0c0,.51-.07,1-.11,1.53a9.79,9.79,0,0,0,.09,2.91,3,3,0,0,0,.3,2,62.93,62.93,0,0,0,1,6.59,4.75,4.75,0,0,0,2-1.1c.55-.27,1.13-.52,1.66-.83q16.18-9.32,32.36-18.67c3.28-1.9,6.63-3.68,9.81-5.77a3.9,3.9,0,0,1,.35-.19,1.7,1.7,0,0,1,.38-.26h0a.67.67,0,0,1,.74-.41h0a.85.85,0,0,0,.71-.4h0a.54.54,0,0,1,.42-.31h0c.11-.36.4-.41.72-.39h0a.67.67,0,0,1,.72-.4.73.73,0,0,1,.7-.4c.44-.21.9-.4,1.33-.64l41-23.66c.37-.22.71-.49,1.06-.74h0a.22.22,0,0,1,.07-.09.54.54,0,0,1,.36-.21l.11,0h.14l.07-.1a2.41,2.41,0,0,1,.39-.26h0l0,0v0a.84.84,0,0,0,.71-.41h0a.83.83,0,0,0,.72-.4h0a.53.53,0,0,1,.43-.3h0c.1-.35.38-.41.71-.39h0a.68.68,0,0,1,.73-.4.75.75,0,0,1,.7-.4h0c.14-.11.24-.25.42-.29h0c.11-.37.4-.41.73-.4a.68.68,0,0,1,.73-.4c.16-.2.44-.17.63-.32a.16.16,0,0,0,.07-.07l0,0a.44.44,0,0,0,.44-.26h0c.16-.29.5-.23.72-.39h0a.84.84,0,0,0,.71-.41c-.18.21-.54.14-.71.4h0a.72.72,0,0,1,.72-.4h0a.64.64,0,0,1,.38-.29,1,1,0,0,1,.18,0h.12l.09-.09c.13-.09.22-.24.39-.27h0c.12-.35.4-.41.73-.41a.72.72,0,0,1,.71-.39h0a.86.86,0,0,1,.07-.1.62.62,0,0,1,.46-.22h0a.16.16,0,0,0,.22-.1,2.7,2.7,0,0,1,.39-.27h0s0,0,0,0a0,0,0,0,1,0,0,.9.9,0,0,0,.72-.41h0a.74.74,0,0,1,.7-.41h0a.65.65,0,0,1,.51-.32.18.18,0,0,0,.25-.11l.38-.25a.69.69,0,0,1,.74-.41.72.72,0,0,1,.7-.4c.49-.24,1-.47,1.49-.74q14-8.08,28.07-16.2a8.58,8.58,0,0,0,2-1.28.19.19,0,0,0,.23-.13.5.5,0,0,1,.41-.29h0c.12-.34.4-.39.72-.39a.7.7,0,0,1,.72-.39h0l.08-.1,0,0a.05.05,0,0,1,0,0,.5.5,0,0,1,.29-.14h.1a.16.16,0,0,0,.22-.1,2.09,2.09,0,0,1,.39-.27c.12-.36.4-.42.74-.42a.74.74,0,0,1,.71-.4h0a.55.55,0,0,1,.44-.3c.1-.36.39-.42.72-.4a.68.68,0,0,1,.73-.39.71.71,0,0,1,.71-.4l0,0c.15-.09.24-.25.42-.29h0c.11-.36.4-.42.72-.4a.72.72,0,0,1,.73-.4l.06-.08a.61.61,0,0,1,.49-.25,5.48,5.48,0,0,0,1.66-.82q22.44-12.93,44.88-25.88a31.46,31.46,0,0,0,4.12-2.51h0a.56.56,0,0,1,.43-.3l.11,0h.13l.08-.1.1-.07a.78.78,0,0,1,.3-.21h0c.12-.35.4-.41.72-.4a.72.72,0,0,1,.72-.4h0a.45.45,0,0,1,.37-.28l.07,0h0c.09-.36.37-.41.7-.4h0a.67.67,0,0,1,.72-.39h0a.72.72,0,0,1,.7-.4h0a.51.51,0,0,1,.44-.29h0c.1-.36.38-.41.71-.39a.67.67,0,0,1,.72-.4.75.75,0,0,1,.71-.4h0c.14-.09.24-.25.42-.29.13-.37.42-.42.76-.41a4.84,4.84,0,0,0,1.65-.83l23.73-13.66c.5-.29.95-.82,1.85-.62v4.25c-.24,4.24-.22,8.47-.05,12.71a26.83,26.83,0,0,0,0,5.45c0,2.3.08,4.59.11,6.89v.12c-.16-.11-.26-.35-.26-.77.07-1.63-.07-3.27,0-4.89-.19,2.41-.06,4.82-.07,7.22,0,15.94,0,31.88,0,47.82a2.91,2.91,0,0,0,.17,1.46,11.67,11.67,0,0,1-.14-2.64,1,1,0,0,1,.27-.7,2.88,2.88,0,0,1,.3-.31,2.23,2.23,0,0,1-.3.54c0,1-.08,2.08-.13,3.11q0,9.13.07,18.25h0c0,.28,0,.56,0,.83a4.94,4.94,0,0,0,.1.83s0,.07-.07.11,0,0,0,0c-.11.56-.25,1.09-.33,1.65a15.6,15.6,0,0,1-5.24,9.6,30.56,30.56,0,0,1-5.33,3.74c-3.44,2-6.9,3.93-10.33,5.93-2.78,1.63-5.66,3.09-8.33,4.89a5.18,5.18,0,0,0-1.66.83q-23.22,13.34-46.42,26.7a18,18,0,0,0-3.16,1.94.84.84,0,0,0-.74.42.74.74,0,0,1-.72.4h0a.55.55,0,0,1-.43.29c-.11.37-.4.43-.73.4h0a.78.78,0,0,0-.71.41h0a.75.75,0,0,1-.7.4h0c-.14.11-.24.25-.42.29-.11.37-.4.42-.73.41a.7.7,0,0,1-.72.4.66.66,0,0,1-.4.3.86.86,0,0,1-.17,0l-.12,0-.07.11a.49.49,0,0,1-.4.28h0c-.11.36-.4.41-.72.4a.74.74,0,0,1-.72.4h0a.53.53,0,0,1-.37.29h-.07c-.1.37-.39.42-.71.4-.13.35-.42.41-.74.4a.72.72,0,0,1-.71.4h0a.53.53,0,0,1-.43.3c-.11.36-.4.42-.72.4h0a.68.68,0,0,1-.73.4.74.74,0,0,1-.7.4h0c-.14.11-.24.25-.43.29h0c-.11.37-.39.42-.72.41h0a.67.67,0,0,1-.72.39h0a.61.61,0,0,0-.56.34l-.12,0-.07.1a.49.49,0,0,1-.4.29h0c-.11.35-.4.41-.72.39a.73.73,0,0,1-.73.41.6.6,0,0,1-.39.29.43.43,0,0,1-.17,0c-.1,0-.16,0-.2.09s-.23.23-.4.28h0s0,0,0,0a4,4,0,0,0-1.47.73q-8.67,5-17.31,10a13.38,13.38,0,0,0-2.52,1.56c-.6.31-1.22.59-1.81.93q-12.08,7-24.12,14a30.21,30.21,0,0,0-4,2.41,82.53,82.53,0,0,0-8.25,4.77c-.1.39-.4.46-.74.45a.7.7,0,0,1-.72.4.77.77,0,0,1-.71.4l0,0a.43.43,0,0,0-.44.25h0c-.12.35-.4.42-.73.41a.74.74,0,0,1-.72.4h0a.53.53,0,0,1-.13.16.39.39,0,0,1-.24.12h-.1v0a.86.86,0,0,0-.71.41h0c-.13.34-.4.4-.73.4a.74.74,0,0,1-.71.4h0a.45.45,0,0,0-.45.26h0c-.1.36-.39.42-.72.41h0a.72.72,0,0,1-.72.4.66.66,0,0,1-.39.29.51.51,0,0,1-.17,0,.14.14,0,0,0-.2.1c-.13.09-.23.24-.4.27h0a0,0,0,0,1,0,0,.86.86,0,0,0-.71.42h0a.73.73,0,0,1-.71.4h0a.61.61,0,0,1-.12.15l-.08.06a.31.31,0,0,1-.16.06.08.08,0,0,1-.07,0h0c-.1.37-.38.42-.71.41h0s0,0,0,0c-3.23,1.57-6.24,3.49-9.33,5.29-4.38,2.55-8.84,5-13.11,7.71-.5.25-1,.48-1.49.75-7.2,4.19-14.38,8.43-21.62,12.55-6.2,3.53-12.15,7.54-18.72,10.41-2,.31-3.95.87-6,.53a21.94,21.94,0,0,1-7.08-2.6,29.19,29.19,0,0,0-3.71-2.06.79.79,0,0,0-.7-.4h0c-.33,0-.61-.05-.72-.41-.19,0-.28-.2-.42-.28l0,0a.79.79,0,0,0-.7-.41h0q-6.23-4-12.73-7.45a2.86,2.86,0,0,0-.41-.37c-4.19-2.37-8.24-5-12.53-7.17a35.59,35.59,0,0,0-4.58-2.78c-4-2.29-7.92-4.76-12-6.87a11.44,11.44,0,0,0-2.35-1.47c-3.56-2-7-4.21-10.66-6a.91.91,0,0,0-.74-.43,0,0,0,0,1,0,0s0,0,0,0h0a2.4,2.4,0,0,1-.38-.27.16.16,0,0,0-.22-.1.58.58,0,0,1-.53-.32h0a.73.73,0,0,1-.73-.39h0a3,3,0,0,0-.38-.35c-4.62-2.6-9.12-5.41-13.83-7.85q-5.43-3.43-11.13-6.39a24.86,24.86,0,0,0-3.79-2.3c-2.85-1.61-5.6-3.38-8.56-4.8a51,51,0,0,0-5.54-3.31c-2.89-1.66-5.71-3.45-8.71-4.89a3.51,3.51,0,0,0-.41-.37c-6.4-3.83-13-7.25-19.63-10.73a1,1,0,0,0-.88-.19,3,3,0,0,0-.14,1.46q0,14.46,0,28.92c0,.37,0,.74.07,1.11s-.07.87-.07,1.31q0,19.15,0,38.31c0,.38,0,.75.07,1.12a3.21,3.21,0,0,0,0,1.51c0,3.18-.13,6.35-.1,9.52,0,2.55-.24,5.1,0,7.66a1.67,1.67,0,0,0-.17.52c0,4-.19,7.95,0,11.92a14.37,14.37,0,0,0,2.47,8.25,13.1,13.1,0,0,0,4.28,4.8,75.77,75.77,0,0,0,10.72,6.32c3.74,2.41,7.7,4.46,11.56,6.7a37.13,37.13,0,0,0,4.88,2.66,39.26,39.26,0,0,0,4.63,2.76c2.8,1.58,5.52,3.33,8.45,4.72a34.72,34.72,0,0,0,4.47,2.67c2.86,1.63,5.64,3.41,8.61,4.84a67.28,67.28,0,0,0,6.17,3.67c3.16,1.81,6.23,3.75,9.48,5.38,4,2.43,7.93,4.79,12,7h0a.72.72,0,0,1,.72.4c.32,0,.61,0,.72.4h0c.18,0,.27.19.42.28l0,0a.74.74,0,0,1,.71.4,13.94,13.94,0,0,0,3.34,1.94,41.6,41.6,0,0,0,5.63,3.29.84.84,0,0,0,.72.42s0,0,0,0h0c.33,0,.62,0,.72.4h0s0,0,0,0h0a.43.43,0,0,0,.45.27h0a.73.73,0,0,1,.72.39c.32,0,.6.06.72.4h0a.46.46,0,0,1,.41.29l.07.09h.12a1,1,0,0,1,.18,0,.62.62,0,0,1,.39.31.68.68,0,0,1,.73.43,11.85,11.85,0,0,0,3,1.77,34,34,0,0,0,5.22,3,30.56,30.56,0,0,0,5.18,3h0c.2,0,.3.2.45.3h0a.75.75,0,0,1,.7.4h0c.32,0,.6.06.72.41h0a2.09,2.09,0,0,1,.39.27c3.79,2.4,7.64,4.7,11.59,6.81a36.09,36.09,0,0,0,10.47,5.24l.74,0c.54,0,1.1-.15,1.51.35h3c.42-.5,1-.38,1.52-.35h.74a20.33,20.33,0,0,0,5.35-2.2.18.18,0,0,0,.25-.11,1,1,0,0,1,.08-.11l.05,0a.3.3,0,0,1,.16-.08l.06,0H360c.11-.37.4-.43.73-.39.12-.36.4-.42.73-.41a.75.75,0,0,1,.71-.4h0a.15.15,0,0,1,.06-.09.41.41,0,0,1,.3-.19h.08c.09-.36.38-.42.71-.4a.67.67,0,0,1,.72-.4.75.75,0,0,1,.71-.4l0,0c.14-.08.24-.25.42-.28h0c.11-.36.4-.42.72-.41a.72.72,0,0,1,.72-.4h0a.53.53,0,0,1,.38-.29h.07c.1-.37.39-.43.71-.4.12-.35.42-.41.74-.4a.69.69,0,0,1,.69-.4c.39-.19.79-.34,1.16-.56l36.37-21.1a2.57,2.57,0,0,0,1-.72h0s0,0,0,0a.71.71,0,0,1,.71-.39h0a.51.51,0,0,1,.31-.27H409c.1-.37.38-.42.71-.4h0c.12-.35.4-.4.72-.4a.73.73,0,0,1,.71-.4h0a.53.53,0,0,1,.43-.29c.11-.36.39-.42.72-.41h0a.68.68,0,0,1,.72-.4.61.61,0,0,1,.39-.3.5.5,0,0,1,.17,0h.12l.07-.1a.47.47,0,0,1,.41-.28h0c.11-.36.41-.41.73-.4a.7.7,0,0,1,.72-.4h0a.54.54,0,0,1,.38-.28h.1l0,0a.86.86,0,0,0,.71-.43h0c.12-.34.4-.41.72-.41h0a.71.71,0,0,1,.7-.39l0,0a.6.6,0,0,1,.43-.29h0c.12-.36.4-.42.73-.4h0a.84.84,0,0,0,.72-.41.61.61,0,0,1,.39-.3.52.52,0,0,1,.18,0h.12l.07-.1a.43.43,0,0,1,.4-.28h0c.11-.35.39-.4.72-.4a.68.68,0,0,1,.71-.39h0a.66.66,0,0,1,.53-.32,4.32,4.32,0,0,0,1.49-.73q13.45-7.8,26.92-15.6a30.09,30.09,0,0,0,4-2.41h0a.35.35,0,0,1,.07-.09l.08-.08a.46.46,0,0,1,.29-.13l.11,0h.13l.08-.11.1-.07a.77.77,0,0,1,.3-.19h0c.12-.35.4-.41.72-.4a.71.71,0,0,1,.71-.4h0a.47.47,0,0,1,.06-.09.43.43,0,0,1,.29-.18l.08,0c.11-.36.39-.43.72-.4a.69.69,0,0,1,.73-.41.73.73,0,0,1,.71-.39l0,0c.15-.09.24-.25.43-.29h0c.11-.36.39-.41.72-.4a.72.72,0,0,1,.73-.4.31.31,0,0,1,.07-.09.52.52,0,0,1,.35-.21l.12,0h.13l.08-.1a.47.47,0,0,1,.41-.28h0c.12-.34.41-.4.74-.4.39-.18.79-.34,1.17-.55l56.38-32.6a3.31,3.31,0,0,0,1.22-.83,7,7,0,0,0,2-1q47.25-27.23,94.48-54.44,29-16.73,58.1-33.42a30.52,30.52,0,0,0,7.18-5.33A15.88,15.88,0,0,0,689.7,578a2.7,2.7,0,0,1,0-.28,1.44,1.44,0,0,1,.29-1.15l.07-.08V436.68c-.07.09-.13.13-.19.11s-.08-.06-.12-.15h.12a.63.63,0,0,1,.19,0V336.86h-.31l0,0h0a.45.45,0,0,1,.31.05V263.58Zm-340,235.87v.07l0,0S349.82,499.42,349.83,499.42Zm0,24.37-.08-.11.08-.12ZM591.5,465.73v.21a3.43,3.43,0,0,1-.49-.09A3.89,3.89,0,0,0,591.5,465.73Zm0,15.68a1.54,1.54,0,0,1-.49.13,7.11,7.11,0,0,1,.49-.6Zm97.61,4.17a1.92,1.92,0,0,1,.5.08,1.18,1.18,0,0,0-.5.11Zm0-19.88c0-.17,0-.33,0-.49a1.53,1.53,0,0,1,.5-.12h0C689.44,465.31,689.27,465.5,689.09,465.7Zm.51-20.64-.31.35a2.49,2.49,0,0,1,.31-.51Zm-.13-26.12a.25.25,0,0,1,.12.07v.1A.66.66,0,0,1,689.47,418.94Zm.12-67.13-.5.42c0-.12,0-.24,0-.35v-.06A1.59,1.59,0,0,1,689.59,351.81Zm-.49-11.64c0-.14,0-.28,0-.42v0a2.65,2.65,0,0,1,.48-.23A4,4,0,0,1,689.1,340.17Zm0,28.21a1.31,1.31,0,0,1,.49-.12l-.5.51C689.09,368.64,689.09,368.51,689.1,368.38Zm0-89.36a1.3,1.3,0,0,1,.49-.11c-.16.21-.32.4-.5.6C689.09,279.34,689.1,279.19,689.1,279Zm0,25.8a1.85,1.85,0,0,1,.49-.12,7.22,7.22,0,0,1-.5.6C689.09,305.14,689.1,305,689.1,304.82Zm0,21.84a4.06,4.06,0,0,1,.51-.26,4.4,4.4,0,0,1-.51.74C689.07,327,689.08,326.82,689.08,326.66Zm0,57.57V384a2.2,2.2,0,0,1,.51,0v15.33a3.06,3.06,0,0,0-.51.26v-.29C689,394.27,689,389.25,689.08,384.23Zm.55,129.47v0l0,0h0a3.17,3.17,0,0,1-.58-2.47q0-9.89,0-19.78a3.15,3.15,0,0,1,.59-2.41h0Q689.65,501.38,689.63,513.7Z"/></g></svg>