<svg xmlns="http://www.w3.org/2000/svg" viewBox="0 0 2026.8 350"><defs><style>.cls-1{fill:#fff;}</style></defs><g id="Artwork"><path class="cls-1" d="M143.52,164.44h0a0,0,0,0,1,0,0,.27.27,0,0,1,.27-.13.28.28,0,0,1,.27-.15h0a.24.24,0,0,1,.2-.12.1.1,0,0,0,.1,0,.71.71,0,0,1,.14-.1h0a.25.25,0,0,1,.27-.15h0a.26.26,0,0,0,.23-.12s0,0,0,0h0l0,0s.07-.07.12-.08h0c0-.13.15-.15.27-.14a.28.28,0,0,1,.28-.15h0a.19.19,0,0,1,.14-.11l.06,0a.07.07,0,0,0,.09,0,.45.45,0,0,1,.14-.1h0c.05-.13.16-.15.28-.15a.29.29,0,0,1,.27-.15h0s0,0,0,0a.25.25,0,0,1,.14-.08h0a1.73,1.73,0,0,0,.56-.28q5.19-3,10.37-6c1.09-.64,2.22-1.22,3.26-1.93h0a.32.32,0,0,1,.27-.14h0a.27.27,0,0,1,.2-.12.07.07,0,0,0,.09,0l.14-.1a.27.27,0,0,1,.28-.15.29.29,0,0,1,.27-.15h0a.37.37,0,0,1,.19-.11.11.11,0,0,0,.1-.05l.14-.1a.27.27,0,0,1,.28-.15.19.19,0,0,1,.14-.11h.11l0,0a.67.67,0,0,1,.18-.11.1.1,0,0,0,.11-.05l.13-.09a.3.3,0,0,1,.28-.16h0a.28.28,0,0,1,.2-.12.07.07,0,0,0,.09,0,.5.5,0,0,1,.17-.11,26.53,26.53,0,0,0,2.93-1.69h0a.25.25,0,0,1,.27-.15h0l0,0,0,0a.25.25,0,0,1,.14-.06.08.08,0,0,0,.09,0l.15-.11h0c0-.13.15-.15.27-.15a.29.29,0,0,1,.27-.15h0c.05,0,.09-.1.15-.11h0c0-.13.15-.15.27-.15s.16-.14.28-.15a.28.28,0,0,1,.26-.15h0c.06,0,.09-.09.16-.11h0c0-.13.15-.15.27-.15a.29.29,0,0,1,.27-.15.33.33,0,0,1,.15-.11h.11l0,0,.14-.11h0c0-.13.15-.15.27-.15a.29.29,0,0,1,.28-.15h0l0,0,0,0a.2.2,0,0,1,.14,0,.08.08,0,0,0,.09,0,.71.71,0,0,1,.14-.1.26.26,0,0,1,.28-.16.28.28,0,0,1,.27-.15h0a.25.25,0,0,1,.19-.12h0a.09.09,0,0,0,.1,0l.14-.1c0-.13.16-.15.28-.15s.15-.14.26-.15h0c.06,0,.1-.09.16-.11h0a.24.24,0,0,1,.28-.15.26.26,0,0,1,.27-.15l0,0a0,0,0,0,1,0,0h0l0,0s0,0,.08,0h.08l0,0a.58.58,0,0,1,.15-.11h0c0-.13.14-.15.26-.15a.31.31,0,0,1,.27-.15h0a.23.23,0,0,1,.2-.12.07.07,0,0,0,.09,0,.71.71,0,0,1,.14-.1h0v-.13a0,0,0,0,1,0,0h.29a.25.25,0,0,1,.27-.15h0a.62.62,0,0,1,.17-.11c0-.14.15-.16.27-.15a.25.25,0,0,1,.27-.15.29.29,0,0,1,.15-.12h.11l0,0a.54.54,0,0,1,.18-.11,3.55,3.55,0,0,0,.44-.21q6.38-3.66,12.73-7.35c1.16-.67,2.34-1.28,3.45-2h0a.26.26,0,0,1,.27-.14.27.27,0,0,0,.21-.13h0l0,0,.14-.1h0c0-.13.15-.15.27-.15s.16-.14.27-.15h0s0,0,0,0l0,0a.2.2,0,0,1,.15-.06,2.12,2.12,0,0,0,.62-.31q8.73-5,17.44-10.07c1.07-.62,2.17-1.19,3.2-1.9h0s0,0,0,0,.15-.13.27-.13A.21.21,0,0,1,217,122h.11l0,0a.53.53,0,0,1,.15-.11h0c.05-.13.15-.15.28-.15s.16-.14.27-.15h0l0,0h0s0,0,0,0a.24.24,0,0,1,.14,0,.07.07,0,0,0,.09,0,.71.71,0,0,1,.14-.1h0c0-.13.15-.15.28-.15a.28.28,0,0,1,.26-.15h0a.25.25,0,0,1,.2-.12.07.07,0,0,0,.09,0l.14-.1h0c.05-.13.16-.15.28-.15s.15-.14.27-.15h0a.37.37,0,0,1,.19-.11c.14-.07.3-.13.44-.21l11.16-6.45c.87-.51,1.78-1,2.6-1.54a.15.15,0,0,1,0-.06.33.33,0,0,1,.17-.07.07.07,0,0,0,.08,0,.83.83,0,0,1,.15-.11h0c.05-.13.15-.15.27-.15s.16-.14.27-.15h0a.21.21,0,0,1,.2-.12.08.08,0,0,0,.09,0,.71.71,0,0,1,.14-.1.26.26,0,0,1,.28-.16.28.28,0,0,1,.26-.15h0c.06,0,.09-.1.16-.12h0c0-.13.15-.15.27-.14a.25.25,0,0,1,.27-.15.25.25,0,0,1,.15-.12h.11l0,0a.42.42,0,0,1,.18-.11c.15-.07.3-.13.44-.21l11-6.34c1.23-.72,2.5-1.38,3.68-2.18h0a.2.2,0,0,1,.08-.12.38.38,0,0,1,.19,0,.28.28,0,0,1,.28-.15.19.19,0,0,1,.14-.11h.11l0,0,.13-.09h0a.33.33,0,0,0,.27-.15h0a.3.3,0,0,0,.27-.16h0a.28.28,0,0,1,.2-.12.07.07,0,0,0,.09,0l.15-.1h0a.29.29,0,0,0,.27-.15.28.28,0,0,0,.24-.12l0,0h0l0,0a.5.5,0,0,1,.12-.08h0c.05-.13.15-.15.27-.15h0a.28.28,0,0,0,.27-.15h0l0,0h0s0,0,0,0a.34.34,0,0,1,.15-.06,1.79,1.79,0,0,0,.32-.13l14-8.14c.09-.06.22-.09.2-.28-.53-.39-1.07-.8-1.62-1.19a10.72,10.72,0,0,0-2.1-1.28c-.12,0-.24,0-.28-.16a.2.2,0,0,1-.12-.08l0,0h0a20.49,20.49,0,0,0-.55-.3h0a7.93,7.93,0,0,0-1.37-.83c-1.18-.67-2.31-1.41-3.53-2a5.27,5.27,0,0,0-1.13-.69c-1.24-.71-2.44-1.48-3.71-2.11a12.62,12.62,0,0,0-1.62-1c-1.34-.76-2.64-1.59-4-2.28-.12,0-.23,0-.28-.15h0a.53.53,0,0,1-.15-.11l-.12-.07c-1.58-1-3.18-1.9-4.82-2.77a11.59,11.59,0,0,0-2-1.13,9.61,9.61,0,0,0-1.7-1c-.12,0-.23,0-.28-.15h0c-.82-.58-1.71-1-2.57-1.53A19.07,19.07,0,0,0,236.38,71a3.4,3.4,0,0,0-.76-.49q-11.09-6.41-22.17-12.8L164.11,29.12a7.88,7.88,0,0,0-2.54-1c0-.05,0-.09,0-.13h-1.41v.13A10.42,10.42,0,0,0,157,29.43l-12.87,7.46L96.45,64.42Q70.23,79.56,44,94.66q-3.82,2.2-7.64,4.39a6.79,6.79,0,0,0-3.78,5c-.21.13,0,.44-.27.57v3.53c.23.2.14.48.14.72,0,2.2,0,4.39,0,6.59,0,.24-.09.51.12.73,0,.28,0,.56,0,.85,0,6.86,0,13.73,0,20.6a35.32,35.32,0,0,0,.51,5.53c0,.17,0,.38.18.52l.32-.15c1.64-.9,3.31-1.78,4.94-2.71L85,114q18.2-10.5,36.38-21Q139.2,82.68,157,72.33a10.25,10.25,0,0,1,2.1-1,5.22,5.22,0,0,1,2.57-.23,7.6,7.6,0,0,1,2.78,1.17c1.82,1.17,3.66,2.3,5.54,3.36,8.6,4.85,17.13,9.83,25.66,14.79.19.12.43.18.55.39-.06.16-.2.21-.31.28-1.39.84-2.77,1.7-4.17,2.51L165,109.12l-54.28,31.35L77.21,159.78,42.39,179.85c-2,1.17-4.08,2.33-6.1,3.54a7.17,7.17,0,0,0-3.71,5.29c-.2.14,0,.44-.27.57v7.48a.23.23,0,0,1,.14,0h0v0h-.14v48.4c.28.23,0,.63.28.85a6.72,6.72,0,0,0,3.76,5.27l.19.1c2.9,1.64,5.79,3.28,8.7,4.91,1.1.62,2.16,1.3,3.3,1.85h0c.12,0,.23,0,.28.16l.14.09a.09.09,0,0,0,.1.05.47.47,0,0,1,.19.12h0a.31.31,0,0,1,.27.15.26.26,0,0,1,.28.16,35.63,35.63,0,0,0,3.39,2c1.65,1,3.35,2,5.08,2.95,1.75,1.09,3.53,2.13,5.36,3.09.07,0,.14.12.22.17l5.36,3c.1.06.2.14.33.06a2.17,2.17,0,0,0,.14-.88c.07-.94.12-1.88.2-2.81a49.66,49.66,0,0,0,.1-5.85c.06-1.4,0-2.8,0-4.21a1.51,1.51,0,0,0,.07-.76q0-4,0-8c0-8.47,0-16.93,0-25.4,0-1.22,0-2.44,0-3.66,0-2.43,0-4.85,0-7.27a7,7,0,0,1,3.2-6.11c.48-.33,1-.64,1.49-.93q12.84-7.38,25.67-14.77,20-11.48,39.9-23C141.34,165.74,142.47,165.16,143.52,164.44Zm110.19-63.66ZM69.78,243.94c0-.06,0-.12,0-.18a.48.48,0,0,1,.18,0Zm219.14-116.5h-.06a.69.69,0,0,1,0-1c0-.18,0-.37-.05-.56a29,29,0,0,0-.28-3.28,30.06,30.06,0,0,0-3.61,1.52c-.95.56-1.91,1.09-2.86,1.66-1.41.83-2.86,1.59-4.23,2.49a1.6,1.6,0,0,0-.57.28q-6.4,3.69-12.81,7.39c-1.24.72-2.51,1.39-3.71,2.17-1.21.6-2.35,1.33-3.52,2a27.33,27.33,0,0,0-2.39,1.42.26.26,0,0,1-.28.16h0s0,0,0,0a.28.28,0,0,1-.15.08h0s-.06,0-.08,0a.71.71,0,0,1-.14.1h0c-.05.14-.16.16-.28.16h0a.29.29,0,0,0-.26.15h0a.23.23,0,0,1-.2.12s-.07,0-.08,0l-.15.1h0c0,.13-.16.15-.28.15a.25.25,0,0,1-.27.15h0a.57.57,0,0,1-.16.11h0a.24.24,0,0,1-.28.15.25.25,0,0,1-.27.15h0a.23.23,0,0,1-.15.11l-.06,0s-.06,0-.08,0a.17.17,0,0,1-.15.11h0c-.05.13-.15.15-.27.15a.3.3,0,0,1-.28.15h0a.22.22,0,0,1-.14.11h-.06s-.07,0-.08,0a.15.15,0,0,0-.16.1h0c0,.13-.16.15-.28.15a.25.25,0,0,1-.27.15h0a.23.23,0,0,1-.17.11h0a.23.23,0,0,1-.27.15h0a.25.25,0,0,1-.27.15h0a.29.29,0,0,0-.27.15h0a.41.41,0,0,1-.17.12h0c-.15.07-.31.12-.45.2l-14.77,8.54c-1.28.74-2.58,1.43-3.82,2.25-.21.1-.42.2-.62.31q-8.21,4.74-16.4,9.49c-1.34.77-2.7,1.5-4,2.35-.16.08-.34.15-.5.25q-7.55,4.37-15.1,8.75c-1.29.75-2.62,1.45-3.87,2.29-.17.08-.34.15-.5.24l-13.16,7.64c-1.37.81-2.78,1.55-4.11,2.44a3.09,3.09,0,0,0-.32.14l-7.48,4.35a4.15,4.15,0,0,0-1,.79,7.46,7.46,0,0,0-2,4.06,34.62,34.62,0,0,0-.11,4.78c-.05,2.32-.12,4.65-.13,7q0,11.32,0,22.64a1.21,1.21,0,0,0,.07.62.57.57,0,0,1,0-.58v0c0,.19,0,.38,0,.58a3.69,3.69,0,0,0,0,1.1,1.19,1.19,0,0,0,.11.74,24.87,24.87,0,0,0,.38,2.48,1.76,1.76,0,0,0,.75-.41c.21-.1.42-.2.62-.31l12.22-7c1.24-.72,2.5-1.39,3.7-2.18l.13-.07a.71.71,0,0,1,.14-.1h0c0-.14.16-.16.28-.16h0a.32.32,0,0,0,.27-.16h0a.2.2,0,0,1,.16-.11h0c0-.14.15-.16.28-.15h0c.05-.13.15-.15.27-.15a.28.28,0,0,1,.26-.15l.51-.25,15.47-8.92c.15-.09.27-.19.4-.28h0l0,0a.29.29,0,0,1,.14-.08h.09l0,0a.65.65,0,0,1,.15-.1h0a.32.32,0,0,0,.27-.16h0a.29.29,0,0,0,.27-.15h0a.18.18,0,0,1,.16-.11h0c0-.13.14-.15.27-.15h0a.27.27,0,0,1,.28-.15.28.28,0,0,1,.26-.15h0a.46.46,0,0,1,.16-.11h0c0-.14.15-.16.28-.15a.25.25,0,0,1,.27-.15c.06-.08.17-.07.24-.12l0,0h0a.16.16,0,0,0,.16-.1h0c.06-.1.19-.08.27-.14h0a.32.32,0,0,0,.27-.16c-.07.08-.2.06-.27.15h0c.05-.12.16-.14.27-.15h0a.27.27,0,0,1,.15-.11h.11l0,0c.05,0,.09-.09.15-.1h0c0-.13.15-.16.27-.16a.28.28,0,0,1,.27-.15h0l0,0a.26.26,0,0,1,.17-.09h0a.07.07,0,0,0,.09,0,.71.71,0,0,1,.14-.1h0a.34.34,0,0,0,.27-.16h0a.31.31,0,0,1,.27-.15h0a.21.21,0,0,1,.19-.11.09.09,0,0,0,.1,0,.71.71,0,0,1,.14-.1.26.26,0,0,1,.28-.16.28.28,0,0,1,.26-.15,5.85,5.85,0,0,0,.56-.28q5.31-3,10.6-6.11a3.14,3.14,0,0,0,.77-.49.07.07,0,0,0,.09,0,.16.16,0,0,1,.15-.11h0c0-.13.15-.15.27-.15s.16-.14.27-.15h0l0,0h0s0,0,0,0l.11,0h0s.07,0,.08,0l.15-.1a.26.26,0,0,1,.28-.16.28.28,0,0,1,.27-.15h0a.18.18,0,0,1,.17-.11c0-.14.14-.16.27-.15s.15-.15.27-.15a.27.27,0,0,1,.27-.15h0c.06,0,.09-.09.16-.11h0c0-.14.15-.16.28-.15a.25.25,0,0,1,.27-.15l0,0a.23.23,0,0,1,.19-.09,2,2,0,0,0,.62-.32q8.47-4.87,16.94-9.76a13,13,0,0,0,1.56-.95h0a.24.24,0,0,1,.16-.12h.1l0,0,0,0a.5.5,0,0,1,.12-.08h0c0-.13.15-.15.27-.15a.28.28,0,0,1,.27-.15h0a.14.14,0,0,1,.14-.1s0,0,0,0h0c0-.14.14-.16.26-.15h0c.05-.13.16-.15.28-.15h0a.25.25,0,0,1,.26-.15h0a.23.23,0,0,1,.17-.11h0c0-.14.14-.16.27-.15a.25.25,0,0,1,.27-.15.28.28,0,0,1,.27-.15h0s.09-.1.16-.11.16-.16.29-.16a1.65,1.65,0,0,0,.62-.31l8.95-5.16c.19-.11.36-.31.7-.23v1.6c-.09,1.6-.08,3.2,0,4.8a10.91,10.91,0,0,0,0,2.06c0,.86,0,1.73,0,2.6v0c-.06,0-.09-.13-.09-.29,0-.61,0-1.23,0-1.84-.07.91,0,1.82,0,2.72,0,6,0,12,0,18a1,1,0,0,0,.06.55,4.11,4.11,0,0,1,0-1,.35.35,0,0,1,.1-.27l.11-.12a.84.84,0,0,1-.11.21c0,.39,0,.78-.05,1.17l0,6.89h0V224a1.82,1.82,0,0,0,0,.32s0,0,0,0h0c0,.21-.09.42-.13.63a5.91,5.91,0,0,1-2,3.62,11.71,11.71,0,0,1-2,1.41c-1.3.75-2.61,1.48-3.9,2.24-1.05.61-2.14,1.16-3.15,1.85a2,2,0,0,0-.63.31q-8.76,5-17.51,10.08a7,7,0,0,0-1.2.73.31.31,0,0,0-.28.16.28.28,0,0,1-.27.15h0a.2.2,0,0,1-.17.11c0,.14-.15.16-.27.15h0a.29.29,0,0,0-.27.15h0c-.05.11-.15.13-.26.15h0a.46.46,0,0,1-.16.11c0,.14-.15.16-.27.15a.27.27,0,0,1-.28.15.29.29,0,0,1-.15.12h-.11l0,0a.23.23,0,0,1-.16.11h0c0,.13-.15.15-.27.15s-.16.14-.27.15h0a.19.19,0,0,1-.14.11h0c0,.14-.15.16-.27.15a.23.23,0,0,1-.28.15.28.28,0,0,1-.27.16h0a.23.23,0,0,1-.16.11c0,.14-.15.16-.28.15h0a.25.25,0,0,1-.27.15.29.29,0,0,1-.27.15h0s-.09.1-.16.12h0c0,.13-.15.15-.27.15h0a.25.25,0,0,1-.27.15h0a.22.22,0,0,0-.21.12h-.05l0,0a.17.17,0,0,1-.15.11h0c0,.14-.15.16-.27.15a.29.29,0,0,1-.27.16.33.33,0,0,1-.15.11H214s-.07,0-.08,0a.53.53,0,0,1-.15.11h0a1.51,1.51,0,0,0-.55.28l-6.53,3.77a5,5,0,0,0-1,.59c-.22.11-.46.22-.68.35q-4.56,2.63-9.1,5.27a11.42,11.42,0,0,0-1.49.91,31.16,31.16,0,0,0-3.12,1.8c0,.14-.15.17-.28.17a.25.25,0,0,1-.27.15.29.29,0,0,1-.26.15h0a.14.14,0,0,0-.16.09h0c0,.14-.15.16-.27.16a.29.29,0,0,1-.27.15h0l0,.06a.12.12,0,0,1-.09,0h0a.33.33,0,0,0-.27.15h0c0,.13-.15.15-.28.15a.25.25,0,0,1-.26.15h0a.17.17,0,0,0-.17.1h0c0,.13-.15.15-.27.15h0a.25.25,0,0,1-.27.15.19.19,0,0,1-.15.11l-.06,0s-.06,0-.07,0a.34.34,0,0,1-.16.1h0a.31.31,0,0,0-.27.15h0a.29.29,0,0,1-.27.15h0s0,0,0,.06l0,0-.06,0h0c0,.14-.15.16-.27.16h0c-1.22.59-2.36,1.32-3.53,2-1.65,1-3.33,1.87-4.94,2.91l-.56.28c-2.72,1.58-5.43,3.18-8.17,4.74a78.39,78.39,0,0,1-7.06,3.93,7.58,7.58,0,0,1-2.28.2,8.19,8.19,0,0,1-2.67-1,12.71,12.71,0,0,0-1.4-.77.29.29,0,0,0-.27-.15h0c-.13,0-.24,0-.28-.16s-.1-.07-.16-.11h0a.32.32,0,0,0-.26-.16h0c-1.57-1-3.17-1.93-4.81-2.81l-.15-.14c-1.59-.89-3.12-1.88-4.74-2.71a14.29,14.29,0,0,0-1.72-1c-1.52-.87-3-1.8-4.55-2.6a4.47,4.47,0,0,0-.88-.55c-1.35-.76-2.65-1.59-4-2.28a.34.34,0,0,0-.28-.16h0a.71.71,0,0,1-.14-.1.06.06,0,0,0-.09,0,.27.27,0,0,1-.2-.13h0a.25.25,0,0,1-.27-.15h0a.87.87,0,0,0-.15-.13c-1.74-1-3.44-2-5.22-3-1.36-.87-2.76-1.67-4.2-2.42a9.4,9.4,0,0,0-1.43-.87c-1.07-.6-2.11-1.27-3.23-1.81a21,21,0,0,0-2.09-1.25c-1.09-.62-2.15-1.3-3.29-1.84a1,1,0,0,0-.15-.14C111,251.3,108.53,250,106,248.7a.39.39,0,0,0-.33-.07,1.13,1.13,0,0,0-.06.55c0,3.64,0,7.27,0,10.91,0,.14,0,.28,0,.42s0,.33,0,.5c0,4.81,0,9.64,0,14.46,0,.14,0,.28,0,.42a1.22,1.22,0,0,0,0,.57c0,1.2,0,2.39,0,3.59,0,1-.09,1.93,0,2.89a.76.76,0,0,0-.06.2c0,1.5-.07,3,0,4.5a5.34,5.34,0,0,0,.93,3.11,4.87,4.87,0,0,0,1.62,1.81,28.23,28.23,0,0,0,4,2.39c1.41.91,2.91,1.68,4.36,2.53a14.34,14.34,0,0,0,1.85,1,14.54,14.54,0,0,0,1.74,1c1.06.6,2.09,1.26,3.19,1.78a12.58,12.58,0,0,0,1.69,1c1.08.62,2.13,1.29,3.25,1.83a25.94,25.94,0,0,0,2.33,1.38c1.19.69,2.35,1.42,3.58,2,1.48.91,3,1.8,4.54,2.62h0a.26.26,0,0,1,.27.15c.12,0,.23,0,.27.15h0c.06,0,.1.07.16.1h0a.28.28,0,0,1,.27.15,5.3,5.3,0,0,0,1.26.73,14.6,14.6,0,0,0,2.13,1.24.32.32,0,0,0,.27.16h0c.13,0,.24,0,.27.16h0a.17.17,0,0,0,.17.1h0a.28.28,0,0,1,.27.15c.12,0,.23,0,.27.15h0a.19.19,0,0,1,.15.11l0,0h.12a.19.19,0,0,1,.14.11.26.26,0,0,1,.28.16,4.38,4.38,0,0,0,1.14.67,12.07,12.07,0,0,0,2,1.15,11.22,11.22,0,0,0,2,1.15h0c.08,0,.11.08.17.11h0a.28.28,0,0,1,.26.15h0c.12,0,.22,0,.27.16h0l.15.1c1.43.9,2.88,1.77,4.37,2.57a13.69,13.69,0,0,0,4,2h.28c.2,0,.42-.06.57.13h1.13c.16-.19.37-.14.57-.13h.28a7.42,7.42,0,0,0,2-.83.07.07,0,0,0,.1,0l0,0v0l.07,0h0c0-.14.15-.16.27-.15s.15-.15.28-.15a.25.25,0,0,1,.26-.15h0l0,0a.19.19,0,0,1,.12-.07h0c0-.13.14-.16.27-.15s.15-.15.27-.15a.28.28,0,0,1,.27-.15h0c.06,0,.1-.1.17-.11h0c0-.14.15-.16.27-.16a.29.29,0,0,1,.27-.15h0a.21.21,0,0,1,.14-.11h0c0-.14.15-.16.27-.15a.24.24,0,0,1,.28-.15.25.25,0,0,1,.26-.15,3.61,3.61,0,0,0,.44-.22l13.72-8a1,1,0,0,0,.39-.27h0c0-.12.15-.14.27-.15h0a.19.19,0,0,1,.12-.1h.05c0-.14.14-.16.26-.15h0c0-.13.15-.16.27-.16a.28.28,0,0,1,.27-.15h0a.23.23,0,0,1,.17-.11c0-.14.15-.16.27-.15h0a.25.25,0,0,1,.27-.15.29.29,0,0,1,.15-.12h.11l0,0a.17.17,0,0,1,.15-.11h0c0-.13.16-.15.28-.15a.25.25,0,0,1,.27-.15h0a.19.19,0,0,1,.14-.11s0,0,0,0h0s0,0,0,0a.34.34,0,0,0,.27-.16h0c0-.12.15-.15.27-.15h0a.28.28,0,0,1,.27-.15h0a.18.18,0,0,1,.16-.11h0c0-.13.15-.15.27-.15h0a.3.3,0,0,0,.27-.16.23.23,0,0,1,.15-.11h.11l0,0a.16.16,0,0,1,.15-.11h0c.05-.14.15-.16.28-.15a.25.25,0,0,1,.27-.15h0a.27.27,0,0,1,.2-.12,1.62,1.62,0,0,0,.56-.27q5.09-2.94,10.16-5.89a10.89,10.89,0,0,0,1.5-.91h0l0,0,0,0a.16.16,0,0,1,.11,0h.09l0,0,0,0s.06-.06.11-.07h0c0-.14.15-.16.27-.16a.28.28,0,0,1,.27-.15h0l0,0a.14.14,0,0,1,.11-.07h0c0-.14.14-.16.27-.15a.25.25,0,0,1,.27-.15.29.29,0,0,1,.27-.15h0c.06,0,.09-.09.16-.11h0c.05-.13.15-.15.27-.15a.27.27,0,0,1,.28-.15s0,0,0,0a.25.25,0,0,1,.14-.08h.09l0,0a.23.23,0,0,1,.16-.11h0c0-.13.15-.15.28-.15s.3-.13.44-.21l21.28-12.3a1.29,1.29,0,0,0,.46-.31,2.91,2.91,0,0,0,.74-.39l35.66-20.55,21.93-12.61a11.63,11.63,0,0,0,2.71-2,6,6,0,0,0,1.73-3.54s0-.07,0-.11a.6.6,0,0,1,.11-.43l0,0V192.78s-.05.05-.07,0,0,0-.05,0H289V155.1h-.12a.17.17,0,0,1,.12,0V127.45Zm-128.34,89v0Zm0,9.2,0,0a.13.13,0,0,1,0-.05Zm91.19-21.91v.08l-.18,0Zm0,5.91a.35.35,0,0,1-.18.05c.06-.07.12-.15.19-.22A1,1,0,0,1,251.79,209.66Zm36.84,1.58.19,0a.58.58,0,0,0-.19,0S288.63,211.26,288.63,211.24Zm0-7.51v-.18l.19-.05h0A2,2,0,0,1,288.63,203.73Zm.19-7.79-.12.14a.76.76,0,0,1,.12-.19Zm-.05-9.85.05,0v0Zm.05-25.34-.19.16v-.16Zm-.19-4.4v-.15h0a.66.66,0,0,1,.19-.09A1.64,1.64,0,0,1,288.63,156.35Zm0,10.65a.58.58,0,0,1,.19,0l-.19.19Zm0-33.72a.59.59,0,0,1,.19-.05,2.11,2.11,0,0,1-.19.23Zm0,9.73.19,0-.19.23Zm0,8.25.2-.1a1.42,1.42,0,0,1-.2.28Zm0,21.73v-.1h.19v5.79a.57.57,0,0,0-.19.1v-.11C288.6,176.77,288.61,174.88,288.63,173Zm.2,48.86h0a1.19,1.19,0,0,1-.22-.93v-7.47a1.23,1.23,0,0,1,.22-.91h0C288.84,215.65,288.84,218.75,288.83,221.85Z"/><path class="cls-1" d="M429.81,101H331.15v29.6h93.73q24.67,0,24.67,14.81t-24.67,14.8H331.15V249h29.6V189.81h69.06q49.33,0,49.34-44.4T429.81,101Zm78.94,0V249h29.59V101Zm209.47,0H679.54L637,151.92,594.48,101H555.82l61.85,74-61.85,74h38.66L637,198.1,679.54,249h38.68l-61.87-74Zm17.46,118.4V249h148V219.4Zm0-59.19v29.6h148v-29.6Zm0-59.21v29.6h148V101ZM942.89,219.4V101H913.28V249h148V219.4Zm148-118.4V249h29.6V101Zm112.58,29.6h94.62V101h-98.67q-49.34,0-49.33,49.34v49.34q0,49.32,49.33,49.32h98.67V170.07h-29.6V219.4h-64.93q-23.86,0-23.88-23.78V154.28Q1179.68,130.61,1203.47,130.6Zm124.21,88.8V249h148V219.4Zm0-59.19v29.6h148v-29.6Zm0-59.21v29.6h148V101Zm296,0V204.11L1535.48,101h-30.2V249h29.61V145.89L1623.19,249h30.09V101Zm59.19,0,.1,29.6h59.1V249h29.61V130.6h59.19V101Zm177.6,118.4V249h148V219.4Zm0-59.19v29.6h148v-29.6Zm0-59.21v29.6h148V101Z"/></g></svg>