<svg xmlns="http://www.w3.org/2000/svg" xmlns:xlink="http://www.w3.org/1999/xlink" viewBox="0 0 1200 1200"><defs><style>.cls-1{fill:url(#linear-gradient);}.cls-2{fill:#fff;}</style><linearGradient id="linear-gradient" x1="1109.26" y1="1109.26" x2="90.74" y2="90.74" gradientUnits="userSpaceOnUse"><stop offset="0.39" stop-color="#992c8d"/><stop offset="0.44" stop-color="#a02d8c"/><stop offset="1" stop-color="#e63b86"/></linearGradient></defs><g id="Artwork"><rect class="cls-1" width="1200" height="1200" rx="309.81"/><path class="cls-2" d="M553.4,571.27h0v0h0a.07.07,0,0,1,0,0,.74.74,0,0,1,.74-.36.75.75,0,0,1,.72-.4h0a.64.64,0,0,1,.52-.32.25.25,0,0,0,.27-.11,4.56,4.56,0,0,1,.39-.27h0a.69.69,0,0,1,.74-.41h0a.8.8,0,0,0,.65-.33.27.27,0,0,0,.07-.08l0,0a.38.38,0,0,0,.11-.08,1.1,1.1,0,0,1,.31-.22,0,0,0,0,0,0,0c.12-.35.42-.41.75-.4a.74.74,0,0,1,.74-.41h0a.59.59,0,0,1,.38-.3.47.47,0,0,1,.17,0,.16.16,0,0,0,.22-.1,2.16,2.16,0,0,1,.4-.27h0c.13-.36.43-.41.76-.41a.74.74,0,0,1,.73-.4h0a.36.36,0,0,1,.07-.1.52.52,0,0,1,.37-.21l.1,0a4.59,4.59,0,0,0,1.54-.75q14.1-8.13,28.21-16.29c3-1.72,6-3.3,8.87-5.24v0l0,0a.81.81,0,0,1,.72-.36h0a.66.66,0,0,1,.54-.33.2.2,0,0,0,.25-.1l.38-.27a.72.72,0,0,1,.77-.43.75.75,0,0,1,.72-.4h0a1.14,1.14,0,0,1,.52-.32.24.24,0,0,0,.27-.12l.39-.27a.73.73,0,0,1,.75-.42.61.61,0,0,1,.39-.3h0a.4.4,0,0,1,.15,0h.13l.08-.08a1.39,1.39,0,0,1,.48-.32.24.24,0,0,0,.29-.12l.38-.26a.74.74,0,0,1,.75-.42h0a.65.65,0,0,1,.54-.34.18.18,0,0,0,.24-.1,1.42,1.42,0,0,1,.47-.29,72.63,72.63,0,0,0,8-4.61h0a.73.73,0,0,1,.74-.4h0l.08-.11.08-.07a.67.67,0,0,1,.39-.15.2.2,0,0,0,.24-.1c.13-.09.27-.2.4-.28h0c.13-.35.42-.41.75-.41a.78.78,0,0,1,.73-.41h0c.14-.1.24-.25.42-.3h0c.12-.35.4-.41.74-.4a.74.74,0,0,1,.76-.4.76.76,0,0,1,.72-.41h0c.15-.1.25-.26.43-.3h0c.12-.36.42-.42.74-.41a.78.78,0,0,1,.75-.41.61.61,0,0,1,.39-.3.52.52,0,0,1,.18,0h.12l.09-.09a2.19,2.19,0,0,1,.39-.29h0c.13-.35.42-.41.75-.41a.75.75,0,0,1,.75-.4h0a.38.38,0,0,1,.08-.11l.07-.07a.65.65,0,0,1,.39-.15.21.21,0,0,0,.24-.1,3.37,3.37,0,0,1,.38-.28.73.73,0,0,1,.77-.42.79.79,0,0,1,.73-.41h0a.64.64,0,0,1,.52-.32h0a.22.22,0,0,0,.26-.11l.38-.27a.72.72,0,0,1,.76-.42.78.78,0,0,1,.72-.41h0c.16-.1.26-.25.43-.3h0c.12-.36.41-.42.74-.41a.75.75,0,0,1,.75-.4.44.44,0,0,1,.08-.11l0,0,0,0,.1-.06a.39.39,0,0,1,.2-.08h0a.18.18,0,0,1,.1,0h.13l.09-.09a2.32,2.32,0,0,1,.4-.3h0c.13-.35.4-.4.73-.4a.72.72,0,0,1,.73-.4h0a.63.63,0,0,1,.53-.33.21.21,0,0,0,.25-.1,2.63,2.63,0,0,1,.4-.28h0c0-.11,0-.22,0-.33a.28.28,0,0,1,0-.09h.78a.78.78,0,0,1,.72-.41h0c.14-.1.25-.26.44-.31.11-.37.41-.42.74-.41a.72.72,0,0,1,.75-.4.62.62,0,0,1,.39-.32l.17,0h.12l.09-.09a1.41,1.41,0,0,1,.49-.31,13.18,13.18,0,0,0,1.21-.55q17.33-10,34.64-20c3.13-1.82,6.36-3.48,9.36-5.53h0a.72.72,0,0,1,.73-.38.67.67,0,0,0,.57-.34h.12l.08-.09a2,2,0,0,1,.38-.26h0c.13-.36.42-.41.74-.4a.76.76,0,0,1,.75-.41h0a.25.25,0,0,1,.08-.1A.1.1,0,0,1,694,490a.6.6,0,0,1,.39-.16,5.4,5.4,0,0,0,1.7-.84q23.73-13.68,47.43-27.39c2.92-1.7,5.93-3.24,8.71-5.16h0s0,0,0,0a.71.71,0,0,1,.73-.38.62.62,0,0,1,.39-.31l.18,0h.13l.08-.1a1.33,1.33,0,0,1,.41-.29h0c.12-.35.41-.41.75-.4a.74.74,0,0,1,.74-.41h0a.44.44,0,0,1,.08-.11l0,0,0,0a.62.62,0,0,1,.39-.16.19.19,0,0,0,.24-.09,2.14,2.14,0,0,1,.39-.28h0c.12-.36.42-.42.76-.42a.77.77,0,0,1,.72-.41h0a.63.63,0,0,1,.54-.32.2.2,0,0,0,.24-.11c.13-.09.26-.19.4-.27h0a.7.7,0,0,1,.75-.41.75.75,0,0,1,.73-.41l0,0a1.15,1.15,0,0,1,.52-.31,13.08,13.08,0,0,0,1.2-.56q15.18-8.76,30.36-17.55c2.38-1.38,4.83-2.6,7.07-4.2l.12-.15a.71.71,0,0,1,.44-.19.17.17,0,0,0,.23-.09,2.27,2.27,0,0,1,.4-.29h0c.12-.35.41-.41.74-.41a.77.77,0,0,1,.74-.4h0a.63.63,0,0,1,.54-.32.22.22,0,0,0,.25-.11,2.6,2.6,0,0,1,.38-.27.7.7,0,0,1,.76-.42.76.76,0,0,1,.73-.41l0,0c.15-.09.25-.25.43-.31h0c.12-.36.41-.41.75-.4a.71.71,0,0,1,.74-.41.65.65,0,0,1,.39-.31,1,1,0,0,1,.18,0h.13l.08-.1a1.22,1.22,0,0,1,.48-.3c.41-.19.83-.34,1.21-.55q14.91-8.62,29.79-17.26c3.35-1.95,6.8-3.76,10-5.93l0,0a.56.56,0,0,1,.22-.32.84.84,0,0,1,.53-.11.75.75,0,0,1,.75-.42.61.61,0,0,1,.39-.3.47.47,0,0,1,.17,0h.13l.09-.1a1.72,1.72,0,0,1,.35-.25l0,0h0v0a.84.84,0,0,0,.73-.42h0a.86.86,0,0,0,.73-.42h0a.66.66,0,0,1,.54-.32.23.23,0,0,0,.25-.11l.4-.28h0a.82.82,0,0,0,.73-.42.79.79,0,0,0,.66-.34.19.19,0,0,0,.07-.08h0l.12-.08a.66.66,0,0,1,.31-.21h0c.12-.36.41-.41.75-.4h0a.81.81,0,0,0,.73-.42h0a1,1,0,0,1,.08-.11l0,0,0,0a.62.62,0,0,1,.4-.16,6.68,6.68,0,0,0,.87-.37q19.06-11.07,38.13-22.14c.26-.15.62-.25.56-.76-1.44-1-2.92-2.17-4.42-3.25a29,29,0,0,0-5.69-3.48c-.35,0-.66,0-.79-.42a.77.77,0,0,1-.32-.22l-.11-.08h0a.78.78,0,0,1-.72-.41.75.75,0,0,1-.76-.4v0h0a23,23,0,0,0-3.71-2.27c-3.21-1.82-6.31-3.83-9.63-5.44a14.8,14.8,0,0,0-3.06-1.88c-3.37-1.92-6.63-4-10.1-5.73a33.35,33.35,0,0,0-4.4-2.65c-3.64-2.06-7.17-4.33-10.93-6.19-.34,0-.64-.05-.77-.41a0,0,0,0,1,0,0c-.17,0-.27-.19-.41-.29l-.32-.19c-4.28-2.65-8.64-5.18-13.1-7.54a34.57,34.57,0,0,0-5.34-3.08,26.63,26.63,0,0,0-4.63-2.67c-.32,0-.62-.06-.76-.39h0s0,0,0,0h0c-2.22-1.58-4.64-2.8-7-4.16A52.26,52.26,0,0,0,806,317,9.12,9.12,0,0,0,804,315.7q-30.13-17.4-60.29-34.8Q676.52,242,609.42,203.13a22.26,22.26,0,0,0-6.91-2.77c0-.12,0-.24,0-.36h-3.84c0,.13,0,.25,0,.37A28.21,28.21,0,0,0,590,204q-17.5,10.14-35,20.28-64.81,37.46-129.66,74.91Q354,340.34,282.66,381.44c-6.92,4-13.84,8-20.78,11.94-5.38,3.05-9.3,7.16-10.28,13.52-.56.36-.12,1.2-.72,1.55v9.6c.62.56.36,1.31.36,2,0,6,0,12,0,17.91,0,.67-.24,1.41.32,2,0,.77.08,1.53.08,2.3,0,18.68,0,37.36-.06,56A97.27,97.27,0,0,0,253,513.33c.07.45,0,1,.51,1.41.29-.13.57-.25.85-.4,4.48-2.45,9-4.84,13.45-7.39Q331,470.56,394.09,434.12q49.5-28.58,99-57.19,48.57-28.1,97.1-56.24a28.35,28.35,0,0,1,5.73-2.65,14.66,14.66,0,0,1,7-.62,20.7,20.7,0,0,1,7.55,3.19c4.95,3.17,10,6.25,15.08,9.15,23.39,13.19,46.59,26.72,69.8,40.23.53.31,1.18.48,1.51,1.06-.16.42-.54.57-.86.76-3.77,2.29-7.52,4.62-11.34,6.83q-36.43,21.09-72.91,42.13L464.07,506.06q-45.51,26.3-91,52.54l-94.74,54.58c-5.54,3.2-11.1,6.35-16.58,9.64s-9.18,7.89-10.1,14.4c-.55.38-.14,1.2-.73,1.55v20.35a.46.46,0,0,1,.36,0h0v0h-.36V790.79c.75.61,0,1.7.74,2.31.84,6.62,4.49,11.23,10.25,14.33l.5.28q11.83,6.67,23.66,13.34c3,1.69,5.89,3.56,9,5.05h0a.73.73,0,0,1,.76.42l.38.26a.25.25,0,0,0,.27.12,1.33,1.33,0,0,1,.52.32h0a.76.76,0,0,1,.72.41c.34,0,.64.07.76.44a102,102,0,0,0,9.23,5.35q6.76,4.26,13.82,8c4.77,3,9.62,5.79,14.59,8.4a5.32,5.32,0,0,0,.61.45c4.85,2.71,9.72,5.41,14.57,8.11.27.14.53.37.9.16a6.13,6.13,0,0,0,.38-2.41c.19-2.55.33-5.1.56-7.65a140.58,140.58,0,0,0,.26-15.9c.16-3.82.11-7.63,0-11.45a4.06,4.06,0,0,0,.2-2.07c0-7.29.06-14.58,0-21.88,0-23,.07-46.06-.13-69.09,0-3.33-.06-6.65-.08-10,0-6.59-.11-13.19-.05-19.77.05-7,2.8-12.65,8.68-16.62,1.32-.9,2.68-1.74,4.06-2.54q34.92-20.09,69.85-40.16,54.27-31.25,108.53-62.55C547.49,574.81,550.56,573.23,553.4,571.27ZM853.18,398.1h0ZM352.81,787.55c0-.16,0-.32,0-.48a1.07,1.07,0,0,1,.51-.12C353.15,787.14,353,787.35,352.81,787.55Z"/><path class="cls-2" d="M949,470.61h-.17a1.84,1.84,0,0,1,0-2.68c0-.5-.08-1-.13-1.53a80.71,80.71,0,0,0-.78-8.92c-3.37,1.42-6.75,2.37-9.8,4.14-2.58,1.51-5.2,3-7.78,4.5-3.83,2.28-7.79,4.33-11.52,6.78a4.44,4.44,0,0,0-1.54.76q-17.43,10.05-34.86,20.11c-3.37,1.95-6.81,3.78-10.08,5.92-3.29,1.62-6.39,3.61-9.58,5.42a75,75,0,0,0-6.51,3.88.73.73,0,0,1-.75.43h0l-.07.09a.64.64,0,0,1-.39.22h-.11a.16.16,0,0,0-.22.1,1.75,1.75,0,0,1-.39.28h0c-.12.36-.42.42-.75.41h0a.83.83,0,0,0-.72.41h0a.64.64,0,0,1-.54.33c-.12,0-.2,0-.24.1l-.4.28h0a.7.7,0,0,1-.75.41.78.78,0,0,1-.72.41h0a1.24,1.24,0,0,1-.43.3h0c-.12.36-.41.42-.74.4a.74.74,0,0,1-.75.42h0a.59.59,0,0,1-.39.3.47.47,0,0,1-.17,0c-.1,0-.17,0-.2.08a.5.5,0,0,1-.41.3h0c-.13.35-.42.41-.75.4a.74.74,0,0,1-.74.41h0a.59.59,0,0,1-.39.3.43.43,0,0,1-.17,0,.15.15,0,0,0-.21.1.44.44,0,0,0-.43.27h0c-.12.36-.42.41-.75.41a.77.77,0,0,1-.74.41h0a.53.53,0,0,1-.44.31h0c-.11.35-.4.41-.73.4h0a.69.69,0,0,1-.74.41h0a.83.83,0,0,0-.73.41h0c-.15.11-.26.27-.45.31h0v0c-.4.18-.82.34-1.2.55q-20.1,11.61-40.18,23.22c-3.48,2-7,3.91-10.4,6.12-.57.28-1.16.54-1.7.86q-22.3,12.88-44.6,25.8c-3.64,2.11-7.35,4.09-10.87,6.41-.46.22-.93.4-1.37.66q-20.55,11.9-41.08,23.81c-3.53,2-7.13,4-10.53,6.23-.46.21-.93.41-1.37.65q-17.9,10.39-35.78,20.8c-3.75,2.19-7.59,4.22-11.19,6.63a6.82,6.82,0,0,0-.88.37q-10.17,5.91-20.35,11.84a11.3,11.3,0,0,0-2.66,2.16,20.16,20.16,0,0,0-5.33,11,95.56,95.56,0,0,0-.31,13c-.12,6.33-.33,12.65-.34,19q0,30.8.08,61.59a3.17,3.17,0,0,0,.19,1.69c-.15-.54-.33-1.08.09-1.58,0,0,0,0,0,0s0,0,0,0c0,.52-.07,1-.11,1.57a9.67,9.67,0,0,0,.09,3,3,3,0,0,0,.3,2,64.15,64.15,0,0,0,1,6.77,5,5,0,0,0,2-1.13c.56-.28,1.16-.54,1.7-.85q16.62-9.57,33.23-19.17c3.37-2,6.81-3.79,10.07-5.93a3.9,3.9,0,0,1,.35-.19,2.55,2.55,0,0,1,.39-.28h0a.68.68,0,0,1,.76-.42h0a.88.88,0,0,0,.74-.42h0a.54.54,0,0,1,.43-.31h0c.12-.37.4-.42.74-.41h0c.13-.33.41-.4.74-.4a.75.75,0,0,1,.71-.41c.46-.22.93-.42,1.37-.67l42.11-24.28c.38-.23.73-.51,1.09-.76h0a.36.36,0,0,1,.07-.1.54.54,0,0,1,.37-.21l.12,0h.13l.08-.1a2.63,2.63,0,0,1,.4-.28h0l0,0v0a.86.86,0,0,0,.73-.42h0a.86.86,0,0,0,.74-.42h0a.54.54,0,0,1,.44-.3h0c.11-.37.39-.42.73-.41h0c.13-.33.42-.4.75-.4A.74.74,0,0,1,703,714h0c.15-.1.25-.26.44-.3h0c.12-.38.41-.43.75-.41.13-.34.42-.41.75-.42.16-.2.46-.16.65-.32a.19.19,0,0,0,.07-.08h0a.46.46,0,0,0,.46-.27h0c.16-.28.52-.23.74-.39h0a.88.88,0,0,0,.73-.42c-.19.21-.56.14-.73.41h0a.73.73,0,0,1,.74-.41h0a.67.67,0,0,1,.39-.3l.18,0h.13l.09-.09c.13-.1.23-.25.4-.28h0c.12-.36.41-.43.75-.42a.76.76,0,0,1,.73-.41h0a.35.35,0,0,1,.07-.09.61.61,0,0,1,.47-.23h0a.17.17,0,0,0,.23-.11,2.8,2.8,0,0,1,.4-.27h0l0,0a.91.91,0,0,0,.73-.43h0a.76.76,0,0,1,.73-.42h0a.65.65,0,0,1,.52-.32.21.21,0,0,0,.26-.11l.38-.26a.72.72,0,0,1,.76-.43.79.79,0,0,1,.72-.41c.51-.24,1-.48,1.53-.76q14.41-8.3,28.82-16.63a8.4,8.4,0,0,0,2.09-1.32.19.19,0,0,0,.24-.13.52.52,0,0,1,.42-.29h0c.12-.35.41-.41.74-.4a.75.75,0,0,1,.74-.41h0a1,1,0,0,1,.08-.11l0,0s0,0,0,0a.5.5,0,0,1,.29-.14h.11a.16.16,0,0,0,.22-.11,2.55,2.55,0,0,1,.4-.27c.13-.37.42-.43.76-.43a.76.76,0,0,1,.73-.41h0a.55.55,0,0,1,.45-.3c.11-.37.4-.43.74-.41a.69.69,0,0,1,.75-.41.76.76,0,0,1,.73-.41h0c.15-.1.25-.26.43-.3h0c.11-.37.41-.43.75-.41a.71.71,0,0,1,.74-.41l.06-.08a.62.62,0,0,1,.51-.26,5.43,5.43,0,0,0,1.7-.85q23-13.26,46.08-26.57a32.07,32.07,0,0,0,4.23-2.58h0a.59.59,0,0,1,.44-.31h.25l.08-.11.11-.07a.73.73,0,0,1,.3-.22h0c.13-.36.41-.41.74-.4a.74.74,0,0,1,.74-.41h0a.5.5,0,0,1,.38-.29h.08c.1-.37.38-.43.72-.41h0a.68.68,0,0,1,.74-.41h0a.74.74,0,0,1,.72-.41h0a.54.54,0,0,1,.45-.31h0c.1-.36.39-.42.73-.4.13-.33.41-.4.74-.4a.74.74,0,0,1,.73-.41l0,0c.15-.09.25-.25.43-.29.13-.38.44-.44.78-.43a4.77,4.77,0,0,0,1.7-.85l24.36-14c.51-.29,1-.84,1.91-.63v4.36c-.25,4.35-.24,8.7-.06,13.06a27.48,27.48,0,0,0,0,5.59l.12,7.08v.12c-.17-.11-.27-.36-.27-.79.07-1.68-.07-3.36,0-5-.2,2.47-.07,4.94-.07,7.41,0,16.36,0,32.73,0,49.1a2.85,2.85,0,0,0,.18,1.5,11.75,11.75,0,0,1-.15-2.71,1,1,0,0,1,.27-.72c.09-.11.2-.21.31-.32a2.08,2.08,0,0,1-.31.56l-.12,3.19q0,9.38.07,18.74h0c0,.28,0,.57,0,.85a5.23,5.23,0,0,0,.09.85s0,.08-.06.12,0,0,0,0c-.12.57-.26,1.12-.35,1.69a16,16,0,0,1-5.37,9.86,31.72,31.72,0,0,1-5.48,3.84c-3.53,2-7.08,4-10.6,6.09-2.86,1.67-5.82,3.17-8.56,5a5.37,5.37,0,0,0-1.71.85q-23.82,13.69-47.66,27.41a19.56,19.56,0,0,0-3.24,2,.88.88,0,0,0-.76.44.75.75,0,0,1-.74.41h0a.55.55,0,0,1-.45.3c-.1.38-.4.44-.74.41h0a.8.8,0,0,0-.73.42h0a.8.8,0,0,1-.72.41h0c-.15.11-.26.26-.44.3-.12.38-.41.43-.75.42a.7.7,0,0,1-.74.4.67.67,0,0,1-.41.32,1,1,0,0,1-.18,0l-.12,0-.07.11a.49.49,0,0,1-.41.28h0c-.11.37-.41.43-.74.42a.76.76,0,0,1-.74.41h0a.52.52,0,0,1-.38.29h-.08c-.09.38-.39.43-.72.41-.13.36-.43.41-.76.41a.73.73,0,0,1-.73.41h0a.55.55,0,0,1-.44.31c-.11.37-.41.43-.74.41h0a.7.7,0,0,1-.75.41.78.78,0,0,1-.72.41h0c-.14.11-.25.26-.44.3h0c-.1.38-.4.42-.73.42h0a.7.7,0,0,1-.74.4h0a.65.65,0,0,0-.58.35l-.12,0-.07.1a.49.49,0,0,1-.41.29h0c-.12.37-.41.43-.74.41a.76.76,0,0,1-.75.42.63.63,0,0,1-.4.3.47.47,0,0,1-.17,0c-.11,0-.17,0-.21.1s-.24.24-.41.29h0l0,0a4.09,4.09,0,0,0-1.52.75q-8.88,5.1-17.76,10.25a13.34,13.34,0,0,0-2.59,1.61c-.62.31-1.26.6-1.86,1q-12.39,7.15-24.77,14.34a31.75,31.75,0,0,0-4.05,2.47,87.79,87.79,0,0,0-8.47,4.89c-.11.4-.41.48-.76.47a.73.73,0,0,1-.75.41.77.77,0,0,1-.72.41l0,0a.42.42,0,0,0-.45.26h0c-.12.36-.41.43-.74.42a.77.77,0,0,1-.74.41h0a.52.52,0,0,1-.12.16.35.35,0,0,1-.25.12l-.07,0h0v0l0,0a.88.88,0,0,0-.74.42h0c-.13.35-.41.41-.74.41a.77.77,0,0,1-.73.41h0a.44.44,0,0,0-.45.27h0c-.11.37-.4.43-.74.42h0a.71.71,0,0,1-.73.41.66.66,0,0,1-.4.3.57.57,0,0,1-.18,0,.13.13,0,0,0-.2.1c-.14.09-.24.25-.42.28h0l0,0a.88.88,0,0,0-.74.43h0a.76.76,0,0,1-.74.41h0a.65.65,0,0,1-.13.16l-.08,0a.33.33,0,0,1-.16.07l-.07,0h0c-.1.38-.4.43-.74.42h0v0c-3.32,1.61-6.41,3.59-9.59,5.43-4.49,2.62-9.07,5.1-13.45,7.92-.51.25-1,.49-1.53.77-7.4,4.3-14.77,8.65-22.21,12.88-6.36,3.62-12.47,7.74-19.21,10.7-2.06.31-4.06.88-6.21.54a22.73,22.73,0,0,1-7.27-2.67,28.85,28.85,0,0,0-3.81-2.11.83.83,0,0,0-.72-.42h0c-.34,0-.63,0-.75-.42-.19,0-.28-.2-.43-.29l0,0a.81.81,0,0,0-.72-.41h0q-6.39-4.08-13.07-7.66a3.78,3.78,0,0,0-.43-.38c-4.3-2.43-8.46-5.12-12.87-7.36a35.53,35.53,0,0,0-4.69-2.85c-4.12-2.35-8.14-4.89-12.37-7.06a12.21,12.21,0,0,0-2.41-1.51c-3.65-2.06-7.2-4.32-11-6.19a.91.91,0,0,0-.76-.44l0,0h0a2.7,2.7,0,0,1-.39-.27.18.18,0,0,0-.24-.11.62.62,0,0,1-.54-.33h0a.73.73,0,0,1-.74-.4h0a2.56,2.56,0,0,0-.39-.36c-4.75-2.67-9.36-5.55-14.2-8.05q-5.56-3.54-11.42-6.57a25.46,25.46,0,0,0-3.9-2.36c-2.92-1.66-5.75-3.47-8.78-4.93a53.89,53.89,0,0,0-5.7-3.4c-3-1.7-5.85-3.54-8.93-5a4.88,4.88,0,0,0-.43-.38c-6.57-3.93-13.38-7.45-20.16-11a1,1,0,0,0-.9-.2,3,3,0,0,0-.14,1.49q0,14.87,0,29.7c0,.38,0,.76.07,1.14s-.07.9-.07,1.34q0,19.66,0,39.34c0,.39.05.77.07,1.15a3.38,3.38,0,0,0,0,1.55c0,3.26-.13,6.52-.11,9.78,0,2.62-.24,5.23,0,7.86a1.75,1.75,0,0,0-.18.53c0,4.08-.19,8.17,0,12.24a14.69,14.69,0,0,0,2.54,8.47,13.31,13.31,0,0,0,4.4,4.93,77.28,77.28,0,0,0,11,6.49c3.84,2.48,7.91,4.58,11.87,6.88a39.87,39.87,0,0,0,5,2.74,41.31,41.31,0,0,0,4.75,2.83c2.88,1.62,5.68,3.42,8.68,4.84a36.18,36.18,0,0,0,4.59,2.75c2.93,1.67,5.79,3.49,8.84,5a70.92,70.92,0,0,0,6.34,3.76c3.24,1.87,6.39,3.86,9.74,5.53,4,2.5,8.13,4.92,12.35,7.14h0a.73.73,0,0,1,.74.41c.34,0,.62.05.74.42h0c.19,0,.28.2.43.28l0,0a.76.76,0,0,1,.73.42,14.43,14.43,0,0,0,3.42,2,42.72,42.72,0,0,0,5.78,3.37.91.91,0,0,0,.75.44l0,0h0c.33,0,.63,0,.73.42h0s0,0,0,0h0a.44.44,0,0,0,.46.27h0a.76.76,0,0,1,.73.41c.33,0,.62,0,.74.41h0a.48.48,0,0,1,.41.3l.08.1h.12a.52.52,0,0,1,.18,0,.61.61,0,0,1,.4.31.69.69,0,0,1,.75.44,12.59,12.59,0,0,0,3.1,1.83,36.2,36.2,0,0,0,5.36,3.12,32.84,32.84,0,0,0,5.31,3.12h0c.2,0,.3.2.45.3l0,0a.75.75,0,0,1,.72.41h0c.33,0,.62.06.74.42h0a2.55,2.55,0,0,1,.4.27c3.89,2.46,7.84,4.82,11.89,7a37.26,37.26,0,0,0,10.75,5.38l.76,0c.56,0,1.13-.16,1.56.36h3.07c.42-.52,1-.39,1.56-.36h.76a20.75,20.75,0,0,0,5.49-2.27.19.19,0,0,0,.26-.11.44.44,0,0,1,.08-.11l0,0a.3.3,0,0,1,.17-.08l0,0,.07,0h0c.11-.37.41-.43.74-.4.13-.36.42-.42.76-.41a.72.72,0,0,1,.72-.41h0l.06-.09a.45.45,0,0,1,.32-.19l.07,0h0c.09-.37.39-.44.72-.41a.71.71,0,0,1,.75-.42.78.78,0,0,1,.73-.41h0c.15-.09.26-.26.44-.3h0c.11-.37.41-.42.73-.41a.75.75,0,0,1,.74-.41h0a.53.53,0,0,1,.38-.29h.07c.11-.38.4-.44.74-.41.12-.36.42-.43.75-.42a.73.73,0,0,1,.71-.41c.4-.19.81-.35,1.2-.57l37.34-21.66a2.74,2.74,0,0,0,1.06-.75h0s0,0,0,0a.72.72,0,0,1,.73-.39h0a.48.48,0,0,1,.32-.27l0,0h.09c.1-.38.39-.44.73-.41h0c.13-.36.4-.42.74-.42a.76.76,0,0,1,.73-.41h0a.55.55,0,0,1,.45-.3c.11-.38.4-.44.74-.42h0a.68.68,0,0,1,.73-.41.64.64,0,0,1,.4-.31.63.63,0,0,1,.19,0h.12l.07-.1a.46.46,0,0,1,.41-.29h0c.11-.36.42-.42.75-.41a.71.71,0,0,1,.73-.41h0a.52.52,0,0,1,.38-.29s0,0,.07,0h0s0,0,0,0a.87.87,0,0,0,.74-.43h0v0a.69.69,0,0,1,.75-.41h0a.73.73,0,0,1,.72-.41h0a.56.56,0,0,1,.44-.3h0c.12-.37.41-.42.74-.41h0v0a.87.87,0,0,0,.74-.42.61.61,0,0,1,.4-.32l.18,0h.12l.07-.11a.46.46,0,0,1,.42-.28h0c.11-.36.4-.42.73-.41a.74.74,0,0,1,.74-.41h0a.64.64,0,0,1,.54-.32,4.39,4.39,0,0,0,1.53-.76q13.83-8,27.65-16a33.06,33.06,0,0,0,4.06-2.47h0l.07-.09a.3.3,0,0,1,.08-.08.56.56,0,0,1,.3-.14h.25l.08-.11.1-.08a.92.92,0,0,1,.31-.2h0a.65.65,0,0,1,.74-.42.75.75,0,0,1,.73-.41h0a.47.47,0,0,1,.06-.09.45.45,0,0,1,.3-.18l.08,0c.11-.38.4-.44.74-.42a.71.71,0,0,1,.74-.41.77.77,0,0,1,.73-.41l0,0c.15-.08.24-.25.44-.29h0c.12-.37.4-.43.74-.42a.73.73,0,0,1,.74-.41l.08-.09a.57.57,0,0,1,.36-.22h.26l.08-.11a.5.5,0,0,1,.42-.29h0c.12-.36.42-.42.76-.41.4-.19.81-.35,1.2-.57l57.9-33.47a3.55,3.55,0,0,0,1.24-.86,7.1,7.1,0,0,0,2-1q48.51-27.95,97-55.9,29.8-17.17,59.66-34.32a31.55,31.55,0,0,0,7.36-5.46,16.34,16.34,0,0,0,4.71-9.64,1.45,1.45,0,0,1,0-.29,1.47,1.47,0,0,1,.29-1.18l.07-.09V648.37c-.07.1-.13.14-.19.12s-.09-.06-.12-.16l.12,0,.19,0V545.88h-.32l0,0h0a.42.42,0,0,1,.32,0V470.63ZM599.82,712.79v.07s0,0,0,0S599.82,712.8,599.82,712.79Zm0,25a.38.38,0,0,0-.08-.11l.08-.13ZM848,678.2v.22a2.6,2.6,0,0,1-.5-.1A2,2,0,0,0,848,678.2Zm0,16.1a1.38,1.38,0,0,1-.5.14c.16-.22.34-.42.51-.62C848,694,848,694.14,848,694.3Zm100.23,4.28a2.44,2.44,0,0,1,.51.08,1.27,1.27,0,0,0-.51.12A1.33,1.33,0,0,0,948.19,698.58Zm0-20.41c0-.17,0-.34,0-.5a1.37,1.37,0,0,1,.51-.12h0A6.1,6.1,0,0,1,948.17,678.17Zm.52-21.19c-.09.12-.2.24-.31.36a2.55,2.55,0,0,1,.31-.52Zm-.13-26.82a.25.25,0,0,1,.12.07v.1Zm.12-68.92-.51.42c0-.12,0-.24,0-.36v-.06A1.4,1.4,0,0,1,948.68,561.24Zm-.5-12c0-.15,0-.29,0-.44v0a2.47,2.47,0,0,1,.49-.24A4.25,4.25,0,0,1,948.18,549.28Zm0,29a1.59,1.59,0,0,1,.5-.12c-.16.18-.33.35-.51.53C948.17,578.51,948.17,578.38,948.18,578.24Zm0-91.74a1.36,1.36,0,0,1,.5-.12,7.17,7.17,0,0,1-.51.61C948.17,486.83,948.18,486.67,948.18,486.5Zm0,26.48a1.93,1.93,0,0,1,.5-.12,6,6,0,0,1-.51.62C948.17,513.31,948.18,513.15,948.18,513Zm0,22.43a4.25,4.25,0,0,1,.52-.27,3.77,3.77,0,0,1-.52.76C948.15,535.74,948.16,535.57,948.16,535.41Zm0,59.11v-.26a1.81,1.81,0,0,1,.52,0V610a4.25,4.25,0,0,0-.52.27V610C948.1,604.82,948.11,599.67,948.16,594.52Zm.56,132.94v0h0a3.3,3.3,0,0,1-.59-2.54q0-10.15,0-20.31a3.19,3.19,0,0,1,.6-2.47h0Q948.76,714.8,948.72,727.46Z"/></g></svg>