<?xml version="1.0" encoding="utf-8"?>
<!-- Generator: Adobe Illustrator 25.4.1, SVG Export Plug-In . SVG Version: 6.00 Build 0)  -->
<svg version="1.1" id="Layer_1" xmlns="http://www.w3.org/2000/svg" xmlns:xlink="http://www.w3.org/1999/xlink" x="0px" y="0px"
	 viewBox="0 0 2500 2500" style="enable-background:new 0 0 2500 2500;" xml:space="preserve">
<style type="text/css">
	.st0{fill-rule:evenodd;clip-rule:evenodd;fill:#FFFFFF;}
	.st1{fill-rule:evenodd;clip-rule:evenodd;fill:#CC2229;}
</style>
<g>
	<path class="st0" d="M2170,57.1h137.2l-4.3,24.3h-25.7c-12.9,0-21.4-2.8-21.4-2.8v44.3c0,15.7-4.3,31.4-4.3,47.1
		c0,15.7-4.3,31.4-4.3,40h-34.3v-40c0-15.7,4.3-31.4,4.3-47.1c0-17.1,4.3-37.1,4.3-44.3h-17.1h-17.2c-8.6,0-17.1,2.8-17.1,2.8
		L2170,57.1L2170,57.1L2170,57.1z M2324.3,57.1h47.1c0,8.6,4.3,17.1,4.3,21.4c0,7.2,8.6,20,12.9,35.7c0,4.3,4.3,15.7,4.3,24.3
		c4.3,15.7,12.9,31.4,12.9,31.4c0-8.6,8.6-20,12.9-35.7c4.3-11.4,12.9-28.6,17.1-40c4.3-12.9,12.9-28.6,12.9-37.1h51.4v48.6
		c0,17.1-4.3,40-4.3,55.7V210h-34.3v-31.4v-40c0-12.9,4.3-24.3,4.3-32.9V90l-47.1,120h-34.3c0-8.6-8.6-24.3-8.6-35.7
		c-4.3-20-12.9-35.7-12.9-40c0-8.6-8.6-24.3-12.9-40v40c0,11.4-4.3,27.1-4.3,40V210h-34.3c0-15.7,4.3-35.7,4.3-52.9
		c0-14.3,4.3-34.3,4.3-51.4C2320,90,2324.3,74.3,2324.3,57.1L2324.3,57.1z M675.8,2490h-91.4l-35.7-128.6H380L344.3,2490h-88.6
		l155.7-568.6h100L675.8,2490z M522.9,2268.6l-60-214.3l-55.7,214.3H522.9z M1004.3,2490h-77.1v-58.6c-12.9,25.7-30,42.9-45.7,50
		c-15.7,8.6-32.9,18.6-50,18.6c-31.4,0-62.8-21.5-85.7-57.2c-25.7-32.8-37.1-90-37.1-157.1c0-68.5,11.4-128.6,32.9-164.3
		c22.8-34.3,55.7-55.7,94.3-55.7c30,0,61.4,21.4,88.6,60v-204.3h80L1004.3,2490L1004.3,2490z M787.2,2275.7
		c0,42.8,5.7,81.4,12.9,98.6c12.9,25.7,31.4,42.8,52.9,42.8c20,0,35.7-12.9,48.6-28.6c12.9-21.5,22.8-57.2,22.8-100
		c0-45.7-7.1-84.3-20-105.7c-11.4-21.4-31.4-35.7-51.4-35.7c-17.1,0-32.9,14.3-47.1,31.5C792.9,2200,787.2,2232.8,787.2,2275.7
		L787.2,2275.7z M1070,2275.7c0-32.9,4.3-68.6,17.1-101.4c14.3-34.3,32.9-60,55.7-77.1c24.3-18.6,54.3-31.4,82.9-31.4
		c44.3,0,85.7,21.4,112.9,60c30,42.8,45.7,100,45.7,160s-15.7,114.3-45.7,152.9c-31.4,40-68.6,61.4-112.9,61.4
		c-27.1,0-54.3-10-80-25.7c-25.7-17.2-44.3-42.9-58.6-74.3c-12.9-32.9-17.1-75.7-17.1-118.6L1070,2275.7L1070,2275.7L1070,2275.7z
		 M1150,2285.7c0,42.9,4.3,75.7,17.1,97.1c14.3,21.4,35.7,34.3,55.7,34.3c18.6,0,40-12.9,52.9-34.3c14.3-21.4,22.8-54.3,22.8-97.1
		c0-42.9-8.6-78.6-22.8-100c-12.9-24.3-34.3-38.6-52.9-38.6c-20,0-40,14.3-51.4,35.7C1158.6,2207.1,1150,2242.8,1150,2285.7
		L1150,2285.7z M1447.2,2490v-568.6h80v204.3c22.9-38.6,55.7-60,87.1-60c37.1,0,68.6,21.4,92.9,55.7c24.3,35.7,38.6,90,38.6,160
		c0,68.6-14.3,128.6-38.6,161.4c-25.7,35.7-57.1,57.2-88.6,57.2c-17.1,0-35.7-10-51.4-18.6c-17.1-7.1-32.8-28.6-41.4-50v58.6
		L1447.2,2490L1447.2,2490z M1527.1,2275.7c0,42.8,7.2,81.4,14.3,98.6c12.9,25.7,34.3,42.8,57.2,42.8c20,0,35.7-12.9,47.1-28.6
		c12.9-17.2,20-57.2,20-100c0-45.7-7.1-84.3-20-105.7c-11.4-21.4-31.5-35.7-51.4-35.7c-18.6,0-34.3,14.3-47.1,31.5
		C1534.3,2200,1527.1,2232.8,1527.1,2275.7L1527.1,2275.7z M1988.6,2361.4l80,12.9c-8.6,42.8-28.6,78.6-48.6,94.3
		c-22.8,17.2-54.3,31.5-87.1,31.5c-48.6,0-91.4-25.7-115.7-68.6c-20-35.7-28.6-85.7-28.6-142.8c0-67.2,11.4-124.3,37.1-162.9
		c25.7-38.6,62.9-60,102.9-60c44.3,0,80,21.4,104.3,60c27.1,42.8,42.8,107.1,42.8,188.6h-207.1c0,35.7,4.3,60,18.6,78.5
		c12.8,17.2,28.6,24.3,45.7,24.3c14.3,0,27.1-2.8,32.8-12.9C1972.9,2395.7,1981.5,2378.6,1988.6,2361.4L1988.6,2361.4z
		 M1995.7,2247.1c0-30-11.4-57.1-20-72.9c-11.4-17.2-28.6-27.1-44.3-27.1c-18.6,0-35.7,14.3-44.3,31.5
		c-14.3,17.1-18.6,42.8-18.6,68.5L1995.7,2247.1L1995.7,2247.1z"/>
	<path class="st1" d="M241.5,0h685.7L241.5,1670V0z M1394.3,0h694.3v1648.5L1394.3,0z M1168.6,638.6L1547.2,1640h-234.3
		l-161.4-317.1H894.3L1168.6,638.6z"/>
</g>
</svg>
