<?xml version="1.0" encoding="UTF-8"?>
<!DOCTYPE svg PUBLIC "-//W3C//DTD SVG 1.1//EN" "http://www.w3.org/Graphics/SVG/1.1/DTD/svg11.dtd">
<!-- Creator: CorelDRAW X8 -->
<svg xmlns="http://www.w3.org/2000/svg" xml:space="preserve" width="128px" height="128px" version="1.1" style="shape-rendering:geometricPrecision; text-rendering:geometricPrecision; image-rendering:optimizeQuality; fill-rule:evenodd; clip-rule:evenodd"
viewBox="0 0 128 128"
 xmlns:xlink="http://www.w3.org/1999/xlink">
 <defs>
  <style type="text/css">
   <![CDATA[
    .fil0 {fill:white}
   ]]>
  </style>
 </defs>
 <g id="Слой_x0020_1">
  <metadata id="CorelCorpID_0Corel-Layer"/>
  <path class="fil0" d="M36 1l56 0c19,0 35,16 35,35l0 56c0,19 -16,35 -35,35l-56 0c-19,0 -35,-16 -35,-35l0 -56c0,-19 16,-35 35,-35zm69 30c0,4 -4,7 -8,7 -4,0 -7,-3 -7,-7 0,-5 3,-8 7,-8 4,0 8,3 8,8zm-41 54c-12,0 -21,-10 -21,-21 0,-12 9,-21 21,-21 11,0 21,9 21,21 0,11 -10,21 -21,21zm0 -53c-18,0 -32,14 -32,32 0,18 14,32 32,32 18,0 32,-14 32,-32 0,-18 -14,-32 -32,-32z"/>
 </g>
</svg>
