<?xml version="1.0" encoding="UTF-8"?>
<!DOCTYPE svg PUBLIC "-//W3C//DTD SVG 1.1//EN" "http://www.w3.org/Graphics/SVG/1.1/DTD/svg11.dtd">
<!-- Creator: CorelDRAW X8 -->
<svg xmlns="http://www.w3.org/2000/svg" xml:space="preserve" width="128px" height="128px" version="1.1" style="shape-rendering:geometricPrecision; text-rendering:geometricPrecision; image-rendering:optimizeQuality; fill-rule:evenodd; clip-rule:evenodd"
viewBox="0 0 128 128"
 xmlns:xlink="http://www.w3.org/1999/xlink">
 <defs>
  <style type="text/css">
   <![CDATA[
    .fil0 {fill:none}
    .fil1 {fill:white}
   ]]>
  </style>
 </defs>
 <g id="Слой_x0020_1">
  <metadata id="CorelCorpID_0Corel-Layer"/>
  <g id="_2504398198400">
   <rect class="fil0" width="128" height="128"/>
   <g>
    <path class="fil1" d="M36 124l5 2 -5 -2zm5 2c0,0 -5,-2 -5,-2 -1,-6 -2,-16 0,-22 1,-7 9,-39 9,-39 0,0 -2,-5 -2,-12 0,-22 24,-25 24,-8 0,7 -4,17 -7,26 -2,8 4,14 12,14 14,0 25,-14 25,-35 0,-19 -14,-32 -33,-32 -22,0 -36,16 -36,34 0,6 3,14 6,17 1,1 1,2 1,3 -1,2 -2,8 -2,9 -1,1 -2,1 -3,1 -10,-5 -16,-19 -16,-31 0,-24 18,-47 52,-47 27,0 48,19 48,45 0,27 -17,49 -41,49 -8,0 -15,-4 -18,-9 0,0 -3,15 -4,18 -2,7 -7,16 -10,21z"/>
   </g>
  </g>
 </g>
</svg>
