<?xml version="1.0" encoding="UTF-8"?>
<!DOCTYPE svg PUBLIC "-//W3C//DTD SVG 1.1//EN" "http://www.w3.org/Graphics/SVG/1.1/DTD/svg11.dtd">
<!-- Creator: CorelDRAW X8 -->
<svg xmlns="http://www.w3.org/2000/svg" xml:space="preserve" width="128px" height="128px" version="1.1" style="shape-rendering:geometricPrecision; text-rendering:geometricPrecision; image-rendering:optimizeQuality; fill-rule:evenodd; clip-rule:evenodd"
viewBox="0 0 128 128"
 xmlns:xlink="http://www.w3.org/1999/xlink">
 <defs>
  <style type="text/css">
   <![CDATA[
    .fil0 {fill:none}
    .fil1 {fill:white}
   ]]>
  </style>
 </defs>
 <g id="Слой_x0020_1">
  <metadata id="CorelCorpID_0Corel-Layer"/>
  <rect class="fil0" width="128" height="128"/>
  <path class="fil1" d="M122 15c-4,3 -10,6 -16,6 -12,-16 -47,-7 -43,24 -25,-2 -36,-11 -53,-27 -6,18 -4,25 8,34 -5,0 -8,-1 -11,-3 0,13 9,23 19,25 -3,2 -7,1 -10,1 2,11 12,17 23,18 -7,8 -26,10 -37,10l3 2c41,25 101,1 108,-55 0,-4 0,-8 0,-11 4,-3 11,-9 13,-13 -3,1 -10,3 -14,3 4,-3 10,-8 10,-14z"/>
 </g>
</svg>
