<svg xmlns="http://www.w3.org/2000/svg" xmlns:xlink="http://www.w3.org/1999/xlink" viewBox="0 0 3710 3710"><defs><style>.cls-1{fill:none;}.cls-2{isolation:isolate;}.cls-3{fill:#f4f7fa;}.cls-4{fill:url(#linear-gradient);}.cls-5{fill:url(#linear-gradient-2);}.cls-6{fill:url(#linear-gradient-3);}.cls-14,.cls-7,.cls-8,.cls-9{opacity:0.95;}.cls-7{fill:url(#linear-gradient-4);}.cls-8{fill:url(#linear-gradient-5);}.cls-9{fill:url(#linear-gradient-6);}.cls-10,.cls-18{mix-blend-mode:multiply;opacity:0.3;}.cls-10{fill:url(#linear-gradient-7);}.cls-11{fill:url(#linear-gradient-8);}.cls-12{fill:url(#linear-gradient-9);}.cls-13{fill:url(#linear-gradient-10);}.cls-14{fill:url(#linear-gradient-11);}.cls-15{clip-path:url(#clip-path);}.cls-16{fill:url(#linear-gradient-12);}.cls-17{fill:url(#linear-gradient-13);}.cls-19{fill:url(#linear-gradient-14);}.cls-20{fill:url(#linear-gradient-15);}.cls-21{fill:url(#linear-gradient-16);}.cls-22{fill:url(#linear-gradient-17);}.cls-23{fill:url(#linear-gradient-18);}.cls-24{fill:url(#linear-gradient-19);}.cls-25{fill:url(#linear-gradient-20);}</style><linearGradient id="linear-gradient" x1="993.8" y1="764.42" x2="2399.8" y2="764.42" gradientTransform="matrix(0.99, 0.15, -0.15, 0.99, 455.79, -94.92)" gradientUnits="userSpaceOnUse"><stop offset="0" stop-color="#e38ddd"/><stop offset="1" stop-color="#9571f6"/></linearGradient><linearGradient id="linear-gradient-2" x1="2088.71" y1="891.41" x2="2076.69" y2="1696.73" gradientUnits="userSpaceOnUse"><stop offset="0" stop-color="#40447e"/><stop offset="1" stop-color="#3c3b6b"/></linearGradient><linearGradient id="linear-gradient-3" x1="1490.85" y1="1994.87" x2="2675.25" y2="1994.87" xlink:href="#linear-gradient-2"/><linearGradient id="linear-gradient-4" x1="989.46" y1="3307.5" x2="2190.1" y2="1175.33" gradientUnits="userSpaceOnUse"><stop offset="0" stop-color="#32baa5"/><stop offset="0.44" stop-color="#51ebe8"/><stop offset="1" stop-color="#5cfdc3"/></linearGradient><linearGradient id="linear-gradient-5" x1="1259.01" y1="3459.28" x2="2459.65" y2="1327.11" xlink:href="#linear-gradient-4"/><linearGradient id="linear-gradient-6" x1="1527.24" y1="3610.32" x2="2727.88" y2="1478.15" xlink:href="#linear-gradient-4"/><linearGradient id="linear-gradient-7" x1="1490.85" y1="1999.52" x2="2496.58" y2="1999.52" gradientUnits="userSpaceOnUse"><stop offset="0" stop-color="#24abb5"/><stop offset="1" stop-color="#40cf9f"/></linearGradient><linearGradient id="linear-gradient-8" x1="3191.61" y1="854.97" x2="2494.73" y2="2000.34" gradientTransform="translate(468.57 -72.9) rotate(9.65)" xlink:href="#linear-gradient"/><linearGradient id="linear-gradient-9" x1="471.31" y1="1883.59" x2="1790.76" y2="1883.59" gradientTransform="translate(913.02 -113.86) rotate(17.96)" xlink:href="#linear-gradient"/><linearGradient id="linear-gradient-10" x1="654.32" y1="2434.4" x2="2073.19" y2="2434.4" gradientUnits="userSpaceOnUse"><stop offset="0" stop-color="#ab316d"/><stop offset="1" stop-color="#792d3d"/></linearGradient><linearGradient id="linear-gradient-11" x1="1695.54" y1="2000.35" x2="960.59" y2="3180.41" gradientUnits="userSpaceOnUse"><stop offset="0" stop-color="#fcb148"/><stop offset="0.05" stop-color="#fdba46"/><stop offset="0.14" stop-color="#ffc244"/><stop offset="0.32" stop-color="#ffc444"/><stop offset="0.48" stop-color="#fdb946"/><stop offset="0.78" stop-color="#f99c4d"/><stop offset="0.87" stop-color="#f8924f"/><stop offset="1" stop-color="#f8924f"/></linearGradient><clipPath id="clip-path"><path class="cls-1" d="M1846.08,1300.61l-811.78-121.9s-461.8,32.51-468.7,34.81c0,0,1.79,639.11,1.79,648.31S943.91,2382,943.91,2382a536.39,536.39,0,0,0-9.28,83.11c-9.26,282.56,207.32,500.26,482.23,486.34,209.51-10.61,392.25-152.83,470.22-344.57h0l116.11-206.79,93.87-729.13Z"/></clipPath><linearGradient id="linear-gradient-12" x1="-5633.27" y1="16.79" x2="-5901.33" y2="820.97" gradientTransform="translate(7220.31 -94.46) rotate(-18.42)" xlink:href="#linear-gradient-10"/><linearGradient id="linear-gradient-13" x1="3970.51" y1="2309.53" x2="4508.69" y2="2309.53" gradientTransform="matrix(-1, 0, 0, 1, 5936.86, 0)" gradientUnits="userSpaceOnUse"><stop offset="0" stop-color="#ff9085"/><stop offset="1" stop-color="#fb6fbb"/></linearGradient><linearGradient id="linear-gradient-14" x1="3970.51" y1="2315.35" x2="4508.69" y2="2315.35" xlink:href="#linear-gradient-13"/><linearGradient id="linear-gradient-15" x1="4354.68" y1="2636.11" x2="4950.99" y2="2636.11" xlink:href="#linear-gradient-13"/><linearGradient id="linear-gradient-16" x1="2127.39" y1="1989.63" x2="3270.18" y2="1989.63" gradientTransform="matrix(-0.85, -0.52, -0.52, 0.85, 4480.77, 1403.06)" gradientUnits="userSpaceOnUse"><stop offset="0" stop-color="#311944"/><stop offset="1" stop-color="#6b3976"/></linearGradient><linearGradient id="linear-gradient-17" x1="2127.38" y1="2117.4" x2="3270.18" y2="2117.4" xlink:href="#linear-gradient-16"/><linearGradient id="linear-gradient-18" x1="4596.56" y1="2466.46" x2="4584.95" y2="2092.07" gradientTransform="matrix(-1, 0, 0, 1, 5936.86, 0)" xlink:href="#linear-gradient-10"/><linearGradient id="linear-gradient-19" x1="1656.98" y1="2644.33" x2="1762.9" y2="2297.53" gradientTransform="matrix(-1, 0.01, 0.01, 1, 3065.62, -417.67)" xlink:href="#linear-gradient-10"/><linearGradient id="linear-gradient-20" x1="4354.68" y1="2764.89" x2="4950.99" y2="2764.89" xlink:href="#linear-gradient-13"/></defs><g class="cls-2"><g id="Illustration"><path class="cls-3" d="M3226.11,1643.77c-55.75-365-100.51-617.16-301.85-755.36-339.61-233.12-718.88,145.32-1200-108.62-236.86-125-245.73-270-446.33-289.23-354.91-34-645.55,389.5-670.74,425.83-153,220.69-204.17,489.79-142.12,746.35,40.29,166.63,67.52,339.09,60,510.32-13,298-5.52,576.17,283.68,753.9,258.23,158.68,583.22,298.64,893.26,323.15,210.7,16.66,447-10.3,650.07-65.15C3387.1,2905.39,3302.77,2145.55,3226.11,1643.77Z"/><path class="cls-4" d="M2458.51,538.63c-295.6-204.65-741-1.48-942.55,262.69-54.16,71-88.71,143.78-111.22,208.66-84.73,116.17-135.41,221.34-139.84,230.69a29.58,29.58,0,0,0,14,39.41c.72.35,1.46.66,2.19.94a29.6,29.6,0,0,0,37.23-15c2.26-4.74,228.75-474.36,524-516.39,103-14.65,205.63,11.88,295.82,52.85a13,13,0,0,1-9.65,24.19c-171-59-382.63-58-549.1,178.08,32.45-9.87,67-16,103.41-16.2,208-1.27,296.32,185.35,537.49,246.4,104.3,26.41,259.62,35,473.27-54.92C2723.63,920.13,2642.38,665.94,2458.51,538.63Z"/><path class="cls-5" d="M2364.56,897.5c0-29.73-126-53.83-281.51-53.83s-281.51,24.1-281.51,53.83h0v746.37c0,29.73,126,53.83,281.51,53.83s281.51-24.1,281.51-53.83V897.5Z"/><path class="cls-6" d="M2675.25,1052.28c0-62.54-265.14-113.23-592.2-113.23s-592.2,50.69-592.2,113.23h0V2937.47c0,62.53,265.13,113.23,592.2,113.23s592.2-50.7,592.2-113.23V1052.28Z"/><path class="cls-7" d="M2601.89,1654.2V1076.67c-18.33-8.84-62.42-25.19-157.57-39.92-101.32-15.7-229.62-24.34-361.27-24.34s-260,8.64-361.27,24.34c-95.15,14.73-139.24,31.08-157.57,39.92v579.59C1931.11,1636.3,2274.16,1635.63,2601.89,1654.2Z"/><path class="cls-8" d="M2601.89,2300V1689.76c-327.6-18.65-670.62-18-1037.68,2v606.13C1931.27,2318,2274.29,2318.63,2601.89,2300Z"/><path class="cls-9" d="M2116.31,2349c-178.44,0-362.07-5.18-552.1-15.51v579.58c18.33,8.85,62.42,25.19,157.57,39.93,101.32,15.69,229.62,24.34,361.27,24.34s259.95-8.65,361.27-24.34c95.15-14.74,139.24-31.08,157.57-39.93V2335.54C2443.9,2344.5,2282.36,2349,2116.31,2349Z"/><path class="cls-10" d="M1843.39,2069.48c-74.3-302.85,234.46-481,179.76-804.65-21.05-124.58-89-229.48-175.39-316.49-210,17.41-356.91,57.39-356.91,103.94V2937.47c0,62.53,265.13,113.23,592.2,113.23,160.91,0,306.8-12.28,413.53-32.19-1.45-167.7-44.29-287.7-96.78-375.51C2226.5,2353.08,1913.47,2355.11,1843.39,2069.48Z"/><path class="cls-11" d="M2963.06,2687.6C3268,2497.1,3257.58,2007.68,3094.72,1718c-43.75-77.82-96.94-138.36-147.63-184.69-73.16-123.78-149.7-211.94-156.53-219.71a29.58,29.58,0,0,0-41.75-2.71c-.6.53-1.18,1.08-1.73,1.65a29.58,29.58,0,0,0-1,40.1c3.46,3.95,345.15,397.77,266.92,685.6-35.37,130.09-134.06,232.29-232.13,305.43a9.27,9.27,0,0,1-11.67-14.38C2918.93,2197,3057.47,1981,2882.73,1695.85c-3.77,33.71-11.82,67.81-26,101.38-81.12,191.53-287.46,198.81-439,396.14-65.51,85.34-134.86,224.59-136.81,456.39C2507.79,2780.16,2773.39,2806.11,2963.06,2687.6Z"/><path class="cls-12" d="M779.34,1831.35c-85.72,349.15,263,692.73,581.68,786.8,85.62,25.28,166,31.58,234.6,29.46,138.75,37.7,255.09,47.53,265.4,48.34a29.58,29.58,0,0,0,31.81-27.17c.07-.8.1-1.6.1-2.39a29.6,29.6,0,0,0-27.26-29.44c-5.23-.41-524.75-44.46-669.37-305.32-60.77-109.63-65.48-240.15-50.33-355a10.35,10.35,0,0,1,20.61,1.83c-8.73,194.67,51.42,428.74,361.86,507.82-20.8-26.8-38.81-56.85-52-90.83-75.39-193.85,67.44-342.95,38.43-590-12.54-106.85-59.92-255-220.15-422.53C1041.15,1447.56,832.67,1614.15,779.34,1831.35Z"/><path class="cls-13" d="M657.48,2418.05l-3.14,95.81c-.92,28.11,20.78,49.85,48.46,48.57l50.28-2.33a607.82,607.82,0,0,0,28.42,130.69L739,2717.26c-24.39,15.2-33.62,46.7-20.59,70.33l44.37,80.49c13,23.59,75.8,37.62,100.13,22.38L870.6,2858a557.7,557.7,0,0,0,91.75,93.88l-23.24,39.94c-14.53,25-7.39,55.52,15.93,68.23l79.37,43.27c23.25,12.67,98.73,14.64,113.19-10.28l-22.66-50.28a566.88,566.88,0,0,0,130,29.33l-1.4,42.45c-.91,27.85,20.4,49.2,47.58,47.69l92.48-5.15c27.08-1.5,49.75-25.23,50.67-53l1.38-42.32a639.74,639.74,0,0,0,131.17-43.26l19.53,35.85c12.68,23.26,90.51,35.23,114.25,20.12l32.49-56.83c23.67-15.07,32.62-46.09,20-69.32l-20.2-37.2a705.39,705.39,0,0,0,95.75-102.26l37.52,20.87c22.67,12.61,89.82,19.06,103.93-5.5l10.73-99.78c14.09-24.52,7.19-54.63-15.41-67.29L1936,2635.09a677,677,0,0,0,35.87-131.42l48.43-2.24c26.58-1.23,48.85-24.54,49.76-52.06l3.07-93.81c.9-27.53-19.9-48.9-46.49-47.74L1975.4,2310a603.59,603.59,0,0,0-30.43-125l46.93-29.39c23.5-14.73,32.39-45.55,19.87-68.87l8.93-93.22c-12.54-23.37-93.45-16.76-117-2.08l-49.38,30.78a557.89,557.89,0,0,0-86.65-87.14l30.42-52.42c14.17-24.42,7.23-54.74-15.52-67.73l-33.83-50.85c-22.81-13-96.69,2.74-110.93,27.22l-31.26,53.71a566.21,566.21,0,0,0-120-28.44l2-61.49c.91-27.78-20.28-49.54-47.34-48.62l-92.41,3.15c-27.16.93-49.93,24.25-50.85,52.1l-2,61.67a635.08,635.08,0,0,0-123.31,37.35l18.36-65.06c-12.86-23.7-89.43-17.81-113.58-3l-82.45,50.53c-24.22,14.84-33.39,46.13-20.45,69.86l27.71,50.86a703.36,703.36,0,0,0-94.93,95.26l2.08-32.59c-23.4-13.1-105.22,1.59-119.81,26.42l-49.79,84.71c-14.62,24.88-7.44,55.64,16,68.7l46.76,26a679.32,679.32,0,0,0-40,130.21L709.27,2365C681.6,2366.19,658.4,2389.94,657.48,2418.05ZM892.89,2465c8.88-271.05,231-499.24,494.6-509.61,262-10.32,466.14,198.69,457.36,466.78s-227.24,496.1-489.36,509.37C1091.77,2944.87,884,2736,892.89,2465Z"/><path class="cls-14" d="M719.42,2417.24l-3.14,95.8c-.92,28.11,20.78,49.85,48.45,48.57l50.29-2.33A606.62,606.62,0,0,0,843.44,2690L801,2716.45c-24.4,15.2-33.62,46.69-20.6,70.33l44.38,80.48c13,23.6,43.27,30.35,67.6,15.12l40.2-25.18a558.07,558.07,0,0,0,91.75,93.88L1001,2991c-14.53,25-7.39,55.51,15.93,68.23l79.37,43.26c23.25,12.68,53.81,2.73,68.27-22.19l22.27-38.37a566.81,566.81,0,0,0,130,29.34l-1.39,42.44c-.91,27.86,20.39,49.2,47.57,47.69l92.48-5.14c27.08-1.51,49.76-25.24,50.67-53l1.39-42.32a639.27,639.27,0,0,0,131.16-43.27l19.54,35.86c12.68,23.26,42.2,29.85,65.94,14.73l80.8-51.44c23.66-15.07,32.62-46.1,20-69.33l-20.19-37.19A704.88,704.88,0,0,0,1900.62,2808l37.52,20.88c22.67,12.61,52.49,2.91,66.6-21.65l48.07-83.64c14.08-24.52,7.19-54.63-15.42-67.28L1998,2634.27a675.7,675.7,0,0,0,35.87-131.41l48.43-2.25c26.59-1.23,48.86-24.53,49.76-52.06l3.07-93.81c.91-27.52-19.9-48.89-46.48-47.74l-51.28,2.23a602.89,602.89,0,0,0-30.43-125l46.93-29.39c23.5-14.72,32.4-45.54,19.88-68.87L2031,2006.41c-12.54-23.37-41.81-30.42-65.37-15.73l-49.39,30.77a557.4,557.4,0,0,0-86.65-87.13L1860,1881.9c14.17-24.43,7.23-54.74-15.51-67.73l-77.66-44.34c-22.81-13-52.86-3.77-67.1,20.7l-31.26,53.72a565.14,565.14,0,0,0-120-28.44l2-61.5c.91-27.77-20.27-49.53-47.33-48.61l-92.42,3.15c-27.16.92-49.93,24.25-50.84,52.1l-2,61.67A635.84,635.84,0,0,0,1234.52,1860l-28.2-52c-12.87-23.69-42.87-30.92-67-16.12l-82.45,50.53c-24.22,14.84-33.38,46.13-20.45,69.86l27.72,50.86a703.36,703.36,0,0,0-94.94,95.25L920.25,2031c-23.4-13.09-54.21-3.6-68.8,21.23l-49.79,84.71c-14.61,24.88-7.43,55.63,16,68.69l46.77,26a679.66,679.66,0,0,0-40,130.22l-53.24,2.31C743.53,2365.37,720.34,2389.13,719.42,2417.24Zm215.21,47.83c9.26-282.55,240.77-520.42,515.58-531.23,273.14-10.75,485.92,207.13,476.76,486.59s-236.87,517.15-510.11,531C1142,2965.33,925.37,2747.63,934.63,2465.07Z"/><g class="cls-15"><path class="cls-16" d="M1826.13,2009c6.3-24.81,30.18-115.56,45.63-155.73,21.38-55.63,54-123.83,61.72-121.09,4.5,1.6-.61,27.28-1.35,31-6.73,33.85-20.05,38.51-18,57.14,2.23,19.92,18.24,21.59,19.35,43.53.91,17.84-8.92,31.57-10.46,33.67-10.91,14.81-22.74,13.1-34.14,25.09-18.36,19.31-23.1,79-23.09,106Z"/><path class="cls-17" d="M1825.56,1990.88l47.58,20.09a613.69,613.69,0,0,1,67.53,166.33c19.13,79,62.73,259.1-40.24,367.58-78.54,82.73-203.72,83.32-251.32,83.3-44,0-83.24.27-120.65-20.9-81.81-46.29-115.25-172-94.1-314,85.37,80.69,187.56,111.23,249.52,75.06,48.73-28.44,71-97.24,80.5-126.5,14.13-43.51,9.77-63.84,22.06-124.08A679.64,679.64,0,0,1,1825.56,1990.88Z"/><g class="cls-18"><path class="cls-19" d="M1709.08,2547.83c26-35,12.34-75.37,54.17-116.08,52.9-51.49,115.8-27,141.24-69.66,20.76-34.83-6.32-76-27.09-141.24-16.11-50.56-30.7-122.77-24.27-218.33l20,8.45a613.69,613.69,0,0,1,67.53,166.33c19.13,79,62.73,259.1-40.24,367.58-78.54,82.73-203.72,83.32-251.32,83.3-44,0-83.24.27-120.65-20.9a148.24,148.24,0,0,1-28.71-21.27C1631.83,2604.66,1685.78,2579.25,1709.08,2547.83Z"/></g><path class="cls-20" d="M986.06,2932.93c-.89-44-3.25-286.54,114.19-461,26.92-40,74.55-110.73,166-157.54a391.32,391.32,0,0,1,89.87-32.78l78.24,11.64a475.74,475.74,0,0,1,88.81,108.9c19,32,50.34,84.86,57.6,153.14,8.47,79.58-23.16,111-49.14,234.89a985.25,985.25,0,0,0-20.09,160.71l-270.67,23.26a1270.43,1270.43,0,0,0-12.68-141.68,1271.58,1271.58,0,0,0-29.61-143.79,1096.07,1096.07,0,0,0-32.77,289.7c-11,4.32-72.68,27.45-132.17-4.23A144.38,144.38,0,0,1,986.06,2932.93Z"/><path class="cls-21" d="M1370.5,2199c77-10.43,115.51-15.65,141.45-36.55,56.68-45.66,69-129.1,58.76-187.85-14.44-82.44-76.81-135.22-116.28-168.62-50.72-42.92-62.34-31.91-81.56-59.13-53.11-75.24,33.57-162.29,14.4-281.56-21.15-131.59-156.18-209.21-191.09-227.49-186-97.41-372.4,1.17-391.33,11.6C629.53,1346,560.29,1549.55,583.4,1705.32c6.61,44.54,23.52,158.49,101.06,195.65,74.67,35.78,142.17-30,247.69,17,14.74,6.56,59.42,26.47,94.09,71.73,39.16,51.11,28.61,86.32,71.61,138.82,34.87,42.57,76.25,61.46,84.58,65.14C1234.86,2216.76,1280.8,2211.16,1370.5,2199Z"/><g class="cls-18"><path class="cls-22" d="M766.52,1273.35c-120,155-138.16,226.09-115.43,256.73,31.81,42.88,136.14-3.73,188.63,58.72,47.22,56.18-7.93,128.7,36.19,179,55.77,63.62,171.28-21,249.29,36.5,92.85,68.41,3.16,242.74,94.27,339,27.6,29.14,74.78,54.21,160.51,54.44l-9.48,1.29c-89.7,12.15-135.64,17.75-188.07-5.36-8.33-3.68-49.71-22.57-84.58-65.14-43-52.5-32.45-87.71-71.61-138.82-34.67-45.26-79.35-65.17-94.09-71.73-105.52-47-173,18.79-247.69-17-77.54-37.16-94.45-151.11-101.06-195.65C562.06,1561.46,619.49,1376.81,766.52,1273.35Z"/></g><path class="cls-23" d="M1421.44,2163.94s2.19,56.5,0,94.43c-1.61,27.77,22.4,43.59,22.4,43.59s13.19,22.59-58.12,26.37-140.68,0-140.68,0,69.71-46.37,85.64-58.69,24.47-104.44,14.27-162.79Z"/><path class="cls-24" d="M1453.41,2025.94s37.12,87.14,37.43,140-36.36,83.56-64.52,70.77-70.93-67.37-70.93-67.37-5.53,14.86-27.18.26-38.4-97.56,3.64-74.37c0,0-6.84-23.24,3.15-57.13S1440.62,1966.84,1453.41,2025.94Z"/><g class="cls-18"><path class="cls-25" d="M1138.31,2820.64c31.45-49.36-16.5-92.14,3.87-170.26,17.39-66.66,74-118.7,94.81-110.29,28.75,11.63-27.74,131.82,29,187.68,37.68,37.08,86.8,7.95,137.37,40.63,33.35,21.55,66.86,69.72,69.48,185.83l-232,19.94a1270.43,1270.43,0,0,0-12.68-141.68,1271.58,1271.58,0,0,0-29.61-143.79,1096.07,1096.07,0,0,0-32.77,289.7c-11,4.32-72.68,27.45-132.17-4.23-3.32-1.77-6.46-3.64-9.46-5.55,1.53-25.62,8.09-54.88,27.07-80.26C1082.08,2847.1,1115.56,2856.35,1138.31,2820.64Z"/></g></g></g></g></svg>