<svg xmlns="http://www.w3.org/2000/svg" xmlns:xlink="http://www.w3.org/1999/xlink" viewBox="0 0 3710 3710"><defs><style>.cls-1{fill:url(#linear-gradient);}.cls-2{fill:url(#linear-gradient-2);}.cls-3{fill:url(#linear-gradient-3);}.cls-4,.cls-41{fill:#fff;}.cls-5{isolation:isolate;}.cls-6{fill:#f4f7fa;}.cls-7{clip-path:url(#clip-path-2);}.cls-41,.cls-8{mix-blend-mode:soft-light;}.cls-9{clip-path:url(#clip-path-3);}.cls-10{fill:url(#linear-gradient-6);}.cls-11{clip-path:url(#clip-path-4);}.cls-12{fill:url(#linear-gradient-8);}.cls-13{fill:url(#linear-gradient-9);}.cls-14{fill:url(#linear-gradient-10);}.cls-15{fill:url(#linear-gradient-11);}.cls-16{fill:url(#linear-gradient-12);}.cls-17{fill:url(#linear-gradient-13);}.cls-18{fill:url(#linear-gradient-14);}.cls-19{fill:url(#linear-gradient-15);}.cls-20{fill:url(#linear-gradient-16);}.cls-21{fill:url(#linear-gradient-17);}.cls-22{fill:url(#linear-gradient-18);}.cls-23,.cls-36,.cls-43{mix-blend-mode:multiply;opacity:0.3;}.cls-23{fill:url(#linear-gradient-19);}.cls-24{fill:url(#linear-gradient-20);}.cls-25{fill:url(#linear-gradient-21);}.cls-26{fill:url(#linear-gradient-22);}.cls-27{fill:url(#linear-gradient-23);}.cls-28{fill:url(#linear-gradient-24);}.cls-29{fill:url(#linear-gradient-25);}.cls-30{fill:url(#linear-gradient-26);}.cls-31{fill:url(#linear-gradient-27);}.cls-32{fill:url(#linear-gradient-28);}.cls-33{fill:url(#linear-gradient-29);}.cls-34{fill:url(#linear-gradient-30);}.cls-35{fill:url(#linear-gradient-31);}.cls-37{fill:url(#linear-gradient-33);}.cls-38{fill:url(#linear-gradient-34);}.cls-39{fill:url(#linear-gradient-35);}.cls-40{fill:url(#linear-gradient-36);}.cls-41{opacity:0.48;}.cls-42{fill:url(#linear-gradient-37);}.cls-43{fill:url(#linear-gradient-38);}.cls-44{fill:#d8dee8;}.cls-45{fill:url(#linear-gradient-39);}.cls-46{fill:url(#linear-gradient-40);}.cls-47{fill:url(#linear-gradient-41);}.cls-48{fill:url(#linear-gradient-42);}.cls-49{fill:url(#linear-gradient-43);}.cls-50{fill:url(#linear-gradient-44);}.cls-51{fill:url(#linear-gradient-45);}.cls-52{fill:url(#linear-gradient-46);}.cls-53{fill:url(#linear-gradient-47);}</style><linearGradient id="linear-gradient" x1="1995.51" y1="1056.01" x2="2511.88" y2="2699.01" gradientUnits="userSpaceOnUse"><stop offset="0" stop-color="#e38ddd"/><stop offset="1" stop-color="#9571f6"/></linearGradient><linearGradient id="linear-gradient-2" x1="3146.53" y1="5164.93" x2="3051.49" y2="4745.63" gradientUnits="userSpaceOnUse"><stop offset="0" stop-color="#aa80f9"/><stop offset="1" stop-color="#6165d7"/></linearGradient><linearGradient id="linear-gradient-3" x1="1895.96" y1="2601.97" x2="3085.53" y2="2601.97" gradientUnits="userSpaceOnUse"><stop offset="0" stop-color="#ff9085"/><stop offset="1" stop-color="#fb6fbb"/></linearGradient><clipPath id="clip-path"><path class="cls-4" d="M1851.28,2897.63l-2.08-2.85c132.45-96.92,261.8-142.59,384.4-135.73,53.61,3,91.23,14.94,127.61,26.48,45.49,14.42,88.45,28,159.72,25.07,128.26-5.35,237.7-48.88,308.17-122.55,109.13-114.1,133.28-305.51,61.52-487.64l3.29-1.3c72.26,183.41,47.82,376.29-62.26,491.38-71.09,74.34-181.39,118.25-310.57,123.64-71.94,3-115.15-10.71-160.94-25.23-36.17-11.48-73.58-23.34-126.74-26.32C2111.61,2755.78,1983.06,2801.21,1851.28,2897.63Z"/></clipPath><clipPath id="clip-path-2"><path class="cls-1" d="M1874.75,3107.61c-47.76-145.55-96.38-367.74-39.47-614.43,65.35-283.27,210.11-339.94,340.08-642.73C2360.89,1418.23,2150.91,1105.14,2343,973c93.66-64.42,240.94-64.47,331.75.2,259.07,184.53,188.05,988.28-223,1301.93-185.9,141.85-348.12,125-487.63,308.59C1840.83,2745.94,1850.5,2959.92,1874.75,3107.61Z"/></clipPath><clipPath id="clip-path-3"><path class="cls-2" d="M1726.69,2879.43c-16.16-97.77-25.45-250.46,54.13-387,138.84-238.22,391.91-159.2,634.13-414.43,195.37-205.85,133.81-365.84,350.29-502.64,36.23-22.9,227.7-148.92,370.08-73,80.23,42.77,109.3,130.57,114.76,147.06,82.48,249.12-171.27,639.14-502,817.53-190,102.49-251.33,69-585.72,188.53C1965.87,2725.68,1818.34,2816.13,1726.69,2879.43Z"/></clipPath><linearGradient id="linear-gradient-6" x1="321.84" y1="1445.65" x2="-1108.46" y2="2620.54" gradientTransform="translate(3271.1 1020.59) rotate(18.97)" xlink:href="#linear-gradient-3"/><clipPath id="clip-path-4"><path class="cls-3" d="M1896,2862.32A1055.68,1055.68,0,0,1,2159,2724.24c212.92-75.48,310.5-30.95,400.64-121,93.3-93.18,32.87-185,144.57-289,9.39-8.74,129.34-117.58,237.84-77.05,75.91,28.35,105.47,114.58,119.34,155,53.82,157,22.53,396.28-145,514.3-158.82,111.88-359.9,58.56-423.74,41.18-112-30.5-138.55-74.15-252.4-101.76C2101.83,2812.41,1977.38,2837.28,1896,2862.32Z"/></clipPath><linearGradient id="linear-gradient-8" x1="-749.1" y1="2839.96" x2="-605.21" y2="2839.96" gradientTransform="matrix(-1, 0, 0, 1, 230.29, 0)" gradientUnits="userSpaceOnUse"><stop offset="0" stop-color="#311944"/><stop offset="1" stop-color="#6b3976"/></linearGradient><linearGradient id="linear-gradient-9" x1="-649.95" y1="2831.79" x2="-530.86" y2="2474.52" gradientTransform="matrix(-1, 0, 0, 1, 230.29, 0)" gradientUnits="userSpaceOnUse"><stop offset="0" stop-color="#ffc444"/><stop offset="1" stop-color="#f36f56"/></linearGradient><linearGradient id="linear-gradient-10" x1="-1230.44" y1="2783.19" x2="-1086.55" y2="2783.19" xlink:href="#linear-gradient-8"/><linearGradient id="linear-gradient-11" x1="-1123.63" y1="2780.51" x2="-992.49" y2="2387.08" xlink:href="#linear-gradient-9"/><linearGradient id="linear-gradient-12" x1="1027.26" y1="1293.21" x2="1345.69" y2="2492.88" gradientTransform="matrix(1, 0, 0, 1, 0, 0)" xlink:href="#linear-gradient-8"/><linearGradient id="linear-gradient-13" x1="635.02" y1="2124.94" x2="1091.88" y2="2124.94" gradientTransform="matrix(1, 0, 0, 1, 0, 0)" xlink:href="#linear-gradient-8"/><linearGradient id="linear-gradient-14" x1="2261.74" y1="1415.28" x2="2125.98" y2="1879.35" gradientTransform="matrix(1, 0, 0, 1, 0, 0)" xlink:href="#linear-gradient-9"/><linearGradient id="linear-gradient-15" x1="1330.55" y1="1757.74" x2="2133.51" y2="1007.8" xlink:href="#linear-gradient-2"/><linearGradient id="linear-gradient-16" x1="993.25" y1="1363.92" x2="1778.22" y2="630.79" xlink:href="#linear-gradient-2"/><linearGradient id="linear-gradient-17" x1="1609.65" y1="1056.49" x2="1325.02" y2="1397.34" gradientUnits="userSpaceOnUse"><stop offset="0" stop-color="#444b8c"/><stop offset="1" stop-color="#26264f"/></linearGradient><linearGradient id="linear-gradient-18" x1="1263.57" y1="1123.27" x2="1127.81" y2="1587.33" gradientTransform="matrix(1, 0, 0, 1, 0, 0)" xlink:href="#linear-gradient-9"/><linearGradient id="linear-gradient-19" x1="993.23" y1="1363.9" x2="1778.2" y2="630.76" xlink:href="#linear-gradient-2"/><linearGradient id="linear-gradient-20" x1="1148.29" y1="-397.42" x2="1166.41" y2="-879.96" gradientTransform="translate(357.52 286.04) rotate(46.63)" xlink:href="#linear-gradient-9"/><linearGradient id="linear-gradient-21" x1="868.85" y1="-233.84" x2="753.2" y2="-527.58" gradientTransform="matrix(-0.84, -0.54, -0.54, 0.84, 2148.01, 1404.96)" xlink:href="#linear-gradient-8"/><linearGradient id="linear-gradient-22" x1="767.04" y1="-450.57" x2="761.87" y2="-33.7" gradientTransform="matrix(0.88, 0.48, -0.48, 0.88, 848.96, 639.09)" xlink:href="#linear-gradient-9"/><linearGradient id="linear-gradient-23" x1="833.15" y1="1192.5" x2="1618.12" y2="459.37" xlink:href="#linear-gradient-2"/><linearGradient id="linear-gradient-24" x1="3263.94" y1="4434.53" x2="3661.52" y2="4685.49" gradientTransform="matrix(-0.83, -0.56, -0.56, 0.83, 7514.84, -18.06)" gradientUnits="userSpaceOnUse"><stop offset="0" stop-color="#ab316d"/><stop offset="1" stop-color="#792d3d"/></linearGradient><linearGradient id="linear-gradient-25" x1="3572.35" y1="4460.38" x2="3298.79" y2="4499.87" xlink:href="#linear-gradient-24"/><linearGradient id="linear-gradient-26" x1="3396.81" y1="2822.59" x2="3261.84" y2="4168.9" gradientTransform="matrix(-0.83, -0.56, -0.56, 0.83, 7514.84, -18.06)" xlink:href="#linear-gradient-9"/><linearGradient id="linear-gradient-27" x1="3352.11" y1="2704.91" x2="3340.83" y2="3189.92" xlink:href="#linear-gradient-24"/><linearGradient id="linear-gradient-28" x1="3606.63" y1="4803.46" x2="3892.95" y2="4984.19" gradientTransform="matrix(-0.92, -0.39, -0.39, 0.92, 7315.66, -1096.42)" gradientUnits="userSpaceOnUse"><stop offset="0" stop-color="#40447e"/><stop offset="1" stop-color="#3c3b6b"/></linearGradient><linearGradient id="linear-gradient-29" x1="3702.32" y1="3642.58" x2="3605.12" y2="4612.16" gradientTransform="matrix(-0.92, -0.39, -0.39, 0.92, 7315.66, -1096.42)" xlink:href="#linear-gradient-9"/><linearGradient id="linear-gradient-30" x1="3670.14" y1="3557.84" x2="3662.01" y2="3907.12" gradientTransform="matrix(-0.92, -0.39, -0.39, 0.92, 7315.66, -1096.42)" xlink:href="#linear-gradient-24"/><linearGradient id="linear-gradient-31" x1="2721" y1="572.21" x2="2409.42" y2="979.16" gradientTransform="translate(-52.33 299.14) rotate(-8.67)" xlink:href="#linear-gradient-3"/><linearGradient id="linear-gradient-33" x1="2748.15" y1="593" x2="2436.58" y2="999.95" gradientTransform="translate(-52.33 299.14) rotate(-8.67)" xlink:href="#linear-gradient-3"/><linearGradient id="linear-gradient-34" x1="1623.83" y1="3127.32" x2="1426.55" y2="3210.18" gradientTransform="matrix(1, 0, 0, 1, 0, 0)" xlink:href="#linear-gradient-28"/><linearGradient id="linear-gradient-35" x1="1360.4" y1="2257.83" x2="1146.3" y2="2347.75" gradientTransform="matrix(1, 0, 0, 1, 0, 0)" xlink:href="#linear-gradient-28"/><linearGradient id="linear-gradient-36" x1="437.58" y1="2306.51" x2="2421.73" y2="2306.51" gradientTransform="matrix(1, 0, 0, 1, 0, 0)" xlink:href="#linear-gradient-28"/><linearGradient id="linear-gradient-37" x1="437.58" y1="3040.23" x2="3245.96" y2="3040.23" gradientTransform="matrix(1, 0, 0, 1, 0, 0)" xlink:href="#linear-gradient-28"/><linearGradient id="linear-gradient-38" x1="712.99" y1="3017.22" x2="2770.67" y2="3017.22" gradientTransform="matrix(1, 0, 0, 1, 0, 0)" xlink:href="#linear-gradient-28"/><linearGradient id="linear-gradient-39" x1="2156.68" y1="1050.28" x2="1382.02" y2="2062.08" xlink:href="#linear-gradient-3"/><linearGradient id="linear-gradient-40" x1="1435.17" y1="2396.24" x2="2172.94" y2="1626.85" xlink:href="#linear-gradient"/><linearGradient id="linear-gradient-41" x1="2597.56" y1="1947.95" x2="1965.19" y2="3096.77" gradientTransform="matrix(1, 0, 0, 1, 0, 0)" xlink:href="#linear-gradient-9"/><linearGradient id="linear-gradient-42" x1="2732.9" y1="2022.45" x2="2100.53" y2="3171.26" gradientTransform="matrix(1, 0, 0, 1, 0, 0)" xlink:href="#linear-gradient-9"/><linearGradient id="linear-gradient-43" x1="1613.54" y1="2766.5" x2="2576.2" y2="2365.97" xlink:href="#linear-gradient"/><linearGradient id="linear-gradient-44" x1="782.2" y1="1497.24" x2="766.96" y2="1544.02" gradientTransform="translate(2151.51 512.47) rotate(80.78)" gradientUnits="userSpaceOnUse"><stop offset="0.49" stop-color="#ebeff2"/><stop offset="1" stop-color="#fff"/></linearGradient><linearGradient id="linear-gradient-45" x1="863.01" y1="1497.24" x2="847.77" y2="1544.02" gradientTransform="translate(2138.82 338.76) rotate(76.72)" xlink:href="#linear-gradient-44"/><linearGradient id="linear-gradient-46" x1="943.82" y1="1497.24" x2="928.58" y2="1544.02" gradientTransform="translate(2287.23 352.95) rotate(80.78)" xlink:href="#linear-gradient-44"/><linearGradient id="linear-gradient-47" x1="2233.99" y1="1541.28" x2="2191.82" y2="1723.98" gradientTransform="matrix(1, 0, 0, 1, 0, 0)" xlink:href="#linear-gradient-9"/></defs><g class="cls-5"><g id="Illustration"><path class="cls-6" d="M1095.54,555.2c-96.45,140.6,16.64,368.56-126.48,474.3-139.32,102.94-310.47-65.79-441.77,22.82-194.77,131.44-159.2,732.9,125.57,1106.6C738.5,2271.3,810.06,2315,841.75,2442.13c68,272.92-171.12,435.26-125.61,570.24,102.49,303.93,1678.57,559,2311-354.44,295.36-426.59,339.55-1042.6,75.66-1510.46C2625.91,302.05,1312,239.71,1095.54,555.2Z"/><path class="cls-1" d="M1874.75,3107.61c-47.76-145.55-96.38-367.74-39.47-614.43,65.35-283.27,210.11-339.94,340.08-642.73C2360.89,1418.23,2150.91,1105.14,2343,973c93.66-64.42,240.94-64.47,331.75.2,259.07,184.53,188.05,988.28-223,1301.93-185.9,141.85-348.12,125-487.63,308.59C1840.83,2745.94,1850.5,2959.92,1874.75,3107.61Z"/><g class="cls-7"><g class="cls-8"><path class="cls-4" d="M1845,2741.25l-3.43-.87a1109.24,1109.24,0,0,1,62.48-179.45c59.38-132.54,124.82-205.34,207.67-297.5,53.84-59.9,114.87-127.8,185.36-225.09,131.86-182,172.77-245.88,209.33-348.66,72.41-203.52,61.29-386,48.21-476.62-18.54-128.59-61.69-251-128.24-363.73l3-1.79c66.78,113.15,110.08,236,128.69,365,13.12,91,24.28,274.08-48.38,478.32-36.71,103.19-77.7,167.24-209.8,349.55-70.6,97.44-131.69,165.4-185.6,225.37-82.64,91.93-147.91,164.55-207.07,296.59A1106.23,1106.23,0,0,0,1845,2741.25Z"/><path class="cls-4" d="M2546.3,1545.78l-.05-2.91c-2.66-150-98.52-247-178.46-302.07-86.75-59.71-173.95-84.17-174.82-84.41l.94-3.41c.87.24,88.64,24.87,175.88,84.9,80.1,55.13,176.05,152.15,179.93,301.95,13.81-8,81.27-49.59,142-126,62.38-78.58,130.16-211.2,98.8-396.78l3.49-.59c31.59,186.93-36.73,320.52-99.61,399.68-68.1,85.74-144.73,127.85-145.49,128.27Z"/><path class="cls-4" d="M2522.8,2027.3c-15.33,0-29.81-.76-43.2-2-84.18-7.7-144.49-35-145.09-35.28l-1.35-.62.37-1.44c38.61-147.21,5.11-255.67-29.8-320.74-37.84-70.54-85.44-106.73-85.92-107.09l2.12-2.83c.48.36,48.62,36.93,86.84,108.1,35.13,65.43,68.88,174.34,30.56,322,9.35,4,66,27.4,142.72,34.39,77.06,7,190.69-1.53,294.32-82.19l2.17,2.79C2690,2009.79,2596.52,2027.3,2522.8,2027.3Z"/><path class="cls-4" d="M2349.46,2308.6c-44.89,0-81.79-6.24-110.32-14-70.49-19.19-106.66-51.65-107-52l-.93-.86.5-1.16C2197,2091.05,2105.91,1846.4,2105,1844l3.31-1.25c.93,2.46,92,247.17,27.16,398.12,6.08,5.14,41.35,33.18,104.85,50.42,64.4,17.49,171.85,27.14,318-26.26l1.21,3.32C2477,2298.44,2406.74,2308.6,2349.46,2308.6Z"/></g></g><path class="cls-2" d="M1726.69,2879.43c-16.16-97.77-25.45-250.46,54.13-387,138.84-238.22,391.91-159.2,634.13-414.43,195.37-205.85,133.81-365.84,350.29-502.64,36.23-22.9,227.7-148.92,370.08-73,80.23,42.77,109.3,130.57,114.76,147.06,82.48,249.12-171.27,639.14-502,817.53-190,102.49-251.33,69-585.72,188.53C1965.87,2725.68,1818.34,2816.13,1726.69,2879.43Z"/><g class="cls-9"><g class="cls-8"><path class="cls-4" d="M1698.1,2997l-3.46-.72c48.65-233.69,140.93-390.69,274.27-466.65,65.27-37.19,117.24-43.07,172.26-49.3,59.18-6.69,120.37-13.62,201.14-62.46,78.5-47.47,106.64-93.18,142.27-151,32.05-52,71.93-116.82,161.45-203.1,78.46-75.63,135.6-111,186-142.25,54.61-33.82,97.74-60.54,147.68-126,81.57-106.89,124.21-244,126.72-407.38l3.53,0c-2.52,164.2-45.4,302-127.44,409.48-50.34,66-93.72,92.83-148.63,126.85-50.26,31.13-107.23,66.42-185.42,141.78-89.19,86-128.95,150.53-160.89,202.41-35.88,58.27-64.22,104.3-143.45,152.22-81.44,49.24-143,56.21-202.57,62.95-54.65,6.18-106.27,12-170.91,48.85C1838.24,2608.16,1746.54,2764.37,1698.1,2997Z"/><path class="cls-4" d="M2831.38,1938.75c-6.74,0-13.52-.1-20.4-.31l-2.36-.07.74-2.25c1.07-3.26,106-327.64-13.52-461.73l2.64-2.35c34.91,39.16,72.43,120.27,53,284.27-10.54,88.83-33.63,164.8-38,178.66,177.68,4.82,309.93-62.45,389.63-119.86,86.79-62.51,131.81-127.16,132.26-127.81l2.91,2c-.45.65-45.75,65.72-133,128.59C3127.8,1873.7,3001.09,1938.75,2831.38,1938.75Z"/><path class="cls-4" d="M2844.43,2215.12c-27.4,0-52.88-1.42-76-3.65-124.3-12-208.61-49.11-209.45-49.48l-1.38-.62.4-1.47c46.72-169.14,5.5-409.79,5.08-412.2l3.48-.61c.42,2.41,41.53,242.45-4.75,412.27,11.43,4.84,92,37.55,207.09,48.61,114.16,11,286.58,2.26,459.7-101.52l1.82,3C3091.49,2192.77,2953,2215.12,2844.43,2215.12Z"/><path class="cls-4" d="M2697.14,2609.71c-162.42,0-287.92-34.33-366-63.95-88.92-33.75-137.21-68.9-137.69-69.25l-1.5-1.1,1.18-1.44c128.43-156.78,78.39-415.79,77.87-418.38l3.47-.7c.52,2.61,50.55,261.65-77.4,419.84,18.71,13,207.8,138,525,131.17l.08,3.53Q2709.52,2609.72,2697.14,2609.71Z"/></g></g><path class="cls-10" d="M1896,2862.32A1055.68,1055.68,0,0,1,2159,2724.24c212.92-75.48,310.5-30.95,400.64-121,93.3-93.18,32.87-185,144.57-289,9.39-8.74,129.34-117.58,237.84-77.05,75.91,28.35,105.47,114.58,119.34,155,53.82,157,22.53,396.28-145,514.3-158.82,111.88-359.9,58.56-423.74,41.18-112-30.5-138.55-74.15-252.4-101.76C2101.83,2812.41,1977.38,2837.28,1896,2862.32Z"/><path class="cls-3" d="M1896,2862.32A1055.68,1055.68,0,0,1,2159,2724.24c212.92-75.48,310.5-30.95,400.64-121,93.3-93.18,32.87-185,144.57-289,9.39-8.74,129.34-117.58,237.84-77.05,75.91,28.35,105.47,114.58,119.34,155,53.82,157,22.53,396.28-145,514.3-158.82,111.88-359.9,58.56-423.74,41.18-112-30.5-138.55-74.15-252.4-101.76C2101.83,2812.41,1977.38,2837.28,1896,2862.32Z"/><g class="cls-11"><g class="cls-8"><path class="cls-4" d="M1851.28,2897.63l-2.08-2.85c132.45-96.92,261.8-142.59,384.4-135.73,53.61,3,91.23,14.94,127.61,26.48,45.49,14.42,88.45,28,159.72,25.07,128.26-5.35,237.7-48.88,308.17-122.55,109.13-114.1,133.28-305.51,61.52-487.64l3.29-1.3c72.26,183.41,47.82,376.29-62.26,491.38-71.09,74.34-181.39,118.25-310.57,123.64-71.94,3-115.15-10.71-160.94-25.23-36.17-11.48-73.58-23.34-126.74-26.32C2111.61,2755.78,1983.06,2801.21,1851.28,2897.63Z"/><path class="cls-4" d="M2881.73,2616.46l.2-2.71c8.23-109.27-57.57-192.16-114.22-242.46-61.49-54.6-125.73-83.64-126.38-83.92l1.45-3.23c.64.29,65.38,29.55,127.28,84.51,56.77,50.4,122.63,133.25,115.59,242.61,23.93-9.27,207.59-85.27,219.63-235.53l3.52.29c-13,162.23-222.4,238.78-224.51,239.53Z"/><path class="cls-4" d="M2841.3,2865.09a441.23,441.23,0,0,1-83-7.73c-87.83-16.84-139.19-55.42-139.7-55.81l-1.37-1.05,1-1.39c64-88.21,53.34-184.88,33.15-250.45-21.91-71.16-59.45-122-59.83-122.53l2.84-2.12c.38.51,38.28,51.87,60.37,123.61,20.32,66,31.05,163.13-32.64,252.13,8.73,6.18,57.93,39.05,137,54.17,80.37,15.37,208.91,15,365-73.78l1.75,3.07C3014.73,2846.45,2917.4,2865.09,2841.3,2865.09Z"/></g></g><path class="cls-12" d="M949.89,2839.92l-72-43.26H845.4s-11.06,41.2-9.81,43.26c14.48,23.72,81.88,41.77,123.94,43.26,7,.25,16.72.28,19.24-4.78C983,2869.83,964,2851.85,949.89,2839.92Z"/><path class="cls-13" d="M876.62,2749.46c-.12,25.2,1,43,7.27,50.8,4.44,5.51-38.25,17.89-38.49-3.6-.15-14.15-2.37-38.42-4.63-45.54Z"/><path class="cls-14" d="M1431.24,2783.14l-72-43.25h-32.49s-11.07,41.19-9.81,43.25c14.47,23.72,81.88,41.77,123.94,43.26,7,.25,16.72.29,19.24-4.77C1464.38,2813.06,1445.34,2795.07,1431.24,2783.14Z"/><path class="cls-15" d="M1337.37,2693c10.49,20.06,21.56,42.68,27.87,50.5,4.44,5.5-31,16.56-38.49-3.6-6-16.35-23-38.11-25.23-45.24Z"/><path class="cls-16" d="M1322.56,1512.76A3211.09,3211.09,0,0,0,1367,2705l-66.65,17.28c-27.66-6.4-66.87-20.27-93.8-54.3-35.42-44.75-19.27-86-44.44-160.45-24-71.06-52.73-74.84-81.45-135.77-37.47-79.47-14.59-128.15-17.28-234.5-4.56-179.91-73.92-193.85-96.27-417.17-11.71-116.92-17.48-184.06,24.68-227.1C1050.83,1432.74,1180.65,1443.43,1322.56,1512.76Z"/><path class="cls-17" d="M1169.52,1525.1a3281.35,3281.35,0,0,0-266.59,1249H828.87C807.46,2743,779.3,2694.65,762.22,2631c-17-63.5-6.31-79.86-17.27-180.2-15-136.74-34.52-143-32.1-224.63,2.79-93.76,31.28-93.39,42-187.6,15.81-139.37-41.75-182.38-39.5-311,1-57.79,14.32-144.85,79-251.79Z"/><path class="cls-18" d="M2142.1,1503.44l29,25.73s63.73-2.51,86.68,3.32,62.54,25.74,62.54,25.74-9.9,14.61-23.93,9.07-35.73-13-39.89-11-14,28.46-47.4,32.87-49-34.91-49-34.91l-31.64-26.87Z"/><path class="cls-19" d="M1809.47,825.91c11.76,1.45,34.8,8.56,87,105.53,72.5,134.67,72.36,211.28,111.08,294.36,28.9,62,86.23,142.07,212.12,213.37l-28.53,33.6a610,610,0,0,1-223.78-23.42c-28.8-8.64-81.36-24.8-137.63-61.35-42-27.29-171.21-111.19-190.6-251.06C1618,984,1735.57,816.84,1809.47,825.91Z"/><path class="cls-20" d="M1146.69,653.74c75.72-24.26,135-17.54,240.67-5.55,154.23,17.49,253.1,68.61,338.79,112.93,84.23,43.55,106.53,68.13,118.49,96.27,27.9,65.61-6.09,137.3-27.77,181.43-55.35,112.67-106.72,108.75-224,244.37-103.19,119.32-154.79,179-188.84,266.6-15.06,38.76-29.77,89-77.75,118.48-46.58,28.67-99.46,22.46-129.6,18.52-126.59-16.57-137.82-98.28-220.31-92.57-65.73,4.55-80,57.91-192.54,75.9-50.3,8.05-65,.19-72.2-5.55-27.39-21.75-24.2-73.75,1.85-179.58,40.06-162.71,75.75-215.46,109.23-344.35,34.77-133.85,8-122.08,37-198.09C869.49,917,949.44,716.93,1146.69,653.74Z"/><path class="cls-21" d="M1162.22,1328.32l266.87-292.91a28.8,28.8,0,0,1,27.59-11l305.63,50a17.49,17.49,0,0,1,11,28L1524.84,1422a28.78,28.78,0,0,1-28.23,10.59L1179.66,1374A28.78,28.78,0,0,1,1162.22,1328.32Z"/><path class="cls-22" d="M1151,1234l57.12-24.93s21.82-31.16,39.47-36.35,81,2.08,81,2.08-6.23,24.93-18.69,29.08-50.9,7.27-57.13,19.74-29.09,21.81-37.4,17.65-61.28,13.51-61.28,13.51Z"/><path class="cls-23" d="M1170.75,1620.14c-26.33-32.16-12.12-70.73-48.13-103.68-58.66-53.66-164.81-14-170.32-33.32-6.61-23.2,152.38-56.82,170.32-148.11,8.13-41.39-21.81-48.43-18.51-103.67,3.09-51.8,35.42-94.48,100-177.73,51-65.73,64.74-71.08,66.65-96.27,5.72-75.72-89.93-128.42-129.6-155.51-48.51-33.14-99.2-50.32-146.52-58.19C906.3,825,866.43,925,859.73,942.55c-29,76-2.26,64.24-37,198.09-33.48,128.89-69.17,181.64-109.23,344.35-26.05,105.83-29.24,157.83-1.85,179.58,7.22,5.74,21.9,13.6,72.2,5.55,112.56-18,126.81-71.35,192.54-75.9,82.49-5.71,93.72,76,220.31,92.57,30.14,3.94,83,10.15,129.6-18.52a132.45,132.45,0,0,0,27-22C1241.29,1666.81,1192.84,1647.11,1170.75,1620.14Z"/><path class="cls-24" d="M1687.89,573.51c-16.91,40.64-80.22,143.17-217.06,92.93-36.62-13.44-42.87-8.71-45-5.89-10.33,13.77,63,105.33,166.83,133.23,63.32,17,131,8.49,134.64-9.14s-41.62-16.13-46.82-53.14c-3.62-25.77,48.48-56.64,75.29-74.06C1751.4,623.76,1692.29,607.26,1687.89,573.51Z"/><path class="cls-25" d="M1801.72,653.84c23.45-7.69,42.45-34.23,39-60.29-3-22.43-21.89-36.72-33.2-45.28-32.83-24.83-86.34-38.42-121.52-18.65-20.86,11.73-25.12,59.52-26.34,67.83-1.39,9.4,3.34,15.73,5.55,24.78,3.06,12.55,7.73,32.38,15,65.2a156.83,156.83,0,0,1,22.51-16.66c3.61-2.19,17.84-10.65,33.79-15.18C1768.43,646.51,1779.48,661.14,1801.72,653.84Z"/><path class="cls-26" d="M1661.77,652.5s.28,48,48.43,72.88c43,22.24,105-57.12,90.45-90.49-4.85-11.14-20.85-24.14-37.63-29.14-9.91-3-14.91-1.51-31-6.63-14.89-4.71-17.66-8.16-23.52-7.57-7.33.75-17,7.58-25.21,36.74-3.09-11.89-10.75-20.32-19.41-21.51a17.46,17.46,0,0,0-8.78,1.51C1642.84,614.32,1644.38,632.26,1661.77,652.5Z"/><path class="cls-27" d="M1391.06,679.66c-50-84.48-285.62-53.58-444.32,38.88-51.68,30.1-209.29,121.92-220.31,281.4-1.2,17.33-4.28,87.76,37,153.66,69.47,110.84,233.74,159.75,407.29,116.63l-5.55-55.53c-14.78.51-73.61.84-125.89-42.59-10.47-8.69-72.71-60.39-62.95-107.37,16.39-78.89,213.12-35.88,340.65-168.48C1374.19,836.81,1424,735.26,1391.06,679.66Z"/><path class="cls-28" d="M1529,2735q47.94,76.48,136.82,92.14L2941.61,932.74,2804.79,840.6Z"/><path class="cls-29" d="M1615,2811.74a186.73,186.73,0,0,1-51.58-34.46L2848.06,869.73l51.45,34.66Z"/><path class="cls-30" d="M2804.79,840.6c27.34,56.72,72.74,87.73,136.82,92.14l224.84-471.91a5.46,5.46,0,0,0-8.9-6Z"/><path class="cls-31" d="M3166.45,460.83l-87.4,183.45a144,144,0,0,1-58.68-39.42l137.18-150A5.46,5.46,0,0,1,3166.45,460.83Z"/><path class="cls-32" d="M1696,2692.43q44.63,47.27,109.61,45.8l634.21-1517.77-109.61-45.8Z"/><path class="cls-33" d="M2330.21,1174.66c27.3,36.21,63.73,51.71,109.61,45.8l92.32-365a3.93,3.93,0,0,0-7.13-3Z"/><path class="cls-34" d="M2532.14,855.48l-35.89,141.88a103.85,103.85,0,0,1-47-19.58L2525,852.5A3.93,3.93,0,0,1,2532.14,855.48Z"/><path class="cls-35" d="M2675.5,418.55s65.95,135.11,17.3,325.41-182.23,282.28-228.75,253.58-106.77-140.29-57.7-230.83S2647,540.81,2675.5,418.55Z"/><path class="cls-35" d="M2675.5,418.55s65.95,135.11,17.3,325.41-182.23,282.28-228.75,253.58-106.77-140.29-57.7-230.83S2647,540.81,2675.5,418.55Z"/><g class="cls-36"><path class="cls-37" d="M2675.5,418.55a187.56,187.56,0,0,1-12.45,35.52c26.33,100.07,11.1,154.64-14.54,186.39-35.79,44.33-85,35.78-122.23,93.65-48.89,76,.94,145.09-39.15,198.87-10.22,13.72-26.62,26.84-54,35.27,10.12,13,20.84,23.07,30.92,29.29,46.52,28.7,180.1-63.27,228.75-253.58S2675.5,418.55,2675.5,418.55Z"/></g><path class="cls-38" d="M3246,3019.37,437.58,2994.91v72.37c0,19.64,12.25,36.34,28.84,39.32l794.13,142.51a109.3,109.3,0,0,0,28.49,1.34L3215.44,3088c17.2-1.45,30.52-18.2,30.52-38.38Z"/><path class="cls-39" d="M2341.91,2902.05,468.49,3034.44c-33.52,2.37-60.78-22.8-60.78-56.23V1638.94a60.69,60.69,0,0,1,60.78-60.53H2341.91c27.61,0,49.94,24.5,49.94,54.72V2843.81C2391.85,2874,2369.52,2900.1,2341.91,2902.05Z"/><path class="cls-40" d="M2371.78,2902.05,498.36,3034.44c-33.52,2.37-60.78-22.8-60.78-56.23V1638.94a60.69,60.69,0,0,1,60.78-60.53H2371.78c27.62,0,49.95,24.5,49.95,54.72V2843.81C2421.73,2874,2399.4,2900.1,2371.78,2902.05Z"/><path class="cls-4" d="M2313.42,2816.7l-1744.89,115c-27.28,1.79-49.45-18.87-49.45-46.16V1713a49.71,49.71,0,0,1,49.45-49.62l1744.89-7.22c22.78-.09,41.21,20,41.21,44.84V2769C2354.63,2793.83,2336.2,2815.2,2313.42,2816.7Z"/><path class="cls-4" d="M1501.23,1615.05c0,12.44-9.64,22.56-21.54,22.59s-21.6-10-21.6-22.51,9.67-22.59,21.6-22.6S1501.23,1602.6,1501.23,1615.05Z"/><path class="cls-41" d="M1920.41,2534.74c-144.43-77.71-258,20.75-367.58-76.4-66.44-58.9-33.82-102.82-115.58-190.83-90.55-97.49-149.5-64.72-240.5-152.46-115.07-110.94-57.52-197.25-156.64-276.9-120.24-96.63-249.91-7.19-364.37-99.86-49.37-40-76.45-98.08-90.6-159.88h-112a35.56,35.56,0,0,0-35.57,35.53V3002.21c0,19.62,15.94,34.4,35.57,33l1909.31-135.52c9.37-.67,17.68-6.14,23-14.07-139.77-5.09-225.63-51.95-280.52-100.39C2017.57,2690.48,2036.2,2597,1920.41,2534.74Z"/><path class="cls-42" d="M2325,2896.05,437.58,3035.4l823,147.69a108.86,108.86,0,0,0,28.49,1.33L3246,3019.37,2355.06,2897A143,143,0,0,0,2325,2896.05Z"/><polygon class="cls-43" points="712.99 3038.91 2284.35 2921.16 2770.67 2987.42 1212.85 3113.29 712.99 3038.91"/><polygon class="cls-44" points="2308.64 1989.57 563.57 2016.16 563.57 1698.96 2308.64 1698.96 2308.64 1989.57"/><polygon class="cls-44" points="1755.3 2555.36 649.71 2603.62 649.71 2071.4 1755.3 2051.53 1755.3 2555.36"/><polygon class="cls-44" points="2235.77 2190.35 1819.89 2201.02 1819.89 2050.37 2235.77 2042.9 2235.77 2190.35"/><polygon class="cls-44" points="2235.77 2534.39 1819.89 2552.54 1819.89 2254.38 2235.77 2242.57 2235.77 2534.39"/><polygon class="cls-44" points="2235.77 2601.97 649.71 2676.8 649.71 2803.2 2235.77 2718.7 2235.77 2601.97"/><path class="cls-45" d="M2713.62,1799.13,716.19,1824.21a20.31,20.31,0,0,1-20.57-20.31V1476.42a20.32,20.32,0,0,1,20.32-20.32H2713.37a20.31,20.31,0,0,1,20.31,20.32v302.4A20.31,20.31,0,0,1,2713.62,1799.13Z"/><polygon class="cls-46" points="2273.09 2467.39 1005.34 2513.58 1005.34 1899.5 2273.09 1880.13 2273.09 2467.39"/><polygon class="cls-47" points="2832.13 2044.23 2347.96 2054.69 2347.96 1878.99 2832.13 1871.6 2832.13 2044.23"/><polygon class="cls-48" points="2832.13 2447.03 2347.96 2464.67 2347.96 2116.92 2832.13 2105.37 2832.13 2447.03"/><polygon class="cls-49" points="2887.87 2511.17 1068.81 2581.88 1068.81 2727.4 2887.87 2647.56 2887.87 2511.17"/><circle class="cls-50" cx="774.58" cy="1520.63" r="24.59" transform="translate(-850.49 2041.63) rotate(-80.78)"/><circle class="cls-51" cx="855.39" cy="1520.63" r="24.59" transform="translate(-821.09 2003.77) rotate(-76.72)"/><circle class="cls-52" cx="936.2" cy="1520.63" r="24.59" transform="translate(-714.76 2201.16) rotate(-80.78)"/><path class="cls-53" d="M2170.48,1456.1s85.1-33.95,102.61-23,35.55,54.15,48.49,70.33-22.08,16.45-48.49-7.4S2170.48,1456.1,2170.48,1456.1Z"/></g></g></svg>