<?xml version="1.0" encoding="utf-8"?>
<!-- Generator: Adobe Illustrator 25.4.1, SVG Export Plug-In . SVG Version: 6.00 Build 0)  -->
<svg version="1.1" id="Layer_1" xmlns="http://www.w3.org/2000/svg" xmlns:xlink="http://www.w3.org/1999/xlink" x="0px" y="0px"
	 viewBox="0 0 450 450" style="enable-background:new 0 0 450 450;" xml:space="preserve">
<style type="text/css">
	.st0{fill:#C6C8CF;}
	.st1{fill:#ABAEB3;}
	.st2{fill:#C9AA9A;}
	.st3{fill:#7D574F;}
	.st4{fill:#AE9398;}
	.st5{fill:#818590;}
	.st6{fill:#484848;}
	.st7{fill:#626B6C;}
	.st8{fill:#485455;}
	.st9{fill:#707070;}
	.st10{fill:#9D9D9D;}
	.st11{fill:#4D4C8C;}
	.st12{fill:#807ABE;}
	.st13{fill:#938DCB;}
	.st14{fill:#7A524C;}
	.st15{fill:#946A5F;}
	.st16{fill:#AC847C;}
	.st17{fill:#D9B698;}
	.st18{fill:#D4A988;}
	.st19{fill:#DBC7C2;}
	.st20{fill:#A8AEC4;}
	.st21{fill:#979FB9;}
	.st22{fill:#CFD3DF;}
	.st23{fill:#B4BACD;}
	.st24{fill:#525159;}
	.st25{fill:#5292D1;}
	.st26{fill:#B6D4ED;}
	.st27{fill:#394A61;}
	.st28{fill:#AED0EB;}
	.st29{fill:#A8AEC5;}
	.st30{fill:#DEE0E9;}
	.st31{fill:#393842;}
	.st32{fill:#A9B0C6;}
	.st33{fill:url(#SVGID_1_);}
	.st34{fill:#70524B;}
	.st35{fill:#788182;}
	.st36{fill:url(#SVGID_00000045586572968289520440000003940864198607941780_);}
	.st37{fill:#FEC0BF;}
	.st38{fill:#DDE8F6;}
	.st39{fill:#DAE2EB;}
	.st40{fill:#C7D9F0;}
	.st41{fill:#754942;}
	.st42{fill:#FCFDFE;}
	.st43{fill:#665EB1;}
	.st44{fill:#575096;}
	.st45{fill:#3F366F;}
</style>
<g>
	<g id="Layer_1_00000029754601300614380790000008172915291607697838_">
		<path class="st0" d="M277.1,56.8v131.5l140.5,81.1V137.9L277.1,56.8z M284.3,69.3l126,72.8v114.8l-126-72.8L284.3,69.3z"/>
		<polygon class="st1" points="410.3,247.2 410.3,256.9 284.3,184.1 292.7,179.3 		"/>
		<polygon class="st2" points="29.7,234.3 279.8,85.1 275.2,81.2 25.1,230.4 		"/>
		<polygon class="st3" points="28.7,287 279.8,142.6 279.8,85.1 29.7,234.3 		"/>
		<polygon class="st4" points="292.7,64.5 284.3,69.3 284.3,184.1 292.7,179.3 		"/>
		<polygon class="st5" points="425.9,133.1 417.6,137.9 417.6,269.4 425.9,264.6 		"/>
		<path class="st0" d="M22.3,203.6V335l140.5,81.1V284.7L22.3,203.6z M29.6,216.1l126,72.8v114.8l-126-72.8L29.6,216.1z"/>
		<polygon class="st1" points="155.6,394.1 155.6,403.7 29.6,330.9 37.9,326.1 		"/>
		<polygon class="st5" points="37.9,220.9 29.6,216.1 29.6,330.9 37.9,326.1 		"/>
		<polygon class="st5" points="171.1,279.9 162.8,284.7 162.8,416.2 171.1,411.4 		"/>
		<path class="st6" d="M342.3,304.6c0,0,2.5,0.7,2.9,2.1c0.5,2,0.8,4,1,6c0,0.8-2.3,2.8-7.6,4.2c-3.9,1.2-8.1,0.6-11.4-1.7
			c-1.5-0.9-2.8-2-4-3.2c-0.3-1.1-0.8-2.1-1.4-3c-1.2-0.8-2.5-1.4-3.9-2c-1,0.3-2.1,0.4-3.2,0.3c-1.4-0.3-11.2-3.1-11.2-3.1
			s-8.9-1.3-10-5s4.1-5.4,4.1-5.4L342.3,304.6z"/>
		<path class="st7" d="M341.4,289.8c0,0,4.1,14.7,2.9,17.2c-1.2,2.5-9.4,5.5-13.5,4c-4.1-1.5-7.9-5.8-12.9-6.9s-11.1-2-14.8-4
			c-3.7-1.9-9.3-3.2-9.3-4.9s1.6-4.8,3-5.5c1.4-0.7,9.4,0,13.8-0.5c2.9-0.4,5.7-0.9,8.6-1.7L341.4,289.8z"/>
		<path class="st8" d="M346.6,197.7c-18.2-4.5-22.3-4.3-26.4-2.9c-5.3,2.1-8.7,7.2-8.6,12.8c-0.2,7,3.4,78.1,3.4,78.9
			c0.3,5.4,14.3,15.3,27.3,5.2c0-12.7,1.7-52.1,1.7-52.1l18.8-24.8L346.6,197.7z"/>
		<path class="st6" d="M306,320.7c0,0,4.3,1.1,4.6,2.5c0.2,1.4,1.1,5.5,1.2,6.8c0.1,1.3-5.7,5.7-11.6,5.6s-12.7-4.3-13.2-5
			c-0.5-0.6-1.1-1.8-1.1-1.8l-0.6-1.2l-4.8-1.6c0,0-3.2,0.4-4.2,0.4c-1.1,0-8.3-1.9-12.5-6s-3.2-6.5-3.2-6.5s-0.7-4.4,2.5-5.5
			C266.3,307.2,306,320.7,306,320.7z"/>
		<path class="st7" d="M280.1,301.9c-0.7,1-1.5,1.8-2.5,2.4c0,0-9.6,0.6-10.9,1.2c-1.2,0.6-5.7,2-5.1,7.2s1.9,6,9.4,8.4
			c7.5,2.5,13,2.5,14.8,3.6c3.3,2.2,7.1,3.6,11.1,4.2c5.4,0.6,7.9-0.1,10.9-2.6c3-2.5,1-4.9,1-4.9s-2-10-3.7-13.1
			c-1.7-3.1-9.1-5.4-10.9-5.7C292.5,302.4,280.1,301.9,280.1,301.9z"/>
		<path class="st8" d="M278.1,304c0.5,4.1,7.4,7.8,14.9,7.8c7.5,0,11-3.9,11-5.7c0-1.7-6.6-66.5-6.6-66.5s-29.2-29.2-29.8-19.9
			C267,229.1,278.1,304,278.1,304z"/>
		<path class="st9" d="M360.4,322.6h0.3c0.6,0,1.1-0.5,1.1-1.1c0,0,0-0.1,0-0.1l-8.1-86.5l-6.7,3.8l12.4,83
			C359.4,322.1,359.8,322.6,360.4,322.6z"/>
		<path class="st9" d="M295.5,360.2c-0.6,0-1.1-0.5-1.1-1.1c0,0,0-0.1,0-0.1l8-94.6l6.7-3.8l-12.6,98.7
			C296.5,359.7,296,360.2,295.5,360.2z"/>
		
			<rect x="329.7" y="243.2" transform="matrix(0.1444 -0.9895 0.9895 0.1444 18.1295 555.7338)" class="st9" width="1.4" height="48.4"/>
		
			<rect x="286.4" y="269.4" transform="matrix(0.6096 -0.7927 0.7927 0.6096 -86.972 363.619)" class="st9" width="78.6" height="1.4"/>
		
			<rect x="353.7" y="266.5" transform="matrix(0.9684 -0.2496 0.2496 0.9684 -54.7659 102.4255)" class="st9" width="45.7" height="1.4"/>
		
			<rect x="375.7" y="227.7" transform="matrix(0.7017 -0.7125 0.7125 0.7017 -76.7421 347.3466)" class="st9" width="1.4" height="75.2"/>
		<path class="st10" d="M409.2,342.9h0.3c0.6,0,1.1-0.5,1.1-1.1c0-0.1,0-0.1,0-0.2l-8.1-86.5l-6.7,3.8l12.4,83
			C408.2,342.5,408.7,342.9,409.2,342.9z"/>
		<path class="st10" d="M344.4,380.5c-0.6,0-1.1-0.5-1.1-1.1c0,0,0-0.1,0-0.1l8-94.6l6.7-3.8l-12.6,98.7
			C345.4,380.1,344.9,380.5,344.4,380.5z"/>
		
			<rect x="378.6" y="263.5" transform="matrix(0.1444 -0.9895 0.9895 0.1444 39.7913 621.4965)" class="st10" width="1.4" height="48.4"/>
		
			<rect x="335.2" y="289.7" transform="matrix(0.6095 -0.7928 0.7928 0.6095 -83.9774 410.3394)" class="st10" width="78.6" height="1.4"/>
		
			<rect x="300.7" y="292.4" transform="matrix(0.973 -0.2307 0.2307 0.973 -58.8192 83.1153)" class="st10" width="50.6" height="1.4"/>
		
			<rect x="327.7" y="260.4" transform="matrix(0.7682 -0.6402 0.6402 0.7682 -112.7238 278.6555)" class="st10" width="1.4" height="69.2"/>
		<path class="st11" d="M295.1,252.1l7.8-0.5l49.3-28.4c5.7-3.3,14.9-3.2,20.2,0.2l32.6,20.6c0.4,0.3,0.8,0.6,1.2,0.8l4.1-0.3v7.5
			c-0.1,3-2.1,5.9-6,8.2l-40.7,23.5c-7.7,4.5-20.1,4.6-28.1,0.4l-35.7-18.8c-3-1.6-4.5-3.6-4.5-5.8L295.1,252.1z"/>
		<path class="st12" d="M363.6,276.5l40.7-23.5c7.7-4.5,8.1-11.6,0.7-16.3l-32.6-20.6c-5.4-3.4-14.6-3.5-20.2-0.2l-52.9,30.5
			c-5.7,3.3-5.5,8.6,0.4,11.7l35.7,18.8C343.5,281.1,355.8,280.9,363.6,276.5z"/>
		<path class="st13" d="M349.1,277.5c4.9,0.1,9.7-1,13.9-3.3l40.7-23.5c3.5-2,5.4-4.6,5.4-7.2c0-2.7-1.6-5.1-4.8-7l-32.6-20.6
			c-2.9-1.7-6.3-2.5-9.6-2.4c-3.3-0.1-6.5,0.7-9.4,2.2l-52.9,30.5c-2.3,1.4-3.6,3.1-3.6,4.8s1.5,3.6,3.9,4.9l35.7,18.7
			C340,276.6,344.5,277.6,349.1,277.5z"/>
		<path class="st8" d="M406.8,221c1.4,12.5,1.7,29.2-8.8,37.6c-10.5,8.5-15.5,7.2-15.5,7.2s-5.2,7.8-28.3,7.5
			c-23-0.4-35.3-9.5-50.5-20c-15.2-10.5-31.7-21.7-34-24.5c-2.4-2.8-4.7-14.5,3.9-20c8.5-5.5,17-2.1,20.5-0.7
			c3.5,1.4,30.1,8.6,31.6,9c1.4,0.4,6.1,2.4,10.6-1C340.7,212.9,406.8,221,406.8,221z"/>
		<polygon class="st14" points="171.1,293.2 415.6,152.6 415.6,121.4 171.1,267.2 		"/>
		<polygon class="st15" points="434.2,128.3 154.5,289.5 154.5,282.6 434.2,121.4 		"/>
		<polygon class="st16" points="14,208.4 154.5,289.5 154.5,282.6 14,201.5 		"/>
		<polygon class="st17" points="293.8,40.3 14,201.5 154.5,282.6 434.2,121.4 		"/>
		<polygon class="st18" points="293.8,40.3 15.6,200.6 154.5,280.4 431.5,121 		"/>
		<polygon class="st19" points="235.5,213.1 225.6,213.1 171.3,181.8 111.1,177.2 105.8,175.1 195.8,120.4 262.5,151.7 		"/>
		<polygon class="st20" points="238.6,48.8 152.5,98.5 172.8,177.5 240,48.5 		"/>
		<polygon class="st21" points="153.9,98.2 152.5,98.5 172.9,177.6 174.9,177.5 		"/>
		<polygon class="st22" points="240,48.5 153.9,98.2 174.9,177.5 261,127.8 		"/>
		<polygon class="st23" points="173.8,173.2 174.9,177.5 261,127.8 259.8,123.5 		"/>
		<polygon class="st24" points="154.3,98.3 239.8,48.9 258.9,120.9 173.3,170.3 		"/>
		<polygon class="st25" points="155,98.5 239.3,49.8 257.7,119.4 173.4,168 		"/>
		<polygon class="st26" points="172.6,98.4 228,66.3 241.2,115.9 185.7,148 		"/>
		<polygon class="st27" points="239.4,115.3 186.8,145.7 175.4,102.8 228,72.5 		"/>
		<polygon class="st28" points="160.7,105.6 165.3,103 166.8,108.6 162.2,111.3 		"/>
		<polygon class="st28" points="163.7,117 168.3,114.3 169.8,120 165.2,122.7 		"/>
		<polygon class="st28" points="166.7,128.4 171.3,125.7 172.8,131.4 168.2,134.1 		"/>
		<polygon class="st28" points="169.7,139.8 174.3,137.1 175.9,142.8 171.2,145.5 		"/>
		<polygon class="st29" points="235.5,213.1 321.5,163.5 321.5,160.3 235.5,210 		"/>
		<polygon class="st21" points="235.5,213.1 235.5,210 175.6,175.5 175.6,178.6 		"/>
		<polygon class="st30" points="321.5,160.3 235.5,210 175.6,175.5 261.7,125.8 		"/>
		<polygon class="st31" points="259.5,133.1 188.5,174.1 183.3,171.1 254.3,130.1 		"/>
		<path class="st29" d="M296.8,149.9l-28.8-16.7c-1.1-0.6-2.5-0.6-3.6,0l-76,44.2c-0.6,0.2-0.9,0.8-0.7,1.4c0.1,0.3,0.4,0.6,0.7,0.7
			l28.8,16.7c1.1,0.6,2.5,0.6,3.6,0l76-44.2c0.6-0.2,0.9-0.8,0.7-1.4C297.4,150.3,297.1,150,296.8,149.9z"/>
		<path class="st31" d="M192.4,179.4v0.4h0.3l3.5,2c0.4,0.2,0.9,0.2,1.3,0l3.5-2h0.3v-0.4c0-0.2-0.1-0.3-0.3-0.4l-3.5-2
			c-0.4-0.2-0.9-0.2-1.3,0l-3.5,2C192.5,179.1,192.4,179.3,192.4,179.4z"/>
		<path class="st31" d="M214.6,192.3v0.4h0.3l3.5,2c0.4,0.2,0.9,0.2,1.3,0l3.5-2h0.3v-0.4c0-0.2-0.1-0.3-0.3-0.4l-3.5-2
			c-0.4-0.2-0.9-0.2-1.3,0l-3.5,2C214.8,192,214.7,192.1,214.6,192.3z"/>
		<path class="st31" d="M220.2,189.1v0.4h0.3l3.5,2c0.4,0.2,0.8,0.2,1.2,0l3.5-2h0.3v-0.4c0-0.2-0.1-0.3-0.3-0.4l-3.5-2
			c-0.4-0.2-0.9-0.2-1.3,0l-3.5,2C220.3,188.8,220.2,188.9,220.2,189.1z"/>
		<path class="st31" d="M225.6,185.9v0.4h0.3l3.5,2c0.4,0.2,0.9,0.2,1.3,0l3.5-2h0.3v-0.4c0-0.2-0.1-0.3-0.3-0.4l-3.5-2
			c-0.4-0.2-0.9-0.2-1.3,0l-3.5,2C225.7,185.6,225.6,185.7,225.6,185.9z"/>
		<path class="st31" d="M231.1,182.7v0.4h0.3l3.5,2c0.4,0.2,0.9,0.2,1.3,0l3.5-2h0.3v-0.4c0-0.2-0.1-0.3-0.3-0.4l-3.5-2
			c-0.4-0.2-0.9-0.2-1.3,0l-3.5,2C231.2,182.4,231.1,182.5,231.1,182.7z"/>
		<path class="st31" d="M197.9,176.2v0.4h0.3l3.5,2c0.4,0.2,0.8,0.2,1.2,0l3.5-2h0.3v-0.4c0-0.2-0.1-0.3-0.3-0.4l-3.5-2
			c-0.4-0.2-0.9-0.2-1.3,0l-3.5,2C197.9,175.9,197.9,176.1,197.9,176.2z"/>
		<path class="st31" d="M206.5,177.6v0.4h0.3l3.4,2c0.4,0.2,0.9,0.2,1.3,0l3.5-2h0.3v-0.4c0-0.2-0.1-0.3-0.3-0.4l-3.5-2
			c-0.4-0.2-0.9-0.2-1.3,0l-3.5,2C206.6,177.3,206.5,177.5,206.5,177.6z"/>
		<path class="st31" d="M212,174.4v0.4h0.3l3.5,2c0.4,0.2,0.9,0.2,1.3,0l3.5-2h0.3v-0.4c0-0.2-0.1-0.3-0.3-0.4l-3.5-2
			c-0.4-0.2-0.9-0.2-1.3,0l-3.5,2C212.1,174.1,212,174.3,212,174.4z"/>
		<path class="st31" d="M214.8,179.3v0.4h0.3l3.5,2c0.4,0.2,0.9,0.2,1.3,0l3.5-2h0.3v-0.4c0-0.2-0.1-0.3-0.3-0.4l-3.5-2
			c-0.4-0.2-0.9-0.2-1.3,0l-3.5,2C215,179,214.9,179.1,214.8,179.3z"/>
		<path class="st31" d="M220.5,182.5v0.4h0.3l3.4,2c0.4,0.2,0.9,0.2,1.3,0l3.5-2h0.3v-0.4c0-0.2-0.1-0.3-0.3-0.4l-3.5-2
			c-0.4-0.2-0.9-0.2-1.3,0l-3.5,2C220.6,182.2,220.5,182.3,220.5,182.5z"/>
		<path class="st31" d="M225.9,179.3v0.4h0.3l3.5,2c0.4,0.2,0.9,0.2,1.3,0l3.5-2h0.3v-0.4c0-0.2-0.1-0.3-0.3-0.4l-3.5-2
			c-0.4-0.2-0.9-0.2-1.3,0l-3.5,2C226.1,179,226,179.1,225.9,179.3z"/>
		<path class="st31" d="M231.4,176.1v0.4h0.3l3.4,2c0.4,0.2,0.9,0.2,1.3,0l3.5-2h0.3v-0.4c0-0.2-0.1-0.3-0.3-0.4l-3.5-2
			c-0.4-0.2-0.9-0.2-1.3,0l-3.5,2C231.5,175.8,231.4,176,231.4,176.1z"/>
		<path class="st31" d="M236.9,172.9v0.4h0.3l3.4,2c0.4,0.2,0.9,0.2,1.3,0l3.5-2h0.3v-0.4c0-0.2-0.1-0.3-0.3-0.4l-3.5-2
			c-0.4-0.2-0.9-0.2-1.3,0l-3.5,2C237,172.6,236.9,172.8,236.9,172.9z"/>
		<path class="st31" d="M242.4,169.7v0.4h0.3l3.4,2c0.4,0.2,0.9,0.2,1.3,0l3.5-2h0.3v-0.4c0-0.2-0.1-0.3-0.3-0.4l-3.5-2
			c-0.4-0.2-0.9-0.2-1.3,0l-3.5,2C242.5,169.4,242.4,169.6,242.4,169.7z"/>
		<path class="st31" d="M247.9,166.5v0.4h0.3l3.5,2c0.4,0.2,0.9,0.2,1.3,0l3.5-2h0.3v-0.4c0-0.2-0.1-0.3-0.3-0.4l-3.5-2
			c-0.4-0.2-0.9-0.2-1.3,0l-3.5,2C248,166.2,247.9,166.4,247.9,166.5z"/>
		<path class="st31" d="M253.4,163.3v0.4h0.3l3.4,2c0.4,0.2,0.9,0.2,1.3,0l3.5-2h0.3v-0.4c0-0.2-0.1-0.3-0.3-0.4l-3.5-2
			c-0.4-0.2-0.9-0.2-1.3,0l-3.5,2C253.5,163,253.4,163.2,253.4,163.3z"/>
		<path class="st31" d="M258.9,160.2v0.4h0.3l3.5,2c0.4,0.2,0.9,0.2,1.3,0l3.5-2h0.3v-0.4c0-0.2-0.1-0.3-0.3-0.4l-3.5-2
			c-0.4-0.2-0.9-0.2-1.3,0l-3.5,2C259,159.8,258.9,160,258.9,160.2z"/>
		<path class="st31" d="M273.2,157v-0.4h-0.3l-3.5-2c-0.4-0.2-0.9-0.2-1.3,0l-3.5,2h-0.3v0.4c0,0.2,0.1,0.3,0.3,0.4l3.5,2
			c0.4,0.2,0.9,0.2,1.3,0l3.5-2C273.1,157.3,273.2,157.1,273.2,157z"/>
		<path class="st31" d="M270.3,159.9v0.4h0.3l3.4,2c0.4,0.2,0.9,0.2,1.3,0l3.5-2h0.3v-0.4c0-0.2-0.1-0.3-0.3-0.4l-3.5-2
			c-0.4-0.2-0.9-0.2-1.3,0l-3.5,2C270.4,159.6,270.3,159.8,270.3,159.9z"/>
		<path class="st31" d="M275.8,156.8v0.4h0.3l3.5,2c0.4,0.2,0.9,0.2,1.3,0l3.5-2h0.3v-0.4c0-0.2-0.1-0.3-0.3-0.4l-3.5-2
			c-0.4-0.2-0.9-0.2-1.3,0l-3.5,2C275.9,156.4,275.8,156.6,275.8,156.8z"/>
		<path class="st31" d="M286.9,150.2v0.4h0.3l3.5,2c0.4,0.2,0.9,0.2,1.3,0l3.5-2h0.3v-0.4c0-0.2-0.1-0.3-0.3-0.4l-3.5-2
			c-0.4-0.2-0.9-0.2-1.3,0l-3.5,2C287,149.9,286.9,150.1,286.9,150.2z"/>
		<path class="st31" d="M281.2,147.8l3.5,2c0.4,0.2,0.9,0.2,1.3,0l0.5-0.3l3-1.7h0.3v-0.2l0.2-0.1h0.3v-0.4c0-0.2-0.1-0.3-0.3-0.4
			l-3.5-2c-0.4-0.2-0.9-0.2-1.3,0l-4,2.3c-0.2,0.1-0.3,0.2-0.3,0.4v0.4H281.2z"/>
		<path class="st31" d="M269.9,153.8v0.4h0.3l3.5,2c0.4,0.2,0.9,0.2,1.3,0l3.5-2h0.3v-0.4c0-0.2-0.1-0.3-0.3-0.4l-3.5-2
			c-0.4-0.2-0.9-0.2-1.3,0l-3.5,2C270,153.5,269.9,153.6,269.9,153.8z"/>
		<path class="st31" d="M275.4,150.6v0.4h0.3l3.4,2c0.4,0.2,0.9,0.2,1.3,0l3.5-2h0.3v-0.4c0-0.2-0.1-0.3-0.3-0.4l-3.5-2
			c-0.4-0.2-0.9-0.2-1.3,0l-3.5,2.1C275.5,150.3,275.4,150.4,275.4,150.6z"/>
		<path class="st31" d="M220.3,176.1v0.4h0.3l3.5,2c0.4,0.2,0.9,0.2,1.3,0l3.5-2h0.3v-0.4c0-0.2-0.1-0.3-0.3-0.4l-3.5-2
			c-0.4-0.2-0.9-0.2-1.3,0l-3.5,2C220.4,175.8,220.3,175.9,220.3,176.1z"/>
		<path class="st31" d="M225.8,172.9v0.4h0.4l3.5,2c0.4,0.2,0.8,0.2,1.2,0l3.5-2h0.3v-0.4c0-0.2-0.1-0.3-0.3-0.4l-3.5-2
			c-0.4-0.2-0.9-0.2-1.3,0l-3.5,2C225.9,172.6,225.8,172.7,225.8,172.9z"/>
		<path class="st31" d="M231.3,169.7v0.4h0.3l3.4,2c0.4,0.2,0.9,0.2,1.3,0l3.5-2h0.3v-0.4c0-0.2-0.1-0.3-0.3-0.4l-3.5-2
			c-0.4-0.2-0.9-0.2-1.3,0l-3.5,2C231.4,169.4,231.3,169.5,231.3,169.7z"/>
		<path class="st31" d="M236.8,166.5v0.4h0.3l3.5,2c0.4,0.2,0.9,0.2,1.3,0l3.5-2h0.3v-0.4c0-0.2-0.1-0.3-0.3-0.4l-3.5-2
			c-0.4-0.2-0.9-0.2-1.3,0l-3.5,2C236.9,166.2,236.8,166.3,236.8,166.5z"/>
		<path class="st31" d="M242.3,163.3v0.4h0.3l3.5,2c0.4,0.2,0.9,0.2,1.3,0l3.5-2h0.3v-0.4c0-0.2-0.1-0.3-0.3-0.4l-3.5-2
			c-0.4-0.2-0.9-0.2-1.3,0l-3.5,2C242.4,163,242.3,163.1,242.3,163.3z"/>
		<path class="st31" d="M247.8,160.1v0.4h0.3l3.5,2c0.4,0.2,0.9,0.2,1.3,0l3.5-2h0.3v-0.4c0-0.2-0.1-0.3-0.3-0.4l-3.5-2
			c-0.4-0.2-0.9-0.2-1.3,0l-3.5,2C247.9,159.8,247.8,159.9,247.8,160.1z"/>
		<path class="st31" d="M253.3,156.9v0.4h0.3l3.4,2c0.4,0.2,0.9,0.2,1.3,0l3.5-2h0.3v-0.4c0-0.2-0.1-0.3-0.3-0.4l-3.5-2
			c-0.4-0.2-0.9-0.2-1.3,0l-3.5,2C253.4,156.6,253.3,156.8,253.3,156.9z"/>
		<path class="st31" d="M258.8,153.7v0.4h0.3l3.5,2c0.4,0.2,0.9,0.2,1.3,0l3.5-2h0.3v-0.4c0-0.2-0.1-0.3-0.3-0.4l-3.5-2
			c-0.4-0.2-0.9-0.2-1.3,0l-3.5,2C258.9,153.4,258.8,153.6,258.8,153.7z"/>
		<path class="st31" d="M264.3,150.5v0.4h0.3l3.4,2c0.4,0.2,0.9,0.2,1.3,0l3.5-2h0.3v-0.4c0-0.2-0.1-0.3-0.3-0.4l-3.5-2
			c-0.4-0.2-0.9-0.2-1.3,0l-3.5,2C264.4,150.2,264.3,150.4,264.3,150.5z"/>
		<path class="st31" d="M217.5,171.2v0.4h0.3l3.4,2c0.4,0.2,0.9,0.2,1.3,0l3.5-2h0.3v-0.4c0-0.2-0.1-0.3-0.3-0.4l-3.5-2
			c-0.4-0.2-0.9-0.2-1.3,0l-3.5,2C217.6,170.9,217.5,171.1,217.5,171.2z"/>
		<path class="st31" d="M223,168v0.4h0.3l3.5,2c0.4,0.2,0.9,0.2,1.3,0l3.5-2h0.3V168c0-0.2-0.1-0.3-0.3-0.4l-3.5-2
			c-0.4-0.2-0.9-0.2-1.3,0l-3.5,2C223.1,167.7,223,167.9,223,168z"/>
		<path class="st31" d="M228.5,164.9v0.4h0.3l3.4,2c0.4,0.2,0.9,0.2,1.3,0l3.5-2h0.3v-0.4c0-0.2-0.1-0.3-0.3-0.4l-3.5-2
			c-0.4-0.2-0.9-0.2-1.3,0l-3.5,2C228.6,164.6,228.5,164.7,228.5,164.9z"/>
		<path class="st31" d="M234,161.7v0.4h0.3l3.5,2c0.4,0.2,0.9,0.2,1.3,0l3.5-2h0.3v-0.4c0-0.2-0.1-0.3-0.3-0.4l-3.5-2
			c-0.4-0.2-0.9-0.2-1.3,0l-3.5,2C234.1,161.4,234,161.5,234,161.7z"/>
		<path class="st31" d="M239.5,158.5v0.4h0.3l3.4,2c0.4,0.2,0.9,0.2,1.3,0l3.5-2h0.3v-0.4c0-0.2-0.1-0.3-0.3-0.4l-3.5-2
			c-0.4-0.2-0.9-0.2-1.3,0l-3.5,2C239.6,158.2,239.5,158.3,239.5,158.5z"/>
		<path class="st31" d="M244.9,155.3v0.4h0.3l3.5,2c0.4,0.2,0.9,0.2,1.3,0l3.5-2h0.3v-0.4c0-0.2-0.1-0.3-0.3-0.4l-3.5-2
			c-0.4-0.2-0.9-0.2-1.3,0l-3.5,2C245.1,155,245,155.1,244.9,155.3z"/>
		<path class="st31" d="M250.4,152.1v0.4h0.3l3.4,2c0.4,0.2,0.9,0.2,1.3,0l3.5-2h0.3v-0.4c0-0.2-0.1-0.3-0.3-0.4l-3.5-2
			c-0.4-0.2-0.9-0.2-1.3,0l-3.5,2C250.6,151.8,250.5,151.9,250.4,152.1z"/>
		<path class="st31" d="M255.9,148.9v0.4h0.3l3.5,2c0.4,0.2,0.9,0.2,1.3,0l3.5-2h0.3v-0.4c0-0.2-0.1-0.3-0.3-0.4l-3.5-2
			c-0.4-0.2-0.9-0.2-1.3,0l-3.5,2C256.1,148.6,256,148.7,255.9,148.9z"/>
		<path class="st31" d="M261.4,145.7v0.4h0.3l3.4,2c0.4,0.2,0.9,0.2,1.3,0l3.5-2h0.3v-0.4c0-0.2-0.1-0.3-0.3-0.4l-3.5-2
			c-0.4-0.2-0.9-0.2-1.3,0l-3.5,2C261.5,145.4,261.4,145.5,261.4,145.7z"/>
		<path class="st31" d="M203.4,173v0.4h0.3l3.5,2c0.4,0.2,0.9,0.2,1.3,0l3.5-2h0.3V173c0-0.2-0.1-0.3-0.3-0.4l-3.5-2
			c-0.4-0.2-0.9-0.2-1.3,0l-3.5,2C203.5,172.7,203.4,172.9,203.4,173z"/>
		<path class="st31" d="M208.9,169.8v0.4h0.3l3.5,2c0.4,0.2,0.9,0.2,1.3,0l3.5-2h0.3v-0.4c0-0.2-0.1-0.3-0.3-0.4l-3.5-2
			c-0.4-0.2-0.9-0.2-1.3,0l-3.5,2C209,169.5,208.9,169.7,208.9,169.8z"/>
		<path class="st31" d="M214.3,166.7v0.5h0.3l3.5,2c0.4,0.2,0.9,0.2,1.3,0l3.5-2h0.3v-0.4c0-0.2-0.1-0.3-0.3-0.4l-3.5-2
			c-0.4-0.2-0.9-0.2-1.3,0l-3.5,2C214.5,166.4,214.4,166.5,214.3,166.7z"/>
		<path class="st31" d="M219.8,163.5v0.4h0.3l3.5,2c0.4,0.2,0.8,0.2,1.2,0l3.5-2h0.3v-0.4c0-0.2-0.1-0.3-0.3-0.4l-3.5-2
			c-0.4-0.2-0.9-0.2-1.3,0l-3.5,2C220,163.2,219.8,163.3,219.8,163.5z"/>
		<path class="st31" d="M225.3,160.3v0.4h0.3l3.5,2c0.4,0.2,0.9,0.2,1.3,0l3.5-2h0.3v-0.4c0-0.2-0.1-0.3-0.3-0.4l-3.5-2
			c-0.4-0.2-0.9-0.2-1.3,0l-3.5,2C225.4,160,225.3,160.1,225.3,160.3z"/>
		<path class="st31" d="M230.8,157.1v0.4h0.3l3.5,2c0.4,0.2,0.9,0.2,1.3,0l3.5-2h0.3v-0.4c0-0.2-0.1-0.3-0.3-0.4l-3.5-2
			c-0.4-0.2-0.9-0.2-1.3,0l-3.5,2C230.9,156.8,230.8,156.9,230.8,157.1z"/>
		<path class="st31" d="M236.3,153.9v0.4h0.3l3.5,2c0.4,0.2,0.9,0.2,1.3,0l3.5-2h0.3v-0.4c0-0.2-0.1-0.3-0.3-0.4l-3.5-2
			c-0.4-0.2-0.9-0.2-1.3,0l-3.5,2C236.4,153.6,236.3,153.7,236.3,153.9z"/>
		<path class="st31" d="M241.8,150.7v0.4h0.3l3.5,2c0.4,0.2,0.8,0.2,1.2,0l3.5-2h0.3v-0.4c0-0.2-0.1-0.3-0.3-0.4l-3.5-2
			c-0.4-0.2-0.9-0.2-1.3,0l-3.5,2C241.9,150.4,241.8,150.5,241.8,150.7z"/>
		<path class="st31" d="M247.3,147.5v0.4h0.3l3.5,2c0.4,0.2,0.9,0.2,1.3,0l3.5-2h0.3v-0.4c0-0.2-0.1-0.3-0.3-0.4l-3.5-2
			c-0.4-0.2-0.9-0.2-1.3,0l-3.5,2C247.4,147.2,247.3,147.3,247.3,147.5z"/>
		<path class="st31" d="M252.8,144.3v0.4h0.3l3.5,2c0.4,0.2,0.9,0.2,1.3,0l3.5-2h0.3v-0.4c0-0.2-0.1-0.3-0.3-0.4l-3.5-2
			c-0.4-0.2-0.9-0.2-1.3,0l-3.5,2C252.9,144,252.8,144.1,252.8,144.3z"/>
		<path class="st31" d="M258.3,141.1v0.4h0.3l3.5,2c0.4,0.2,0.9,0.2,1.3,0l3.5-2h0.3v-0.4c0-0.2-0.1-0.3-0.3-0.4l-3.5-2
			c-0.4-0.2-0.9-0.2-1.3,0l-3.5,2C258.4,140.8,258.3,141,258.3,141.1z"/>
		<path class="st31" d="M263.8,138.4h0.3l3.5,2c0.4,0.2,0.9,0.2,1.3,0l4.3-2.5h0.3v-0.4c0-0.1-0.1-0.3-0.3-0.3l-3.5-2
			c-0.4-0.2-0.9-0.2-1.3,0l-4.4,2.5c-0.2,0.1-0.3,0.2-0.3,0.4V138.4z"/>
		<path class="st31" d="M236.6,179.5v0.4h0.3l3.5,2c0.3,0.1,0.6,0.2,1,0.1c0.1,0,0.2-0.1,0.3-0.1l3.5-2h0.3v-0.2l24.4-14.2l3.5-2
			h0.3v-0.4V163l0,0V163l0,0l0,0l-0.1-0.1l-3.5-2c-0.1-0.1-0.2-0.1-0.3-0.1c-0.1,0-0.2,0-0.3,0c-0.2,0-0.4,0-0.6,0.1l-3.5,2
			l-28.4,16.3C236.7,179.2,236.6,179.4,236.6,179.5z"/>
		<path class="st31" d="M195.8,174v0.4l0.2-0.1l0,0l0.9,0.5c0.4,0.2,0.9,0.2,1.3,0l3.2-1.9l0.5-0.1v-0.4c0-0.2-0.1-0.3-0.3-0.3
			l-0.9-0.5c-0.4-0.2-0.9-0.2-1.3,0l-3.4,2.1C195.9,173.7,195.8,173.9,195.8,174z"/>
		<path class="st31" d="M201.3,170.8v0.4h0.2l0,0l1,0.5c0.4,0.2,0.9,0.2,1.3,0l3.2-1.9l0.5-0.1v-0.4c0-0.2-0.1-0.3-0.3-0.3l-1-0.5
			c-0.4-0.2-0.9-0.2-1.3,0l-3.5,2C201.4,170.6,201.3,170.7,201.3,170.8z"/>
		<path class="st31" d="M206.8,167.6v0.4h0.2l0,0l0.9,0.6c0.4,0.2,0.9,0.2,1.3,0l3.2-1.9l0.5-0.1v-0.4c0-0.2-0.1-0.3-0.3-0.3
			l-0.9-0.6c-0.4-0.2-0.9-0.2-1.3,0l-3.5,2C206.9,167.4,206.8,167.5,206.8,167.6z"/>
		<path class="st31" d="M212.2,164.4L212.2,164.4v0.4l0.2-0.1l0,0l1,0.5c0.4,0.2,0.9,0.2,1.3,0l3.2-1.9l0.5-0.1v-0.4
			c0-0.2-0.1-0.3-0.3-0.3l-1-0.6c-0.4-0.2-0.9-0.2-1.3,0l-3.5,2C212.3,164.1,212.2,164.3,212.2,164.4z"/>
		<path class="st31" d="M217.8,161.3v0.4l0.2-0.1l0,0l0.9,0.5c0.4,0.2,0.9,0.2,1.3,0l3.2-1.9l0.5-0.1v-0.4c0-0.2-0.1-0.3-0.3-0.3
			l-0.9-0.5c-0.4-0.2-0.9-0.2-1.3,0l-3.5,2C217.8,160.9,217.8,161.1,217.8,161.3z"/>
		<path class="st31" d="M223.2,158.1L223.2,158.1v0.4h0.2l0,0l1,0.6c0.4,0.2,0.9,0.2,1.3,0l3.2-1.9l0.5-0.1v-0.4
			c0-0.2-0.1-0.3-0.3-0.3l-1-0.5c-0.4-0.2-0.9-0.2-1.3,0l-3.5,2C223.3,157.8,223.2,157.9,223.2,158.1z"/>
		<path class="st31" d="M228.7,154.9L228.7,154.9v0.4h0.2l0,0l0.9,0.6c0.4,0.2,0.9,0.2,1.3,0l3.2-1.9l0.5-0.1v-0.4
			c0-0.2-0.1-0.3-0.3-0.3l-1-0.6c-0.4-0.2-0.9-0.2-1.3,0l-3.5,2C228.8,154.6,228.7,154.7,228.7,154.9z"/>
		<path class="st31" d="M234.2,151.7L234.2,151.7v0.4l0.2-0.1l0,0l1,0.5c0.4,0.2,0.9,0.2,1.3,0l3.2-1.9l0.5-0.1v-0.3
			c0-0.2-0.1-0.3-0.3-0.3l-1-0.5c-0.4-0.2-0.9-0.2-1.3,0l-3.5,2C234.3,151.4,234.2,151.5,234.2,151.7z"/>
		<path class="st31" d="M239.7,148.5L239.7,148.5v0.4h0.2l0,0l0.9,0.5c0.4,0.2,0.9,0.2,1.3,0l3.2-1.9l0.5-0.1V147
			c0-0.2-0.1-0.3-0.3-0.3l-1-0.5c-0.4-0.2-0.9-0.2-1.3,0l-3.5,2C239.8,148.2,239.7,148.3,239.7,148.5z"/>
		<path class="st31" d="M245.2,145.3L245.2,145.3v0.4h0.2l0,0l1,0.6c0.4,0.2,0.9,0.2,1.3,0l3.2-1.9l0.5-0.1v-0.4
			c0-0.2-0.1-0.3-0.3-0.3l-1-0.6c-0.4-0.2-0.9-0.2-1.3,0l-3.4,2C245.3,145,245.2,145.1,245.2,145.3z"/>
		<path class="st31" d="M250.7,142.1v0.4l0.2-0.1l0,0l0.9,0.5c0.4,0.2,0.9,0.2,1.3,0l3.2-1.9l0.5-0.1v-0.4c0-0.2-0.1-0.3-0.3-0.3
			l-0.9-0.6c-0.4-0.2-0.9-0.2-1.3,0l-3.5,2.1C250.8,141.9,250.7,142,250.7,142.1z"/>
		<path class="st31" d="M256.2,138.9v0.4l0.2-0.1l0,0l1,0.5c0.4,0.2,0.9,0.2,1.3,0l3.2-1.9l0.5-0.1v-0.4c0-0.2-0.1-0.3-0.3-0.3
			l-1-0.5c-0.4-0.2-0.9-0.2-1.3,0l-3.5,2C256.3,138.6,256.2,138.7,256.2,138.9z"/>
		<path class="st31" d="M261.7,135.8L261.7,135.8v0.4h0.2l0,0l0.9,0.6c0.4,0.2,0.9,0.2,1.3,0l3.2-1.9l0.5-0.1v-0.4
			c0-0.2-0.1-0.3-0.3-0.4l-1-0.5c-0.4-0.2-0.9-0.2-1.3,0l-3.5,2C261.8,135.5,261.7,135.6,261.7,135.8z"/>
		<path class="st31" d="M197.9,183h0.3l0,0l3.5,2c0.4,0.2,0.9,0.2,1.3,0l6.5-3.8h0.3v-0.4l0,0c0-0.2-0.1-0.3-0.3-0.4l-3.5-2
			c-0.4-0.2-0.9-0.2-1.3,0l-6.6,3.8c-0.2,0.1-0.3,0.2-0.3,0.4L197.9,183z"/>
		<path class="st31" d="M203.5,186.3l0.3-0.1l0,0l3.5,2c0.4,0.2,0.9,0.2,1.3,0l9.2-5.3l0.5-0.1v-0.4c0-0.2-0.1-0.3-0.3-0.4l-3.5-2
			c-0.4-0.2-0.9-0.2-1.3,0l-9.4,5.4c-0.1,0.1-0.2,0.2-0.3,0.4L203.5,186.3z"/>
		<path class="st31" d="M209.1,189.5l0.2-0.1l0,0l3.5,2c0.4,0.2,0.9,0.2,1.3,0l9.1-5.3l0.5-0.1v-0.4c0-0.2-0.1-0.3-0.3-0.4l-3.5-2
			c-0.4-0.2-0.9-0.2-1.3,0l-9.4,5.5c-0.2,0.1-0.3,0.2-0.3,0.4L209.1,189.5z"/>
		<path class="st31" d="M266.9,142.9h0.3l0,0l3.5,2c0.4,0.2,0.9,0.2,1.3,0l6.6-3.9h0.4v-0.4c0-0.2-0.1-0.3-0.3-0.4l-3.5-2
			c-0.4-0.2-0.9-0.2-1.3,0l-6.8,3.8c-0.2,0.1-0.3,0.2-0.3,0.4L266.9,142.9z"/>
		<path class="st31" d="M270,147.7l3.5,2c0.4,0.2,0.9,0.2,1.3,0l9.5-5.5c0.3-0.2,0.3-0.5,0-0.7l-3.5-2c-0.4-0.2-0.9-0.2-1.3,0
			L270,147c-0.2,0.1-0.3,0.3-0.2,0.5C269.8,147.6,269.9,147.7,270,147.7z"/>
		<path class="st31" d="M281.3,153.5L281.3,153.5v0.4l0.2-0.1l0,0l1,0.5c0.4,0.2,0.9,0.2,1.3,0l3.2-1.9l0.5-0.1V152
			c0-0.2-0.1-0.3-0.3-0.3l-1-0.6c-0.4-0.2-0.9-0.2-1.3,0l-3.5,2C281.3,153.2,281.2,153.4,281.3,153.5z"/>
		<path class="st31" d="M283.8,155.1L283.8,155.1v0.4h0.2l0,0l0.9,0.5c0.4,0.2,0.9,0.2,1.3,0l3.2-1.9l0.5-0.1v-0.4
			c0-0.2-0.1-0.3-0.3-0.3l-0.9-0.6c-0.4-0.2-0.9-0.2-1.3,0l-3.5,2C283.9,154.8,283.8,154.9,283.8,155.1z"/>
		<path class="st31" d="M189.4,177.7v0.4l0.3-0.1l0,0l0.9,0.6c0.4,0.2,0.9,0.2,1.3,0l4-2.4l0.6-0.2v-0.4c0-0.1-0.1-0.3-0.3-0.3
			l-1-0.6c-0.4-0.2-0.9-0.2-1.3,0l-4.4,2.5C189.5,177.4,189.4,177.5,189.4,177.7z"/>
		<path class="st31" d="M200.9,179.4l-3.5-2c-0.4-0.2-0.9-0.2-1.3,0l-3.5,2c-0.2,0.1-0.3,0.3-0.2,0.5c0,0.1,0.1,0.2,0.2,0.2l3.5,2
			c0.4,0.2,0.9,0.2,1.3,0l3.5-2c0.2-0.1,0.3-0.3,0.2-0.5C201.1,179.5,201,179.4,200.9,179.4z"/>
		<path class="st31" d="M206.4,176.2l-3.5-2c-0.4-0.2-0.9-0.2-1.3,0l-3.5,2c-0.2,0.1-0.3,0.3-0.3,0.5c0,0.1,0.1,0.2,0.3,0.3l3.5,2
			c0.4,0.2,0.8,0.2,1.2,0l3.5-2c0.2-0.1,0.3-0.3,0.3-0.5C206.6,176.3,206.6,176.2,206.4,176.2z"/>
		<path class="st31" d="M211.9,173l-3.5-2c-0.4-0.2-0.9-0.2-1.3,0l-3.5,2c-0.3,0.2-0.3,0.5,0,0.7l3.5,2c0.4,0.2,0.9,0.2,1.3,0l3.5-2
			C212.3,173.5,212.3,173.2,211.9,173z"/>
		<path class="st31" d="M217.4,169.8l-3.5-2c-0.4-0.2-0.9-0.2-1.3,0l-3.5,2c-0.2,0.1-0.3,0.3-0.3,0.5c0,0.1,0.1,0.2,0.3,0.3l3.5,2
			c0.4,0.2,0.9,0.2,1.3,0l3.5-2c0.2,0,0.4-0.2,0.4-0.4C217.8,170,217.6,169.8,217.4,169.8C217.4,169.8,217.4,169.8,217.4,169.8z"/>
		<path class="st31" d="M222.9,166.6l-3.5-2c-0.4-0.2-0.9-0.2-1.3,0l-3.5,2c-0.2,0.1-0.3,0.3-0.2,0.5c0,0.1,0.1,0.2,0.2,0.2l3.5,2
			c0.4,0.2,0.9,0.2,1.3,0l3.5-2c0.2-0.1,0.3-0.3,0.2-0.5C223.1,166.7,223,166.7,222.9,166.6z"/>
		<path class="st31" d="M228.4,163.4l-3.5-2c-0.4-0.2-0.9-0.2-1.3,0l-3.5,2c-0.4,0.2-0.3,0.5,0,0.7l3.5,2c0.4,0.2,0.9,0.2,1.3,0
			l3.5-2c0.2-0.1,0.3-0.3,0.2-0.5C228.6,163.6,228.5,163.5,228.4,163.4z"/>
		<path class="st31" d="M233.9,160.2l-3.5-2c-0.4-0.2-0.9-0.2-1.3,0l-3.5,2c-0.2,0.1-0.3,0.3-0.3,0.5c0,0.1,0.1,0.2,0.3,0.3l3.5,2
			c0.4,0.2,0.9,0.2,1.3,0l3.5-2C234.3,160.8,234.3,160.4,233.9,160.2z"/>
		<path class="st31" d="M239.4,157l-3.5-2c-0.4-0.2-0.9-0.2-1.3,0l-3.5,2c-0.2,0.1-0.3,0.3-0.2,0.5c0,0.1,0.1,0.2,0.2,0.2l3.5,2
			c0.4,0.2,0.9,0.2,1.3,0l3.5-2c0.2,0,0.4-0.2,0.4-0.4C239.8,157.2,239.6,157,239.4,157L239.4,157z"/>
		<path class="st31" d="M244.9,153.9l-3.5-2c-0.4-0.2-0.9-0.2-1.3,0l-3.5,2c-0.3,0.2-0.3,0.5,0,0.7l3.5,2c0.4,0.2,0.9,0.2,1.3,0
			l3.5-2C245.2,154.4,245.2,154.1,244.9,153.9z"/>
		<path class="st31" d="M250.4,150.7l-3.5-2c-0.4-0.2-0.9-0.2-1.3,0l-3.5,2c-0.4,0.2-0.3,0.5,0,0.7l3.5,2c0.4,0.2,0.9,0.2,1.3,0
			l3.5-2c0.2,0,0.4-0.2,0.4-0.4C250.8,150.8,250.6,150.6,250.4,150.7C250.4,150.6,250.4,150.6,250.4,150.7z"/>
		<path class="st31" d="M255.9,147.5l-3.5-2c-0.4-0.2-0.9-0.2-1.3,0l-3.5,2c-0.3,0.2-0.3,0.5,0,0.7l3.5,2c0.4,0.2,0.9,0.2,1.3,0
			l3.5-2C256.2,148,256.2,147.7,255.9,147.5z"/>
		<path class="st31" d="M220.6,174.4l-3.5-2c-0.4-0.2-0.9-0.2-1.3,0l-3.5,2c-0.2,0.1-0.3,0.3-0.3,0.5c0,0.1,0.1,0.2,0.3,0.3l3.5,2
			c0.4,0.2,0.9,0.2,1.3,0l3.5-2C220.9,174.9,220.9,174.6,220.6,174.4z"/>
		<path class="st31" d="M226.1,171.2l-3.5-2c-0.4-0.2-0.9-0.2-1.3,0l-3.5,2c-0.2,0.1-0.3,0.3-0.2,0.5c0,0.1,0.1,0.2,0.2,0.2l3.5,2
			c0.4,0.2,0.9,0.2,1.3,0l3.5-2c0.2-0.1,0.3-0.3,0.2-0.5C226.3,171.3,226.2,171.2,226.1,171.2z"/>
		<path class="st31" d="M231.5,168l-3.5-2c-0.4-0.2-0.9-0.2-1.3,0l-3.5,2c-0.2,0.1-0.3,0.3-0.3,0.5c0,0.1,0.1,0.2,0.3,0.3l3.5,2
			c0.4,0.2,0.9,0.2,1.3,0l3.5-2c0.2,0,0.4-0.2,0.4-0.4C231.9,168.2,231.8,168,231.5,168z"/>
		<path class="st31" d="M237.1,164.8l-3.5-2c-0.4-0.2-0.9-0.2-1.3,0l-3.5,2c-0.3,0.2-0.4,0.5,0,0.7l3.5,2c0.4,0.2,0.9,0.2,1.3,0
			l3.5-2c0.2-0.1,0.3-0.3,0.3-0.5C237.3,165,237.2,164.9,237.1,164.8z"/>
		<path class="st31" d="M242.5,161.6l-3.5-2c-0.4-0.2-0.9-0.2-1.3,0l-3.5,2c-0.2,0.1-0.3,0.3-0.3,0.5c0,0.1,0.1,0.2,0.3,0.3l3.5,2
			c0.4,0.2,0.9,0.2,1.3,0l3.5-2c0.2-0.1,0.3-0.3,0.3-0.5C242.8,161.8,242.7,161.7,242.5,161.6z"/>
		<path class="st31" d="M248,158.4l-3.5-2c-0.4-0.2-0.9-0.2-1.3,0l-3.5,2c-0.2,0.1-0.3,0.3-0.2,0.5c0,0.1,0.1,0.2,0.2,0.2l3.5,2
			c0.4,0.2,0.9,0.2,1.3,0l3.5-2c0.2-0.1,0.3-0.3,0.2-0.5C248.2,158.5,248.1,158.5,248,158.4z"/>
		<path class="st31" d="M253.5,155.2l-3.5-2c-0.4-0.2-0.9-0.2-1.3,0l-3.5,2c-0.2,0.1-0.3,0.3-0.3,0.5c0,0.1,0.1,0.2,0.3,0.3l3.5,2
			c0.4,0.2,0.9,0.2,1.3,0l3.5-2C253.9,155.8,253.9,155.5,253.5,155.2z"/>
		<path class="st31" d="M259,152.1l-3.5-2c-0.4-0.2-0.9-0.2-1.3,0l-3.5,2c-0.4,0.2-0.4,0.5,0,0.7l3.5,2c0.4,0.2,0.9,0.2,1.3,0l3.5-2
			C259.4,152.6,259.4,152.3,259,152.1z"/>
		<path class="st31" d="M264.5,148.9l-3.5-2c-0.4-0.2-0.9-0.2-1.3,0l-3.5,2c-0.2,0.1-0.3,0.3-0.2,0.5c0,0.1,0.1,0.2,0.2,0.2l3.5,2
			c0.4,0.2,0.9,0.2,1.3,0l3.5-2c0.2-0.1,0.3-0.3,0.2-0.5C264.7,149,264.6,148.9,264.5,148.9z"/>
		<path class="st31" d="M270,145.7l-3.5-2c-0.4-0.2-0.9-0.2-1.3,0l-3.5,2c-0.4,0.2-0.3,0.5,0,0.7l3.5,2c0.4,0.2,0.9,0.2,1.3,0l3.5-2
			C270.3,146.2,270.3,145.9,270,145.7z"/>
		<path class="st31" d="M261.4,144.3l-3.5-2c-0.4-0.2-0.9-0.2-1.3,0l-3.5,2c-0.2,0.1-0.3,0.3-0.2,0.5c0,0.1,0.1,0.2,0.2,0.2l3.5,2
			c0.4,0.2,0.9,0.2,1.3,0l3.5-2c0.2-0.1,0.3-0.3,0.2-0.5C261.5,144.4,261.5,144.3,261.4,144.3z"/>
		<path class="st31" d="M266.9,141.1l-3.5-2c-0.4-0.2-0.9-0.2-1.3,0l-3.5,2c-0.2,0.1-0.3,0.3-0.3,0.5c0,0.1,0.1,0.2,0.3,0.3l3.5,2
			c0.4,0.2,0.9,0.2,1.3,0l3.5-2C267.2,141.6,267.2,141.3,266.9,141.1z"/>
		<path class="st31" d="M223.2,192.2l-3.5-2c-0.4-0.2-0.9-0.2-1.3,0l-3.5,2c-0.3,0.2-0.3,0.5,0,0.7l3.5,2c0.4,0.2,0.9,0.2,1.3,0
			l3.5-2C223.6,192.8,223.6,192.4,223.2,192.2z"/>
		<path class="st31" d="M228.7,189l-3.5-2c-0.4-0.2-0.8-0.2-1.2,0l-3.5,2c-0.2,0.1-0.3,0.3-0.2,0.5c0,0.1,0.1,0.2,0.2,0.2l3.5,2
			c0.4,0.2,0.9,0.2,1.3,0l3.5-2c0.2-0.1,0.3-0.3,0.2-0.5C228.9,189.2,228.8,189.1,228.7,189z"/>
		<path class="st31" d="M234.2,185.9l-3.5-2c-0.4-0.2-0.9-0.2-1.3,0l-3.5,2c-0.3,0.2-0.3,0.5,0,0.7l3.5,2c0.4,0.2,0.9,0.2,1.3,0
			l3.5-2C234.5,186.4,234.5,186.1,234.2,185.9z"/>
		<path class="st31" d="M239.7,182.7l-3.5-2c-0.4-0.2-0.9-0.2-1.3,0l-3.5,2c-0.2,0.1-0.3,0.3-0.3,0.5c0,0.1,0.1,0.2,0.3,0.3l3.5,2
			c0.4,0.2,0.9,0.2,1.3,0l3.5-2c0.2-0.1,0.3-0.3,0.3-0.5C239.9,182.8,239.8,182.7,239.7,182.7z"/>
		<path class="st31" d="M215.1,177.6l-3.5-2c-0.4-0.2-0.9-0.2-1.3,0l-3.5,2c-0.4,0.2-0.4,0.5,0,0.7l3.5,2c0.4,0.2,0.9,0.2,1.3,0
			l3.5-2c0.2,0,0.3-0.2,0.3-0.4C215.4,177.7,215.2,177.6,215.1,177.6z"/>
		<path class="st31" d="M273.2,137.4l-3.5-2c-0.4-0.2-0.9-0.2-1.3,0l-4.4,2.5c-0.4,0.2-0.4,0.5,0,0.7l3.5,2c0.4,0.2,0.9,0.2,1.3,0
			l4.3-2.5c0.2,0,0.4-0.2,0.3-0.5C273.5,137.6,273.4,137.4,273.2,137.4z"/>
		<path class="st31" d="M273.3,163.1l-3.5-2c-0.4-0.2-0.9-0.2-1.3,0l-31.7,18.4c-0.2,0.1-0.3,0.3-0.3,0.5c0,0.1,0.1,0.2,0.3,0.3
			l3.5,2c0.4,0.2,0.9,0.2,1.3,0l31.7-18.4c0.2-0.1,0.3-0.3,0.3-0.5C273.6,163.2,273.5,163.1,273.3,163.1z"/>
		<path class="st31" d="M201.8,172.5l-1-0.6c-0.4-0.2-0.9-0.2-1.3,0l-3.5,2c-0.2,0.1-0.3,0.3-0.2,0.5c0,0.1,0.1,0.2,0.2,0.2l1,0.5
			c0.4,0.2,0.9,0.2,1.3,0l3.5-2c0.2-0.1,0.3-0.3,0.2-0.5C202,172.6,201.9,172.5,201.8,172.5z"/>
		<path class="st31" d="M207.3,169.3l-1-0.5c-0.4-0.2-0.9-0.2-1.3,0l-3.5,2c-0.2,0.1-0.3,0.3-0.2,0.5c0,0.1,0.1,0.2,0.2,0.2l1,0.5
			c0.4,0.2,0.9,0.2,1.3,0l3.5-2C207.6,169.9,207.6,169.5,207.3,169.3z"/>
		<path class="st31" d="M212.8,166.1l-1-0.5c-0.4-0.2-0.9-0.2-1.3,0l-3.5,2c-0.3,0.2-0.3,0.5,0,0.7l0.9,0.6c0.4,0.2,0.9,0.2,1.3,0
			l3.5-2c0.2-0.1,0.3-0.3,0.2-0.5C212.9,166.3,212.9,166.2,212.8,166.1z"/>
		<path class="st31" d="M218.2,162.9l-1-0.6c-0.4-0.2-0.9-0.2-1.3,0l-3.5,2c-0.2,0.1-0.3,0.3-0.2,0.5c0,0.1,0.1,0.2,0.2,0.2l1,0.5
			c0.4,0.2,0.9,0.2,1.3,0l3.5-2C218.6,163.5,218.6,163.1,218.2,162.9z"/>
		<path class="st31" d="M223.8,159.7l-1-0.5c-0.4-0.2-0.9-0.2-1.3,0l-3.5,2c-0.2,0.1-0.3,0.3-0.2,0.5c0,0.1,0.1,0.2,0.2,0.2l0.9,0.5
			c0.4,0.2,0.9,0.2,1.3,0l3.5-2c0.2,0,0.3-0.3,0.3-0.5C224,159.9,223.9,159.8,223.8,159.7z"/>
		<path class="st31" d="M229.2,156.5l-1-0.5c-0.4-0.2-0.9-0.2-1.3,0l-3.5,2c-0.2,0.1-0.3,0.3-0.3,0.5c0,0.1,0.1,0.2,0.3,0.3l1,0.6
			c0.4,0.2,0.9,0.2,1.3,0l3.5-2C229.6,157.1,229.6,156.8,229.2,156.5z"/>
		<path class="st31" d="M234.7,153.4l-1-0.6c-0.4-0.2-0.9-0.2-1.3,0l-3.5,2c-0.3,0.2-0.3,0.5,0,0.7l0.9,0.6c0.4,0.2,0.9,0.2,1.3,0
			l3.5-2c0.2-0.1,0.3-0.3,0.3-0.5C234.9,153.5,234.8,153.4,234.7,153.4z"/>
		<path class="st31" d="M240.2,150.2l-1-0.6c-0.4-0.2-0.9-0.2-1.3,0l-3.5,2c-0.2,0.1-0.3,0.3-0.2,0.5c0,0.1,0.1,0.2,0.2,0.2l1,0.5
			c0.4,0.2,0.9,0.2,1.3,0l3.5-2C240.6,150.7,240.6,150.4,240.2,150.2z"/>
		<path class="st31" d="M245.7,147l-1-0.5c-0.4-0.2-0.9-0.2-1.3,0l-3.5,2c-0.3,0.2-0.3,0.5,0,0.7l0.9,0.5c0.4,0.2,0.9,0.2,1.3,0
			l3.5-2c0.2-0.1,0.3-0.3,0.2-0.5C245.9,147.1,245.8,147,245.7,147z"/>
		<path class="st31" d="M251.2,143.8l-1-0.5c-0.4-0.2-0.9-0.2-1.3,0l-3.5,2c-0.2,0.1-0.3,0.3-0.3,0.5c0,0.1,0.1,0.2,0.3,0.3l1,0.6
			c0.4,0.2,0.9,0.2,1.3,0l3.5-2c0.2-0.1,0.3-0.3,0.2-0.5C251.4,143.9,251.3,143.8,251.2,143.8z"/>
		<path class="st31" d="M256.7,140.6l-1-0.6c-0.4-0.2-0.9-0.2-1.3,0l-3.5,2c-0.2,0.1-0.3,0.3-0.2,0.5c0,0.1,0.1,0.2,0.2,0.2l0.9,0.5
			c0.4,0.2,0.9,0.2,1.3,0l3.5-2c0.2-0.1,0.3-0.3,0.3-0.5C256.9,140.7,256.8,140.6,256.7,140.6z"/>
		<path class="st31" d="M262.2,137.4l-1-0.5c-0.4-0.2-0.9-0.2-1.3,0l-3.5,2c-0.2,0.1-0.3,0.3-0.2,0.5c0,0.1,0.1,0.2,0.2,0.2l1,0.5
			c0.4,0.2,0.9,0.2,1.3,0l3.5-2C262.5,137.9,262.5,137.6,262.2,137.4z"/>
		<path class="st31" d="M267.7,134.2l-1-0.5c-0.4-0.2-0.9-0.2-1.3,0l-3.5,2c-0.3,0.2-0.3,0.5,0,0.7l0.9,0.6c0.4,0.2,0.9,0.2,1.3,0
			l3.5-2c0.2-0.1,0.3-0.3,0.2-0.5C267.9,134.3,267.8,134.2,267.7,134.2z"/>
		<path class="st31" d="M196.3,175.7l-1-0.6c-0.4-0.2-0.9-0.2-1.3,0l-4.4,2.5c-0.3,0.2-0.3,0.5,0,0.7l0.9,0.6c0.4,0.2,0.9,0.2,1.3,0
			l4.4-2.5C196.6,176.2,196.6,175.9,196.3,175.7z"/>
		<path class="st31" d="M209.6,180.8l-3.5-2c-0.4-0.2-0.9-0.2-1.3,0l-6.6,3.8c-0.2,0.1-0.3,0.3-0.3,0.5c0,0.1,0.1,0.2,0.3,0.3l3.5,2
			c0.4,0.2,0.8,0.2,1.2,0l6.6-3.8C210,181.3,210,181,209.6,180.8z"/>
		<path class="st31" d="M217.9,182.4l-3.5-2c-0.4-0.2-0.9-0.2-1.3,0l-9.4,5.4c-0.2,0.1-0.3,0.3-0.2,0.5c0,0.1,0.1,0.2,0.2,0.2l3.5,2
			c0.4,0.2,0.9,0.2,1.3,0l9.4-5.4C218.3,183,218.3,182.6,217.9,182.4z"/>
		<path class="st31" d="M223.5,185.6l-3.5-2c-0.4-0.2-0.8-0.2-1.2,0l-9.5,5.4c-0.2,0.1-0.3,0.3-0.2,0.5c0,0.1,0.1,0.2,0.2,0.2l3.5,2
			c0.4,0.2,0.9,0.2,1.3,0l9.3-5.4c0.2-0.1,0.3-0.3,0.3-0.5C223.7,185.8,223.6,185.7,223.5,185.6z"/>
		<path class="st31" d="M278.8,140.6l-3.5-2c-0.4-0.2-0.9-0.2-1.3,0l-6.8,3.9c-0.2,0.1-0.3,0.3-0.3,0.5c0,0.1,0.1,0.2,0.3,0.3l3.5,2
			c0.4,0.2,0.9,0.2,1.3,0l6.7-3.9c0.2,0,0.4-0.2,0.3-0.4C279,140.8,278.9,140.6,278.8,140.6z"/>
		<path class="st31" d="M284.3,143.8l-3.5-2c-0.4-0.2-0.9-0.2-1.3,0l-9.5,5.5c-0.2,0.1-0.3,0.3-0.2,0.5c0,0.1,0.1,0.2,0.2,0.2l3.5,2
			c0.4,0.2,0.9,0.2,1.3,0l9.5-5.5C284.7,144.4,284.7,144,284.3,143.8z"/>
		<path class="st31" d="M287.3,152l-1-0.6c-0.4-0.2-0.9-0.2-1.3,0l-3.5,2c-0.4,0.2-0.3,0.5,0,0.7l1,0.6c0.4,0.2,0.9,0.2,1.3,0l3.5-2
			c0.2-0.1,0.3-0.3,0.3-0.5C287.5,152.2,287.4,152.1,287.3,152z"/>
		<path class="st31" d="M289.8,153.5l-0.9-0.5c-0.4-0.2-0.9-0.2-1.3,0l-3.5,2.1c-0.2,0.1-0.3,0.3-0.2,0.5c0,0.1,0.1,0.2,0.2,0.2
			l0.9,0.5c0.4,0.2,0.9,0.2,1.3,0l3.5-2C290.2,154.1,290.2,153.7,289.8,153.5z"/>
		<path class="st31" d="M267.4,153.7l-3.5-2c-0.4-0.2-0.9-0.2-1.3,0l-3.5,2c-0.2,0.1-0.3,0.3-0.3,0.5c0,0.1,0.1,0.2,0.3,0.3l3.5,2
			c0.4,0.2,0.9,0.2,1.3,0l3.5-2c0.2-0.1,0.3-0.3,0.3-0.5C267.6,153.8,267.5,153.7,267.4,153.7z"/>
		<path class="st31" d="M272.8,150.5l-3.5-2c-0.4-0.2-0.9-0.2-1.3,0l-3.5,2c-0.2,0.1-0.3,0.3-0.3,0.5c0,0.1,0.1,0.2,0.3,0.3l3.5,2
			c0.4,0.2,0.9,0.2,1.3,0l3.5-2C273.2,151,273.2,150.7,272.8,150.5z"/>
		<path class="st31" d="M273,156.9l-3.5-2c-0.4-0.2-0.9-0.2-1.3,0l-3.5,2c-0.3,0.2-0.3,0.5,0,0.7l3.5,2c0.4,0.2,0.9,0.2,1.3,0l3.5-2
			C273.3,157.5,273.3,157.1,273,156.9z"/>
		<path class="st31" d="M278.5,153.7l-3.5-2c-0.4-0.2-0.8-0.2-1.2,0l-3.5,2c-0.2,0.1-0.3,0.3-0.2,0.5c0,0.1,0.1,0.2,0.2,0.2l3.5,2
			c0.4,0.2,0.9,0.2,1.3,0l3.5-2c0.2-0.1,0.3-0.3,0.2-0.5C278.7,153.8,278.6,153.8,278.5,153.7z"/>
		<path class="st31" d="M283.9,150.5l-3.5-2c-0.4-0.2-0.9-0.2-1.3,0l-3.5,2c-0.3,0.2-0.3,0.5,0,0.7l3.5,2c0.4,0.2,0.9,0.2,1.3,0
			l3.5-2C284.3,151.1,284.3,150.7,283.9,150.5z"/>
		<path class="st31" d="M289.9,147.1l-3.5-2c-0.4-0.2-0.9-0.2-1.3,0l-4,2.3c-0.2,0.1-0.3,0.3-0.3,0.5c0,0.1,0.1,0.2,0.3,0.3l3.5,2
			c0.4,0.2,0.9,0.2,1.3,0l4-2.3c0.2-0.1,0.3-0.3,0.2-0.5C290.1,147.2,290,147.1,289.9,147.1z"/>
		<path class="st31" d="M256.3,160.1l-3.5-2c-0.4-0.2-0.9-0.2-1.3,0l-3.5,2c-0.2,0.1-0.3,0.3-0.2,0.5c0,0.1,0.1,0.2,0.2,0.2l3.5,2
			c0.4,0.2,0.9,0.2,1.3,0l3.5-2c0.2-0.1,0.3-0.3,0.2-0.5C256.5,160.2,256.5,160.1,256.3,160.1z"/>
		<path class="st31" d="M261.9,156.9l-3.5-2c-0.4-0.2-0.9-0.2-1.3,0l-3.5,2c-0.2,0.1-0.3,0.3-0.2,0.5c0,0.1,0.1,0.2,0.2,0.2l3.5,2
			c0.4,0.2,0.9,0.2,1.3,0l3.5-2C262.2,157.5,262.2,157.1,261.9,156.9z"/>
		<path class="st31" d="M262,163.3l-3.5-2c-0.4-0.2-0.9-0.2-1.3,0l-3.5,2c-0.3,0.2-0.3,0.5,0,0.7l3.5,2c0.4,0.2,0.9,0.2,1.3,0l3.5-2
			c0.2-0.1,0.3-0.3,0.3-0.5C262.2,163.4,262.1,163.4,262,163.3z"/>
		<path class="st31" d="M267.5,160.1l-3.5-2c-0.4-0.2-0.9-0.2-1.3,0l-3.5,2c-0.2,0.1-0.3,0.3-0.3,0.5c0,0.1,0.1,0.2,0.3,0.3l3.5,2
			c0.4,0.2,0.9,0.2,1.3,0l3.5-2C267.8,160.6,267.8,160.3,267.5,160.1z"/>
		<path class="st31" d="M245.4,166.5l-3.5-2c-0.4-0.2-0.9-0.2-1.3,0l-3.5,2c-0.2,0.1-0.3,0.3-0.3,0.5c0,0.1,0.1,0.2,0.3,0.3l3.5,2
			c0.4,0.2,0.9,0.2,1.3,0l3.5-2c0.2-0.1,0.3-0.3,0.2-0.5C245.6,166.6,245.5,166.5,245.4,166.5z"/>
		<path class="st31" d="M250.9,163.3l-3.5-2c-0.4-0.2-0.9-0.2-1.3,0l-3.5,2c-0.3,0.2-0.3,0.5,0,0.7l3.5,2c0.4,0.2,0.9,0.2,1.3,0
			l3.5-2C251.2,163.8,251.2,163.5,250.9,163.3z"/>
		<path class="st31" d="M251,169.7l-3.5-2c-0.4-0.2-0.9-0.2-1.3,0l-3.5,2c-0.3,0.2-0.3,0.5,0,0.7l3.5,2c0.4,0.2,0.9,0.2,1.3,0l3.5-2
			c0.2-0.1,0.3-0.3,0.3-0.5C251.2,169.8,251.1,169.7,251,169.7z"/>
		<path class="st31" d="M256.5,166.5l-3.5-2c-0.4-0.2-0.9-0.2-1.3,0l-3.5,2c-0.2,0.1-0.3,0.3-0.3,0.5c0,0.1,0.1,0.2,0.3,0.3l3.5,2
			c0.4,0.2,0.9,0.2,1.3,0l3.5-2c0.2-0.1,0.3-0.3,0.2-0.5C256.7,166.6,256.6,166.5,256.5,166.5z"/>
		<path class="st31" d="M234.4,172.8l-3.5-2c-0.4-0.2-0.9-0.2-1.3,0l-3.5,2c-0.2,0.1-0.3,0.3-0.3,0.5c0,0.1,0.1,0.2,0.3,0.3l3.5,2
			c0.4,0.2,0.9,0.2,1.3,0l3.5-2c0.2-0.1,0.3-0.3,0.3-0.5C234.6,173,234.5,172.9,234.4,172.8z"/>
		<path class="st31" d="M239.9,169.6l-3.5-2c-0.4-0.2-0.9-0.2-1.3,0l-3.5,2c-0.2,0.1-0.3,0.3-0.2,0.5c0,0.1,0.1,0.2,0.2,0.2l3.5,2
			c0.4,0.2,0.9,0.2,1.3,0l3.5-2c0.2-0.1,0.3-0.3,0.2-0.5C240.1,169.8,240,169.7,239.9,169.6z"/>
		<path class="st31" d="M240,176.1l-3.5-2c-0.4-0.2-0.9-0.2-1.3,0l-3.5,2c-0.2,0.1-0.3,0.3-0.2,0.5c0,0.1,0.1,0.2,0.2,0.2l3.5,2
			c0.4,0.2,0.9,0.2,1.3,0l3.5-2c0.2-0.1,0.3-0.3,0.2-0.5C240.2,176.2,240.1,176.1,240,176.1z"/>
		<path class="st31" d="M245.5,172.9l-3.5-2c-0.4-0.2-0.9-0.2-1.3,0l-3.5,2c-0.2,0.1-0.3,0.3-0.3,0.5c0,0.1,0.1,0.2,0.3,0.3l3.5,2
			c0.4,0.2,0.9,0.2,1.3,0l3.5-2c0.2-0.1,0.3-0.3,0.3-0.5C245.7,173,245.6,172.9,245.5,172.9z"/>
		<path class="st31" d="M223.4,179.2l-3.5-2c-0.4-0.2-0.9-0.2-1.3,0l-3.5,2c-0.2,0.1-0.3,0.3-0.2,0.5c0,0.1,0.1,0.2,0.2,0.2l3.5,2
			c0.4,0.2,0.9,0.2,1.3,0l3.5-2c0.2-0.1,0.3-0.3,0.3-0.5C223.6,179.3,223.6,179.2,223.4,179.2z"/>
		<path class="st31" d="M228.9,176l-3.5-2c-0.4-0.2-0.9-0.2-1.3,0l-3.5,2c-0.3,0.2-0.3,0.5,0,0.7l3.5,2c0.4,0.2,0.9,0.2,1.3,0l3.5-2
			c0.2-0.1,0.3-0.3,0.3-0.5C229.1,176.2,229,176.1,228.9,176z"/>
		<path class="st31" d="M229,182.5l-3.5-2.1c-0.4-0.2-0.9-0.2-1.3,0l-3.5,2c-0.3,0.2-0.3,0.5,0,0.7l3.5,2c0.4,0.2,0.9,0.2,1.3,0
			l3.5-2c0.2-0.1,0.3-0.3,0.2-0.5C229.2,182.6,229.1,182.5,229,182.5z"/>
		<path class="st31" d="M234.5,179.3l-3.5-2c-0.4-0.2-0.9-0.2-1.3,0l-3.5,2c-0.2,0.1-0.3,0.3-0.3,0.5c0,0.1,0.1,0.2,0.3,0.3l3.5,2
			c0.4,0.2,0.9,0.2,1.3,0l3.5-2C234.9,179.8,234.9,179.5,234.5,179.3z"/>
		<path class="st31" d="M278.8,159.9l-3.5-2c-0.4-0.2-0.9-0.2-1.3,0l-3.5,2c-0.4,0.2-0.3,0.5,0,0.7l3.5,2c0.4,0.2,0.9,0.2,1.3,0
			l3.5-2c0.2-0.1,0.3-0.3,0.3-0.5C279.1,160,279,159.9,278.8,159.9z"/>
		<path class="st31" d="M284.3,156.7l-3.5-2c-0.4-0.2-0.8-0.2-1.2,0l-3.5,2c-0.2,0.1-0.3,0.3-0.3,0.5c0,0.1,0.1,0.2,0.3,0.3l3.5,2
			c0.4,0.2,0.9,0.2,1.3,0l3.5-2C284.7,157.2,284.7,156.9,284.3,156.7z"/>
		<path class="st31" d="M295.5,150.2l-3.5-2c-0.4-0.2-0.9-0.2-1.3,0l-3.5,2c-0.2,0.1-0.3,0.3-0.3,0.5c0,0.1,0.1,0.2,0.3,0.3l3.5,2
			c0.4,0.2,0.9,0.2,1.3,0l3.5-2C295.8,150.8,295.8,150.5,295.5,150.2z"/>
		<polygon class="st32" points="266.9,191.9 249.4,181.8 275,167 292.5,177.1 		"/>
		
			<linearGradient id="SVGID_1_" gradientUnits="userSpaceOnUse" x1="-9121.5957" y1="272.236" x2="-9078.4258" y2="272.236" gradientTransform="matrix(-1 0 0 -1 -8871.4199 452)">
			<stop  offset="5.000000e-02" style="stop-color:#FEB9B8"/>
			<stop  offset="0.99" style="stop-color:#FEA5A4"/>
		</linearGradient>
		<path class="st33" d="M236,190.5c-3.4-1.4-5.8-2.3-8.3-2.3c-2.6,0-9.1-2.6-9.1-2.6c-2.1,0.2-4.1,0.5-6.1,1
			c-0.6,0.4-0.2,1.7-0.8,1.9s-2,0.5-2.3-1.1c-0.1-0.8-0.1-1.6,0-2.4l4-3l2.7-1l-3.6,0.3c-1.2,0.2-2.4,0.6-3.5,1.1
			c-1,0.6-2-0.6-1.6-2c0.4-1.4,3.7-1.8,6-3.1c-4.4,0.8-4.4,1.2-5.2,0.8s-1.5-1.5-0.6-2.1c1-0.6,9.8-4.4,9.8-4.4
			c1.6-1,3.4-1.9,5.1-2.6c3,0,5.9,0.3,8.8,0.9c1.1,0.5,9.6,6.4,13.3,8.3c2,1,3.9,2.1,5.7,3.3L236,190.5z"/>
		<path class="st34" d="M336.8,227.6c-0.6,2.2-1.3,3-0.8,5.1s0.2,4.4,7.5,8.9c7.3,4.5,21.4,11.6,37.1,8.8
			c15.7-2.8,22.4-11.6,25-15.8c1.5-2.2,2.2-4.9,2-7.6c0,0,0.2-4.4-0.2-4.3c-0.3,0.1-2.4,14.1-16.5,19c-9.9,2.2-20.2,1.9-30-1
			c-7.3-2.2-14-6-19.7-11.1L336.8,227.6z"/>
		
			<rect x="384.9" y="244.9" transform="matrix(0.2091 -0.9779 0.9779 0.2091 68.3889 576.8964)" class="st8" width="11.9" height="2.5"/>
		
			<rect x="343.2" y="239.1" transform="matrix(0.4563 -0.8898 0.8898 0.4563 -24.4328 440.7819)" class="st8" width="10.6" height="2.5"/>
		<path class="st35" d="M280,308.1l-11.4-77.4v-0.1c0.1-0.6,0.4-1.1,0.8-1.5c1.3-0.9,2.8-1.2,4.3-0.9c1.8,0.2,6.2,2.3,12.3,5.2
			c8.9,4.3,20,9.7,27.2,10.9c11.9,1.9,22.5-4.2,24.6-11l1.4,0.4c-2.2,7.2-13.6,14-26.2,11.9c-7.5-1.2-18.7-6.7-27.6-11
			c-5.5-2.7-10.2-5-11.7-5.1c-2.5-0.2-3.4,0.5-3.5,1l11.3,77.3L280,308.1z"/>
		
			<linearGradient id="SVGID_00000063592120947210621110000014168342842124269704_" gradientUnits="userSpaceOnUse" x1="-9244.4502" y1="370.8971" x2="-9194.1533" y2="370.8971" gradientTransform="matrix(-1 0 0 -1 -8871.4199 452)">
			<stop  offset="5.000000e-02" style="stop-color:#FEB9B8"/>
			<stop  offset="0.99" style="stop-color:#FEA5A4"/>
		</linearGradient>
		<path style="fill:url(#SVGID_00000063592120947210621110000014168342842124269704_);" d="M343.9,113.6c-0.4-7.8-2.7-14.2-3.1-14.7
			s-4.1,0.1-6.8-2.1s-4.4-8.5-4.3-10.2c0-1.6-4.3-14.9-5.6-20.2s-3.1-14.7,1.5-17.3s45.2,3.8,45.5,15.7s-2.5,14.9-2.6,19.7
			c-0.1,4.8,3.8,18.6,4.4,20s-0.6,3.9-10.6,5.5C352.4,111.7,343.9,113.6,343.9,113.6z"/>
		<path class="st37" d="M332.4,76c-0.9-2.2-0.7-5.8,2-3.5c2.8,2.3,3.7,7.3,3.4,9.3s-0.8,5.2-1.2,5.3c-0.4,0.1-2.3-1.4-2.4-3.2
			C333.9,81.3,333.2,78.6,332.4,76z"/>
		<path class="st38" d="M315.4,164.7c1.3,2.7,2.8,5.7,4.5,8.9c13.6,25.5,11.6,48.4,15.2,52.9c1,1.1,2.1,2,3.4,2.8
			c9.3,6.5,35,16.3,51.6,9.8c19.6-7.6,17.7-19.6,17.6-21.7c-0.1-2.1-5.7-37.7-5.6-46s7.4-25,7.9-37.7c0.5-12.6-4-21.6-8.1-24.8
			c-4.1-3.2-21-4.5-28.3-3.6c0,0-18.7,5.2-29.1,9.4s-26.1,15.8-31.3,21C308.7,140.3,306.8,146.3,315.4,164.7z"/>
		<path class="st39" d="M315.4,164.7c1.3,2.7,2.8,5.7,4.5,8.9c13.6,25.5,11.6,48.4,15.2,52.9c1,1.1,2.1,2,3.4,2.8
			c-0.3-1.8-0.7-3.6-1.2-5.4c-1.2-4.4-3.3-13.5-4.8-19c-1.6-5.5-3.5-15.8-2.5-19.1c1-3.3,2.5-6,1.3-17.6l-13.2-7.8
			C317.1,161.7,316.2,163.2,315.4,164.7z"/>
		<path class="st40" d="M318.5,137.1c14.7,4.2,14.3,26,12.6,32.2c-1.7,6.2-37.6,37.6-47.9,41.2c-10.3,3.6-9.9-22.4-7.9-24.8
			c2-2.4,31.5-43,34.7-46.4C313.2,135.9,315.4,136.2,318.5,137.1z"/>
		<path class="st40" d="M244.5,176c11.2,4,30.7,9.6,30.7,9.6s12.4,24.9,5.5,25.1s-48-20.5-48-20.5S227,177.3,244.5,176z"/>
		<path class="st41" d="M329.1,74.7h1.9c0,0,0.2-6.4,5.7-3.4c5.5,3,7,11.2,9,14.3c1.9,3.1,12.9,4.7,17.5,3.6c4.6-1.1,5.5-2.1,5.7-4
			c0.8-4.4,1.9-8.8,3.3-13.1c1.6-5.2,1.2-23.9-3.3-29.2c-4.3-6.9-16.1-9.9-27.2-8.9c-7.1,0.7-13.6,4.4-17.8,10.1
			c-1.3,2.2-2.1,4.7-2.4,7.2c0,1.6,1.9,6,1.9,6l1.5,6.3c0,0,3,4.1,3.2,5.6C328.2,70.7,329.1,74.7,329.1,74.7z"/>
		<path class="st42" d="M371.8,100.7c2.1-1.1,3-0.7,3.6-0.3c1.3,1.7,2.2,3.6,2.7,5.6c0.2,1.6-6.8,5.7-13.7,6.9
			c-7.5,1.2-15.1,1.9-22.8,2c0.2-3.9,0.6-7.6,1.5-8.3c0.9-0.7,5.8-1,10.4-1.2C358.2,105.2,367.9,105.4,371.8,100.7z"/>
		<path class="st12" d="M351.6,271.8c0.4-12.5,2.2-36.2,2.5-48.6c0.2-6.1,5-12.7,10.9-15c18.8-8.2,36.6-18.4,56.2-32.5
			c2.4-1.8,4.5-2.7,6-2.6c2.7,0.4,5.2,1.3,7.5,2.8c0.1,0.1-2.5,4.6-6.8,11.7c-2.8,14.3-6.4,33.7-8.9,45.2c-2,9.4-9.5,21.6-16.9,26.9
			c-10.2,7.4-21.1,13.9-32.5,19.4c-2.7,3.8-4.6,6-5.1,5.9c-2.7-0.6-5.4-1.5-7.9-2.8l0,0l-0.5-0.3
			C353.2,280.5,351.5,276.8,351.6,271.8z"/>
		<path class="st43" d="M369.6,284.2c13.5-6,26.4-13.5,38.4-22.2c7.4-5.3,14.8-17.5,16.9-26.9c3-14,7.5-39.2,10.6-53.3
			c1.5-6.9-2.3-8.4-8.4-3.8c-19.6,14.1-37.4,24.3-56.2,32.5c-5.8,2.3-10.7,8.8-10.9,15c-0.3,12.4-2.1,36.1-2.5,48.6
			C357.3,282.5,362.5,287.3,369.6,284.2z"/>
		<path class="st44" d="M366.4,284.8c1.3,0,2.6-0.3,3.8-0.9c13.5-6,26.3-13.4,38.3-22.1c7.1-5.1,14.5-16.9,16.5-26.4
			c1.4-6.7,3.2-15.7,5.1-25.3c2-10.1,4-20.6,5.6-27.9c0.5-2.3,0.4-4-0.3-4.8c-0.4-0.4-0.9-0.7-1.5-0.6c-2,0.3-3.9,1.1-5.4,2.5
			c-19.6,14.1-37.5,24.4-56.4,32.6c-5.6,2.2-10.2,8.5-10.4,14.2c-0.2,6.5-0.7,16.1-1.3,25.5c-0.5,8.8-1,17.2-1.2,23.1
			c-0.1,3.5,0.8,6.5,2.6,8.3C363.1,284.1,364.7,284.8,366.4,284.8z"/>
		<path class="st45" d="M389,215.5c7.8-3.2,15-7.4,21.7-12.5c1.5-1.2,2.5-3,2.6-4.9c0-1.7-1.2-2.1-2.6-1.1
			c-6.7,5.1-14,9.3-21.7,12.5c-1.5,0.8-2.5,2.4-2.6,4.1C386.4,215.2,387.6,216.1,389,215.5z"/>
	</g>
</g>
</svg>
