<svg xmlns="http://www.w3.org/2000/svg" viewBox="0 0 397.7 425.2"><defs><style>.cls-1{isolation:isolate;}.cls-2{fill:#3a414b;}.cls-11,.cls-3,.cls-5{fill:#fff;}.cls-11,.cls-3{mix-blend-mode:soft-light;}.cls-4,.cls-6{fill:#c6c6c6;}.cls-10,.cls-12,.cls-18,.cls-4{mix-blend-mode:multiply;}.cls-22,.cls-7{fill:none;stroke:#2c343f;stroke-linecap:round;stroke-linejoin:round;}.cls-7{stroke-width:2.99px;}.cls-8{fill:#140600;}.cls-9{fill:#f7c7ad;}.cls-10{fill:#dadada;}.cls-11{opacity:0.5;}.cls-12{fill:#ededed;}.cls-13{fill:#00b1c3;}.cls-14{fill:#009ab0;}.cls-15{fill:#dedede;}.cls-16{fill:#432918;}.cls-17{fill:#20150e;}.cls-19{fill:#8f2015;}.cls-20{fill:#464f5b;}.cls-21{fill:#d42a26;}.cls-22{stroke-width:3.41px;}.cls-23{fill:#232a33;}.cls-24{fill:#e6332a;}.cls-25{fill:#8c1f14;}</style></defs><g class="cls-1"><g id="Capa_1" data-name="Capa 1"><rect class="cls-2" x="73.32" y="111.11" width="163.05" height="266.81" rx="7.02"/><path class="cls-3" d="M219.87,367.13a6.48,6.48,0,0,0,6.48-6.47V127.51a6.48,6.48,0,0,0-6.48-6.48l-36.93-3.83h41.42a6.67,6.67,0,0,1,6.67,6.67V364.29a6.68,6.68,0,0,1-6.67,6.68H174.18Z"/><path class="cls-4" d="M218.24,347.12c-33.05-8.3-57.9-32.58-75.88-60.53A248,248,0,0,1,118,238.73a251.6,251.6,0,0,1-13.65-58.81c-2.22-19.37-2.35-38.94-2-58.42,0-3.46.16-6.93.34-10.39H80.34a7,7,0,0,0-7,7V370.91a7,7,0,0,0,7,7h149a7,7,0,0,0,7-7V350.36A136.19,136.19,0,0,1,218.24,347.12Z"/><path class="cls-5" d="M93.86,130.65h122a5.75,5.75,0,0,1,5.75,5.75V343.31a5.74,5.74,0,0,1-5.74,5.74h-122a5.74,5.74,0,0,1-5.74-5.74V136.39A5.74,5.74,0,0,1,93.86,130.65Z"/><path class="cls-4" d="M217.85,310.15c-29.62-5.65-57.1-20.41-76.43-43.84A151.36,151.36,0,0,1,118,226.71c-7.21-17.74-13.66-36-17.21-54.81a176.05,176.05,0,0,1-3-41.25H93.86a5.74,5.74,0,0,0-5.74,5.74V343.31a5.74,5.74,0,0,0,5.74,5.74h122a5.74,5.74,0,0,0,5.74-5.74V310.8C220.34,310.6,219.1,310.38,217.85,310.15Z"/><path class="cls-6" d="M176.55,363.63a4.67,4.67,0,0,1-4.68,4.67H137.82a4.67,4.67,0,0,1-4.67-4.67h0a4.68,4.68,0,0,1,4.67-4.68h34.05a4.68,4.68,0,0,1,4.68,4.68Z"/><path class="cls-4" d="M137.82,368.3h34.05a4.67,4.67,0,0,0,4.68-4.67h-43.4A4.67,4.67,0,0,0,137.82,368.3Z"/><path class="cls-7" d="M339,232.12V227a8.88,8.88,0,0,0-3.57-6.28s-10.19-6.53-10.57-31.17c0,0-.75-34.25-40.62-34.25H265.68"/><path class="cls-7" d="M200.66,232.12V227a8.89,8.89,0,0,1,3.56-6.28s10.19-6.53,10.57-31.17c0,0,.76-34.25,40.63-34.25H274"/><rect class="cls-8" x="239.1" y="228.82" width="74.13" height="87.53"/><path class="cls-9" d="M314.86,307.86c-20-2.25-29.8-8.15-31.48-9.25H247.83c-1.69,1.1-11.52,7-31.49,9.25,0,0-38.05,1.42-37,70.42,0,0,28.63,12.92,86.25,12.81,57.6.11,86.24-12.81,86.24-12.81C352.92,309.28,314.86,307.86,314.86,307.86Z"/><path class="cls-5" d="M216.34,307.86s-38.05,1.42-37,70.42c0,0,28.63,12.92,86.25,12.81,57.6.11,86.24-12.81,86.24-12.81,1.07-69-37-70.42-37-70.42s-37.05-2.63-49.25,13.15C265.61,321,253.85,301.6,216.34,307.86Z"/><rect class="cls-9" x="247.45" y="279.43" width="36.3" height="26.4"/><path class="cls-10" d="M247.45,287h0c.4.47.81.94,1.24,1.39a38.77,38.77,0,0,0,3.58,3.32l.11.09,1.24.88c.65.43,1.29.86,2,1.26,1,.57,1.95,1.13,3,1.62.32.13,1.27.52,1.56.62,1,.34,2,.66,3,.92s2.05.54,3.09.74a17.75,17.75,0,0,1,2,.39,56.8,56.8,0,0,0,7.37.41c1.06,0,2.12,0,3.17-.12.34,0,1.91-.27,2.07-.27,1-.22,2-.5,3-.81v-18H247.45v7.44C247.56,287,247.58,287.09,247.45,287Z"/><path class="cls-9" d="M306.91,231.7c0,31.27-18.49,56.62-41.3,56.62S224.3,263,224.3,231.7s18.49-50.87,41.31-50.87S306.91,200.43,306.91,231.7Z"/><path class="cls-11" d="M243.59,206.15c0-.07,0-.14,0-.21a29.49,29.49,0,0,1,22.78-10.67c17.82,0,32.27,15.31,32.27,39.74,0,16.28-6.43,30.5-16,38.17C282.7,273.18,228.69,266.75,243.59,206.15Z"/><path class="cls-12" d="M259.17,275.86c-14.07-8.87-21.74-23.92-23.69-40.13-1.83-15.21,2-32,11.7-44.08a42.1,42.1,0,0,1,12.38-10.34c-19.94,3.15-35.26,21.93-35.26,50.39,0,31.27,18.49,56.62,41.31,56.62A32.43,32.43,0,0,0,284,282.37,43.61,43.61,0,0,1,259.17,275.86Z"/><path class="cls-13" d="M246.09,299.63c-3.85,2.1-13.41,6.39-29.75,8.23,0,0-38.05,1.42-37,70.42,0,0,28.63,12.92,86.25,12.81,57.6.11,86.24-12.81,86.24-12.81,1.07-69-37-70.42-37-70.42-16.33-1.84-25.89-6.13-29.74-8.23,0,0,20.29,45.22-19.51,85.91C265.61,385.54,227.13,345.9,246.09,299.63Z"/><path class="cls-13" d="M234,332.44a2.51,2.51,0,0,0,0,.27c.15.7.3,1.41.46,2.11l.31-.14C234.49,334,234.21,333.2,234,332.44Z"/><path class="cls-14" d="M314.86,307.86c-16.33-1.84-25.89-6.13-29.74-8.23,0,0,20.29,45.22-19.51,85.91,0,0-38.48-39.64-19.52-85.91-3.85,2.1-13.41,6.39-29.75,8.23a31.55,31.55,0,0,0,7,31.11s5.77-3.1,8.87-2.22l-11,8.1s2.6,31.38,36.75,46.24h17.3s29.61-14.42,34.76-52.56c0,0-2.75-3.12-11.25-5.77a26.71,26.71,0,0,1,11.25-.88S321.22,326,314.86,307.86Z"/><path class="cls-12" d="M314.86,307.86c-16.33-1.84-25.89-6.13-29.74-8.23,0,0,20.29,45.22-19.51,85.91,0,0-.38-.39-1-1.12h0c-4.91,1.52-10.11-1.26-14.1-3.9a69.11,69.11,0,0,1-12.95-10.81c-3.76-4.15-7.81-9.33-8.63-15.06-1.12-7.79,1.79-14.26,8.55-18.45a9.11,9.11,0,0,1,4-1.31,69.24,69.24,0,0,1,4.69-35.27c-3.85,2.1-13.41,6.39-29.75,8.23l-.22.67c4.4-.4,8.69-1.25,12.87,1.18,8.28,4.82,6.9,15.12,1.69,21.61a23.29,23.29,0,0,1-8.59,6.18q.6.74,1.26,1.47s5.77-3.1,8.87-2.22l-11,8.1s2.6,31.38,36.75,46.24h17.3s29.61-14.42,34.76-52.56c0,0-2.75-3.12-11.25-5.77a26.71,26.71,0,0,1,11.25-.88S321.22,326,314.86,307.86Z"/><path class="cls-12" d="M314.86,307.86a112.92,112.92,0,0,1-12.18-2,23.27,23.27,0,0,1,1.47,6.81c.26,5.4-1.5,11.43-5.62,15.18a25.07,25.07,0,0,1-8.4,5c0,.25,0,.51-.05.76,15.49,16.41-3.19,49.62-23.48,50.95-.33.35-.65.7-1,1l-.12-.12v5.67h9.76s29.61-14.42,34.76-52.56c0,0-2.75-3.12-11.25-5.77a26.71,26.71,0,0,1,11.25-.88S321.22,326,314.86,307.86Z"/><rect class="cls-6" x="265.02" y="321.01" width="1.17" height="63.65"/><path class="cls-15" d="M246.09,299.63s-16.53,6-8.54,26.48c0,0,1.86-21.75,28.29,2.44,0,0,1.75-18.3-8.33-22.18C257.51,306.37,246.09,304.65,246.09,299.63Z"/><path class="cls-15" d="M285.5,299.63s14.88,5.65,6.6,24c0,0-8.2-19.07-26.26,4.88,0,0-2.57-20.13,8.24-22.18C274.08,306.37,285.5,304.65,285.5,299.63Z"/><path class="cls-16" d="M323.33,298.6s-.8-53.21-3.47-84.26c0,0,0-.33,0-.91.26-9.83-3.88-21.69-8.35-28.61A70.45,70.45,0,0,0,300,170.93c-15.51-14.16-50.9-15-60.93,6.94-9.44,6.66-47,40.06-2.52,126l10.87-4.34.62-16.59s-42.84-45-3.53-86.46l.13-.1-.12.09c6.89-3.53,15.95-4.34,23.55-3.19,21.07,3.19,25.65,26.3,34.72,41.89,1.54,2.64,3.19,5.62,4.86,7.36,1.47,12.87,2.22,29.24,1.62,50.07a71.81,71.81,0,0,1-17.83,45.58S332.4,351.82,323.33,298.6Z"/><path class="cls-17" d="M244.67,196.41c.7-.43,1.43-.82,2.17-1.19s1.5-.69,2.26-1a38.65,38.65,0,0,1,4.74-1.56c.81-.2,1.62-.37,2.45-.54s1.65-.24,2.48-.37,1.68-.13,2.52-.21c.42,0,.85,0,1.27,0l1.27,0a24,24,0,0,1,2.54.15l2.54.32c.83.17,1.66.4,2.49.59a17.5,17.5,0,0,1,2.46.76c.8.31,1.63.55,2.41.91l2.31,1.14a17,17,0,0,1,2.21,1.32l2.14,1.42.1.07.14.14c.72.78,1.39,1.53,2.06,2.32s1.34,1.54,2,2.37,1.27,1.6,1.86,2.44l1.79,2.5c.57.86,1.12,1.73,1.67,2.61s1,1.79,1.53,2.71a26.15,26.15,0,0,1,1.38,2.81c.39,1,.8,1.95,1.18,2.93l1.07,2.68,1.17,2.76,1.18,2.76,1.22,2.73,1.26,2.73c.42.9.87,1.79,1.33,2.68s.93,1.77,1.42,2.64l.79,1.28c.27.41.58.81.87,1.23-.37-.34-.75-.68-1.11-1l-1.05-1.12c-.64-.78-1.28-1.58-1.88-2.4s-1.17-1.66-1.73-2.51-1.12-1.7-1.63-2.57c-1-1.75-2.06-3.5-3-5.29l-1.4-2.7-.69-1.35-.34-.69-.16-.34-.09-.17,0-.09,0,0v0l-.05-.12c-.43-.86-.81-1.73-1.22-2.6a24.13,24.13,0,0,0-1.4-2.53,27.59,27.59,0,0,0-1.55-2.47L287.89,210l-1.75-2.38c-.58-.79-1.23-1.54-1.84-2.32s-1.25-1.52-1.87-2.28-1.29-1.52-1.92-2.22l.23.21-1.92-1.31a13.32,13.32,0,0,0-2-1.22c-.69-.36-1.36-.74-2-1.11s-1.42-.61-2.13-.92a14.24,14.24,0,0,0-2.18-.8l-2.24-.66-2.3-.47a19.93,19.93,0,0,0-2.32-.33l-1.18-.13c-.39,0-.78,0-1.18,0-.79,0-1.58-.12-2.37-.07s-1.59,0-2.39.09l-2.39.22c-.79.11-1.59.21-2.38.34s-1.59.28-2.38.47-1.58.37-2.36.59S245.45,196.13,244.67,196.41Z"/><path class="cls-4" d="M237.48,183.1s-45.41,33.55,3.88,118.9l6.09-2.44S197.43,234.57,237.48,183.1Z"/><g class="cls-18"><path class="cls-6" d="M244.67,179.29a33.26,33.26,0,0,1,3.68-2.35,49.21,49.21,0,0,1,4.49-2.24c.89-.4,1.85-.78,2.87-1.18s2.12-.76,3.28-1.09,2.38-.65,3.65-1c.64-.16,1.3-.25,2-.38s1.34-.25,2-.32a41.7,41.7,0,0,1,8.86-.27l2.35.22,2.36.44a19.71,19.71,0,0,1,2.36.56l1.19.34.59.17.58.22,2.32.89c.78.31,1.51.72,2.26,1.09l1.12.58c.37.19.71.44,1.07.66l2.13,1.35a40.74,40.74,0,0,1,7.25,6.79c.52.63,1.05,1.25,1.56,1.88l1.35,2c.43.66.9,1.29,1.3,2l1.12,2,1.09,2,.91,2a42.14,42.14,0,0,1,1.62,4c.45,1.3.88,2.57,1.3,3.8s.65,2.46,1,3.62.62,2.25.78,3.33.36,2.09.53,3,.35,1.83.43,2.67.16,1.59.23,2.28c.14,1.38.21,2.46.28,3.2s.07,1.13.07,1.13l-.37-1.08c-.24-.7-.6-1.72-1-3l-.69-2.16c-.28-.77-.58-1.61-.9-2.51-.66-1.78-1.32-3.8-2.24-5.93-.44-1.07-.88-2.19-1.38-3.33l-1.64-3.47c-.52-1.2-1.22-2.35-1.87-3.55-.32-.6-.65-1.21-1-1.82s-.75-1.17-1.13-1.76l-1.15-1.8c-.39-.59-.85-1.14-1.27-1.72l-1.31-1.72-1.44-1.63a40.62,40.62,0,0,0-6.44-5.85L289,180.14c-.31-.19-.6-.41-.92-.58l-1-.5-1-.5a7.17,7.17,0,0,0-1-.48l-2-.84a38.53,38.53,0,0,0-8.17-2.11,45.83,45.83,0,0,0-8-.42,56.49,56.49,0,0,0-7.31.67,80.77,80.77,0,0,0-10.91,2.52c-1.3.42-2.33.74-3,1Z"/></g><g class="cls-18"><path class="cls-6" d="M242.78,186.88a28.62,28.62,0,0,1,3.41-2.35,46.14,46.14,0,0,1,4.21-2.27,45.56,45.56,0,0,1,5.83-2.28,40.63,40.63,0,0,1,7.31-1.6,34,34,0,0,1,8.5,0,30.09,30.09,0,0,1,8.9,2.38l1.1.47,1,.56c.7.39,1.41.76,2.09,1.18a36.22,36.22,0,0,1,3.85,2.86c.6.53,1.22,1,1.79,1.59l1.63,1.73.81.86c.26.3.48.62.72.93l1.42,1.85a22,22,0,0,1,1.29,1.91c.39.65.79,1.29,1.19,1.93l.3.48.25.5.51,1,1,2a19.87,19.87,0,0,1,.87,2l.79,1.95c.24.65.53,1.27.74,1.91s.4,1.28.6,1.9.39,1.25.58,1.86.38,1.2.51,1.8c.28,1.19.54,2.35.8,3.45.13.56.24,1.1.36,1.63s.18,1.06.26,1.57c.16,1,.31,2,.45,2.89.31,1.81.4,3.41.51,4.72s.15,2.35.2,3,.06,1.07.06,1.07l-.34-1c-.21-.67-.54-1.65-.91-2.9s-.81-2.77-1.43-4.48c-.28-.85-.59-1.76-.91-2.72-.15-.48-.32-1-.48-1.48s-.38-1-.58-1.51l-1.21-3.22c-.41-1.11-.94-2.21-1.43-3.36-.25-.58-.49-1.16-.75-1.75s-.57-1.15-.85-1.74-.59-1.17-.89-1.76a17.66,17.66,0,0,0-.94-1.77l-1-1.75-.51-.89-.26-.44-.29-.43-1.18-1.69a16.76,16.76,0,0,0-1.21-1.69l-1.31-1.61c-.22-.27-.43-.55-.66-.81l-.72-.74L287.33,191c-.51-.47-1.05-.9-1.57-1.36a31.66,31.66,0,0,0-3.27-2.49c-.58-.36-1.18-.68-1.76-1-.29-.17-.58-.35-.88-.51l-.92-.42c-.62-.27-1.21-.6-1.84-.82l-1.88-.67c-.63-.22-1.28-.35-1.92-.52l-1-.25-1-.18c-.65-.1-1.28-.26-1.92-.31l-1.9-.19c-.64-.06-1.27-.05-1.89-.08s-1.24,0-1.85,0a45,45,0,0,0-6.91.66c-2.15.33-4.1.82-5.84,1.26s-3.23.93-4.46,1.35-2.19.78-2.83,1Z"/></g><path class="cls-19" d="M341.42,233.82a3.55,3.55,0,0,1-3.56,3.55h0a3.56,3.56,0,0,1-3.57-3.55h0a3.56,3.56,0,0,1,3.57-3.55h0a3.55,3.55,0,0,1,3.56,3.55Z"/><path class="cls-20" d="M309.49,223.62a9.09,9.09,0,0,1,9.11-9.06h0a9.09,9.09,0,0,1,9.11,9.06V244a9.09,9.09,0,0,1-9.11,9.06h0a9.09,9.09,0,0,1-9.11-9.06Z"/><path class="cls-4" d="M320.47,224.11c3.94,4.87,4.48,10.52,3.35,16.5-1,5.12-4.78,10.3-10.12,11a9.11,9.11,0,0,0,14-7.63v-20.4a9.11,9.11,0,0,0-17.66-3.1C313.9,220,317.91,221,320.47,224.11Z"/><path class="cls-11" d="M312.72,223.62a.94.94,0,0,1,.94-.94h0a.94.94,0,0,1,.95.94v23a.94.94,0,0,1-.95.94h0a.94.94,0,0,1-.94-.94Z"/><path class="cls-21" d="M326.49,219.93v27.78a14.4,14.4,0,0,0,0-27.78Z"/><path class="cls-10" d="M332.79,239.13c-4.64-3-5.83-7.18-6.3-12.24v20.82a14.49,14.49,0,0,0,9-7.39A10,10,0,0,1,332.79,239.13Z"/><path class="cls-22" d="M331,241.37s5.24,47.62-44.87,46.27"/><path class="cls-23" d="M288,287.82a4.17,4.17,0,0,1-4.18,4.16h-5.6a4.17,4.17,0,0,1-4.18-4.16h0a4.17,4.17,0,0,1,4.18-4.15h5.6a4.17,4.17,0,0,1,4.18,4.15Z"/><path class="cls-19" d="M198.24,233.82a3.56,3.56,0,0,0,3.57,3.55h0a3.56,3.56,0,0,0,3.57-3.55h0a3.56,3.56,0,0,0-3.57-3.55h0a3.56,3.56,0,0,0-3.57,3.55Z"/><path class="cls-20" d="M230.18,223.62a9.09,9.09,0,0,0-9.11-9.06h0a9.09,9.09,0,0,0-9.12,9.06V244a9.09,9.09,0,0,0,9.12,9.06h0a9.09,9.09,0,0,0,9.11-9.06Z"/><path class="cls-4" d="M219.2,224.11c-3.95,4.87-4.48,10.52-3.36,16.5,1,5.12,4.78,10.3,10.12,11A9.11,9.11,0,0,1,212,244v-20.4a9.12,9.12,0,0,1,17.67-3.1C225.76,220,221.75,221,219.2,224.11Z"/><path class="cls-11" d="M227,223.62a.94.94,0,0,0-.95-.94h0a1,1,0,0,0-.95.94v23a1,1,0,0,0,.95.94h0a.94.94,0,0,0,.95-.94Z"/><path class="cls-21" d="M213.18,219.93v27.78a14.4,14.4,0,0,1,0-27.78Z"/><path class="cls-10" d="M206.88,239.13c4.64-3,5.83-7.18,6.3-12.24v20.82a14.5,14.5,0,0,1-9.05-7.39A10,10,0,0,0,206.88,239.13Z"/><path class="cls-24" d="M123.64,26.73h0c25.09,8.22,43.22,37.35,43.22,65.18A62.76,62.76,0,0,1,41.44,95.34c-.06,1.25-.1,2.5-.1,3.76a73,73,0,1,0,82.3-72.37Z"/><path class="cls-4" d="M123.64,26.73h0c30.57,5.48,53.77,36.1,53.77,68.24A65.36,65.36,0,0,1,67.87,143.15,62.65,62.65,0,0,1,41.44,95.34c-.06,1.25-.1,2.5-.1,3.76a73,73,0,1,0,82.3-72.37Z"/><polygon class="cls-24" points="61.23 110.02 40.01 86.8 24.14 113.96 41.72 102.97 61.23 110.02"/><path class="cls-24" d="M105.51,42.47V35.68l-1,0-1,0v6.79Z"/><path class="cls-24" d="M103.6,138.48v6.64l1,0,1,0v-6.64Z"/><path class="cls-24" d="M152.56,91.43h6.72c0-.35,0-.69,0-1s0-.58,0-.88h-6.72Z"/><path class="cls-24" d="M56.55,89.52H49.83c0,.3,0,.59,0,.88s0,.68,0,1h6.72Z"/><path class="cls-24" d="M129.38,131.57l3.56,5.64c.54-.33,1.08-.67,1.61-1L131,130.56Z"/><path class="cls-24" d="M79.73,49.38,76.1,43.63c-.54.33-1.07.67-1.6,1l3.62,5.74Z"/><path class="cls-24" d="M63.83,65,58,61.56c-.34.54-.67,1.08-1,1.64l5.81,3.47Z"/><path class="cls-24" d="M145.28,115.92l5.73,3.43c.34-.54.67-1.08,1-1.63l-5.75-3.44Z"/><path class="cls-24" d="M130.44,50,134,44.24q-.79-.51-1.62-1L128.81,49Z"/><path class="cls-24" d="M78.67,130.92l-3.48,5.68,1.63,1,3.48-5.69Z"/><path class="cls-24" d="M146.2,66.58,152,63.1c-.31-.56-.64-1.1-1-1.64L145.22,65Z"/><path class="cls-24" d="M62.91,114.37l-5.74,3.45q.48.83,1,1.62L63.89,116Z"/><path class="cls-5" d="M71.59,104.11c0-5.08,1.24-8.59,8.27-13.64,3.92-2.81,5.08-4.21,5.08-6.52,0-2.77-1.69-3.6-3.8-3.6-2.44,0-4,1.2-4,4.88H72c0-5.91,3.3-9.47,8.92-9.47s9.3,2.61,9.3,8c0,4.17-2.07,6.57-7.93,10.74-2.11,1.53-3.68,3.52-3.81,4.92H90.27v4.67Z"/><path class="cls-5" d="M101.26,104.11v-6H90.6V93.45l10-16.78h6V94h3.09v4.17h-3.09v6Zm.13-19.83L95.77,94h5.62Z"/><path class="cls-5" d="M109.7,104.11l7.85-27.44h4.5l-7.93,27.44Z"/><path class="cls-5" d="M126,104.11a39.66,39.66,0,0,1,9.62-22.69H122.21V76.67h19.22v4.14a37.71,37.71,0,0,0-9.92,23.3Z"/><path class="cls-21" d="M29.82,64.26s-3.05,12.61,8.91,22.43l13.43-8.46,2.09-1.31,13.44-8.45C64,53.44,51.33,50.73,51.33,50.73S35.34,48.56,68,30.41L61.11,19.54S33.39,36.4,29.82,64.26Z"/><path class="cls-4" d="M62.12,63.66a29.55,29.55,0,0,1-11.64,8.16,16.43,16.43,0,0,1-11.89.41c-2.55-.82-9.78-4.11-8.77-8,0,0-3,12.61,8.91,22.43l29-18.22a26.35,26.35,0,0,0-3.26-7.85A22.51,22.51,0,0,1,62.12,63.66Z"/><path class="cls-25" d="M35.56,84.05a3.58,3.58,0,0,0,.29.59L37,86.43a3.18,3.18,0,0,0,4.39,1l25.92-16.3a3.2,3.2,0,0,0,1-4.39L67.16,65a3.48,3.48,0,0,0-.41-.52Z"/><path class="cls-4" d="M53,77.6c-2.77,1.14-6,2.4-9,2.33a9.1,9.1,0,0,1-1.62-.17l-6.86,4.31a3.23,3.23,0,0,0,.29.59L37,86.46a3.17,3.17,0,0,0,4.38,1l25.92-16.3a3.17,3.17,0,0,0,1-4.38l-.84-1.35A26.78,26.78,0,0,1,63,70.89,28.13,28.13,0,0,1,53,77.6Z"/><path class="cls-3" d="M35.79,83.91,66.46,64.62c-.19-.47-.38-.92-.59-1.36L34.82,82.79C35.12,83.16,35.45,83.54,35.79,83.91Z"/><path class="cls-3" d="M49.94,53.53,45,56.63c3.93,1.64,8.93,4.51,11.76,9.19a15.94,15.94,0,0,0,4.06-5.08C57.91,55.17,49.94,53.53,49.94,53.53Z"/><path class="cls-21" d="M116.4,9.8s12.69,2.72,16.36,17.74L119.32,36l-2.09,1.32-13.44,8.45c-12-9.82-8.9-22.43-8.9-22.43s3.2-14.24-27.27,7.29L60.78,19.75S89.74,1,116.4,9.8Z"/><path class="cls-4" d="M101.87,38.66a29.6,29.6,0,0,0,12.4-7,16.49,16.49,0,0,0,5.52-10.54c.37-2.65.53-10.59-3.39-11.36,0,0,12.69,2.72,16.36,17.74l-29,18.22a26.52,26.52,0,0,1-5.66-6.33A24.07,24.07,0,0,0,101.87,38.66Z"/><path class="cls-25" d="M131.75,23.55a3.48,3.48,0,0,1,.41.52l1.13,1.79a3.18,3.18,0,0,1-1,4.38L106.37,46.55a3.19,3.19,0,0,1-4.39-1l-1.13-1.79a3.58,3.58,0,0,1-.29-.59Z"/><path class="cls-4" d="M118.38,36.51c2.23-2,4.74-4.35,6-7.13a8.51,8.51,0,0,0,.55-1.54l6.86-4.31a3.33,3.33,0,0,1,.4.51l1.13,1.8a3.17,3.17,0,0,1-1,4.38L106.4,46.53a3.19,3.19,0,0,1-4.39-1l-.84-1.35A26.88,26.88,0,0,0,108,42.61,28.42,28.42,0,0,0,118.38,36.51Z"/><path class="cls-3" d="M131.53,23.69,100.86,43c-.34-.37-.67-.74-1-1.12l31.05-19.53C131.14,22.77,131.34,23.22,131.53,23.69Z"/><path class="cls-3" d="M98,23.29l4.93-3.1c-.23,4.25.19,10,3.18,14.58a16.1,16.1,0,0,1-6.33,1.46C96,31.18,98,23.29,98,23.29Z"/></g></g></svg>