<svg xmlns="http://www.w3.org/2000/svg" xmlns:xlink="http://www.w3.org/1999/xlink" viewBox="0 0 2475 1650"><defs><style>.cls-1,.cls-10,.cls-13,.cls-2{opacity:0.4;}.cls-1{fill:url(#linear-gradient);}.cls-2{fill:url(#linear-gradient-2);}.cls-3{fill:url(#linear-gradient-3);}.cls-10,.cls-14,.cls-4{fill:#fff;}.cls-5{fill:url(#linear-gradient-4);}.cls-6{fill:#f0f0f0;}.cls-7{fill:url(#linear-gradient-5);}.cls-8{fill:url(#linear-gradient-6);}.cls-9{fill:url(#linear-gradient-7);}.cls-11{opacity:0.38;}.cls-12{fill:url(#linear-gradient-8);}.cls-14{opacity:0.65;}.cls-15{fill:#e992ec;}.cls-16{fill:url(#linear-gradient-9);}.cls-17{fill:url(#linear-gradient-10);}.cls-18{fill:url(#linear-gradient-11);}.cls-19{fill:url(#linear-gradient-12);}.cls-20{fill:url(#linear-gradient-13);}.cls-21{opacity:0.5;}.cls-22{opacity:0.7;}.cls-23{fill:url(#linear-gradient-14);}.cls-24{fill:url(#linear-gradient-15);}.cls-25{fill:url(#linear-gradient-16);}.cls-26{fill:url(#linear-gradient-17);}.cls-27{fill:url(#linear-gradient-18);}.cls-28{fill:url(#linear-gradient-19);}.cls-29{fill:url(#linear-gradient-20);}.cls-30{fill:url(#linear-gradient-21);}.cls-31{fill:url(#linear-gradient-22);}.cls-32{fill:url(#linear-gradient-23);}.cls-33{fill:url(#linear-gradient-24);}.cls-34{fill:url(#linear-gradient-25);}.cls-35{fill:url(#linear-gradient-26);}.cls-36{fill:url(#linear-gradient-27);}.cls-37{fill:url(#linear-gradient-28);}.cls-38{fill:url(#linear-gradient-29);}.cls-39{fill:url(#linear-gradient-30);}.cls-40{fill:url(#linear-gradient-31);}.cls-41{fill:url(#linear-gradient-32);}.cls-42{fill:url(#linear-gradient-33);}.cls-43{fill:url(#linear-gradient-34);}.cls-44{fill:url(#linear-gradient-35);}.cls-45{fill:url(#linear-gradient-36);}.cls-46{fill:url(#linear-gradient-37);}.cls-47{fill:url(#linear-gradient-38);}.cls-48{fill:url(#linear-gradient-39);}.cls-49{fill:url(#linear-gradient-40);}.cls-50{fill:url(#linear-gradient-41);}.cls-51{fill:url(#linear-gradient-42);}.cls-52{fill:url(#linear-gradient-43);}.cls-53{fill:url(#linear-gradient-44);}.cls-54{fill:url(#linear-gradient-45);}.cls-55{fill:url(#linear-gradient-46);}.cls-56{fill:url(#linear-gradient-47);}.cls-57{fill:url(#linear-gradient-48);}.cls-58{fill:url(#linear-gradient-49);}.cls-59{fill:url(#linear-gradient-50);}.cls-60{fill:url(#linear-gradient-51);}.cls-61{fill:url(#linear-gradient-52);}.cls-62{fill:url(#linear-gradient-53);}.cls-63{fill:url(#linear-gradient-54);}.cls-64{fill:url(#linear-gradient-55);}.cls-65{fill:url(#linear-gradient-56);}.cls-66{fill:url(#linear-gradient-57);}.cls-67{fill:url(#linear-gradient-58);}.cls-68{fill:url(#linear-gradient-59);}.cls-69{fill:url(#linear-gradient-60);}.cls-70{fill:url(#linear-gradient-61);}.cls-71{fill:url(#linear-gradient-62);}.cls-72{fill:url(#linear-gradient-63);}.cls-73{fill:url(#linear-gradient-64);}.cls-74{fill:url(#linear-gradient-65);}.cls-75{fill:url(#linear-gradient-66);}.cls-76{fill:url(#linear-gradient-67);}.cls-77{fill:url(#linear-gradient-68);}.cls-78{fill:url(#linear-gradient-69);}.cls-79{fill:url(#linear-gradient-70);}.cls-80{fill:url(#linear-gradient-71);}.cls-81{fill:#f2bd4a;}.cls-82{fill:url(#linear-gradient-72);}.cls-83{fill:url(#linear-gradient-73);}.cls-84{fill:url(#linear-gradient-74);}.cls-85{fill:url(#linear-gradient-75);}.cls-86{fill:url(#linear-gradient-76);}.cls-87{fill:url(#linear-gradient-77);}.cls-88{fill:url(#linear-gradient-78);}.cls-89{fill:url(#linear-gradient-79);}.cls-90{fill:url(#linear-gradient-80);}.cls-91{fill:url(#linear-gradient-81);}.cls-92{fill:url(#linear-gradient-82);}.cls-93{fill:url(#linear-gradient-83);}.cls-94{fill:url(#linear-gradient-84);}.cls-95{fill:url(#linear-gradient-85);}.cls-96{fill:url(#linear-gradient-86);}.cls-97{fill:url(#linear-gradient-87);}.cls-98{fill:url(#linear-gradient-88);}.cls-99{fill:url(#linear-gradient-89);}.cls-100{fill:url(#linear-gradient-90);}.cls-101{fill:url(#linear-gradient-91);}.cls-102{fill:url(#linear-gradient-92);}.cls-103{fill:url(#linear-gradient-93);}.cls-104{fill:url(#linear-gradient-94);}.cls-105{fill:url(#linear-gradient-95);}.cls-106{fill:url(#linear-gradient-96);}.cls-107{fill:url(#linear-gradient-97);}.cls-108{fill:url(#linear-gradient-98);}.cls-109{fill:url(#linear-gradient-99);}.cls-110{fill:#f8a570;}.cls-111{fill:url(#linear-gradient-100);}.cls-112{fill:url(#linear-gradient-101);}.cls-113{fill:url(#linear-gradient-102);}.cls-114{fill:url(#linear-gradient-103);}.cls-115{fill:url(#linear-gradient-104);}.cls-116{fill:url(#linear-gradient-105);}.cls-117{fill:url(#linear-gradient-106);}</style><linearGradient id="linear-gradient" x1="-1677" y1="3471.74" x2="750" y2="3471.74" gradientTransform="translate(774 4250) rotate(180)" gradientUnits="userSpaceOnUse"><stop offset="0" stop-color="#b37cff"/><stop offset="1" stop-color="#f895e7"/></linearGradient><linearGradient id="linear-gradient-2" x1="377.41" y1="3414.59" x2="2709.83" y2="3414.59" gradientTransform="matrix(1, 0, 0, -1, -258.84, 4250)" xlink:href="#linear-gradient"/><linearGradient id="linear-gradient-3" x1="523.43" y1="1092.37" x2="416.77" y2="665.75" gradientTransform="matrix(1, 0, 0, 1, 0, 0)" xlink:href="#linear-gradient"/><linearGradient id="linear-gradient-4" x1="3510.03" y1="676.93" x2="2729.05" y2="2050.07" gradientTransform="matrix(-1, 0, 0, 1, 3562.84, 0)" gradientUnits="userSpaceOnUse"><stop offset="0" stop-color="#a737d5"/><stop offset="1" stop-color="#ef497a"/></linearGradient><linearGradient id="linear-gradient-5" x1="-4808.81" y1="1160.53" x2="-4899.28" y2="798.66" gradientTransform="matrix(-1, 0, 0, 1, -2826.7, 0)" xlink:href="#linear-gradient"/><linearGradient id="linear-gradient-6" x1="8799" y1="797.52" x2="8125.96" y2="1980.88" gradientTransform="translate(-6389.54)" xlink:href="#linear-gradient-4"/><linearGradient id="linear-gradient-7" x1="1171.65" y1="16.66" x2="371.54" y2="1321.74" gradientUnits="userSpaceOnUse"><stop offset="0" stop-color="#cb236d"/><stop offset="1" stop-color="#4c246d"/></linearGradient><linearGradient id="linear-gradient-8" x1="1647.82" y1="175.43" x2="1211.78" y2="1196.92" gradientUnits="userSpaceOnUse"><stop offset="0" stop-color="#53d8ff"/><stop offset="1" stop-color="#3840f7"/></linearGradient><linearGradient id="linear-gradient-9" x1="953.14" y1="-1247.71" x2="1510.09" y2="-265.12" gradientTransform="translate(864.25 1392.49) rotate(14.38)" xlink:href="#linear-gradient-4"/><linearGradient id="linear-gradient-10" x1="769.8" y1="-1536.03" x2="1081.86" y2="-985.48" gradientTransform="matrix(0.99, 0.17, -0.17, 0.99, 814.08, 1646.48)" xlink:href="#linear-gradient-4"/><linearGradient id="linear-gradient-11" x1="-1289.03" y1="1390.98" x2="-965.91" y2="421.61" gradientTransform="matrix(-1, 0, 0, 1, -80.22, 0)" gradientUnits="userSpaceOnUse"><stop offset="0" stop-color="#2b3582"/><stop offset="1" stop-color="#150e42"/></linearGradient><linearGradient id="linear-gradient-12" x1="1288.79" y1="607.53" x2="485.21" y2="2115.66" gradientUnits="userSpaceOnUse"><stop offset="0" stop-color="#fdf53f"/><stop offset="1" stop-color="#d93c65"/></linearGradient><linearGradient id="linear-gradient-13" x1="-538.42" y1="1333.34" x2="-1974.35" y2="1682.62" gradientTransform="matrix(1, 0, 0, -1, 2220.17, 2964.3)" xlink:href="#linear-gradient-11"/><linearGradient id="linear-gradient-14" x1="383.52" y1="568.07" x2="1208.45" y2="2053.83" gradientUnits="userSpaceOnUse"><stop offset="0" stop-color="#cb236d"/><stop offset="0.9" stop-color="#59246d"/><stop offset="1" stop-color="#4c246d"/></linearGradient><linearGradient id="linear-gradient-15" x1="559.65" y1="530.16" x2="1481.06" y2="2189.68" xlink:href="#linear-gradient-14"/><linearGradient id="linear-gradient-16" x1="771.84" y1="574.02" x2="1645.23" y2="2147.07" xlink:href="#linear-gradient-14"/><linearGradient id="linear-gradient-17" x1="994.79" y1="497.32" x2="1960.79" y2="2237.16" xlink:href="#linear-gradient-14"/><linearGradient id="linear-gradient-18" x1="1256.06" y1="572.31" x2="2068.34" y2="2035.28" xlink:href="#linear-gradient-14"/><linearGradient id="linear-gradient-19" x1="402.14" y1="816.71" x2="120.63" y2="463.55" xlink:href="#linear-gradient-8"/><linearGradient id="linear-gradient-20" x1="10888.8" y1="-4276.52" x2="10727.34" y2="-4374.38" gradientTransform="matrix(1, 0.07, -0.25, 0.89, -10139.56, 3500.72)" xlink:href="#linear-gradient-7"/><linearGradient id="linear-gradient-21" x1="10799.19" y1="-4312.7" x2="10614.42" y2="-4508.08" gradientTransform="matrix(1, 0.07, -0.25, 0.89, -10139.56, 3500.72)" xlink:href="#linear-gradient-7"/><linearGradient id="linear-gradient-22" x1="10877.02" y1="-4278.15" x2="10726.18" y2="-4369.56" gradientTransform="matrix(1, 0.07, -0.25, 0.89, -10139.56, 3500.72)" xlink:href="#linear-gradient-7"/><linearGradient id="linear-gradient-23" x1="-9996.09" y1="-3279.23" x2="-9927.16" y2="-3299.19" gradientTransform="matrix(-1, -0.07, -0.07, 1, -8514.77, 2959.38)" xlink:href="#linear-gradient-7"/><linearGradient id="linear-gradient-24" x1="1096.82" y1="1519.81" x2="1119.93" y2="1374.44" gradientTransform="translate(1149.23)" xlink:href="#linear-gradient-8"/><linearGradient id="linear-gradient-25" x1="1106.09" y1="1521.29" x2="1129.2" y2="1375.91" gradientTransform="translate(1149.23)" xlink:href="#linear-gradient-8"/><linearGradient id="linear-gradient-26" x1="1084.12" y1="1530.66" x2="1110.01" y2="1367.79" gradientTransform="translate(1149.23)" xlink:href="#linear-gradient-8"/><linearGradient id="linear-gradient-27" x1="-1617.49" y1="992.75" x2="-1908.72" y2="1388.89" gradientTransform="matrix(-1, 0, 0, 1, 106.14, 0)" xlink:href="#linear-gradient-7"/><linearGradient id="linear-gradient-28" x1="708.3" y1="1519.81" x2="731.41" y2="1374.44" gradientTransform="translate(1149.23)" xlink:href="#linear-gradient-8"/><linearGradient id="linear-gradient-29" x1="717.57" y1="1521.29" x2="740.68" y2="1375.91" gradientTransform="translate(1149.23)" xlink:href="#linear-gradient-8"/><linearGradient id="linear-gradient-30" x1="699.71" y1="1518.45" x2="722.82" y2="1373.07" gradientTransform="translate(1149.23)" xlink:href="#linear-gradient-8"/><linearGradient id="linear-gradient-31" x1="599.96" y1="1427.25" x2="675.99" y2="1427.25" gradientTransform="translate(1149.23)" gradientUnits="userSpaceOnUse"><stop offset="0" stop-color="#f9b776"/><stop offset="1" stop-color="#f47960"/></linearGradient><linearGradient id="linear-gradient-32" x1="646.48" y1="1476.79" x2="635.29" y2="1648.26" gradientTransform="translate(1149.23)" xlink:href="#linear-gradient-7"/><linearGradient id="linear-gradient-33" x1="510.68" y1="1432.45" x2="671.12" y2="1432.45" xlink:href="#linear-gradient-31"/><linearGradient id="linear-gradient-34" x1="609.68" y1="1348.75" x2="789.42" y2="1348.75" gradientTransform="translate(1149.23)" gradientUnits="userSpaceOnUse"><stop offset="0" stop-color="#fdf53f"/><stop offset="0.66" stop-color="#e57a58"/><stop offset="1" stop-color="#d93c65"/></linearGradient><linearGradient id="linear-gradient-35" x1="538.56" y1="1469.76" x2="527.38" y2="1641.22" gradientTransform="translate(1149.23)" xlink:href="#linear-gradient-7"/><linearGradient id="linear-gradient-36" x1="688.83" y1="1199.93" x2="774.09" y2="1385.47" xlink:href="#linear-gradient-34"/><linearGradient id="linear-gradient-37" x1="692.49" y1="1222.51" x2="681.66" y2="1153.01" xlink:href="#linear-gradient-31"/><linearGradient id="linear-gradient-38" x1="-1514.34" y1="4329.67" x2="-1443.45" y2="4377.82" gradientTransform="translate(-752.08 -2673.77) rotate(-52.83)" xlink:href="#linear-gradient-31"/><linearGradient id="linear-gradient-39" x1="-1609.42" y1="998.68" x2="-1900.65" y2="1394.82" gradientTransform="matrix(-1, 0, 0, 1, 106.14, 0)" xlink:href="#linear-gradient-7"/><linearGradient id="linear-gradient-40" x1="-1510.09" y1="4323.41" x2="-1439.21" y2="4371.56" gradientTransform="translate(-752.08 -2673.77) rotate(-52.83)" xlink:href="#linear-gradient-31"/><linearGradient id="linear-gradient-41" x1="736.96" y1="1301.41" x2="887.67" y2="1301.41" xlink:href="#linear-gradient-31"/><linearGradient id="linear-gradient-42" x1="662.43" y1="1407.1" x2="567.56" y2="1433.1" gradientTransform="translate(1157.9 -86.8) rotate(-2.83)" xlink:href="#linear-gradient-11"/><linearGradient id="linear-gradient-43" x1="611.41" y1="1224.6" x2="544.1" y2="1295.75" gradientTransform="translate(1149.23)" xlink:href="#linear-gradient-11"/><linearGradient id="linear-gradient-44" x1="3160.14" y1="1510.56" x2="2965.85" y2="1721.89" gradientTransform="matrix(-1, 0.01, 0.01, 1, 5089.87, -57.6)" xlink:href="#linear-gradient-11"/><linearGradient id="linear-gradient-45" x1="3097.07" y1="1526.25" x2="3114.33" y2="1526.25" gradientTransform="matrix(-1, 0.01, 0.01, 1, 5089.87, -57.6)" xlink:href="#linear-gradient-31"/><linearGradient id="linear-gradient-46" x1="3059.64" y1="1001.68" x2="3082.06" y2="1360.27" gradientTransform="matrix(-1, 0.01, 0.01, 1, 5089.87, -57.6)" xlink:href="#linear-gradient-7"/><linearGradient id="linear-gradient-47" x1="3116.55" y1="1470.48" x2="2922.25" y2="1681.82" gradientTransform="matrix(-1, 0.01, 0.01, 1, 5089.87, -57.6)" xlink:href="#linear-gradient-11"/><linearGradient id="linear-gradient-48" x1="3034.87" y1="1525.36" x2="3049.77" y2="1525.36" gradientTransform="matrix(-1, 0.01, 0.01, 1, 5089.87, -57.6)" xlink:href="#linear-gradient-31"/><linearGradient id="linear-gradient-49" x1="3039.55" y1="1002.94" x2="3061.97" y2="1361.53" gradientTransform="matrix(-1, 0.01, 0.01, 1, 5089.87, -57.6)" xlink:href="#linear-gradient-7"/><linearGradient id="linear-gradient-50" x1="8252.98" y1="1060.8" x2="8150.82" y2="1454.12" gradientTransform="translate(-6227.52)" xlink:href="#linear-gradient-8"/><linearGradient id="linear-gradient-51" x1="3168.11" y1="1076.01" x2="3256.28" y2="1076.01" gradientTransform="matrix(-1, 0.01, 0.01, 1, 5089.87, -57.6)" xlink:href="#linear-gradient-31"/><linearGradient id="linear-gradient-52" x1="5974.1" y1="1060.3" x2="6033.26" y2="1194.91" gradientTransform="translate(-4120.85 30.83) rotate(-0.54)" xlink:href="#linear-gradient-31"/><linearGradient id="linear-gradient-53" x1="3255.86" y1="1016.4" x2="3280.55" y2="978.44" gradientTransform="matrix(-1, 0.01, 0.01, 1, 5089.87, -57.6)" xlink:href="#linear-gradient-31"/><linearGradient id="linear-gradient-54" x1="8332.08" y1="1081.34" x2="8229.92" y2="1474.66" gradientTransform="translate(-6227.52)" xlink:href="#linear-gradient-8"/><linearGradient id="linear-gradient-55" x1="2975.17" y1="1200.89" x2="3086.75" y2="1200.89" gradientTransform="matrix(-1, 0.01, 0.01, 1, 5089.87, -57.6)" xlink:href="#linear-gradient-31"/><linearGradient id="linear-gradient-56" x1="3060.85" y1="1081.61" x2="3104.97" y2="1081.61" gradientTransform="matrix(-1, 0.01, 0.01, 1, 5089.87, -57.6)" xlink:href="#linear-gradient-31"/><linearGradient id="linear-gradient-57" x1="-3579.34" y1="196.59" x2="-3595.82" y2="142.22" gradientTransform="matrix(-0.75, -0.66, -0.66, 0.75, -578.8, -1480.43)" xlink:href="#linear-gradient-31"/><linearGradient id="linear-gradient-58" x1="-3594.21" y1="101.85" x2="-3580.42" y2="180.51" gradientTransform="matrix(-0.75, -0.66, -0.66, 0.75, -578.8, -1480.43)" xlink:href="#linear-gradient-11"/><linearGradient id="linear-gradient-59" x1="-3596.19" y1="196.34" x2="-3611.02" y2="147.42" gradientTransform="matrix(-0.75, -0.66, -0.66, 0.75, -578.8, -1480.43)" xlink:href="#linear-gradient-31"/><linearGradient id="linear-gradient-60" x1="2827.19" y1="1100.65" x2="2888.76" y2="1357.19" gradientTransform="matrix(-1, 0, 0, 1, 4811.8, 0)" xlink:href="#linear-gradient-11"/><linearGradient id="linear-gradient-61" x1="2785" y1="1168.52" x2="2819.88" y2="1168.52" gradientTransform="matrix(-1, 0, 0, 1, 4811.8, 0)" xlink:href="#linear-gradient-31"/><linearGradient id="linear-gradient-62" x1="-2051.76" y1="1526.06" x2="-1983.76" y2="1526.06" gradientTransform="matrix(-1, 0, 0, 1, 106.14, 0)" xlink:href="#linear-gradient-7"/><linearGradient id="linear-gradient-63" x1="-1999.37" y1="1395.3" x2="-2017.95" y2="1523.67" gradientTransform="matrix(-1, 0, 0, 1, 106.14, 0)" xlink:href="#linear-gradient-7"/><linearGradient id="linear-gradient-64" x1="-2048.37" y1="1505.57" x2="-2029.97" y2="1505.57" gradientTransform="matrix(-1, 0, 0, 1, 106.14, 0)" xlink:href="#linear-gradient-31"/><linearGradient id="linear-gradient-65" x1="-1945.1" y1="1512.59" x2="-1890.19" y2="1512.59" gradientTransform="matrix(-1, 0, 0, 1, 106.14, 0)" xlink:href="#linear-gradient-7"/><linearGradient id="linear-gradient-66" x1="-1907.33" y1="1408.62" x2="-1925.91" y2="1537" gradientTransform="matrix(-1, 0, 0, 1, 106.14, 0)" xlink:href="#linear-gradient-7"/><linearGradient id="linear-gradient-67" x1="-2150.11" y1="1422.54" x2="-2004.45" y2="1422.54" gradientTransform="matrix(-1, 0, 0, 1, 106.14, 0)" xlink:href="#linear-gradient-11"/><linearGradient id="linear-gradient-68" x1="-1961.21" y1="1507.12" x2="-1939.25" y2="1507.12" gradientTransform="matrix(-1, 0, 0, 1, 106.14, 0)" xlink:href="#linear-gradient-31"/><linearGradient id="linear-gradient-69" x1="-2017.8" y1="1361.86" x2="-2177.71" y2="1543.16" gradientTransform="matrix(-1, 0, 0, 1, 106.14, 0)" xlink:href="#linear-gradient-11"/><linearGradient id="linear-gradient-70" x1="-2083.23" y1="1197.56" x2="-2072.4" y2="1170.25" gradientTransform="matrix(-1, 0, 0, 1, 106.14, 0)" xlink:href="#linear-gradient-31"/><linearGradient id="linear-gradient-71" x1="-2128.03" y1="1259.63" x2="-2008.75" y2="1455.45" gradientTransform="matrix(-1, 0, 0, 1, 106.14, 0)" xlink:href="#linear-gradient-34"/><linearGradient id="linear-gradient-72" x1="-1990.71" y1="1303.78" x2="-1939.97" y2="1303.78" gradientTransform="matrix(-1, 0, 0, 1, 106.14, 0)" xlink:href="#linear-gradient-31"/><linearGradient id="linear-gradient-73" x1="-149.41" y1="1284.51" x2="-203.79" y2="1326.11" gradientTransform="matrix(-0.99, -0.13, -0.13, 0.99, 2175.93, -150.95)" xlink:href="#linear-gradient-31"/><linearGradient id="linear-gradient-74" x1="-187.62" y1="1251.66" x2="-138.38" y2="1315.06" gradientTransform="matrix(-0.99, -0.13, -0.13, 0.99, 2175.93, -150.95)" xlink:href="#linear-gradient-11"/><linearGradient id="linear-gradient-75" x1="-156.16" y1="1275.69" x2="-210.54" y2="1317.3" gradientTransform="matrix(-0.99, -0.13, -0.13, 0.99, 2175.93, -150.95)" xlink:href="#linear-gradient-31"/><linearGradient id="linear-gradient-76" x1="5122.04" y1="-7027.66" x2="4986.34" y2="-6896.45" gradientTransform="matrix(1.39, -0.07, 0.07, 1.39, 6342.65, -215.95)" xlink:href="#linear-gradient-11"/><linearGradient id="linear-gradient-77" x1="-683.24" y1="-5208.52" x2="-818.94" y2="-5077.32" gradientTransform="matrix(-0.65, -1.23, 1.23, -0.65, -7187.77, -7927.84)" xlink:href="#linear-gradient-11"/><linearGradient id="linear-gradient-78" x1="-2064.3" y1="1432.98" x2="-1976.65" y2="1432.98" gradientTransform="matrix(-1, 0, 0, 1, 106.14, 0)" gradientUnits="userSpaceOnUse"><stop offset="0" stop-color="#9cfffb"/><stop offset="1" stop-color="#9bfffa"/></linearGradient><linearGradient id="linear-gradient-79" x1="-2054.18" y1="1432.98" x2="-1966.53" y2="1432.98" xlink:href="#linear-gradient-78"/><linearGradient id="linear-gradient-80" x1="-1521.26" y1="1432.98" x2="-1433.62" y2="1432.98" xlink:href="#linear-gradient-78"/><linearGradient id="linear-gradient-81" x1="-1511.14" y1="1432.98" x2="-1423.5" y2="1432.98" xlink:href="#linear-gradient-78"/><linearGradient id="linear-gradient-82" x1="-6463.66" y1="1297.52" x2="-6571.56" y2="1367.47" gradientTransform="translate(8061.42)" xlink:href="#linear-gradient-8"/><linearGradient id="linear-gradient-83" x1="-6482.99" y1="1383.93" x2="-6483.56" y2="1349.68" gradientTransform="translate(8061.42)" xlink:href="#linear-gradient-34"/><linearGradient id="linear-gradient-84" x1="-6469.44" y1="1280.01" x2="-6563.56" y2="1341.03" gradientTransform="translate(8061.42)" xlink:href="#linear-gradient-8"/><linearGradient id="linear-gradient-85" x1="-6486.3" y1="1355.38" x2="-6486.8" y2="1325.51" gradientTransform="translate(8061.42)" xlink:href="#linear-gradient-8"/><linearGradient id="linear-gradient-86" x1="-2105.41" y1="1329.28" x2="-1396.25" y2="1329.28" xlink:href="#linear-gradient-78"/><linearGradient id="linear-gradient-87" x1="3240.05" y1="196.84" x2="2927.35" y2="-195.45" gradientTransform="translate(-1190.36 -114.96) rotate(13.48)" xlink:href="#linear-gradient-8"/><linearGradient id="linear-gradient-88" x1="-1692.02" y1="1514.57" x2="-1627.17" y2="1514.57" gradientTransform="translate(1978.2)" xlink:href="#linear-gradient-7"/><linearGradient id="linear-gradient-89" x1="-1692.02" y1="1501.86" x2="-1629" y2="1501.86" gradientTransform="translate(1978.2)" gradientUnits="userSpaceOnUse"><stop offset="0" stop-color="#9923be"/><stop offset="1" stop-color="#ea5700"/></linearGradient><linearGradient id="linear-gradient-90" x1="-1686.03" y1="1484.12" x2="-1667.77" y2="1484.12" gradientTransform="translate(1978.2)" xlink:href="#linear-gradient-31"/><linearGradient id="linear-gradient-91" x1="-1807.77" y1="1530.65" x2="-1782.91" y2="1530.65" gradientTransform="translate(1978.2)" xlink:href="#linear-gradient-7"/><linearGradient id="linear-gradient-92" x1="-1807.59" y1="1505.92" x2="-1771.11" y2="1505.92" xlink:href="#linear-gradient-89"/><linearGradient id="linear-gradient-93" x1="-1788.63" y1="1474.6" x2="-1766.79" y2="1474.6" gradientTransform="translate(1978.2)" xlink:href="#linear-gradient-31"/><linearGradient id="linear-gradient-94" x1="-1612.05" y1="1239.02" x2="-1798.43" y2="1544.33" gradientTransform="translate(1978.2)" gradientUnits="userSpaceOnUse"><stop offset="0" stop-color="#7c27dd"/><stop offset="1" stop-color="#2b41d9"/></linearGradient><linearGradient id="linear-gradient-95" x1="-1670.8" y1="1295.66" x2="-1653.39" y2="1261.53" xlink:href="#linear-gradient-94"/><linearGradient id="linear-gradient-96" x1="-1488.36" y1="1014.76" x2="-1574.82" y2="1127.24" gradientTransform="translate(1978.2)" xlink:href="#linear-gradient-31"/><linearGradient id="linear-gradient-97" x1="-1590.92" y1="1041.11" x2="-1879.58" y2="1383.22" gradientTransform="translate(1978.2)" xlink:href="#linear-gradient-8"/><linearGradient id="linear-gradient-98" x1="357.51" y1="1055.37" x2="357.51" y2="1130.46" xlink:href="#linear-gradient-8"/><linearGradient id="linear-gradient-99" x1="-1682.38" y1="1090.84" x2="-1671.44" y2="1033.39" gradientTransform="translate(1978.2)" xlink:href="#linear-gradient-31"/><linearGradient id="linear-gradient-100" x1="-1640.78" y1="1141.34" x2="-1671.75" y2="1187.79" gradientTransform="translate(1978.2)" xlink:href="#linear-gradient-31"/><linearGradient id="linear-gradient-101" x1="-3005.33" y1="1148.84" x2="-3035.67" y2="1194.36" gradientTransform="matrix(-1, 0, 0, 1, -2729.69, 0)" xlink:href="#linear-gradient-31"/><linearGradient id="linear-gradient-102" x1="-2034.47" y1="1176.95" x2="-2119.81" y2="1200.34" gradientTransform="matrix(-1, -0.05, -0.05, 1, -1689.21, -86.8)" xlink:href="#linear-gradient-11"/><linearGradient id="linear-gradient-103" x1="-2080.94" y1="1134.79" x2="-2141.14" y2="1198.41" gradientTransform="matrix(-1, 0, 0, 1, -1680.54, 0)" xlink:href="#linear-gradient-11"/><linearGradient id="linear-gradient-104" x1="-10932.46" y1="254.95" x2="-10991.85" y2="333.51" gradientTransform="translate(8458.67 -6318.46) rotate(-40.51)" xlink:href="#linear-gradient-31"/><linearGradient id="linear-gradient-105" x1="-10977.81" y1="273.9" x2="-10906.88" y2="273.9" gradientTransform="translate(8458.67 -6318.46) rotate(-40.51)" xlink:href="#linear-gradient-11"/><linearGradient id="linear-gradient-106" x1="-11019.44" y1="317.17" x2="-10971.81" y2="268.3" gradientTransform="translate(8458.67 -6318.46) rotate(-40.51)" xlink:href="#linear-gradient-31"/></defs><g id="Illustration"><path class="cls-1" d="M51.1,721.16c28.15,48.51,72.9,89.32,107.38,134.69,99.62,131.09-4,284.49,41.43,425.81,39.62,123.13,204.38,156.14,324.82,161.14,202.94,8.42,405.66-4.2,601.32-57.8,135.78-37.2,271.73-85.9,414.84-88.85,146.3-3,283.91,54.19,425.25,81.24,155.2,29.7,340.82-2.55,378.23-171.34,23.18-104.56-39.22-200.86-45.06-303.81-7.73-136.3,131.78-211.09,149.84-338.51,11.38-80.34-31.15-152.12-86.64-210.24C2304,292.16,2225.24,238,2134.91,232.94,2040.5,227.68,1956.24,276,1868,299,1620,363.78,1479.25,147.76,1251,117.62c-102.92-13.59-229.41-7.14-322.86,39.53-86.89,43.38-129.06,139.77-226.53,168.07-103.16,29.95-197.56-29.91-295.59-49-101.45-19.8-197.41,15.34-260.91,92.39C83.58,443.27,17,541.68,24.6,640.32,26.92,670.27,36.9,696.69,51.1,721.16Z"/><path class="cls-2" d="M2425,784.63c-27.06,43.14-70.06,79.43-103.19,119.76-95.75,116.56,3.87,252.95-39.83,378.6-38.07,109.48-196.41,138.83-312.16,143.28-195,7.48-389.85-3.74-577.89-51.4-130.48-33.07-261.13-76.37-398.67-79-140.6-2.68-272.85,48.18-408.68,72.23C435.39,1394.52,257,1365.84,221,1215.77c-22.28-93,37.69-178.59,43.31-270.13,7.43-121.19-126.65-187.69-144-301-10.94-71.43,29.93-135.25,83.26-186.93C259.87,403.21,335.53,355,422.34,350.55c90.73-4.68,171.71,38.25,256.52,58.74C917.17,466.88,1052.45,274.81,1271.77,248c98.91-12.09,220.46-6.35,310.27,35.14,83.51,38.58,124,124.27,217.7,149.44,99.14,26.63,189.87-26.6,284.08-43.61,97.5-17.6,189.72,13.65,250.74,82.15,59.17,66.42,123.2,153.92,115.85,241.62C2448.18,739.39,2438.59,762.88,2425,784.63Z"/><path class="cls-3" d="M574,1455.6c-75.38,15.08-171.64-67.11-202.65-156.89-31.92-92.39,26.6-131.1,26.15-259.31C397,893.76,321.23,871.81,271.12,675.49c-11.31-44.29-76.74-300.6,4.36-348.65,75-44.42,285.59,83.07,322.5,246.24,26.32,116.35-55.05,165.2-24,300.71,27.27,118.9,98.93,120.62,126.39,235.34C733.82,1248.79,673,1435.82,574,1455.6Z"/><path class="cls-4" d="M568.54,1490.89c20.32-156.92-19.32-399-56.16-574.46-39.88-190-85.14-344.91-85.59-346.45l-6.27,1.84c.45,1.54,45.65,156.28,85.47,346,36.73,174.94,76.26,416.23,56.06,572.23Z"/><path class="cls-5" d="M487.2,1438.08c98.88-51.52,132.72-228.43,76.52-285.93-38-38.85-92.44,2-145-38.26C351.65,1062.47,401,965.63,348.26,840,303.37,733.16,195.71,632,132.8,652.77,66.94,674.49,32.26,835.67,88.5,932.66c36.58,63.08,92.56,66.18,104.71,124.85,14.09,68.07-54,99.12-54.37,165.12C138.17,1341.18,356.39,1506.24,487.2,1438.08Z"/><path class="cls-4" d="M433.84,1483.39a4.11,4.11,0,0,0,1.76-.4,4,4,0,0,0,1.86-5.38C306.37,1207.49,267.93,894.12,267.56,891a4,4,0,0,0-8,1c.38,3.15,39,317.86,170.65,589.18A4,4,0,0,0,433.84,1483.39Z"/><path class="cls-6" d="M164.9,972.14a1.91,1.91,0,0,0,1.51-3.1C125,915.92,79.18,836.13,95.69,757.61c9.83-46.77,37.5-71.16,37.78-71.4A1.92,1.92,0,1,0,131,683.3c-1.18,1-28.93,25.49-39,73.52C82.64,801,87.51,874,163.38,971.4A1.9,1.9,0,0,0,164.9,972.14Z"/><path class="cls-6" d="M496.11,1414.5a1.93,1.93,0,0,0,1.59-.84c63.59-92.8,85.27-164.51,64.45-213.13-18.51-43.23-65.26-51.27-65.73-51.35a1.92,1.92,0,0,0-.61,3.8c.44.08,45.17,7.83,62.82,49.11,20.24,47.33-1.33,117.78-64.1,209.39a1.93,1.93,0,0,0,.5,2.68A1.89,1.89,0,0,0,496.11,1414.5Z"/><path class="cls-7" d="M1939.2,1468.62c63.94,12.79,145.59-56.92,171.9-133.07,27.07-78.37-22.57-111.21-22.18-220,.43-123.54,64.69-142.16,107.2-308.67,9.59-37.57,65.09-255-3.7-295.74-63.6-37.67-242.24,70.46-273.55,208.86-22.32,98.69,46.69,140.13,20.33,255.07-23.13,100.86-83.91,102.32-107.2,199.62C1803.65,1293.2,1855.25,1451.84,1939.2,1468.62Z"/><path class="cls-4" d="M1943.85,1498.55c-17.24-133.1,16.38-338.44,47.63-487.26,33.82-161.13,72.21-292.55,72.6-293.86l5.32,1.56c-.39,1.3-38.72,132.56-72.5,293.48-31.15,148.39-64.69,353-47.55,485.37Z"/><path class="cls-8" d="M2035.11,1453.47c-85.21-44.4-114.38-196.86-65.94-246.41,32.73-33.48,79.66,1.73,124.94-33,57.81-44.32,15.28-127.77,60.74-236,38.68-92.11,131.46-179.27,185.68-161.38,56.75,18.72,86.64,157.62,38.17,241.21-31.52,54.36-79.77,57-90.23,107.59-12.15,58.66,46.53,85.42,46.85,142.29C2335.89,1370,2147.84,1512.21,2035.11,1453.47Z"/><path class="cls-4" d="M2081.09,1492.52a3.4,3.4,0,0,1-1.51-.35,3.47,3.47,0,0,1-1.61-4.64c113-232.78,146.1-502.84,146.42-505.54a3.47,3.47,0,0,1,6.89.82c-.32,2.72-33.59,273.93-147.06,507.75A3.47,3.47,0,0,1,2081.09,1492.52Z"/><path class="cls-6" d="M2312.87,1051.93a1.68,1.68,0,0,1-1-.35,1.65,1.65,0,0,1-.29-2.33c35.66-45.77,75.18-114.53,61-182.2-8.47-40.3-32.32-61.32-32.56-61.53a1.66,1.66,0,0,1,2.17-2.51c1,.88,24.94,22,33.64,63.35,8,38,3.8,101-61.59,184.93A1.63,1.63,0,0,1,2312.87,1051.93Z"/><path class="cls-6" d="M2027.43,1433.14a1.65,1.65,0,0,1-1.37-.72c-54.8-80-73.49-141.77-55.54-183.67,16-37.25,56.23-44.18,56.64-44.25a1.66,1.66,0,0,1,.53,3.28c-.39.06-38.93,6.74-54.14,42.32-17.44,40.78,1.15,101.5,55.24,180.45a1.65,1.65,0,0,1-.43,2.3A1.6,1.6,0,0,1,2027.43,1433.14Z"/><path class="cls-9" d="M525.19,984.52,495.48,287.44a29.7,29.7,0,0,1,30.63-30.95c103.26,3.35,427.32,13.83,537.34,17a30.2,30.2,0,0,1,29.31,29.55c2.6,120.13,13.11,578.75,23.91,645.1Z"/><path class="cls-10" d="M549,954l-25.67-622a17.23,17.23,0,0,1,17.72-18c80.85,2.34,403.8,12.06,505.4,21.07a17,17,0,0,1,15.44,16.05l29.62,569.18Z"/><g class="cls-11"><path class="cls-4" d="M590.37,427.52,572,427.23a6.78,6.78,0,0,0-6.79,7.92l1.17,6.82a6.78,6.78,0,0,0,6.64,5.64l17.52.09a6.77,6.77,0,0,0,6.8-7.05L597,434A6.78,6.78,0,0,0,590.37,427.52Z"/><path class="cls-4" d="M592.42,479.3l-12.08-.13a6.77,6.77,0,0,0-6.81,7.55l.72,6.18a6.77,6.77,0,0,0,6.67,6l11.62.1a6.77,6.77,0,0,0,6.83-7.05l-.25-6.14A6.78,6.78,0,0,0,592.42,479.3Z"/><path class="cls-4" d="M588.07,367.19l-21.52-.74a6.78,6.78,0,0,0-6.95,7.65l1.28,9.91a6.78,6.78,0,0,0,6.64,5.91l20.62.24a6.77,6.77,0,0,0,6.85-7.05l-.38-9.42A6.77,6.77,0,0,0,588.07,367.19Z"/><path class="cls-4" d="M627,499.31l386,3.42a6.78,6.78,0,0,0,6.84-6.78v-5.14a6.78,6.78,0,0,0-6.7-6.78l-386.21-4.34a6.78,6.78,0,0,0-6.85,7.05l.25,6.06A6.77,6.77,0,0,0,627,499.31Z"/><path class="cls-4" d="M615.54,375.41l.35,8.65a6.77,6.77,0,0,0,6.69,6.51l390.33,4.63a6.78,6.78,0,0,0,6.86-6.78h0a6.78,6.78,0,0,0-6.55-6.77L622.54,368.36A6.78,6.78,0,0,0,615.54,375.41Z"/><path class="cls-4" d="M624.93,447.88l388,2a6.78,6.78,0,0,0,6.82-6.77v-2.27a6.77,6.77,0,0,0-6.67-6.77l-388.28-6a6.77,6.77,0,0,0-6.88,7.05l.25,6.27A6.78,6.78,0,0,0,624.93,447.88Z"/></g><g class="cls-11"><path class="cls-4" d="M606.78,601.64l-18.41-.28a6.78,6.78,0,0,0-6.79,7.91l1.17,6.83a6.76,6.76,0,0,0,6.64,5.63l17.52.1a6.77,6.77,0,0,0,6.8-7.05l-.26-6.63A6.78,6.78,0,0,0,606.78,601.64Z"/><path class="cls-4" d="M608.83,653.43l-12.08-.14a6.78,6.78,0,0,0-6.81,7.56l.72,6.18a6.77,6.77,0,0,0,6.67,6l11.61.1a6.79,6.79,0,0,0,6.84-7l-.25-6.15A6.77,6.77,0,0,0,608.83,653.43Z"/><path class="cls-4" d="M604.48,541.31,583,540.58a6.78,6.78,0,0,0-7,7.65l1.28,9.91a6.78,6.78,0,0,0,6.64,5.9l20.62.25a6.78,6.78,0,0,0,6.85-7l-.38-9.43A6.77,6.77,0,0,0,604.48,541.31Z"/><path class="cls-4" d="M643.38,673.44l386,3.42a6.79,6.79,0,0,0,6.84-6.78v-5.15a6.79,6.79,0,0,0-6.7-6.78l-386.21-4.34a6.79,6.79,0,0,0-6.85,7.05l.25,6.07A6.79,6.79,0,0,0,643.38,673.44Z"/><path class="cls-4" d="M632,549.53l.35,8.66A6.78,6.78,0,0,0,639,564.7l390.33,4.63a6.79,6.79,0,0,0,6.86-6.78h0a6.79,6.79,0,0,0-6.55-6.78L639,542.48A6.78,6.78,0,0,0,632,549.53Z"/><path class="cls-4" d="M641.34,622l388,2a6.78,6.78,0,0,0,6.82-6.78V615a6.78,6.78,0,0,0-6.67-6.78l-388.28-6a6.77,6.77,0,0,0-6.88,7.05l.25,6.27A6.78,6.78,0,0,0,641.34,622Z"/></g><path class="cls-12" d="M1600,1422l88.69-976.6a31.89,31.89,0,0,0-32.48-33.66c-111,2.21-459.19,9.11-577.41,11.08a32.43,32.43,0,0,0-31.89,31.34c-4.4,129-69.27,849.72-81.76,920.85Z"/><path class="cls-10" d="M1574.84,1388.85l83.35-896a18.53,18.53,0,0,0-18.8-19.53c-86.88,1.42-433.91,7.53-543.16,15.84a18.25,18.25,0,0,0-16.81,17l-86.87,839.22Z"/><g class="cls-13"><path class="cls-4" d="M1128.06,578.55l-19.78.24a7.28,7.28,0,0,0-7,8.7l1.45,7.3a7.28,7.28,0,0,0,7.3,5.85l18.82-.42a7.28,7.28,0,0,0,7.1-7.77l-.48-7.11A7.3,7.3,0,0,0,1128.06,578.55Z"/><path class="cls-4" d="M1118,637.91l-13,.21a7.29,7.29,0,0,0-7.09,8.32l1,6.62a7.28,7.28,0,0,0,7.34,6.24l12.47-.23a7.29,7.29,0,0,0,7.13-7.78l-.45-6.59A7.28,7.28,0,0,0,1118,637.91Z"/><path class="cls-4" d="M1146.16,514.58l-23.13-.15a7.27,7.27,0,0,0-7.24,8.41l1.67,10.6a7.27,7.27,0,0,0,7.3,6.15l22.15-.35a7.28,7.28,0,0,0,7.15-7.77l-.69-10.11A7.26,7.26,0,0,0,1146.16,514.58Z"/><path class="cls-4" d="M1155.7,658.38l414.56-7.74a7.29,7.29,0,0,0,7.14-7.48l-.15-5.53a7.29,7.29,0,0,0-7.4-7.08L1155,637.31a7.28,7.28,0,0,0-7.14,7.77l.44,6.51A7.29,7.29,0,0,0,1155.7,658.38Z"/><path class="cls-4" d="M1175.9,522.59l.63,9.29a7.28,7.28,0,0,0,7.37,6.79l419.29-6.57a7.29,7.29,0,0,0,7.17-7.48h0a7.28,7.28,0,0,0-7.23-7.08l-419.92-2.72A7.27,7.27,0,0,0,1175.9,522.59Z"/><path class="cls-4" d="M1165.77,599.4l416.74-9.3a7.28,7.28,0,0,0,7.12-7.48l-.07-2.43a7.29,7.29,0,0,0-7.37-7.08l-417.12,5a7.28,7.28,0,0,0-7.18,7.77l.46,6.73A7.27,7.27,0,0,0,1165.77,599.4Z"/></g><path class="cls-14" d="M1600.79,325.07c-7.69-36.5-26.83-24-58.87-35.21s-22.66-51.28-42.55-63.64c-26.51-16.48-50.86-1.18-67.35,20.44-27.4,35.93-46.15,6.71-78.91,21.27-18.77,8.35-10.76,20-36.15,24.74-17.73,3.28-36.93-4.46-54.42.27-12.94,3.51-22.33,9.66-25.2,22.2,3.66,1.72,7.44,3.27,11.34,4.68,48.94,17.64,115.71,11.75,165.18,14.35C1430.72,335.06,1606.24,350.94,1600.79,325.07Z"/><path class="cls-14" d="M1243.52,220.58c-4-19.14-14.06-12.57-30.86-18.46s-11.88-26.88-22.3-33.36c-13.9-8.64-26.66-.62-35.31,10.72-14.37,18.83-24.19,3.51-41.37,11.15-9.83,4.37-5.64,10.5-18.94,13-9.3,1.73-19.37-2.33-28.53.15-6.79,1.84-11.71,5.06-13.21,11.63,1.91.91,3.9,1.72,5.94,2.46,25.66,9.25,60.66,6.16,86.59,7.52C1154.37,225.82,1246.38,234.14,1243.52,220.58Z"/><path class="cls-15" d="M2269.93,826.27a1.91,1.91,0,0,1-.62-3.53q3.29-1.87,6.49-3.85a1.91,1.91,0,1,1,2,3.25q-3.26,2-6.59,3.9A1.91,1.91,0,0,1,2269.93,826.27Z"/><path class="cls-15" d="M2120.5,855.09a1.9,1.9,0,0,1,.58-3.75c4.81.66,9.7,1.18,14.55,1.54a1.91,1.91,0,0,1-.28,3.8c-4.93-.37-9.9-.9-14.79-1.57ZM2097,850.6l-.13,0c-4.8-1.17-9.63-2.51-14.34-4a1.9,1.9,0,0,1-1.25-2.38,1.88,1.88,0,0,1,2.39-1.25c4.63,1.44,9.38,2.76,14.1,3.92a1.9,1.9,0,0,1-.77,3.72Zm62.17,6.61a1.9,1.9,0,0,1,.27-3.77c4.84-.14,9.76-.43,14.61-.87a1.9,1.9,0,1,1,.34,3.79c-4.93.45-9.92.75-14.85.88A2.22,2.22,0,0,1,2159.13,857.21Zm-98.88-18.85a2.13,2.13,0,0,1-.43-.13c-4.53-1.94-9.07-4.05-13.48-6.27a1.9,1.9,0,1,1,1.71-3.4c4.34,2.19,8.81,4.26,13.27,6.17a1.91,1.91,0,0,1-1.07,3.63ZM2197.59,853a1.91,1.91,0,0,1,0-3.75l1.34-.26c4.33-.86,8.68-1.85,12.94-3a1.9,1.9,0,1,1,1,3.68c-4.33,1.12-8.75,2.13-13.14,3l-1.36.27A2.29,2.29,0,0,1,2197.59,853ZM2026,820.29a1.89,1.89,0,0,1-.7-.27c-4.17-2.65-8.3-5.47-12.28-8.37a1.9,1.9,0,1,1,2.24-3.08c3.92,2.86,8,5.63,12.09,8.24a1.9,1.9,0,0,1-1.35,3.48Zm208.83,22.31a1.92,1.92,0,0,1-1.46-1.22,1.9,1.9,0,0,1,1.13-2.44c4.56-1.68,9.12-3.53,13.56-5.49a1.9,1.9,0,1,1,1.54,3.48c-4.51,2-9.15,3.87-13.78,5.58A1.88,1.88,0,0,1,2234.86,842.6Zm-239.65-45.68a1.92,1.92,0,0,1-1-.46c-3.68-3.3-7.3-6.76-10.76-10.26a1.91,1.91,0,0,1,2.72-2.67c3.39,3.45,7,6.84,10.58,10.1a1.89,1.89,0,0,1,.15,2.68A1.91,1.91,0,0,1,1995.21,796.92Zm-26.6-28.08a1.84,1.84,0,0,1-1.16-.68c-3.09-3.85-6.1-7.85-8.94-11.88a1.91,1.91,0,0,1,3.12-2.19c2.79,4,5.75,7.9,8.79,11.69a1.9,1.9,0,0,1-1.81,3.06Zm-21.63-32a1.92,1.92,0,0,1-1.34-.95c-2.41-4.29-4.72-8.72-6.86-13.17a1.91,1.91,0,0,1,3.43-1.66c2.11,4.39,4.38,8.75,6.75,13a1.9,1.9,0,0,1-.73,2.59A1.92,1.92,0,0,1,1947,736.81Zm-16.09-35.17a1.88,1.88,0,0,1-1.46-1.23c-1.68-4.64-3.23-9.39-4.61-14.13a1.9,1.9,0,0,1,3.65-1.07c1.36,4.66,2.89,9.34,4.54,13.91a1.92,1.92,0,0,1-1.15,2.44A1.9,1.9,0,0,1,1930.89,701.64Zm-10.13-37.33a1.92,1.92,0,0,1-1.54-1.53c-.91-4.88-1.67-9.82-2.27-14.7a1.9,1.9,0,0,1,3.78-.46c.59,4.8,1.34,9.66,2.23,14.46a1.9,1.9,0,0,1-1.52,2.22A2.22,2.22,0,0,1,1920.76,664.31Zm-4-38.5a1.9,1.9,0,0,1-1.58-1.83c-.1-4.91,0-9.92.16-14.87a1.9,1.9,0,1,1,3.8.15c-.2,4.88-.25,9.8-.15,14.64a1.9,1.9,0,0,1-1.86,1.94A2.22,2.22,0,0,1,1916.8,625.81Zm2.39-38.61a1.91,1.91,0,0,1-1.56-2.15c.31-2.12.64-4.22,1-6.32.48-2.79,1-5.59,1.6-8.33a1.9,1.9,0,0,1,2.18-1.48h.07a1.91,1.91,0,0,1,1.47,2.26c-.57,2.69-1.1,5.44-1.57,8.19-.36,2.06-.69,4.14-1,6.21a1.89,1.89,0,0,1-2.16,1.61Z"/><path class="cls-15" d="M1927.94,549.37l-.26-.07a1.9,1.9,0,0,1-1.23-2.39c.78-2.43,1.6-4.86,2.46-7.26a1.9,1.9,0,1,1,3.58,1.28c-.84,2.36-1.65,4.74-2.41,7.14A1.91,1.91,0,0,1,1927.94,549.37Z"/><path class="cls-15" d="M2046.71,410.26a1.9,1.9,0,0,1-.53-3.57q3.42-1.72,6.91-3.33a1.9,1.9,0,1,1,1.59,3.45c-2.29,1.06-4.55,2.15-6.8,3.28A1.85,1.85,0,0,1,2046.71,410.26Z"/><path class="cls-15" d="M2381.8,679.05l-.15,0a1.91,1.91,0,0,1-1.37-2.31c1.26-5,2.37-10.05,3.3-15.11a1.9,1.9,0,0,1,2.19-1.53h0a1.9,1.9,0,0,1,1.53,2.21c-1,5.14-2.07,10.3-3.35,15.35A1.91,1.91,0,0,1,2381.8,679.05Zm6.55-40.33a1.9,1.9,0,0,1-1.57-2c.37-5.11.58-10.3.62-15.44a1.91,1.91,0,0,1,3.81,0c0,5.23-.26,10.51-.64,15.7a1.9,1.9,0,0,1-2,1.76Zm-.55-40.86a1.89,1.89,0,0,1-1.56-1.69c-.52-5.09-1.21-10.25-2.06-15.32a1.91,1.91,0,0,1,3.76-.63c.86,5.16,1.56,10.4,2.08,15.57a1.91,1.91,0,0,1-1.7,2.09A2.24,2.24,0,0,1,2387.8,597.86Zm-7.54-40.16a1.91,1.91,0,0,1-1.51-1.37c-1.38-4.94-2.94-9.91-4.63-14.74a1.9,1.9,0,1,1,3.59-1.26c1.72,4.91,3.31,10,4.7,15a1.92,1.92,0,0,1-1.32,2.35A2.13,2.13,0,0,1,2380.26,557.7ZM2366,519.43a1.88,1.88,0,0,1-1.39-1.06c-2.21-4.63-4.6-9.24-7.11-13.71a1.9,1.9,0,0,1,3.32-1.86c2.55,4.54,5,9.23,7.22,13.94a1.9,1.9,0,0,1-2,2.69Zm-20.71-35.18a1.94,1.94,0,0,1-1.23-.77c-3-4.18-6.13-8.31-9.38-12.28a1.9,1.9,0,0,1,2.95-2.41c3.3,4,6.51,8.24,9.53,12.48a1.9,1.9,0,0,1-1.87,3Zm-26.5-31.08a1.86,1.86,0,0,1-1-.52c-3.66-3.6-7.48-7.13-11.36-10.48a1.9,1.9,0,1,1,2.48-2.88c4,3.41,7.83,7,11.55,10.65a1.9,1.9,0,0,1,0,2.69A1.92,1.92,0,0,1,2318.74,453.17Zm-241.67-55.59a1.9,1.9,0,0,1-.28-3.68c4.93-1.66,10-3.19,15-4.53a1.9,1.9,0,0,1,1,3.68c-5,1.32-9.94,2.82-14.8,4.46A1.85,1.85,0,0,1,2077.07,397.58Zm210.2,29.53a2.07,2.07,0,0,1-.76-.31c-4.21-2.92-8.58-5.74-13-8.38a1.9,1.9,0,0,1,2-3.26c4.47,2.68,8.91,5.54,13.2,8.51a1.9,1.9,0,0,1-1.41,3.44Zm-170.5-39.22a1.92,1.92,0,0,1-1.56-1.59,1.9,1.9,0,0,1,1.59-2.17c5.16-.8,10.41-1.44,15.59-1.9a1.9,1.9,0,1,1,.34,3.79c-5.1.45-10.27,1.08-15.34,1.87A2.15,2.15,0,0,1,2116.77,387.89Zm135,18.94a2.21,2.21,0,0,1-.48-.15c-4.66-2.15-9.45-4.18-14.24-6a1.91,1.91,0,0,1,1.37-3.56c4.87,1.88,9.74,3.94,14.47,6.13a1.9,1.9,0,0,1-1.12,3.6Zm-94.27-21.72a1.9,1.9,0,0,1,.36-3.78c5.21.1,10.49.37,15.69.82a1.87,1.87,0,0,1,1.73,2.06,1.9,1.9,0,0,1-2.06,1.73c-5.11-.44-10.3-.71-15.43-.8Zm55.83,7.83-.16,0c-5-1.32-10-2.49-15.07-3.48a1.9,1.9,0,0,1-1.5-2.23,1.93,1.93,0,0,1,2.23-1.5c5.12,1,10.27,2.19,15.31,3.53a1.9,1.9,0,0,1-.81,3.71Z"/><path class="cls-15" d="M2371.45,710.43a2,2,0,0,1-.4-.11,1.91,1.91,0,0,1-1-2.49c1-2.32,1.87-4.66,2.75-7a1.9,1.9,0,0,1,3.57,1.33q-1.35,3.58-2.79,7.14A1.91,1.91,0,0,1,2371.45,710.43Z"/><path class="cls-16" d="M2311.11,708.48a2.82,2.82,0,0,0,0-3.29l-20-28.11a150.42,150.42,0,0,0,11-47.4l30.3-16.42a2.84,2.84,0,0,0,1.44-3l-6.77-40.8a2.84,2.84,0,0,0-2.33-2.33l-34-5.75a150.13,150.13,0,0,0-25.75-41.3l9.82-33.06a2.82,2.82,0,0,0-1.07-3.11l-33.64-24.06a2.84,2.84,0,0,0-3.29,0l-28.11,20a150.2,150.2,0,0,0-47.4-11L2145,438.54a2.83,2.83,0,0,0-3-1.45l-40.81,6.78a2.84,2.84,0,0,0-2.33,2.32l-5.74,34a150.13,150.13,0,0,0-41.3,25.75l-33.06-9.82a2.83,2.83,0,0,0-3.11,1.07l-24.06,33.64a2.82,2.82,0,0,0,0,3.29l20,28.11a150.21,150.21,0,0,0-11,47.41L1970.24,626a2.82,2.82,0,0,0-1.44,3l6.77,40.81a2.84,2.84,0,0,0,2.33,2.33l34,5.74a150.13,150.13,0,0,0,25.75,41.3l-9.82,33.06a2.81,2.81,0,0,0,1.07,3.11l33.64,24.06a2.82,2.82,0,0,0,3.29,0l28.11-20a150.22,150.22,0,0,0,47.4,11l16.42,30.3a2.84,2.84,0,0,0,3,1.44l40.8-6.77a2.82,2.82,0,0,0,2.33-2.32l5.75-34a150.39,150.39,0,0,0,41.3-25.76l33.06,9.82a2.82,2.82,0,0,0,3.11-1.06Z"/><path class="cls-4" d="M2144.82,657.71a38.62,38.62,0,1,1,22-2.66A38.63,38.63,0,0,1,2144.82,657.71Zm12.41-72.4a34.87,34.87,0,1,0,6.84,1.91A35.74,35.74,0,0,0,2157.23,585.31Z"/><path class="cls-4" d="M2133.33,719.44a101.72,101.72,0,1,1,117.61-116.9h0a102.36,102.36,0,0,1,1.35,19.76c0,.62-.05,1.24-.08,1.85a1.94,1.94,0,0,1,0,.24,1.91,1.91,0,0,1-3.78-.42,98.86,98.86,0,0,0-1.22-20.81,97.87,97.87,0,1,0-33.23,90.7,1.9,1.9,0,1,1,2.46,2.9,101.78,101.78,0,0,1-83.09,22.68Z"/><path class="cls-17" d="M1966.79,414l-12.4-14.81a84.26,84.26,0,0,0,4-27l16.19-10.51a1.6,1.6,0,0,0,.68-1.72l-5.6-22.49a1.58,1.58,0,0,0-1.4-1.2l-19.23-1.7a84.16,84.16,0,0,0-16.22-21.92l4-18.9a1.59,1.59,0,0,0-.73-1.69l-19.87-12a1.58,1.58,0,0,0-1.83.15l-14.82,12.4a84.2,84.2,0,0,0-27-4.05l-10.52-16.19a1.59,1.59,0,0,0-1.71-.68l-22.49,5.6a1.58,1.58,0,0,0-1.2,1.4l-1.7,19.23a84.16,84.16,0,0,0-21.92,16.22l-18.9-4a1.58,1.58,0,0,0-1.69.74l-12,19.86a1.58,1.58,0,0,0,.14,1.83l12.41,14.82a84,84,0,0,0-4.05,27l-16.2,10.52a1.57,1.57,0,0,0-.67,1.71l5.59,22.49a1.59,1.59,0,0,0,1.4,1.2l19.24,1.7a84.18,84.18,0,0,0,16.21,21.93l-4,18.9a1.59,1.59,0,0,0,.73,1.69l19.86,11.94a1.6,1.6,0,0,0,1.84-.14l14.81-12.41a84.26,84.26,0,0,0,27,4.06l10.51,16.19a1.6,1.6,0,0,0,1.72.68l22.49-5.6a1.59,1.59,0,0,0,1.2-1.4l1.7-19.23a84.16,84.16,0,0,0,21.92-16.22l18.9,4a1.59,1.59,0,0,0,1.69-.74l12-19.86A1.58,1.58,0,0,0,1966.79,414Z"/><path class="cls-4" d="M1870,395.42a22.48,22.48,0,1,1,14.42-2.33A22.47,22.47,0,0,1,1870,395.42Zm7-40.56a18.57,18.57,0,1,0,2.27.53A20.16,20.16,0,0,0,1876.91,354.86Z"/><path class="cls-15" d="M1961.2,463.1a1.87,1.87,0,0,1-1-.53,1.91,1.91,0,0,1,0-2.69c1.76-1.75,3.49-3.58,5.14-5.45a1.91,1.91,0,1,1,2.85,2.53c-1.71,1.92-3.49,3.81-5.3,5.62A1.89,1.89,0,0,1,1961.2,463.1Z"/><path class="cls-15" d="M1856.43,498.23a1.9,1.9,0,0,1,.59-3.76,124,124,0,0,0,14.26,1.13,1.91,1.91,0,1,1-.08,3.81,129.4,129.4,0,0,1-14.7-1.17Zm-23-5.44a1.43,1.43,0,0,1-.28-.07,127.71,127.71,0,0,1-13.67-5.54,1.9,1.9,0,0,1,1.63-3.44,123,123,0,0,0,13.26,5.38,1.9,1.9,0,0,1-.94,3.67Zm61,4.83a1.9,1.9,0,0,1,0-3.75,120.79,120.79,0,0,0,13.93-3.25,1.9,1.9,0,1,1,1.08,3.65,125.85,125.85,0,0,1-14.37,3.35A1.72,1.72,0,0,1,1894.45,497.62Zm-94.68-22.38a1.89,1.89,0,0,1-.8-.34,121.92,121.92,0,0,1-11.35-9.42,1.9,1.9,0,0,1,2.59-2.78,121.7,121.7,0,0,0,11,9.13,1.9,1.9,0,0,1,.41,2.66A1.88,1.88,0,0,1,1799.77,475.24Zm130.71,10.26a1.87,1.87,0,0,1-1.37-1,1.9,1.9,0,0,1,.82-2.56l1.51-.8a125.1,125.1,0,0,0,10.8-6.5,1.9,1.9,0,0,1,2.13,3.15,126.5,126.5,0,0,1-11.14,6.71l-1.55.82A1.89,1.89,0,0,1,1930.48,485.5ZM1773,448.29a1.89,1.89,0,0,1-1.21-.75,127.2,127.2,0,0,1-8-12.42,1.91,1.91,0,0,1,3.32-1.87,120.86,120.86,0,0,0,7.72,12.05,1.91,1.91,0,0,1-.43,2.66A1.88,1.88,0,0,1,1773,448.29Zm-17.42-33.78a1.93,1.93,0,0,1-1.48-1.27,126.41,126.41,0,0,1-3.86-14.24,1.91,1.91,0,0,1,3.73-.78,120.91,120.91,0,0,0,3.74,13.81,1.91,1.91,0,0,1-1.2,2.41A2,2,0,0,1,1755.55,414.51Z"/><path class="cls-15" d="M1749.16,377a1.9,1.9,0,0,1-1.58-1.85c0-2.55,0-5.15.13-7.72a1.9,1.9,0,0,1,3.8.18c-.12,2.49-.16,5-.13,7.49a1.9,1.9,0,0,1-1.87,1.93A2,2,0,0,1,1749.16,377Z"/><path class="cls-15" d="M1787.7,285.15a1.89,1.89,0,0,1-1-.57,1.91,1.91,0,0,1,.07-2.69c1.86-1.77,3.8-3.5,5.76-5.15a1.91,1.91,0,0,1,2.45,2.92c-1.91,1.6-3.79,3.28-5.59,5A1.9,1.9,0,0,1,1787.7,285.15Z"/><path class="cls-15" d="M1996.19,355.84a1.9,1.9,0,0,1-1.56-1.58,120.34,120.34,0,0,0-3-13.75,1.9,1.9,0,0,1,3.67-1,125.26,125.26,0,0,1,3.08,14.18,1.9,1.9,0,0,1-1.58,2.18A1.84,1.84,0,0,1,1996.19,355.84Zm-11.33-35.64a1.9,1.9,0,0,1-1.39-1c-.59-1.21-1.21-2.41-1.85-3.61-1.58-2.94-3.29-5.85-5.08-8.64a1.9,1.9,0,0,1,3.2-2.06c1.85,2.88,3.61,5.87,5.23,8.91q1,1.85,1.92,3.72A1.89,1.89,0,0,1,1986,320,1.82,1.82,0,0,1,1984.86,320.2Zm-172.39-53.33a1.87,1.87,0,0,1-1.34-.94,1.9,1.9,0,0,1,.73-2.59c.79-.45,1.58-.88,2.39-1.31,3.45-1.85,7-3.56,10.64-5.08a1.9,1.9,0,0,1,1.47,3.51c-3.49,1.47-7,3.13-10.32,4.93-.78.41-1.55.84-2.32,1.27A1.85,1.85,0,0,1,1812.47,266.87Zm151,22.65a1.89,1.89,0,0,1-1-.57,122.76,122.76,0,0,0-10.26-9.62,1.9,1.9,0,1,1,2.43-2.92,125.76,125.76,0,0,1,10.59,9.92,1.91,1.91,0,0,1-1.71,3.19Zm-116-35.91a1.91,1.91,0,0,1-.07-3.74,126.71,126.71,0,0,1,14.34-2.21,1.9,1.9,0,1,1,.36,3.79,119.09,119.09,0,0,0-13.9,2.15A2,2,0,0,1,1847.43,253.61Zm86.5,13a2.08,2.08,0,0,1-.6-.22,122.1,122.1,0,0,0-12.67-6.12,1.91,1.91,0,1,1,1.46-3.52,126.69,126.69,0,0,1,13.06,6.32,1.9,1.9,0,0,1-1.25,3.54Zm-49.17-15.22a1.9,1.9,0,0,1,.51-3.77c3.29.31,6.62.75,9.88,1.31h0c1.48.26,3,.54,4.43.85a1.89,1.89,0,0,1,1.46,2.25,1.92,1.92,0,0,1-2.25,1.47c-1.43-.3-2.91-.61-4.33-.83-3.16-.55-6.39-1-9.58-1.27Z"/><path class="cls-15" d="M1997.13,386.67a1.9,1.9,0,0,1-1.56-2.06c.23-2.48.39-5,.47-7.47a1.9,1.9,0,0,1,3.8.12c-.08,2.56-.25,5.15-.49,7.71a1.9,1.9,0,0,1-2.07,1.72Z"/><path class="cls-4" d="M1863.53,430a57.83,57.83,0,1,1,65.91-71c.33,1.35.62,2.71.86,4.09a57.16,57.16,0,0,1,.79,7.13c0,.32,0,.65,0,1a1.59,1.59,0,0,1,0,.38,1.9,1.9,0,0,1-3.78-.26,54.36,54.36,0,0,0-1.59-11.39h0a54,54,0,0,0-64.36-39.65l-.58.14-.52.13a54,54,0,1,0,51.15,90.72,1.9,1.9,0,0,1,3.22,1.67,1.84,1.84,0,0,1-.53,1,57.82,57.82,0,0,1-50.59,16Z"/><path class="cls-18" d="M374.48,1426.15a25.36,25.36,0,0,0,25.3,25.27H1767.9a25.36,25.36,0,0,0,25.3-25.27l11.39-786.23c0-13.9-16.38-41-46.4-39L421.11,566.32a63.76,63.76,0,0,0-65.42,65.21Z"/><path class="cls-19" d="M399.45,1401.9a24,24,0,0,0,23.94,23.93H1734.91a24,24,0,0,0,23.94-23.93l10.74-713.74c-1.27-43-38.92-58.39-61.75-57.48L426.37,596.3a44.79,44.79,0,0,0-46,45.85Z"/><g class="cls-13"><path class="cls-4" d="M433.7,1376.22c0,12.24,10.22,22.27,22.72,22.27h1245c12.5,0,22.72-10,22.72-22.27l10.2-664c-1.2-40-37-54.32-58.62-53.47l-1216.51-32a42.93,42.93,0,0,0-31.15,12.15,41.16,41.16,0,0,0-12.49,30.5Z"/></g><path class="cls-4" d="M1744.67,1062.56h0a3.25,3.25,0,0,1-3.2-3.3l.85-57.88a3.33,3.33,0,0,1,3.29-3.19,3.23,3.23,0,0,1,3.19,3.29l-.84,57.88A3.26,3.26,0,0,1,1744.67,1062.56Z"/><path class="cls-4" d="M1746.76,920.71h0a3.25,3.25,0,0,1-3.2-3.29l3.26-221.7c-.06-13.24-4.09-23.82-12-31.37-14.68-14.06-38-13.33-39-13.31l-409.57-11a3.24,3.24,0,0,1,.08-6.48h.09l409.35,11c2.54-.12,27.13-.57,43.49,15.11,9.2,8.81,13.9,21,14,36.09L1750,917.52A3.24,3.24,0,0,1,1746.76,920.71Z"/><rect class="cls-20" x="263.49" y="1447.61" width="1612.97" height="69.08" rx="12.54" transform="translate(2139.94 2964.3) rotate(180)"/><g class="cls-21"><rect class="cls-4" x="540.41" y="729.6" width="365.5" height="27.58" rx="10.22"/><rect class="cls-4" x="540.41" y="785.92" width="270.1" height="29.88" rx="10.22"/></g><g class="cls-22"><path class="cls-4" d="M1589.29,701.74a22.58,22.58,0,0,0-20.53-8l-153.57,21.45a22.59,22.59,0,0,0,6.25,44.74l76-10.63L1365.66,857.89l-75.91-66.19a22.58,22.58,0,0,0-27.55-1.65L829.11,1084.7l-84.3-68a22.58,22.58,0,0,0-27.06-1l-121.57,84.46A22.58,22.58,0,1,0,622,1137.3l107.67-74.81,84.18,67.88a22.58,22.58,0,0,0,26.88,1.09L1273.2,837.2l77.2,67.31a22.59,22.59,0,0,0,29.2.41l144.77-119.21-21.29,62.6a22.58,22.58,0,1,0,42.76,14.54l47.42-139.45A22.58,22.58,0,0,0,1589.29,701.74Z"/><rect class="cls-4" x="601.33" y="1193.95" width="58.62" height="203.44"/><rect class="cls-4" x="700.17" y="1134.18" width="58.62" height="264.35"/><rect class="cls-4" x="797.87" y="1181.3" width="58.62" height="216.08"/><rect class="cls-4" x="895.56" y="1139.93" width="59.77" height="257.46"/><rect class="cls-4" x="994.41" y="1079.01" width="58.62" height="318.37"/><rect class="cls-4" x="1092.11" y="1134.18" width="59.77" height="263.21"/><rect class="cls-4" x="1190.95" y="1091.65" width="58.62" height="305.73"/><rect class="cls-4" x="1288.65" y="1019.24" width="59.77" height="378.14"/><rect class="cls-4" x="1387.49" y="918.1" width="58.62" height="479.29"/><rect class="cls-4" x="1485.19" y="939.94" width="58.62" height="457.45"/></g><path class="cls-23" d="M686.38,1007.94h0a1.91,1.91,0,0,1,1.42-1.8,40.93,40.93,0,0,0,22.83-16q9.17-12.66,9.19-30.58c0-18.15-7-30.94-21-39.53s-35.51-12.31-64.44-12.31H567.21c-4,0-7.26,2-7.26,6v198.62c0,4,3.31,5.74,7.26,5.74h75.72c25.05,0,44.83-4.85,59.35-16s21.77-26,21.77-45.31c0-13-3-23.41-8.93-31.57S699,1011.44,686.38,1007.94Zm-70.11-57.66h17.49c18,0,27.08,5.89,27.08,17.84,0,6.7-2.25,11.67-6.77,15.07s-10.9,5-19.15,5H616.27Zm21.56,123H616.27v-44.82h20.4c9.12,0,16.09,2.86,20.9,6.64s7.21,8.8,7.21,15.89C664.78,1066.12,655.79,1073.26,637.83,1073.26Z"/><path class="cls-24" d="M881.49,1026.73c24.07-13.49,36.11-32,36.11-56.65,0-41.94-28.93-62.33-86.8-62.33H768.19c-4,0-8.25,2-8.25,6v198.62c0,4,4.3,5.74,8.25,5.74h43.23c4,0,7.14-1.79,7.14-5.74v-63.18c0-4,3.21-8.09,7.16-8.09H829c2.54,0,4.89,1.82,6.17,4l41,69.91c1.28,2.2,3.64,3.08,6.18,3.08h47.76c2.64,0,5.06-.75,6.3-3.07a6.51,6.51,0,0,0-.36-7Zm-52.14-28.18H818.56V950.28h11.37c19.71,0,29.56,7.15,29.56,21.81C859.49,989.86,849.45,998.55,829.35,998.55Z"/><path class="cls-25" d="M1087.73,911.07c-1-2.93-3.71-4.46-6.8-4.46h-66.38c-3.1,0-5.84,1.54-6.8,4.48l-64.82,199.28a5.57,5.57,0,0,0,1,5.59c1.35,1.85,3.5,2.13,5.79,2.13h47.89c3.23,0,6.06-1.46,6.9-4.58l7.92-29.85c.85-3.12,3.68-5.8,6.91-5.8h58.19c3.25,0,6.09,3.06,6.91,6.2l7.69,29a6.9,6.9,0,0,0,6.91,5.06h47.52c2.3,0,4.45-.39,5.8-2.25a6,6,0,0,0,1-5.85Zm-20.23,118.3a6.92,6.92,0,0,1-5.66,2.52H1035.1a6.79,6.79,0,0,1-6.92-8.58c7.5-28.47,12.41-47.79,14.75-58.1,2.57-11.36,4.29-19.49,5.17-24.44q1.45,8,6,26.52t7.79,30.16l6.82,25.86A6.89,6.89,0,0,1,1067.5,1029.37Z"/><path class="cls-26" d="M1375,907.75h-37c-3.94,0-6.9,2-6.9,6v89.12c0,13,.43,30.19,1.8,50.87h-.88l-75.47-143.13c-1.24-2.36-3.68-2.84-6.33-2.84h-63.68c-3.95,0-7.15,2-7.15,6v198.62c0,4,3.2,5.74,7.15,5.74h36.68c4,0,7.89-1.79,7.89-5.74v-88.82c0-12.43-1.67-29.57-3.51-52.56H1229l75.77,144.7c1.23,2.38,3.68,2.42,6.35,2.42H1375c4,0,7.85-1.79,7.85-5.74V913.73C1382.89,909.78,1379,907.75,1375,907.75Z"/><path class="cls-27" d="M1581.06,933.38c-18.59-17.47-45-25.63-79.15-25.63h-66.55c-3.95,0-7.64,2-7.64,6v198.62c0,4,3.69,5.74,7.64,5.74h61.74c35.44,0,62.94-8.91,82.5-28.13s29.35-46,29.35-81.49C1609,975.46,1599.65,950.86,1581.06,933.38ZM1537,1057.57c-8.15,10.15-21,15.69-38.44,15.69h-13.37V952.58h17.3c15.73,0,27.45,4.94,35.17,14.36s11.58,24.23,11.58,43.75C1549.24,1031.56,1545.16,1047.42,1537,1057.57Z"/><path class="cls-28" d="M559,812.6c-3.16-26.68-15.77-48.71-33.71-66l0,0c-26.76-31.17-72-51.65-123.4-51.65-34.76,0-66.74,9.37-92.07,25.11-32.1,19.92-53.53,50-56.44,84.14q-.34,4-.35,8c0,60.78,58.75,110.77,134,116.65,11.12,8.06,15.35,23.85,7.32,36.55-7.71,12.19-22.12,17.23-32.64,19.31a3.24,3.24,0,0,0-.29,6.28c44.47,12.7,72.19-29.05,84.08-53a45.74,45.74,0,0,1,17.38-18.84,160.22,160.22,0,0,0,27.44-12.66C525.1,889.1,564.58,859.46,559,812.6Z"/><path class="cls-4" d="M434.39,715.29c-73-8.93-113.54,15.06-134.67,36.76a2.3,2.3,0,1,0,3.3,3.21c20.4-21,59.65-44.11,130.81-35.4a2.31,2.31,0,0,0,2.57-2A2.28,2.28,0,0,0,434.39,715.29Z"/><path class="cls-4" d="M282.06,780.27a2.29,2.29,0,0,0-3.08,1,86.26,86.26,0,0,0-6.68,17.32,2.29,2.29,0,0,0,1.72,2.75l.21,0a2.29,2.29,0,0,0,2.55-1.76,83.24,83.24,0,0,1,6.31-16.3A2.29,2.29,0,0,0,282.06,780.27Z"/><rect class="cls-4" x="325.48" y="816.95" width="33.33" height="54.02" rx="6.03"/><rect class="cls-4" x="368" y="792.82" width="33.33" height="78.16" rx="6.03"/><rect class="cls-4" x="411.68" y="776.73" width="33.33" height="94.25" rx="6.03"/><rect class="cls-4" x="454.21" y="760.64" width="33.33" height="110.34" rx="6.03"/><path class="cls-4" d="M240.57,1189.53l.84,5.92v0a2.15,2.15,0,1,1-4.25.6h0l-.85-6a2.15,2.15,0,0,1,4.25-.6Z"/><path class="cls-4" d="M244.72,1213.09l1.37,5.83v0a2.17,2.17,0,0,1-4.23,1h0L240.5,1214a2.16,2.16,0,1,1,4.21-1Z"/><path class="cls-4" d="M250.94,1236.2l1.86,5.68,0,0a2.19,2.19,0,1,1-4.17,1.36h0l-1.88-5.78a2.19,2.19,0,1,1,4.16-1.35Z"/><path class="cls-4" d="M259.12,1258.69l2.34,5.5,0,0a2.22,2.22,0,0,1-4.09,1.73h0l-2.36-5.6a2.21,2.21,0,1,1,4.07-1.72Z"/><path class="cls-4" d="M269.16,1280.41l2.79,5.3,0,0a2.24,2.24,0,0,1-4,2.09h0l-2.82-5.38a2.24,2.24,0,1,1,4-2.08Z"/><path class="cls-4" d="M281,1301.23l3.22,5,0,0a2.26,2.26,0,0,1-3.82,2.43h0l-3.26-5.14a2.26,2.26,0,0,1,3.82-2.42Z"/><path class="cls-4" d="M294.44,1321l3.62,4.76,0,0a2.29,2.29,0,0,1-3.65,2.77h0l-3.67-4.84a2.28,2.28,0,0,1,3.64-2.76Z"/><path class="cls-4" d="M309.5,1339.6l4,4.45,0,0a2.31,2.31,0,1,1-3.43,3.1h0l-4.06-4.52a2.31,2.31,0,0,1,3.44-3.08Z"/><path class="cls-4" d="M326.06,1356.86l4.36,4.09,0,0a2.33,2.33,0,1,1-3.19,3.41h0l-4.43-4.17a2.33,2.33,0,0,1,3.19-3.39Z"/><path class="cls-4" d="M344,1372.63l4.7,3.69,0,0a2.36,2.36,0,1,1-2.91,3.71h0l-4.78-3.76a2.35,2.35,0,1,1,2.91-3.7Z"/><path class="cls-4" d="M363.34,1386.72l5,3.24.05,0a2.39,2.39,0,0,1-2.59,4h0l-5.11-3.31a2.38,2.38,0,0,1,2.59-4Z"/><path class="cls-4" d="M383.86,1399l5.31,2.74.05,0A2.41,2.41,0,1,1,387,1406h0l-5.4-2.81a2.4,2.4,0,0,1,2.22-4.26Z"/><path class="cls-4" d="M405.45,1409.2l5.53,2.25,0,0a2.43,2.43,0,1,1-1.83,4.5h0l-5.64-2.31a2.42,2.42,0,0,1,1.84-4.48Z"/><path class="cls-4" d="M427.88,1417.45l5.71,1.75h.05a2.46,2.46,0,0,1-1.43,4.7h0l-5.81-1.79a2.44,2.44,0,1,1,1.44-4.67Z"/><path class="cls-4" d="M451,1423.68l5.85,1.24h.05a2.48,2.48,0,1,1-1,4.85h0l-5.94-1.28a2.47,2.47,0,1,1,1-4.83Z"/><path class="cls-4" d="M474.48,1427.89l5.93.74h0a2.5,2.5,0,1,1-.62,5h0l-6-.76a2.49,2.49,0,0,1,.63-4.95Z"/><path class="cls-4" d="M498.28,1430.11l6,.24h.05a2.52,2.52,0,1,1-.21,5h0l-6.08-.26a2.52,2.52,0,1,1,.22-5Z"/><path class="cls-4" d="M522.19,1430.36l6-.23h.05a2.55,2.55,0,1,1,.2,5.09h0l-6.08.23a2.54,2.54,0,1,1-.19-5.08Z"/><path class="cls-4" d="M546.05,1428.72l5.94-.7h0a2.55,2.55,0,1,1,.6,5.07h0l-6,.71a2.55,2.55,0,0,1-.6-5.07Z"/><path class="cls-4" d="M569.71,1425.22l5.87-1.17h0a2.56,2.56,0,1,1,1,5h0l-6,1.17a2.56,2.56,0,1,1-1-5Z"/><path class="cls-4" d="M593,1419.9l5.76-1.6.05,0a2.56,2.56,0,0,1,1.37,4.94h0l-5.85,1.63a2.56,2.56,0,0,1-1.38-4.94Z"/><path class="cls-4" d="M615.89,1412.83l5.63-2,0,0a2.57,2.57,0,0,1,1.75,4.83h0l-5.72,2.07a2.57,2.57,0,1,1-1.74-4.83Z"/><path class="cls-4" d="M638.14,1404l5.46-2.46,0,0a2.58,2.58,0,1,1,2.12,4.7h0l-5.54,2.49a2.57,2.57,0,1,1-2.11-4.69Z"/><path class="cls-4" d="M659.69,1393.63l5.28-2.84,0,0a2.58,2.58,0,0,1,2.44,4.55h0l-5.36,2.87a2.57,2.57,0,1,1-2.43-4.54Z"/><path class="cls-4" d="M680.52,1381.79l5.09-3.16,0,0a2.58,2.58,0,1,1,2.73,4.39h0l-5.16,3.2a2.58,2.58,0,0,1-2.72-4.39Z"/><path class="cls-4" d="M700.59,1368.7l4.9-3.46,0,0a2.59,2.59,0,0,1,3,4.24h0l-5,3.49a2.59,2.59,0,1,1-3-4.23Z"/><path class="cls-4" d="M719.91,1354.49l4.72-3.71,0,0a2.6,2.6,0,1,1,3.21,4.08h0l-4.77,3.75a2.59,2.59,0,1,1-3.2-4.08Z"/><path class="cls-4" d="M738.5,1339.31l4.54-3.93,0,0a2.61,2.61,0,0,1,3.41,3.94h0l-4.59,4a2.6,2.6,0,1,1-3.4-3.93Z"/><path class="cls-4" d="M756.41,1323.31l4.38-4.11,0,0a2.61,2.61,0,0,1,3.57,3.8h0l-4.41,4.15a2.61,2.61,0,0,1-3.57-3.8Z"/><path class="cls-4" d="M773.7,1306.63l4.23-4.27h0a2.61,2.61,0,1,1,3.71,3.68h0l-4.27,4.29a2.61,2.61,0,1,1-3.7-3.68Z"/><path class="cls-4" d="M790.44,1289.37l4.11-4.39h0a2.61,2.61,0,1,1,3.82,3.57h0l-4.13,4.42a2.62,2.62,0,1,1-3.82-3.58Z"/><path class="cls-4" d="M806.71,1271.65l4-4.49h0a2.62,2.62,0,1,1,3.92,3.49h0l-4,4.51a2.62,2.62,0,0,1-3.91-3.49Z"/><path class="cls-4" d="M822.59,1253.56l3.92-4.57h0a2.63,2.63,0,0,1,4,3.42h0l-3.94,4.59a2.62,2.62,0,1,1-4-3.42Z"/><path class="cls-4" d="M838.16,1235.19l3.86-4.63a2.63,2.63,0,1,1,4.05,3.36h0l-3.87,4.64a2.63,2.63,0,1,1-4-3.37Z"/><path class="cls-4" d="M853.51,1216.61l3.81-4.67a2.64,2.64,0,0,1,4.09,3.33h0l-3.82,4.68a2.64,2.64,0,0,1-4.08-3.34Z"/><path class="cls-4" d="M868.71,1197.9l3.78-4.7a2.65,2.65,0,0,1,4.12,3.32h0l-3.79,4.7a2.64,2.64,0,0,1-4.11-3.32Z"/><path class="cls-4" d="M883.84,1179.11l3.78-4.69a2.65,2.65,0,1,1,4.13,3.32h0l-3.78,4.7a2.65,2.65,0,1,1-4.12-3.33Z"/><path class="cls-4" d="M899,1160.33l3.8-4.69a2.66,2.66,0,0,1,4.13,3.34h0l-3.79,4.68a2.66,2.66,0,0,1-4.13-3.34Z"/><path class="cls-4" d="M914.22,1141.61l3.83-4.67a2.66,2.66,0,0,1,4.11,3.38h0l-3.83,4.65a2.66,2.66,0,1,1-4.11-3.37Z"/><path class="cls-4" d="M929.63,1123l3.89-4.62a2.67,2.67,0,1,1,4.08,3.43h0l-3.88,4.6a2.66,2.66,0,1,1-4.08-3.42Z"/><path class="cls-4" d="M945.29,1104.61l4-4.56a2.67,2.67,0,1,1,4,3.5h0l-3.95,4.54h0a2.67,2.67,0,0,1-4-3.5Z"/><path class="cls-4" d="M961.29,1086.48l4.06-4.48a2.68,2.68,0,0,1,4,3.59h0l-4,4.46h0a2.67,2.67,0,0,1-4-3.59Z"/><path class="cls-4" d="M977.7,1068.7l4.17-4.38a2.68,2.68,0,1,1,3.88,3.7h0v0l-4.15,4.35h0a2.68,2.68,0,1,1-3.87-3.7Z"/><path class="cls-4" d="M994.59,1051.37l4.31-4.25a2.68,2.68,0,1,1,3.77,3.82h0v0l-4.28,4.22h0a2.68,2.68,0,1,1-3.77-3.82Z"/><path class="cls-4" d="M1012,1034.58l4.46-4.09a2.69,2.69,0,1,1,3.65,4h0l0,0-4.43,4.06v0a2.7,2.7,0,0,1-3.65-4Z"/><path class="cls-4" d="M1030.13,1018.46l4.62-3.92a2.7,2.7,0,0,1,3.49,4.12h0l0,0-4.58,3.87,0,0a2.69,2.69,0,1,1-3.48-4.11Z"/><path class="cls-4" d="M1048.9,1003.11l4.8-3.7a2.7,2.7,0,1,1,3.3,4.28h0l0,0-4.75,3.66,0,0a2.7,2.7,0,1,1-3.29-4.28Z"/><path class="cls-4" d="M1068.42,988.7l5-3.44a2.71,2.71,0,1,1,3.07,4.46h0l0,0-4.94,3.4,0,0a2.71,2.71,0,1,1-3.07-4.46Z"/><path class="cls-4" d="M1088.69,975.35l5.18-3.16a2.71,2.71,0,1,1,2.83,4.63h0l0,0-5.11,3.12,0,0a2.71,2.71,0,0,1-2.83-4.63Z"/><path class="cls-4" d="M1109.64,963.11l5.34-2.89a2.72,2.72,0,0,1,2.58,4.79h0l-5.28,2.85,0,0a2.72,2.72,0,0,1-2.58-4.78Z"/><path class="cls-4" d="M1131.21,952l5.48-2.6a2.72,2.72,0,1,1,2.33,4.92h0l0,0-5.42,2.57h0a2.72,2.72,0,1,1-2.33-4.92Z"/><path class="cls-4" d="M1153.33,942l5.61-2.31a2.73,2.73,0,0,1,2.08,5h0l-5.54,2.28,0,0a2.73,2.73,0,0,1-2.07-5.05Z"/><path class="cls-4" d="M1175.94,933.22l5.72-2a2.74,2.74,0,1,1,1.82,5.16h0l-5.65,2,0,0a2.73,2.73,0,0,1-1.81-5.16Z"/><path class="cls-4" d="M1199,925.6l5.82-1.72a2.74,2.74,0,0,1,1.55,5.26h0l-5.75,1.69h0a2.74,2.74,0,1,1-1.55-5.25Z"/><path class="cls-4" d="M1222.37,919.17l5.9-1.41a2.74,2.74,0,1,1,1.28,5.33h0l-5.83,1.4h0a2.75,2.75,0,0,1-1.28-5.34Z"/><path class="cls-4" d="M1246.06,914l6-1.12a2.75,2.75,0,0,1,1,5.41h0l-5.9,1.1h0a2.75,2.75,0,0,1-1-5.41Z"/><path class="cls-4" d="M1270,909.94l6-.81a2.75,2.75,0,0,1,.74,5.46h0l-5.94.8h0a2.75,2.75,0,0,1-.73-5.46Z"/><path class="cls-4" d="M1294.08,907.14l6.05-.5a2.76,2.76,0,0,1,.46,5.5h0l-6,.5h0a2.76,2.76,0,0,1-.47-5.5Z"/><path class="cls-4" d="M1318.29,905.57l6.07-.2a2.77,2.77,0,0,1,.18,5.53h0l-6,.2h0a2.77,2.77,0,1,1-.19-5.53Z"/><path class="cls-4" d="M1342.55,905.22l6.06.11a2.77,2.77,0,1,1-.09,5.54h0l-6-.11h0a2.77,2.77,0,1,1,.1-5.54Z"/><path class="cls-4" d="M1366.79,906.1l6.06.41a2.78,2.78,0,0,1-.38,5.54h0l-6-.41h0a2.78,2.78,0,0,1,.37-5.54Z"/><path class="cls-4" d="M1391,908.21l6,.72a2.78,2.78,0,0,1-.66,5.52h0l-6-.71h0a2.78,2.78,0,1,1,.66-5.52Z"/><path class="cls-4" d="M1415,911.55l6,1a2.79,2.79,0,0,1-.94,5.5h0l-5.9-1h0a2.78,2.78,0,0,1,.94-5.49Z"/><path class="cls-4" d="M1438.82,916.11l5.92,1.33a2.79,2.79,0,0,1-1.22,5.45h0l-5.85-1.32h0a2.79,2.79,0,0,1,1.22-5.45Z"/><path class="cls-4" d="M1462.39,921.9l5.84,1.64a2.8,2.8,0,0,1-1.51,5.39h0l-5.77-1.63h0a2.79,2.79,0,1,1,1.51-5.38Z"/><path class="cls-4" d="M1485.62,928.91l5.75,1.94a2.8,2.8,0,1,1-1.8,5.31h0l-5.68-1.92h0a2.8,2.8,0,0,1,1.8-5.31Z"/><path class="cls-4" d="M1508.45,937.13l5.64,2.24a2.81,2.81,0,0,1-2.08,5.22h0l0,0-5.57-2.21,0,0a2.8,2.8,0,0,1,2.07-5.21Z"/><path class="cls-4" d="M1530.82,946.54l5.51,2.54a2.81,2.81,0,1,1-2.35,5.11h0l-5.44-2.51,0,0a2.81,2.81,0,0,1,2.36-5.11Z"/><path class="cls-4" d="M1552.65,957.14,1558,960a2.82,2.82,0,1,1-2.63,5h0l0,0-5.3-2.8h0a2.82,2.82,0,0,1,2.63-5Z"/><path class="cls-4" d="M1573.89,968.9l5.2,3.12a2.83,2.83,0,1,1-2.9,4.85h0l0,0-5.14-3.09h0a2.83,2.83,0,0,1,2.9-4.85Z"/><path class="cls-4" d="M1594.45,981.8l5,3.39a2.83,2.83,0,1,1-3.16,4.69h0l0,0-5-3.36,0,0a2.82,2.82,0,1,1,3.16-4.68Z"/><path class="cls-4" d="M1614.32,995.7l4.87,3.59a2.83,2.83,0,1,1-3.36,4.56h0l-4.84-3.56,0,0a2.84,2.84,0,1,1,3.37-4.56Z"/><path class="cls-4" d="M1633.66,1010.24l4.78,3.69a2.84,2.84,0,0,1-3.48,4.5h0l-4.76-3.69h0a2.84,2.84,0,1,1,3.48-4.49Z"/><path class="cls-4" d="M1652.7,1025.09l4.74,3.72a2.85,2.85,0,0,1-3.52,4.48h0l-4.74-3.73a2.84,2.84,0,0,1,3.52-4.47Z"/><path class="cls-4" d="M1671.67,1040l4.76,3.69a2.85,2.85,0,1,1-3.48,4.52h0l-4.77-3.71a2.85,2.85,0,1,1,3.5-4.49Z"/><path class="cls-4" d="M1690.78,1054.6l4.82,3.59h0a2.86,2.86,0,1,1-3.41,4.59h0l-4.85-3.62a2.86,2.86,0,1,1,3.41-4.58Z"/><path class="cls-4" d="M1710.24,1068.69l4.94,3.4,0,0a2.86,2.86,0,0,1-3.24,4.72h0l-5-3.44a2.86,2.86,0,0,1,3.24-4.71Z"/><path class="cls-4" d="M1730.24,1081.9l5.11,3.11.05,0a2.87,2.87,0,1,1-3,4.89h0l-5.19-3.16a2.87,2.87,0,1,1,3-4.89Z"/><path class="cls-4" d="M1751,1093.81l5.32,2.72,0,0a2.87,2.87,0,0,1-2.61,5.12h0l-5.43-2.78a2.87,2.87,0,0,1,2.62-5.11Z"/><path class="cls-4" d="M1772.57,1103.93l5.54,2.18.07,0a2.88,2.88,0,0,1-2.11,5.36h0l-5.68-2.24a2.88,2.88,0,1,1,2.11-5.35Z"/><path class="cls-4" d="M1795,1111.7l5.75,1.51.09,0a2.89,2.89,0,0,1-1.47,5.58h0l-5.92-1.56a2.88,2.88,0,1,1,1.47-5.57Z"/><path class="cls-4" d="M1818.26,1116.57l5.88.71.1,0a2.89,2.89,0,1,1-.69,5.73h0l-6.09-.74a2.89,2.89,0,1,1,.7-5.73Z"/><path class="cls-4" d="M1841.87,1118.08l5.91-.21h.11a2.89,2.89,0,1,1,.2,5.78h0l-6.14.21a2.89,2.89,0,1,1-.2-5.78Z"/><path class="cls-4" d="M1865.41,1115.86l5.81-1.11.11,0a2.9,2.9,0,0,1,1.1,5.7h0l-6,1.16a2.9,2.9,0,1,1-1.1-5.69Z"/><path class="cls-4" d="M1888.38,1110.11l5.59-1.95.1,0a2.91,2.91,0,1,1,1.91,5.49h0l-5.79,2a2.9,2.9,0,1,1-1.91-5.48Z"/><path class="cls-4" d="M1910.34,1101.17l5.3-2.68.08,0a2.91,2.91,0,1,1,2.63,5.19h0l-5.47,2.76a2.91,2.91,0,0,1-2.62-5.19Z"/><path class="cls-4" d="M1931,1089.46l4.94-3.31.07-.05a2.91,2.91,0,0,1,3.25,4.84h0l-5.08,3.41a2.91,2.91,0,0,1-3.25-4.84Z"/><path class="cls-4" d="M1950.16,1075.37l4.53-3.85.06,0a2.92,2.92,0,1,1,3.78,4.45h0l-4.66,4a2.92,2.92,0,0,1-3.77-4.45Z"/><path class="cls-4" d="M1967.66,1059.25l4.11-4.32,0,0a2.92,2.92,0,0,1,4.24,4h0l-4.21,4.42a2.92,2.92,0,1,1-4.24-4Z"/><path class="cls-4" d="M1983.4,1041.38l3.65-4.71,0-.06a2.93,2.93,0,0,1,4.63,3.59h0L1988,1045a2.93,2.93,0,0,1-4.63-3.59Z"/><path class="cls-4" d="M1997.28,1022l3.17-5,0-.07a2.94,2.94,0,0,1,5,3.12h0l-3.25,5.17a2.93,2.93,0,1,1-5-3.12Z"/><path class="cls-4" d="M2009.18,1001.37l2.65-5.33,0-.07a2.94,2.94,0,1,1,5.26,2.62h0l-2.72,5.47a2.94,2.94,0,0,1-5.26-2.62Z"/><path class="cls-4" d="M2019,979.66l2.1-5.57,0-.07a2.95,2.95,0,1,1,5.51,2.09h0l-2.16,5.71a2.95,2.95,0,0,1-5.51-2.09Z"/><path class="cls-4" d="M2026.56,957.09l1.53-5.77,0-.06a2.95,2.95,0,0,1,5.7,1.52h0l-1.57,5.89a2.95,2.95,0,0,1-5.7-1.52Z"/><path class="cls-4" d="M2031.93,933.85l1-5.88v-.07a3,3,0,0,1,5.83,1h0l-1,6a3,3,0,1,1-5.82-1Z"/><path class="cls-4" d="M2035.28,910.21l.53-5.94v-.06a3,3,0,1,1,5.9.52h0l-.54,6.07a3,3,0,1,1-5.9-.53Z"/><path class="cls-4" d="M2036.67,886.38l0-6v0a3,3,0,1,1,5.93,0h0l-.06,6.09a3,3,0,1,1-5.93-.06Z"/><path class="cls-4" d="M2036.19,862.49l-.4-6v-.06a3,3,0,0,1,5.93-.4h0l.41,6.08a3,3,0,1,1-5.93.39Z"/><path class="cls-4" d="M2033.93,838.69l-.83-5.92v0a3,3,0,0,1,5.9-.83h0l.85,6a3,3,0,0,1-5.9.83Z"/><path class="cls-4" d="M2030,815.11l-1.24-5.85v0a3,3,0,1,1,5.84-1.24h0l1.26,5.94a3,3,0,1,1-5.83,1.24Z"/><path class="cls-4" d="M2024.43,791.85l-1.63-5.76V786a3,3,0,1,1,5.75-1.63h0l1.66,5.85a3,3,0,0,1-5.75,1.62Z"/><path class="cls-4" d="M2017.36,769l-2-5.64,0,0a3,3,0,1,1,5.65-2h0l2,5.73a3,3,0,0,1-5.65,2Z"/><path class="cls-4" d="M2008.82,746.64l-2.35-5.51,0,0a3,3,0,1,1,5.52-2.36h0l2.39,5.59a3,3,0,0,1-5.52,2.36Z"/><path class="cls-4" d="M1998.89,724.86l-2.7-5.34,0,0a3,3,0,1,1,5.37-2.71h0l2.73,5.43a3,3,0,1,1-5.36,2.71Z"/><path class="cls-4" d="M1987.6,703.77l-3-5.16,0,0a3,3,0,0,1,5.19-3.05h0l3.08,5.24a3,3,0,0,1-5.19,3Z"/><path class="cls-4" d="M1975,683.44l-3.35-5,0,0a3,3,0,1,1,5-3.38l3.42,5a3,3,0,0,1-5,3.38h0Z"/><path class="cls-4" d="M1961,664.09l-3.73-4.68,0,0a3,3,0,0,1,4.64-3.7l3.8,4.74a3,3,0,0,1-4.64,3.73h0Z"/><path class="cls-4" d="M1945.65,645.69l-4-4.47,0,0a2.93,2.93,0,0,1,4.37-3.9l4,4.52a2.92,2.92,0,0,1-.22,4.14,3,3,0,0,1-4.15-.22h0Z"/><path class="cls-4" d="M1929.41,628l-4.18-4.31,0,0a2.88,2.88,0,0,1,4.14-4l4.22,4.33a2.89,2.89,0,0,1-4.14,4h0Z"/><path class="cls-4" d="M1912.49,611l-4.32-4.18h0a2.84,2.84,0,0,1,3.94-4.09l4.37,4.2a2.85,2.85,0,0,1-4,4.1h0Z"/><path class="cls-4" d="M1895,594.44l-4.44-4.06h0a2.8,2.8,0,0,1,3.77-4.13l4.47,4.07a2.8,2.8,0,0,1-3.77,4.15h0Z"/><path class="cls-4" d="M1877.15,578.36l-4.53-4h0a2.75,2.75,0,0,1,3.6-4.15l4.57,4a2.76,2.76,0,0,1-3.61,4.17h0Z"/><path class="cls-4" d="M1858.9,562.67l-4.6-3.87h0a2.66,2.66,0,0,1,3.41-4.09l4.67,3.84a2.7,2.7,0,1,1-3.43,4.16l0,0Z"/><path class="cls-4" d="M1840.35,547.34l-4.69-3.78h0a2.53,2.53,0,0,1,3.16-4l4.75,3.74a2.57,2.57,0,1,1-3.18,4l0,0Z"/><path class="cls-4" d="M1821.48,532.39l-4.76-3.68h0a2.41,2.41,0,0,1,2.93-3.83l4.82,3.64a2.45,2.45,0,1,1-3,3.9l0,0Z"/><path class="cls-4" d="M1802.31,517.82l-4.84-3.57h0a2.29,2.29,0,0,1,2.7-3.69l4.9,3.54a2.32,2.32,0,1,1-2.72,3.75h0Z"/><path class="cls-4" d="M1782.84,503.67l-4.92-3.47h0a2.16,2.16,0,0,1,2.47-3.54l5,3.43a2.19,2.19,0,0,1-2.49,3.61h0Z"/><path class="cls-4" d="M1763.07,489.93l-5-3.37h0a2,2,0,0,1,2.18-3.29l5.07,3.3a2,2,0,1,1-2.21,3.39h0Z"/><path class="cls-4" d="M1743,476.67l-5.08-3.22h0a1.77,1.77,0,0,1,1.87-3l5.16,3.16a1.82,1.82,0,1,1-1.9,3.1h0Z"/><path class="cls-4" d="M1722.49,464l-5.19-3h0a1.57,1.57,0,0,1,1.56-2.72l5.27,3a1.62,1.62,0,1,1-1.59,2.82h0Z"/><path class="cls-4" d="M1701.54,452.22l-5.32-2.78h0a1.3,1.3,0,0,1,1.18-2.32l5.43,2.68a1.37,1.37,0,1,1-1.22,2.46h0Z"/><polygon class="cls-29" points="1680.55 396.99 1671.99 432.47 1651.64 411.41 1680.55 396.99"/><path class="cls-30" d="M1525.92,338.11l75.53,107.17a9.24,9.24,0,0,0,13.15,2l104.75-79.89a3.7,3.7,0,0,0-1.81-6.62Z"/><polygon class="cls-31" points="1680.54 396.99 1525.92 338.11 1663.67 409.93 1661.72 419.87 1680.54 396.99"/><polygon class="cls-32" points="1653.62 417.53 1671.99 432.47 1663.67 409.93 1653.62 417.53"/><rect class="cls-33" x="2249.05" y="1409.49" width="10.69" height="115.64"/><path class="cls-34" d="M2301.22,1527.36h-93.65a7,7,0,0,1,7-7h79.73a7,7,0,0,1,7,7Z"/><rect class="cls-35" x="2188.44" y="1379.56" width="131.92" height="37.41" rx="12.88"/><path class="cls-36" d="M1768.27,1108.54c1.72-6.15,7.35-13.18,12.58-16.66,10.64-7.07,26.88-7.08,39.11-5.66a46.65,46.65,0,0,1,19.2,6.61c7.53,4.61,13.12,11.37,20.19,16.45a48.09,48.09,0,0,0,15.66,7.23c2.68.52,5.38,1,8.08,1.33,25.18,3.34,67.11-11.06,79.54,20.31,3.91,9.88,3.17,20.86,5.49,31.11,2.78,12.3,10.3,15.94,18.07,24.8a50.36,50.36,0,0,1,9.36,14.84,41.1,41.1,0,0,1-2.68,34.7c-20,36-75,26.82-108.89,29.57-16.79,1.36-33.34,4.47-49.93,7.32-12.52,2.15-27.69,5.82-36.74-5.93-5.82-7.56-8.64-18.83-10.11-28.1-10.65-66.93,11.51-98.56-16.53-120.28l16.45-16.13Z"/><rect class="cls-37" x="1860.53" y="1409.49" width="10.69" height="115.64"/><path class="cls-38" d="M1912.7,1527.36h-93.65a7,7,0,0,1,7-7h79.73a7,7,0,0,1,7,7Z"/><rect class="cls-39" x="1808.85" y="1383.58" width="117.75" height="33.4" rx="11.5"/><path class="cls-40" d="M1786.94,1332.39s-15.89,2.46-33.76,14.4a8.92,8.92,0,0,0-3.93,8.51c2.14,17,10.94,71.79,39.94,125.36a13.44,13.44,0,0,1,1.29,9.25l-5,23.45-9.35,8.76h24.07l16-43.37-6.86-2.17a13,13,0,0,1-9-12.13l-.81-46.52c.69-20.73-12.7-35-12.7-35l38.43-1.87Z"/><path class="cls-41" d="M1766.7,1526.35c-2.19,2.87,23.6,6.65,36.62.38,0,0,18.06-31.42,18.06-47.59,0,0-1.43-3.3-12-2.56,0,0-6.06,37.21-12.46,41.37s-17.91.42-17.91.42S1769.94,1522.12,1766.7,1526.35Z"/><path class="cls-42" d="M1820.35,1383.58c-.2-.35-41.38-4.95-41.38-4.95s1.34,12.52-2.87,29.76-64.67,91.91-64.67,91.91l6.34,20.09c-19.6,6.83-38.88,7.92-57.86,3.49l39.29-23.58S1736,1375,1758.49,1352.64l41.28-14.28Z"/><path class="cls-43" d="M1912.7,1310.67s23.73,35.29,25.68,51.39-6.5,22.63-31.4,23.71-91.35,1.06-91.35,1.06l-56.72-48.47s41.33-14.75,52.08-18.92S1912.7,1310.67,1912.7,1310.67Z"/><path class="cls-44" d="M1715.37,1513.63s6.83,6.61,2.22,14c0,0-54.07,9.59-68.75,5.24,0,0,3.05-7,19.58-14.88l-1.22.94a2,2,0,0,0,1.3,3.54C1679.4,1521.81,1701.94,1519.81,1715.37,1513.63Z"/><path class="cls-45" d="M1848.54,1306s-27.63-26.31-41.23-43.73a37,37,0,0,1-6.26-33.28c6.21-20.92,17.24-42.58,18.25-46,1.54-5.16,32.52-5,32.52-5s61,39.56,84.91,106.58l-26.9,8.38s-15.91-26.71-31.64-43.68c0,0,27.21,36,28.17,50.66Z"/><path class="cls-46" d="M1815.55,1154.15c.33,1.07,8.41,27.88,9,28.43s17.73,1.48,25.78-4l-20-39Z"/><path class="cls-47" d="M1783.14,1119.7s-3.91,15.36,6.9,36,23,20.63,29.74,14,14.94-17.82,13-37.79S1788.78,1100.17,1783.14,1119.7Z"/><path class="cls-48" d="M1817.81,1133s-17.94-27.42-34.76-5.84l-.3,7.85s-19.7-2.34-16.26-20.4,20.48-29.35,42.4-21.53,34.49,15.85,35.91,31.56-11.09,12.27-11.09,12.27-4.08-11.07-9.87-12.22-4.29,7.48-4.29,7.48Z"/><path class="cls-49" d="M1822.4,1132.65s-9.3-14,.23-16.13,8,13.68,7,19.52Z"/><path class="cls-50" d="M1792.25,1308l20.3-19.56,28.08,11.86s28,4.33,43.95,0l16-4.33,36.15-11.26,5.68,16a9.67,9.67,0,0,1-3.53,11.1,63.82,63.82,0,0,1-9.13,5.69c-4.76,2.08-117.36-1.44-117.36-1.44Z"/><path class="cls-51" d="M1869.07,1317.18h-.27l-117.75-.13a5.27,5.27,0,1,1,0-10.54l117.75.13a5.27,5.27,0,0,1,.26,10.54Z"/><path class="cls-52" d="M1645.19,1210.26h98.07a18.69,18.69,0,0,1,16.9,10.72l45.34,96.13H1683.63a11.36,11.36,0,0,1-10.56-7.18l-35.16-89A7.83,7.83,0,0,1,1645.19,1210.26Z"/><path class="cls-53" d="M2005.65,1498.13s2.12,11.37,3.22,22.64a7.79,7.79,0,0,1-7.36,8.49c-15,.77-47.12,2.29-58.65,1.89a2.52,2.52,0,0,1-2.25-3.44h0a5.64,5.64,0,0,1,2.86-3.08l52.83-24.89Z"/><path class="cls-54" d="M2007.24,1491.42l-1.49,13.64s-9.25,4.42-15.65-.39l3.71-15.22Z"/><path class="cls-55" d="M2003.58,1235.27c.73,3.55,5.44,177.53-12.42,255.68a2.66,2.66,0,0,0,1.58,3.07,46.11,46.11,0,0,0,15.18,2.93,4.54,4.54,0,0,0,4.49-3.31c5.15-18.15,29.76-109,32.26-195.66,2.79-96.79,0-3.29,0-3.29l-2.75-59.79Z"/><path class="cls-56" d="M2066.74,1503.49s3.26,5.72,6.51,21a4.75,4.75,0,0,1-4.12,5.72c-5,.54-12.58,1.24-18.7,1.25a4.73,4.73,0,0,1-4.73-5.23c.63-5.58,2.65-14.75,9.1-22Z"/><path class="cls-57" d="M2069.39,1485.94l-3.58,20.64s-3.71,2.82-11.12.87l1.59-22.18Z"/><path class="cls-58" d="M2077.25,1239.91c16.08,91.66-1.14,226.94-7.13,253.44a4.12,4.12,0,0,1-3.3,3.16,27.66,27.66,0,0,1-11.9-.36,3.77,3.77,0,0,1-2.75-3.45c-1-21.37-.79-152.63-15.46-204.36a11.75,11.75,0,0,0-4.6-6.45l-27.7-19.3L2002,1231Z"/><path class="cls-59" d="M1978.65,1066.88c45.59-1.19,96,11,96,11,14.34,79.16,4,170.73,4,170.73-35.2,9.59-75.16-5-75.16-5-6.18-33.08-34.44-126.09-34.44-126.09-22.3-2.55-40.71-8.8-55.9-17.16,11.4-13.47,16.67-30.52,18.93-40.59C1948.26,1064.72,1964.6,1067.24,1978.65,1066.88Z"/><path class="cls-60" d="M1843.35,1001a8.72,8.72,0,0,1,10.12-2.94c7,28.27,42.38,50.91,78.62,61.8-2.26,10.07-7.53,27.12-18.93,40.59C1852.86,1067.31,1843.35,1001,1843.35,1001Z"/><path class="cls-61" d="M1844.46,1002.38c-.46,1.49,5,3.71,8.13-2.41.08-2.92,1.74-15.45,0-17.81-9.42-12.58-27.58-28.29-27.58-28.29a4.28,4.28,0,0,0-.48,6l8.82,9c-1.79,3.32-4,6.13-5,10.14a12.23,12.23,0,0,0,1.3,9,106.88,106.88,0,0,0,5.7,9.11A12.09,12.09,0,0,0,1844.46,1002.38Z"/><path class="cls-62" d="M1837.2,974.72l8,6.68,2.57,6.7-7,7.94s-2.51-13.31-4.32-16.18S1835.56,975.58,1837.2,974.72Z"/><path class="cls-63" d="M2057.59,1122.24l17.07-44.31s42.86,28.53,50.21,65.15c-8,.67-22.66,2.9-36.92,10.27C2084.63,1136.06,2057.59,1122.24,2057.59,1122.24Z"/><path class="cls-64" d="M2020.78,1164.13s48.06,26.57,64,3.34a18.18,18.18,0,0,0,3.19-14.12c14.26-7.37,28.88-9.6,36.92-10.27a50.65,50.65,0,0,1-5.17,34.76c-27.77,52-105.14-1.86-105.14-1.86Z"/><path class="cls-65" d="M2024.48,1029.43l14.9,41.81a1.5,1.5,0,0,1-.67,1.82c-3.93,2.23-18.12,8.68-35.39-2a7.08,7.08,0,0,1-3.32-5l-5-36.26Z"/><path class="cls-66" d="M1992.55,990.88s-15.65,30.14-13.49,42.23,21.89,11,39,1l11.73-32.49Z"/><path class="cls-67" d="M2017.18,1018.25a1.24,1.24,0,0,1-.56-1.8c1.26-2,3.62-6,4.35-9.45,0,0,2.84-1.86-7.33-4.2s-25.35-6-28.62-14.57c-3.18-8.39,4.77-29.66,17.94-12.9a1.22,1.22,0,0,0,2,0c2.11-2.79,7.66-8.6,15.47-5.19,7.32,3.2,8.19,8.53,8.11,11.22a1.24,1.24,0,0,0,1.47,1.25c3.68-.74,12.51-1.43,16.72,7.59,3.47,7.44,1.3,11.68-.69,13.77a1.23,1.23,0,0,0,.54,2c2.43.72,5.57,2.74,5.32,8.41-.36,7.84-9.13,7.24-11.63,6.9a1.24,1.24,0,0,0-1.09.4c-2.12,2.39-11.66,12.53-22.08,13.84a1.24,1.24,0,0,1-1.32-1.63l4.39-13.17a1.25,1.25,0,0,0-.69-1.53Z"/><path class="cls-68" d="M2015.38,1020.13s11.27-7.89,12.16-1.34-10.12,9.59-15.61,7.19Z"/><path class="cls-69" d="M2030.6,1206.11l-26.18-91.44a2.7,2.7,0,0,0-2.26-1.92c-4.74-.55-18.49-2.1-34.36-3.45-19.12-1.61-41.32-2.92-54.59-1.81a2.68,2.68,0,0,0-2.18,3.85c7.54,15.27,38.57,77.35,54.11,97.69a2.68,2.68,0,0,0,2.16,1.06l60.75-.56A2.68,2.68,0,0,0,2030.6,1206.11Z"/><path class="cls-70" d="M2024.27,1184s3.65-15,2.18-20.32-4.32-12.16-13.82-10.64a139.24,139.24,0,0,0-20.71,5.52s.56,6.94,7.78,4.7l-4.47,3.46s.64,5.55,6.74,2.59l-4.17,4.59s2.62,4.56,7.11,1.64S2011.55,1185.83,2024.27,1184Z"/><path class="cls-4" d="M2001.45,1141.67l2-.58-5.33-18.08a8.24,8.24,0,0,0-6.2-5.78c-16.9-3.52-61.4-4.24-63.29-4.27l0,2c.46,0,46.2.75,62.9,4.23a6.2,6.2,0,0,1,4.66,4.35Z"/><path class="cls-71" d="M2130.55,1526.35c16.68,0,24-1.43,27.35-2.74a6.32,6.32,0,0,1-6.16,4.9h-59a2.87,2.87,0,0,1-2.77-3.62C2096.72,1525.43,2111,1526.35,2130.55,1526.35Z"/><path class="cls-72" d="M2090,1524.89a2.74,2.74,0,0,1,.49-1c4.49-5.74,13.52-14.75,25.79-14.57,18,.25,24.26,2.2,38.23.11l3.3,10.92a6.25,6.25,0,0,1,.1,3.26c-3.3,1.31-10.67,2.74-27.35,2.74C2111,1526.35,2096.72,1525.43,2090,1524.89Z"/><path class="cls-73" d="M2150.46,1497.65l4,13.76s-9,4.08-16.85.81l-1.55-11.93Z"/><path class="cls-74" d="M2028.21,1517.68c13,10.44,19.64,14,23,15a6.33,6.33,0,0,1-7.86-.06l-46-36.94a2.86,2.86,0,0,1,.11-4.54C2002.41,1495.78,2013,1505.43,2028.21,1517.68Z"/><path class="cls-75" d="M1997.51,1491.15a2.73,2.73,0,0,1,1-.48c7.08-1.64,19.73-3,29.19,4.85,13.86,11.46,17.53,16.9,29.73,24l-4.24,10.55a6.23,6.23,0,0,1-2,2.59c-3.39-1.06-10-4.57-23-15C2013,1505.43,2002.41,1495.78,1997.51,1491.15Z"/><path class="cls-76" d="M2237,1340.83s-99.81,8.15-120.29,17.79,16.71,144.73,16.71,144.73,5.58,2.68,18-1.17c0,0-12.72-99.7-3.26-121.32l108.08-17.67Z"/><path class="cls-77" d="M2067.35,1500.57c-.93.85-9.92,19-9.92,19s-10-2.16-12-8.5l9-16.36Z"/><path class="cls-78" d="M2297.15,1340a50.65,50.65,0,0,1,3.12,18.23,27.37,27.37,0,0,1-26.12,26.77l-118,5.38a5.68,5.68,0,0,0-5.23,4.26c-2.77,10.72-16.32,43.66-82.57,109.38a5.35,5.35,0,0,1-6.61.72l-9.43-6a2.17,2.17,0,0,1-.72-2.93l68.71-117.32a26.62,26.62,0,0,1,16.15-12l100.57-25.7Z"/><path class="cls-79" d="M2180.86,1156.73s12.64,22.35,25.53,33.17l-26.64,14.87s-6-23.66-19.71-30.59Z"/><path class="cls-80" d="M2299.29,1340.83s-31.85,7.76-62.26,0c0,0-42.54-57.2-59-72.76,0,0-26.26,41.43-84.7,47.3l-3.26-7.28s46.53-21.45,60.85-54.4,20.07-47,33.1-55.61c8.12-5.35,13-9,15.49-11a4.16,4.16,0,0,1,4.77-.3C2218.11,1195.19,2283.18,1239.76,2299.29,1340.83Z"/><path class="cls-81" d="M2182.49,1263.34a1.91,1.91,0,0,0,1.51-.75,53.62,53.62,0,0,0,6.78-12,1.9,1.9,0,1,0-3.54-1.36,50.92,50.92,0,0,1-6.25,11.09,1.89,1.89,0,0,0,1.5,3Z"/><path class="cls-82" d="M2096.85,1304.28l-6.58-1.75-20-4.63a9.26,9.26,0,0,0-7,1.19l-17.18,10.8,47.43-.08Z"/><path class="cls-83" d="M2160.79,1123.21s-12.28,20.42-14.41,31.71-5.55,18.34,7.29,22.36,24.78-1.06,32.28-11.6c0,0,11.7-16.21,10.53-23.64S2160.79,1123.21,2160.79,1123.21Z"/><path class="cls-84" d="M2182.53,1157l-1.67-.22s8.7-13.15,3-16.41-28.88-11.26-32.91-20.39c-3.89-8.81,1.92-18.76,8.93-20.83a.88.88,0,0,1,1.07.56l.41,1.11a.9.9,0,0,0,1.67,0h0a.89.89,0,0,1,1.63,0c1.24,2.74,5,7.41,16.12,11,15.82,5.13,25.68,13.11,24.47,24.35a.9.9,0,0,0,1.28.92c1.3-.57,3.26-.66,5.54,1.83,4,4.33.86,13.8-10,20.51a.9.9,0,0,0-.15,1.44c1.62,1.38,3.9,4.47-3.42,7.23-7.49,2.81-11.57,1.86-13.08,1.25a.9.9,0,0,1-.56-1l1.93-9.85a.92.92,0,0,0-.77-1.07Z"/><path class="cls-85" d="M2181.84,1159s5.42-13.36,11.12-8.67-5.26,15.08-10.32,15Z"/><path class="cls-86" d="M2115.17,1319.19h-.24l-101.31-.1a4.53,4.53,0,1,1,0-9l101.31.1a4.52,4.52,0,0,1,.23,9Z"/><path class="cls-87" d="M1974.39,1220l.1.21,42.63,91.9a4.53,4.53,0,1,1-8.21,3.81l-42.63-91.9a4.53,4.53,0,0,1,8.11-4Z"/><path class="cls-88" d="M2166.62,1538.66a3.6,3.6,0,0,0,1.51-.34,4.31,4.31,0,0,0,2-5.47l-80-203a3.71,3.71,0,0,0-5-2.18,4.32,4.32,0,0,0-2,5.47l80,203A3.84,3.84,0,0,0,2166.62,1538.66Z"/><path class="cls-89" d="M2076.48,1538.66a3.83,3.83,0,0,0,3.51-2.52l80-203a4.32,4.32,0,0,0-2-5.47,3.72,3.72,0,0,0-5,2.18l-80,203a4.32,4.32,0,0,0,2,5.47A3.52,3.52,0,0,0,2076.48,1538.66Z"/><path class="cls-90" d="M1623.59,1538.66a3.52,3.52,0,0,0,1.5-.34,4.32,4.32,0,0,0,2-5.47l-80-203a3.71,3.71,0,0,0-5-2.18,4.33,4.33,0,0,0-2,5.47l80,203A3.83,3.83,0,0,0,1623.59,1538.66Z"/><path class="cls-91" d="M1533.45,1538.66a3.82,3.82,0,0,0,3.5-2.52l80-203a4.32,4.32,0,0,0-2-5.47,3.71,3.71,0,0,0-5,2.18l-80,203a4.33,4.33,0,0,0,2,5.47A3.53,3.53,0,0,0,1533.45,1538.66Z"/><path class="cls-92" d="M1642.84,1315.05H1520v-13.87h122.84C1640.21,1301.18,1640.21,1315.05,1642.84,1315.05Z"/><path class="cls-93" d="M1521.15,1315.05a1.16,1.16,0,0,1-1.15-1.15v-11.58a1.15,1.15,0,0,1,1.15-1.14h124.28a1.16,1.16,0,0,0,1.15-1.15v-.84a1.16,1.16,0,0,0-1.15-1.15H1513a5.57,5.57,0,0,0-5.3,5.8v8.87a5.26,5.26,0,0,0,5,5.48h132.76a1.16,1.16,0,0,0,1.15-1.15v-.84a1.16,1.16,0,0,0-1.15-1.15Z"/><path class="cls-94" d="M1631.31,1295.3H1524.15v-12.1h107.16C1629,1283.2,1629,1295.3,1631.31,1295.3Z"/><path class="cls-95" d="M1525.3,1295.3a1.16,1.16,0,0,1-1.15-1.15v-9.8a1.15,1.15,0,0,1,1.15-1.15h108.12a1.15,1.15,0,0,0,1.15-1.15v-.44a1.15,1.15,0,0,0-1.15-1.15H1518a4.86,4.86,0,0,0-4.63,5.07v7.73a4.59,4.59,0,0,0,4.37,4.78h115.66a1.15,1.15,0,0,0,1.15-1.15v-.44a1.15,1.15,0,0,0-1.15-1.15Z"/><path class="cls-96" d="M1502.51,1323.55a3.53,3.53,0,0,1,1.44-3.77,8.61,8.61,0,0,1,5.3-1.65h694.4a9.4,9.4,0,0,1,6.65,2.41,3.78,3.78,0,0,1,.52,5l-7.52,10.8c-1.73,2.47-5.46,4.06-9.57,4.06H1514c-3.83,0-7.11-1.8-7.84-4.29Z"/><path class="cls-97" d="M1883.42,693.31c-61.65,6.72-128.93,44.42-136.84,111.24-6.72,56.82,52.77,88.33,89.84,103.38a45.7,45.7,0,0,1,23.74,22c11.88,23.91,39.62,65.66,84.08,53a3.23,3.23,0,0,0-.29-6.27c-10.51-2.08-24.93-7.13-32.64-19.32-10.5-16.61,0-38.54,19.43-41.5,36.76-5.6,108.87-27.55,120.84-113.6C2067.78,685.84,1883.42,693.31,1883.42,693.31Z"/><path class="cls-4" d="M1780.47,761.39a2.24,2.24,0,0,1-1.36-.45,2.29,2.29,0,0,1-.48-3.21c18-24.35,54.93-53.57,128.5-54.54a2.28,2.28,0,0,1,2.33,2.27,2.3,2.3,0,0,1-2.27,2.33c-71.69.94-107.47,29.16-124.87,52.67A2.28,2.28,0,0,1,1780.47,761.39Z"/><path class="cls-4" d="M1760,810.06h-.21a2.3,2.3,0,0,1-2.08-2.49A86.47,86.47,0,0,1,1762,789.5a2.3,2.3,0,0,1,4.36,1.48,83.92,83.92,0,0,0-4.07,17A2.29,2.29,0,0,1,1760,810.06Z"/><rect class="cls-4" x="1805.86" y="780.17" width="204.59" height="12.64" rx="6.26"/><path class="cls-4" d="M1912.75,818.68a6.32,6.32,0,0,1-6.32,6.32h-94.25a6.32,6.32,0,0,1-6.32-6.32h0a6.32,6.32,0,0,1,6.32-6.32h94.25a6.32,6.32,0,0,1,6.32,6.32Z"/><path class="cls-98" d="M349.19,1511.44c-11.1,1-30.39,2.52-45.59,3.19-9.13.4-14.39-.5-17.42-1.71,0,.34,0,.67,0,1a3.14,3.14,0,0,0,3,3,531,531,0,0,0,59.7.06,2.24,2.24,0,0,0,1.82-3.36A17.21,17.21,0,0,0,349.19,1511.44Z"/><path class="cls-99" d="M303.6,1514.63c15.2-.67,34.49-2.23,45.59-3.19C338.27,1498,303.6,1489,303.6,1489h-9.79a41,41,0,0,0-7.63,23.91C289.21,1514.13,294.47,1515,303.6,1514.63Z"/><path class="cls-100" d="M292.16,1473l.92,18.13a4.14,4.14,0,0,0,3.54,3.9,16.16,16.16,0,0,0,7.35-.61,4.89,4.89,0,0,0,3.29-3.77l3.17-17.65Z"/><path class="cls-101" d="M178.52,1532.35c-4.82-.86-7-4.1-7.91-7.56l0,.1a8.62,8.62,0,0,0,4.22,9.22,21.9,21.9,0,0,0,11.68,2.37,10.81,10.81,0,0,0,8.76-5.23l0,0C191.65,1533.53,186.56,1533.8,178.52,1532.35Z"/><path class="cls-102" d="M201.24,1478.61h-8.08c-12.3-.33-20,33.2-22.55,46.18.91,3.46,3.09,6.7,7.91,7.56,8,1.45,13.13,1.18,16.76-1.14,6.65-11.3,9.94-27.85,11.52-37.51C208.61,1482.71,201.24,1478.61,201.24,1478.61Z"/><path class="cls-103" d="M194.2,1461.78l-4.48,17.83a4.84,4.84,0,0,0,2.51,5.49c2.51,1.28,6,2.64,9.29,2.24a4,4,0,0,0,3.3-2.69l6.58-18.76Z"/><path class="cls-104" d="M351.93,1226.9s-40.07,250.47-39.41,251.84c0,0-11.07,5-23.13.65,0,0,3.62-133.9,12.11-185.24,0,0-68.38,119.68-90.1,179.31,0,0-11.33-1.35-20.7-7.52,0,0,73.63-215.41,93.27-244.1Z"/><path class="cls-105" d="M303.1,1293.28a1.62,1.62,0,0,0,1.37-.76l14.6-23.33,10.35-2.08a1.61,1.61,0,0,0-.64-3.16l-11,2.22a1.64,1.64,0,0,0-1.05.73l-15,23.91a1.61,1.61,0,0,0,.51,2.22A1.56,1.56,0,0,0,303.1,1293.28Z"/><path class="cls-106" d="M535.81,981.64s-27,6-43.49,13.55a15,15,0,0,0-7.35,7.4c-4.92,10.77-19.64,37.79-48.17,50.68,4.11,5.46,10.72,16.8,13.61,35.87,17.14-12.75,31.93-34.06,39-69a13.94,13.94,0,0,0,12.16-.34c3.56-1.73,7.68-4.18,10.77-6.11a14.12,14.12,0,0,0,6.26-8.42c1.18-4.61.48-8.67.48-13l13.9-4.31A4.94,4.94,0,0,0,535.81,981.64Z"/><path class="cls-107" d="M450.41,1089.14c-2.89-19.07-9.5-30.41-13.61-35.87-17.73,8-40.79,10.57-70.16.4a31.23,31.23,0,0,0-8.39-1.66c-15.64-.91-67.15-2.59-109.78,11.5a33.08,33.08,0,0,0-20,18.19c-11.53,26.46-30.2,86.72,21.63,117.15a128.34,128.34,0,0,1,12.5-23.67c-8.34-14.08-10.82-33.31,4-58.35,10.8,29.16,15.86,71.72,16.92,90.55a40.49,40.49,0,0,1-3.17,18.11l-.27.62a2.15,2.15,0,0,0,1.51,2.93c29.18,6.55,59.52,4.77,68.59,4a3.73,3.73,0,0,0,3.33-2.85c14.19-59.78,14.22-100.56,10.75-126.34C377.55,1106.83,418.13,1113.16,450.41,1089.14Z"/><path class="cls-108" d="M361.42,1099.9h.17a1.22,1.22,0,0,0,1-1.37c-2.59-19.56-7.79-28-8-28.29a1.22,1.22,0,1,0-2.06,1.3c.05.08,5.15,8.36,7.66,27.31A1.22,1.22,0,0,0,361.42,1099.9Z"/><path class="cls-109" d="M292.39,1009.94s-3,38.45-5.61,47.69a3.16,3.16,0,0,0,1.49,3.6c4.41,2.52,15,6.63,29.46-.46a6.57,6.57,0,0,0,3.64-6.18l-1.27-30.16Z"/><path class="cls-110" d="M496.66,1017.35a1.62,1.62,0,0,0,1.25-.6c3.88-4.78,10.5-12.36,12.8-13.65,2-1.15,3.18-2.44,3.53-3.94a5,5,0,0,0-.93-4,1.61,1.61,0,0,0-1.65-.68l-11.81,2.36a1.67,1.67,0,0,0-.73.36l-6.28,5.38a1.61,1.61,0,0,0,2.1,2.45l6-5.11,10.19-2a.91.91,0,0,1,0,.52c-.13.56-.84,1.22-2,1.87-3.56,2-12.68,13.17-13.71,14.43a1.61,1.61,0,0,0,1.25,2.63Z"/><path class="cls-111" d="M295.12,1220.16l42.6-.92s-37.15-10.51-39.45-7.65c0,0-23-15.13-35.65-36.41a128.34,128.34,0,0,0-12.5,23.67C261.43,1205.49,276.28,1217,295.12,1220.16Z"/><path class="cls-112" d="M293.92,1212.79s-.88,17,21.4,14.5c12.11-1.33,31.66-12.63,31.66-12.63S296,1214.53,293.92,1212.79Z"/><path class="cls-113" d="M302.64,1217.34h.25l105.92-.11a4.69,4.69,0,1,0,0-9.38l-105.92.11a4.69,4.69,0,0,0-.24,9.38Z"/><path class="cls-114" d="M504,1122.18H415.82a16.84,16.84,0,0,0-15.21,9.54l-40.78,85.56H469.46a10.21,10.21,0,0,0,9.5-6.39l31.63-79.18A7,7,0,0,0,504,1122.18Z"/><path class="cls-115" d="M321,968.18c.51.59,18.86,49,18.86,49L312,1027.06l-24.21-43.28S312.44,958.21,321,968.18Z"/><path class="cls-116" d="M299.12,989.64l11,23.79a3.78,3.78,0,0,0,.53.83c1.34,1.57,6.32,6.62,11.17,1.2,4.41-4.91,8.5-9.32,12.55-10.43a3.66,3.66,0,0,1,4.39,2.23,159.14,159.14,0,0,1,7,23.52,3.64,3.64,0,0,1-2.59,4.19c-5.47,1.58-17.11,4.57-27,4.79a3.65,3.65,0,0,1-3.26-1.83c-3.27-5.69-13.27-22.94-16.8-27.31-3.31-4.11-10.43-3.33-13.39-2.78a3.61,3.61,0,0,1-2.76-.63c-2.83-2.05-8.35-7.44-2-15.1a3.66,3.66,0,0,0-.57-5.24c-3.27-2.55-6.95-7.27-2.51-14s11.32-6.4,15.57-5.28a3.67,3.67,0,0,0,4.24-2,2.89,2.89,0,0,1,2.84-1.66,3.61,3.61,0,0,0,3.49-4c-.45-4,.53-9.29,7.35-12.13,12.1-5,21,6.29,22.59,15.2s-11.83,13.63-20,13.77c-6.19.11-10.19,6.63-11.76,9.74A3.66,3.66,0,0,0,299.12,989.64Z"/><path class="cls-117" d="M300.12,1019.24s-3.46-15.41-10-15.58-12.38,5.76-5.12,13.92C294,1027.72,300.12,1019.24,300.12,1019.24Z"/></g></svg>